<svg width="3659" height="4002" viewBox="0 0 3659 4002" fill="none" xmlns="http://www.w3.org/2000/svg">
<path d="M16.1455 145H60.3955C94.1455 145 117.096 123.7 117.096 92.5C117.096 61.3 94.1455 40 60.3955 40H16.1455V145ZM31.1455 131.95V53.05H59.4955C85.4455 53.05 102.096 68.95 102.096 92.5C102.096 116.05 85.4455 131.95 59.4955 131.95H31.1455ZM166.921 64.75C154.171 64.75 142.321 68.35 134.071 74.95L140.071 85.75C146.221 80.5 155.821 77.2 165.271 77.2C179.521 77.2 186.571 84.25 186.571 96.4V99.25H163.771C140.071 99.25 131.821 109.75 131.821 122.5C131.821 136.3 143.221 145.9 161.221 145.9C173.671 145.9 182.521 141.7 187.321 134.5V145H200.971V97C200.971 75.25 188.671 64.75 166.921 64.75ZM163.621 134.8C152.671 134.8 146.071 129.85 146.071 121.9C146.071 115.15 150.121 109.6 164.371 109.6H186.571V120.7C182.971 129.85 174.421 134.8 163.621 134.8ZM250.42 145.9C271.57 145.9 284.77 136.75 284.77 122.35C284.77 91.45 234.37 106.75 234.37 88C234.37 81.7 240.52 77.05 253.12 77.05C260.92 77.05 268.87 78.7 276.07 83.35L282.22 71.95C275.32 67.45 263.62 64.75 253.27 64.75C232.87 64.75 220.12 74.35 220.12 88.6C220.12 120.25 270.37 104.8 270.37 122.65C270.37 129.4 264.82 133.45 251.47 133.45C241.12 133.45 230.32 130 223.57 125.2L217.57 136.6C224.17 141.85 237.22 145.9 250.42 145.9ZM345.216 64.75C333.066 64.75 323.166 69.1 317.166 76.75V33.7H302.766V145H317.166V104.05C317.166 86.8 327.066 77.65 342.366 77.65C356.016 77.65 363.816 85.3 363.816 100.9V145H378.216V99.25C378.216 75.85 364.566 64.75 345.216 64.75ZM447.016 64.75C435.766 64.75 425.866 68.95 419.266 77.5V33.7H404.866V145H418.666V132.4C425.116 141.4 435.316 145.9 447.016 145.9C470.266 145.9 487.216 129.55 487.216 105.25C487.216 80.95 470.266 64.75 447.016 64.75ZM445.816 133.3C430.666 133.3 419.116 122.2 419.116 105.25C419.116 88.3 430.666 77.35 445.816 77.35C461.116 77.35 472.666 88.3 472.666 105.25C472.666 122.2 461.116 133.3 445.816 133.3ZM541.162 145.9C565.012 145.9 582.412 128.95 582.412 105.25C582.412 81.55 565.012 64.75 541.162 64.75C517.312 64.75 499.762 81.55 499.762 105.25C499.762 128.95 517.312 145.9 541.162 145.9ZM541.162 133.3C525.862 133.3 514.312 122.2 514.312 105.25C514.312 88.3 525.862 77.35 541.162 77.35C556.462 77.35 567.862 88.3 567.862 105.25C567.862 122.2 556.462 133.3 541.162 133.3ZM630.544 64.75C617.794 64.75 605.944 68.35 597.694 74.95L603.694 85.75C609.844 80.5 619.444 77.2 628.894 77.2C643.144 77.2 650.194 84.25 650.194 96.4V99.25H627.394C603.694 99.25 595.444 109.75 595.444 122.5C595.444 136.3 606.844 145.9 624.844 145.9C637.294 145.9 646.144 141.7 650.944 134.5V145H664.594V97C664.594 75.25 652.294 64.75 630.544 64.75ZM627.244 134.8C616.294 134.8 609.694 129.85 609.694 121.9C609.694 115.15 613.744 109.6 627.994 109.6H650.194V120.7C646.594 129.85 638.044 134.8 627.244 134.8ZM705.043 78.85V65.5H691.243V145H705.643V105.4C705.643 88 715.243 78.55 730.693 78.55C731.743 78.55 732.793 78.55 733.993 78.7V64.75C720.043 64.75 710.143 69.55 705.043 78.85ZM811.608 33.7V77.5C805.008 68.95 795.108 64.75 783.858 64.75C760.608 64.75 743.658 80.95 743.658 105.25C743.658 129.55 760.608 145.9 783.858 145.9C795.558 145.9 805.758 141.4 812.208 132.4V145H826.008V33.7H811.608ZM785.058 133.3C769.758 133.3 758.208 122.2 758.208 105.25C758.208 88.3 769.758 77.35 785.058 77.35C800.208 77.35 811.758 88.3 811.758 105.25C811.758 122.2 800.208 133.3 785.058 133.3Z" transform="translate(1437 2244)" fill="#4F4F4F"/>
<rect x="10" y="10" width="465" height="320" rx="20" transform="translate(1620 1585)" stroke="#7C4198" stroke-width="20"/>
<rect x="10" y="10" width="78" height="34" transform="translate(1817 1907)" stroke="#7C4198" stroke-width="20"/>
<rect x="10" y="10" width="182" height="34" rx="17" transform="translate(1765 1941)" stroke="#7C4198" stroke-width="20"/>
<line x1="10" y1="-10" x2="101" y2="-10" transform="translate(1734 1673)" stroke="#61C4B9" stroke-width="20" stroke-linecap="round"/>
<line x1="10" y1="-10" x2="162" y2="-10" transform="translate(1879 1811)" stroke="#ED2C75" stroke-width="20" stroke-linecap="round"/>
<line x1="10" y1="-10" x2="162" y2="-10" transform="translate(1879 1776)" stroke="#ED2C75" stroke-width="20" stroke-linecap="round"/>
<line x1="10" y1="-10" x2="162" y2="-10" transform="translate(1879 1849)" stroke="#ED2C75" stroke-width="20" stroke-linecap="round"/>
<line x1="10" y1="-10" x2="48" y2="-10" transform="translate(1993 1738)" stroke="#ED2C75" stroke-width="20" stroke-linecap="round"/>
<line x1="10" y1="-10" x2="48" y2="-10" transform="translate(1993 1703.5)" stroke="#ED2C75" stroke-width="20" stroke-linecap="round"/>
<line x1="10" y1="-10" x2="48" y2="-10" transform="translate(1993 1669)" stroke="#ED2C75" stroke-width="20" stroke-linecap="round"/>
<path d="M0 7L10.973 21L29 0" transform="translate(1680 1647)" stroke="#61C4B9" stroke-width="20" stroke-linecap="round"/>
<line x1="10" y1="-10" x2="101" y2="-10" transform="translate(1913 380)" stroke="#7C4198" stroke-width="20" stroke-linecap="round"/>
<path d="M0 7L10.973 21L29 0" transform="translate(1859 354)" stroke="#7C4198" stroke-width="20" stroke-linecap="round"/>
<line x1="10" y1="-10" x2="101" y2="-10" transform="translate(1913 438)" stroke="#7C4198" stroke-width="20" stroke-linecap="round"/>
<path d="M0 7L10.973 21L29 0" transform="translate(1859 412)" stroke="#7C4198" stroke-width="20" stroke-linecap="round"/>
<line x1="10" y1="-10" x2="101" y2="-10" transform="translate(1679 322)" stroke="#7C4198" stroke-width="20" stroke-linecap="round"/>
<path d="M0 7L10.973 21L29 0" transform="translate(1625 296)" stroke="#7C4198" stroke-width="20" stroke-linecap="round"/>
<line x1="10" y1="-10" x2="101" y2="-10" transform="translate(1679 380)" stroke="#7C4198" stroke-width="20" stroke-linecap="round"/>
<path d="M0 7L10.973 21L29 0" transform="translate(1625 354)" stroke="#7C4198" stroke-width="20" stroke-linecap="round"/>
<line x1="10" y1="-10" x2="101" y2="-10" transform="translate(1734 1731)" stroke="#61C4B9" stroke-width="20" stroke-linecap="round"/>
<path d="M0 7L10.973 21L29 0" transform="translate(1680 1705)" stroke="#61C4B9" stroke-width="20" stroke-linecap="round"/>
<line x1="10" y1="-10" x2="101" y2="-10" transform="translate(1734 1791)" stroke="#61C4B9" stroke-width="20" stroke-linecap="round"/>
<path d="M0 7L10.973 21L29 0" transform="translate(1680 1765)" stroke="#61C4B9" stroke-width="20" stroke-linecap="round"/>
<line x1="10" y1="-10" x2="101" y2="-10" transform="translate(1734 1849)" stroke="#61C4B9" stroke-width="20" stroke-linecap="round"/>
<path d="M0 7L10.973 21L29 0" transform="translate(1680 1823)" stroke="#61C4B9" stroke-width="20" stroke-linecap="round"/>
<rect width="72" height="69" transform="translate(1888 1659)" stroke="#ED2C75" stroke-width="20" stroke-linecap="round" stroke-linejoin="round"/>
<circle cx="400" cy="400" r="390" transform="translate(1463 2766)" stroke="#61C4B9" stroke-width="20"/>
<path d="M15.8926 145H60.1426C93.8926 145 116.843 123.7 116.843 92.5C116.843 61.3 93.8926 40 60.1426 40H15.8926V145ZM30.8926 131.95V53.05H59.2426C85.1926 53.05 101.843 68.95 101.843 92.5C101.843 116.05 85.1926 131.95 59.2426 131.95H30.8926ZM209.568 105.7C209.568 81.25 193.218 64.75 170.268 64.75C147.318 64.75 130.368 81.7 130.368 105.25C130.368 128.95 147.468 145.9 173.118 145.9C186.318 145.9 197.268 141.4 204.468 133L196.518 123.7C190.668 130.15 182.868 133.3 173.568 133.3C157.818 133.3 146.568 124 144.768 110.05H209.268C209.418 108.7 209.568 106.9 209.568 105.7ZM170.268 76.9C184.218 76.9 194.268 86.35 195.768 99.7H144.768C146.268 86.2 156.468 76.9 170.268 76.9ZM264.214 145.9C278.464 145.9 290.314 139.9 296.614 128.8L285.664 121.9C280.564 129.7 272.764 133.3 264.064 133.3C248.464 133.3 236.764 122.5 236.764 105.25C236.764 88.3 248.464 77.35 264.064 77.35C272.764 77.35 280.564 80.95 285.664 88.75L296.614 81.7C290.314 70.6 278.464 64.75 264.214 64.75C239.764 64.75 222.214 81.55 222.214 105.25C222.214 128.95 239.764 145.9 264.214 145.9ZM322.457 50.2C328.157 50.2 332.207 46 332.207 40.6C332.207 35.5 328.007 31.45 322.457 31.45C316.907 31.45 312.707 35.65 312.707 40.9C312.707 46.15 316.907 50.2 322.457 50.2ZM315.257 145H329.657V65.5H315.257V145ZM379.952 145.9C401.102 145.9 414.302 136.75 414.302 122.35C414.302 91.45 363.902 106.75 363.902 88C363.902 81.7 370.052 77.05 382.652 77.05C390.452 77.05 398.402 78.7 405.602 83.35L411.752 71.95C404.852 67.45 393.152 64.75 382.802 64.75C362.402 64.75 349.652 74.35 349.652 88.6C349.652 120.25 399.902 104.8 399.902 122.65C399.902 129.4 394.352 133.45 381.002 133.45C370.652 133.45 359.852 130 353.102 125.2L347.102 136.6C353.702 141.85 366.752 145.9 379.952 145.9ZM439.498 50.2C445.198 50.2 449.248 46 449.248 40.6C449.248 35.5 445.048 31.45 439.498 31.45C433.948 31.45 429.748 35.65 429.748 40.9C429.748 46.15 433.948 50.2 439.498 50.2ZM432.298 145H446.698V65.5H432.298V145ZM508.243 145.9C532.093 145.9 549.493 128.95 549.493 105.25C549.493 81.55 532.093 64.75 508.243 64.75C484.393 64.75 466.843 81.55 466.843 105.25C466.843 128.95 484.393 145.9 508.243 145.9ZM508.243 133.3C492.943 133.3 481.393 122.2 481.393 105.25C481.393 88.3 492.943 77.35 508.243 77.35C523.543 77.35 534.943 88.3 534.943 105.25C534.943 122.2 523.543 133.3 508.243 133.3ZM611.858 64.75C599.258 64.75 589.058 69.4 583.208 77.5V65.5H569.408V145H583.808V104.05C583.808 86.8 593.708 77.65 609.008 77.65C622.658 77.65 630.458 85.3 630.458 100.9V145H644.858V99.25C644.858 75.85 631.208 64.75 611.858 64.75ZM111.036 329.2C127.386 329.2 141.486 323.5 151.086 312.7L141.336 303.25C133.236 311.8 123.336 315.85 111.786 315.85C88.0859 315.85 70.5359 298.75 70.5359 275.5C70.5359 252.25 88.0859 235.15 111.786 235.15C123.336 235.15 133.236 239.05 141.336 247.6L151.086 238.15C141.486 227.35 127.386 221.8 111.186 221.8C79.2359 221.8 55.5359 244.45 55.5359 275.5C55.5359 306.55 79.2359 329.2 111.036 329.2ZM201.065 328.9C224.915 328.9 242.315 311.95 242.315 288.25C242.315 264.55 224.915 247.75 201.065 247.75C177.215 247.75 159.665 264.55 159.665 288.25C159.665 311.95 177.215 328.9 201.065 328.9ZM201.065 316.3C185.765 316.3 174.215 305.2 174.215 288.25C174.215 271.3 185.765 260.35 201.065 260.35C216.365 260.35 227.765 271.3 227.765 288.25C227.765 305.2 216.365 316.3 201.065 316.3ZM304.68 247.75C292.08 247.75 281.88 252.4 276.03 260.5V248.5H262.23V328H276.63V287.05C276.63 269.8 286.53 260.65 301.83 260.65C315.48 260.65 323.28 268.3 323.28 283.9V328H337.68V282.25C337.68 258.85 324.03 247.75 304.68 247.75ZM404.53 313C401.53 315.4 397.48 316.75 393.28 316.75C385.33 316.75 380.83 311.95 380.83 303.4V260.35H403.63V248.5H380.83V231.1H366.43V248.5H352.93V260.35H366.43V304C366.43 320.05 375.58 328.9 391.63 328.9C398.08 328.9 404.68 327.1 409.03 323.35L404.53 313ZM440.239 261.85V248.5H426.439V328H440.839V288.4C440.839 271 450.439 261.55 465.889 261.55C466.939 261.55 467.989 261.55 469.189 261.7V247.75C455.239 247.75 445.339 252.55 440.239 261.85ZM520.255 328.9C544.105 328.9 561.505 311.95 561.505 288.25C561.505 264.55 544.105 247.75 520.255 247.75C496.405 247.75 478.855 264.55 478.855 288.25C478.855 311.95 496.405 328.9 520.255 328.9ZM520.255 316.3C504.955 316.3 493.405 305.2 493.405 288.25C493.405 271.3 504.955 260.35 520.255 260.35C535.555 260.35 546.955 271.3 546.955 288.25C546.955 305.2 535.555 316.3 520.255 316.3ZM581.42 328H595.82V216.7H581.42V328Z" transform="translate(1537 3636)" fill="#61C4B9"/>
<circle cx="400" cy="400" r="390" transform="translate(2859 1390)" stroke="#61C4B9" stroke-width="20"/>
<path d="M127.746 145L127.596 40H115.296L72.0961 113.8L28.2961 40H15.9961V145H30.3961V68.95L68.3461 132.25H75.2461L113.196 68.5L113.346 145H127.746ZM186.108 64.75C173.358 64.75 161.508 68.35 153.258 74.95L159.258 85.75C165.408 80.5 175.008 77.2 184.458 77.2C198.708 77.2 205.758 84.25 205.758 96.4V99.25H182.958C159.258 99.25 151.008 109.75 151.008 122.5C151.008 136.3 162.408 145.9 180.408 145.9C192.858 145.9 201.708 141.7 206.508 134.5V145H220.158V97C220.158 75.25 207.858 64.75 186.108 64.75ZM182.808 134.8C171.858 134.8 165.258 129.85 165.258 121.9C165.258 115.15 169.308 109.6 183.558 109.6H205.758V120.7C202.158 129.85 193.608 134.8 182.808 134.8ZM289.256 64.75C276.656 64.75 266.456 69.4 260.606 77.5V65.5H246.806V145H261.206V104.05C261.206 86.8 271.106 77.65 286.406 77.65C300.056 77.65 307.856 85.3 307.856 100.9V145H322.256V99.25C322.256 75.85 308.606 64.75 289.256 64.75ZM377.856 64.75C365.106 64.75 353.256 68.35 345.006 74.95L351.006 85.75C357.156 80.5 366.756 77.2 376.206 77.2C390.456 77.2 397.506 84.25 397.506 96.4V99.25H374.706C351.006 99.25 342.756 109.75 342.756 122.5C342.756 136.3 354.156 145.9 372.156 145.9C384.606 145.9 393.456 141.7 398.256 134.5V145H411.906V97C411.906 75.25 399.606 64.75 377.856 64.75ZM374.556 134.8C363.606 134.8 357.006 129.85 357.006 121.9C357.006 115.15 361.056 109.6 375.306 109.6H397.506V120.7C393.906 129.85 385.356 134.8 374.556 134.8ZM501.394 65.5V77.8C494.644 69.1 483.844 64.75 471.994 64.75C449.044 64.75 431.644 80.2 431.644 103.15C431.644 126.1 449.044 141.7 471.994 141.7C483.394 141.7 493.744 137.65 500.644 129.4V135.7C500.644 153.7 492.094 162.4 473.344 162.4C461.644 162.4 450.094 158.35 442.744 152.05L435.844 163.15C444.544 170.95 459.244 175 473.794 175C500.794 175 515.044 162.25 515.044 134.2V65.5H501.394ZM473.644 129.1C457.594 129.1 446.194 118.45 446.194 103.15C446.194 87.7 457.594 77.35 473.644 77.35C489.544 77.35 500.944 87.7 500.944 103.15C500.944 118.45 489.544 129.1 473.644 129.1ZM614.408 105.7C614.408 81.25 598.058 64.75 575.108 64.75C552.158 64.75 535.208 81.7 535.208 105.25C535.208 128.95 552.308 145.9 577.958 145.9C591.158 145.9 602.108 141.4 609.308 133L601.358 123.7C595.508 130.15 587.708 133.3 578.408 133.3C562.658 133.3 551.408 124 549.608 110.05H614.108C614.258 108.7 614.408 106.9 614.408 105.7ZM575.108 76.9C589.058 76.9 599.108 86.35 600.608 99.7H549.608C551.108 86.2 561.308 76.9 575.108 76.9ZM137.629 328L112.729 292.75C127.429 287.5 135.829 275.8 135.829 259.6C135.829 236.8 119.329 223 92.0291 223H51.0791V328H66.0791V296.05H92.0291C94.2791 296.05 96.5291 295.9 98.6291 295.75L121.279 328H137.629ZM91.5791 283.3H66.0791V236.05H91.5791C110.779 236.05 120.829 244.6 120.829 259.6C120.829 274.6 110.779 283.3 91.5791 283.3ZM229.813 288.7C229.813 264.25 213.463 247.75 190.513 247.75C167.563 247.75 150.613 264.7 150.613 288.25C150.613 311.95 167.713 328.9 193.363 328.9C206.563 328.9 217.513 324.4 224.713 316L216.763 306.7C210.913 313.15 203.113 316.3 193.813 316.3C178.063 316.3 166.813 307 165.013 293.05H229.513C229.663 291.7 229.813 289.9 229.813 288.7ZM190.513 259.9C204.463 259.9 214.513 269.35 216.013 282.7H165.013C166.513 269.2 176.713 259.9 190.513 259.9ZM304.594 248.5L276.694 312.25L249.394 248.5H234.394L269.194 328H283.894L318.694 248.5H304.594ZM339.333 233.2C345.033 233.2 349.083 229 349.083 223.6C349.083 218.5 344.883 214.45 339.333 214.45C333.783 214.45 329.583 218.65 329.583 223.9C329.583 229.15 333.783 233.2 339.333 233.2ZM332.133 328H346.533V248.5H332.133V328ZM445.878 288.7C445.878 264.25 429.528 247.75 406.578 247.75C383.628 247.75 366.678 264.7 366.678 288.25C366.678 311.95 383.778 328.9 409.428 328.9C422.628 328.9 433.578 324.4 440.778 316L432.828 306.7C426.978 313.15 419.178 316.3 409.878 316.3C394.128 316.3 382.878 307 381.078 293.05H445.578C445.728 291.7 445.878 289.9 445.878 288.7ZM406.578 259.9C420.528 259.9 430.578 269.35 432.078 282.7H381.078C382.578 269.2 392.778 259.9 406.578 259.9ZM571.809 248.5L548.109 312.1L524.559 248.5H512.409L488.409 311.8L465.309 248.5H451.659L481.209 328H495.009L518.259 267.7L541.209 328H555.009L584.709 248.5H571.809Z" transform="translate(2952 2260)" fill="#61C4B9"/>
<circle cx="400" cy="400" r="390" transform="translate(40 747)" stroke="#ED2C75" stroke-width="20"/>
<path d="M46.4418 146.2C74.1918 146.2 87.0918 132.4 87.0918 116.35C87.0918 77.8 23.4918 93.85 23.4918 68.2C23.4918 59.05 31.1418 51.55 48.9918 51.55C58.2918 51.55 68.6418 54.25 77.7918 60.1L82.7418 48.1C74.0418 42.1 61.2918 38.8 48.9918 38.8C21.3918 38.8 8.7918 52.6 8.7918 68.8C8.7918 107.8 72.3918 91.6 72.3918 117.25C72.3918 126.4 64.5918 133.45 46.4418 133.45C32.9418 133.45 19.5918 128.35 11.7918 121.3L6.2418 133C14.6418 140.8 30.3918 146.2 46.4418 146.2ZM166.606 65.5V106.6C166.606 123.7 157.006 133 142.006 133C128.356 133 120.556 125.2 120.556 109.6V65.5H106.156V111.25C106.156 134.65 119.806 145.9 140.356 145.9C151.606 145.9 161.506 141.25 167.356 133V145H181.006V65.5H166.606ZM250.57 64.75C239.32 64.75 229.42 68.95 222.82 77.5V33.7H208.42V145H222.22V132.4C228.67 141.4 238.87 145.9 250.57 145.9C273.82 145.9 290.77 129.55 290.77 105.25C290.77 80.95 273.82 64.75 250.57 64.75ZM249.37 133.3C234.22 133.3 222.67 122.2 222.67 105.25C222.67 88.3 234.22 77.35 249.37 77.35C264.67 77.35 276.22 88.3 276.22 105.25C276.22 122.2 264.67 133.3 249.37 133.3ZM410.116 64.75C396.616 64.75 385.516 70.45 379.516 79.45C374.266 69.55 364.066 64.75 351.916 64.75C339.916 64.75 330.166 69.25 324.466 77.35V65.5H310.666V145H325.066V104.05C325.066 86.8 334.516 77.65 348.916 77.65C361.966 77.65 369.466 85.3 369.466 100.9V145H383.866V104.05C383.866 86.8 393.316 77.65 407.716 77.65C420.766 77.65 428.266 85.3 428.266 100.9V145H442.666V99.25C442.666 75.85 429.466 64.75 410.116 64.75ZM476.362 50.2C482.062 50.2 486.112 46 486.112 40.6C486.112 35.5 481.912 31.45 476.362 31.45C470.812 31.45 466.612 35.65 466.612 40.9C466.612 46.15 470.812 50.2 476.362 50.2ZM469.162 145H483.562V65.5H469.162V145ZM533.856 145.9C555.006 145.9 568.206 136.75 568.206 122.35C568.206 91.45 517.806 106.75 517.806 88C517.806 81.7 523.956 77.05 536.556 77.05C544.356 77.05 552.306 78.7 559.506 83.35L565.656 71.95C558.756 67.45 547.056 64.75 536.706 64.75C516.306 64.75 503.556 74.35 503.556 88.6C503.556 120.25 553.806 104.8 553.806 122.65C553.806 129.4 548.256 133.45 534.906 133.45C524.556 133.45 513.756 130 507.006 125.2L501.006 136.6C507.606 141.85 520.656 145.9 533.856 145.9ZM609.003 145.9C630.153 145.9 643.353 136.75 643.353 122.35C643.353 91.45 592.953 106.75 592.953 88C592.953 81.7 599.103 77.05 611.703 77.05C619.503 77.05 627.453 78.7 634.653 83.35L640.803 71.95C633.903 67.45 622.203 64.75 611.853 64.75C591.453 64.75 578.703 74.35 578.703 88.6C578.703 120.25 628.953 104.8 628.953 122.65C628.953 129.4 623.403 133.45 610.053 133.45C599.703 133.45 588.903 130 582.153 125.2L576.153 136.6C582.753 141.85 595.803 145.9 609.003 145.9ZM668.549 50.2C674.249 50.2 678.299 46 678.299 40.6C678.299 35.5 674.099 31.45 668.549 31.45C662.999 31.45 658.799 35.65 658.799 40.9C658.799 46.15 662.999 50.2 668.549 50.2ZM661.349 145H675.749V65.5H661.349V145ZM737.294 145.9C761.144 145.9 778.544 128.95 778.544 105.25C778.544 81.55 761.144 64.75 737.294 64.75C713.444 64.75 695.894 81.55 695.894 105.25C695.894 128.95 713.444 145.9 737.294 145.9ZM737.294 133.3C721.994 133.3 710.444 122.2 710.444 105.25C710.444 88.3 721.994 77.35 737.294 77.35C752.594 77.35 763.994 88.3 763.994 105.25C763.994 122.2 752.594 133.3 737.294 133.3ZM840.909 64.75C828.309 64.75 818.109 69.4 812.259 77.5V65.5H798.459V145H812.859V104.05C812.859 86.8 822.759 77.65 838.059 77.65C851.709 77.65 859.509 85.3 859.509 100.9V145H873.909V99.25C873.909 75.85 860.259 64.75 840.909 64.75Z" transform="translate(0 1617)" fill="#ED2C75"/>
<circle cx="400" cy="400" r="390" transform="translate(40 2029)" stroke="#ED2C75" stroke-width="20"/>
<path d="M127.944 145L127.794 40H115.494L72.2943 113.8L28.4943 40H16.1943V145H30.5943V68.95L68.5443 132.25H75.4443L113.394 68.5L113.544 145H127.944ZM186.306 64.75C173.556 64.75 161.706 68.35 153.456 74.95L159.456 85.75C165.606 80.5 175.206 77.2 184.656 77.2C198.906 77.2 205.956 84.25 205.956 96.4V99.25H183.156C159.456 99.25 151.206 109.75 151.206 122.5C151.206 136.3 162.606 145.9 180.606 145.9C193.056 145.9 201.906 141.7 206.706 134.5V145H220.356V97C220.356 75.25 208.056 64.75 186.306 64.75ZM183.006 134.8C172.056 134.8 165.456 129.85 165.456 121.9C165.456 115.15 169.506 109.6 183.756 109.6H205.956V120.7C202.356 129.85 193.806 134.8 183.006 134.8ZM289.454 64.75C276.854 64.75 266.654 69.4 260.804 77.5V65.5H247.004V145H261.404V104.05C261.404 86.8 271.304 77.65 286.604 77.65C300.254 77.65 308.054 85.3 308.054 100.9V145H322.454V99.25C322.454 75.85 308.804 64.75 289.454 64.75ZM408.804 65.5V106.6C408.804 123.7 399.204 133 384.204 133C370.554 133 362.754 125.2 362.754 109.6V65.5H348.354V111.25C348.354 134.65 362.004 145.9 382.554 145.9C393.804 145.9 403.704 141.25 409.554 133V145H423.204V65.5H408.804ZM473.418 145.9C494.568 145.9 507.768 136.75 507.768 122.35C507.768 91.45 457.368 106.75 457.368 88C457.368 81.7 463.518 77.05 476.118 77.05C483.918 77.05 491.868 78.7 499.068 83.35L505.218 71.95C498.318 67.45 486.618 64.75 476.268 64.75C455.868 64.75 443.118 74.35 443.118 88.6C443.118 120.25 493.368 104.8 493.368 122.65C493.368 129.4 487.818 133.45 474.468 133.45C464.118 133.45 453.318 130 446.568 125.2L440.568 136.6C447.168 141.85 460.218 145.9 473.418 145.9ZM560.414 145.9C574.664 145.9 586.514 139.9 592.814 128.8L581.864 121.9C576.764 129.7 568.964 133.3 560.264 133.3C544.664 133.3 532.964 122.5 532.964 105.25C532.964 88.3 544.664 77.35 560.264 77.35C568.964 77.35 576.764 80.95 581.864 88.75L592.814 81.7C586.514 70.6 574.664 64.75 560.414 64.75C535.964 64.75 518.414 81.55 518.414 105.25C518.414 128.95 535.964 145.9 560.414 145.9ZM625.258 78.85V65.5H611.458V145H625.858V105.4C625.858 88 635.458 78.55 650.908 78.55C651.958 78.55 653.008 78.55 654.208 78.7V64.75C640.258 64.75 630.358 69.55 625.258 78.85ZM679.156 50.2C684.856 50.2 688.906 46 688.906 40.6C688.906 35.5 684.706 31.45 679.156 31.45C673.606 31.45 669.406 35.65 669.406 40.9C669.406 46.15 673.606 50.2 679.156 50.2ZM671.956 145H686.356V65.5H671.956V145ZM756 64.75C744.3 64.75 734.1 69.25 727.65 78.1V65.5H713.85V174.1H728.25V133C734.85 141.55 744.75 145.9 756 145.9C779.25 145.9 796.2 129.7 796.2 105.25C796.2 80.95 779.25 64.75 756 64.75ZM754.8 133.3C739.65 133.3 728.1 122.2 728.1 105.25C728.1 88.45 739.65 77.35 754.8 77.35C770.1 77.35 781.65 88.45 781.65 105.25C781.65 122.2 770.1 133.3 754.8 133.3ZM856.296 130C853.296 132.4 849.246 133.75 845.046 133.75C837.096 133.75 832.596 128.95 832.596 120.4V77.35H855.396V65.5H832.596V48.1H818.196V65.5H804.696V77.35H818.196V121C818.196 137.05 827.346 145.9 843.396 145.9C849.846 145.9 856.446 144.1 860.796 140.35L856.296 130Z" transform="translate(11 2899)" fill="#ED2C75"/>
<rect x="10" y="10" width="264" height="381" rx="20" transform="translate(257 2180)" stroke="#ED2C75" stroke-width="20"/>
<path d="M246 0H254C270.569 0 284 13.4315 284 30V371C284 387.569 270.569 401 254 401H30C13.4315 401 0 387.569 0 371V363" transform="translate(285 2206)" stroke="#ED2C75" stroke-width="20"/>
<path d="M246 0H254C270.569 0 284 13.4315 284 30V371C284 387.569 270.569 401 254 401H30C13.4315 401 0 387.569 0 371V363" transform="translate(321 2242)" stroke="#ED2C75" stroke-width="20"/>
<line x1="10" y1="-10" x2="162" y2="-10" transform="translate(313 2407)" stroke="#ED2C75" stroke-width="20" stroke-linecap="round"/>
<line x1="10" y1="-10" x2="162" y2="-10" transform="translate(313 2371)" stroke="#ED2C75" stroke-width="20" stroke-linecap="round"/>
<line x1="10" y1="-10" x2="162" y2="-10" transform="translate(313 2444)" stroke="#ED2C75" stroke-width="20" stroke-linecap="round"/>
<line x1="10" y1="-10" x2="162" y2="-10" transform="translate(313 2481)" stroke="#ED2C75" stroke-width="20" stroke-linecap="round"/>
<line x1="10" y1="-10" x2="162" y2="-10" transform="translate(313 2444)" stroke="#ED2C75" stroke-width="20" stroke-linecap="round"/>
<line x1="10" y1="-10" x2="162" y2="-10" transform="translate(313 2481)" stroke="#ED2C75" stroke-width="20" stroke-linecap="round"/>
<line x1="10" y1="-10" x2="162" y2="-10" transform="translate(313 2519)" stroke="#ED2C75" stroke-width="20" stroke-linecap="round"/>
<line x1="10" y1="-10" x2="48" y2="-10" transform="translate(427 2333)" stroke="#ED2C75" stroke-width="20" stroke-linecap="round"/>
<line x1="10" y1="-10" x2="48" y2="-10" transform="translate(427 2298.5)" stroke="#ED2C75" stroke-width="20" stroke-linecap="round"/>
<line x1="10" y1="-10" x2="48" y2="-10" transform="translate(427 2264)" stroke="#ED2C75" stroke-width="20" stroke-linecap="round"/>
<rect width="72" height="69" transform="translate(322 2254)" stroke="#ED2C75" stroke-width="20" stroke-linecap="round" stroke-linejoin="round"/>
<circle cx="400" cy="400" r="390" transform="translate(1439)" stroke="#7C4198" stroke-width="20"/>
<path d="M102.629 145L77.7291 109.75C92.4291 104.5 100.829 92.8 100.829 76.6C100.829 53.8 84.3291 40 57.0291 40H16.0791V145H31.0791V113.05H57.0291C59.2791 113.05 61.5291 112.9 63.6291 112.75L86.2791 145H102.629ZM56.5791 100.3H31.0791V53.05H56.5791C75.7791 53.05 85.8291 61.6 85.8291 76.6C85.8291 91.6 75.7791 100.3 56.5791 100.3ZM194.813 105.7C194.813 81.25 178.463 64.75 155.513 64.75C132.563 64.75 115.613 81.7 115.613 105.25C115.613 128.95 132.713 145.9 158.363 145.9C171.563 145.9 182.513 141.4 189.713 133L181.763 123.7C175.913 130.15 168.113 133.3 158.813 133.3C143.063 133.3 131.813 124 130.013 110.05H194.513C194.663 108.7 194.813 106.9 194.813 105.7ZM155.513 76.9C169.463 76.9 179.513 86.35 181.013 99.7H130.013C131.513 86.2 141.713 76.9 155.513 76.9ZM269.594 65.5L241.694 129.25L214.394 65.5H199.394L234.194 145H248.894L283.694 65.5H269.594ZM304.333 50.2C310.033 50.2 314.083 46 314.083 40.6C314.083 35.5 309.883 31.45 304.333 31.45C298.783 31.45 294.583 35.65 294.583 40.9C294.583 46.15 298.783 50.2 304.333 50.2ZM297.133 145H311.533V65.5H297.133V145ZM410.878 105.7C410.878 81.25 394.528 64.75 371.578 64.75C348.628 64.75 331.678 81.7 331.678 105.25C331.678 128.95 348.778 145.9 374.428 145.9C387.628 145.9 398.578 141.4 405.778 133L397.828 123.7C391.978 130.15 384.178 133.3 374.878 133.3C359.128 133.3 347.878 124 346.078 110.05H410.578C410.728 108.7 410.878 106.9 410.878 105.7ZM371.578 76.9C385.528 76.9 395.578 86.35 397.078 99.7H346.078C347.578 86.2 357.778 76.9 371.578 76.9ZM536.809 65.5L513.109 129.1L489.559 65.5H477.409L453.409 128.8L430.309 65.5H416.659L446.209 145H460.009L483.259 84.7L506.209 145H520.009L549.709 65.5H536.809Z" transform="translate(1567 857)" fill="#7C4198"/>
<line y1="-10" x2="609" y2="-10" transform="translate(2859 1776) rotate(180)" stroke="#61C4B9" stroke-width="20"/>
<line y1="-10" x2="777.618" y2="-10" transform="translate(1508 1617) rotate(-157.227)" stroke="#ED2C75" stroke-width="20"/>
<line y1="-10" x2="783.95" y2="-10" transform="translate(1508 1968) rotate(156.149)" stroke="#ED2C75" stroke-width="20"/>
<line y1="-10" x2="270" y2="-10" transform="translate(1857 1120) rotate(90)" stroke="#4F4F4F" stroke-width="20"/>
<line y1="-10" x2="270" y2="-10" transform="translate(1857 2505) rotate(90)" stroke="#61C4B9" stroke-width="20"/>
<path d="M339.139 100.554C334.68 74.0879 321.561 49.9344 301.495 31.6051C279.201 11.2202 250.217 -3.26732e-07 220.033 -3.26732e-07C196.709 -3.26732e-07 173.986 6.68076 154.521 19.2714C138.314 29.7208 124.851 43.8532 115.333 60.4694C111.217 59.6986 106.93 59.2703 102.642 59.2703C66.1986 59.2703 36.5293 88.9055 36.5293 125.307C36.5293 130.018 37.0438 134.557 37.9013 139.011C14.3202 156.141 0 183.721 0 213.099C0 236.824 8.8322 259.864 24.9531 278.108C41.5028 296.78 63.3689 307.829 86.6928 309.113C86.95 309.113 87.1215 309.113 87.3788 309.113H161.123C167.555 309.113 172.7 303.974 172.7 297.551C172.7 291.127 167.555 285.988 161.123 285.988H87.7218C52.6502 283.847 23.1524 250.528 23.1524 213.013C23.1524 188.774 36.1863 166.162 57.1949 153.914C62.0827 151.088 64.1407 145.178 62.2542 139.868C60.5392 135.242 59.6817 130.36 59.6817 125.136C59.6817 101.496 78.9753 82.2247 102.642 82.2247C107.701 82.2247 112.675 83.0812 117.305 84.7942C122.965 86.8498 129.225 84.2803 131.797 78.8843C147.832 44.881 182.475 22.9544 220.119 22.9544C270.711 22.9544 312.471 60.812 317.273 111.003C317.788 116.228 321.732 120.425 326.877 121.281C365.036 127.791 393.848 162.993 393.848 203.164C393.848 245.732 360.32 282.733 318.988 285.902H255.791C249.36 285.902 244.215 291.041 244.215 297.465C244.215 303.889 249.36 309.028 255.791 309.028H319.417C319.674 309.028 319.932 309.028 320.275 309.028C346.428 307.144 370.867 295.152 389.046 275.11C407.139 255.239 417 229.715 417 203.164C416.914 155.113 384.072 112.374 339.139 100.554Z" transform="translate(231 954)" fill="#ED2C75"/>
<path d="M142.323 81.0256C146.868 76.4861 146.868 69.2058 142.323 64.6663L81.0119 3.42602C78.8681 1.28476 75.8669 -5.22771e-06 72.8657 -5.22771e-06C69.8644 -5.22771e-06 66.8632 1.1991 64.7195 3.42602L3.40854 64.6663C-1.13618 69.2058 -1.13618 76.4861 3.40854 81.0256C5.63803 83.2525 8.63926 84.4516 11.5547 84.4516C14.4702 84.4516 17.4715 83.3382 19.701 81.0256L61.2895 39.485V230.4C61.2895 236.824 66.4345 241.963 72.8657 241.963C79.2969 241.963 84.4419 236.824 84.4419 230.4V39.485L126.03 81.0256C130.489 85.5651 137.778 85.5651 142.323 81.0256Z" transform="translate(366.677 1097.04)" fill="#ED2C75"/>
<path d="M507.575 103.221C476.594 79.4208 435.573 66.3132 392.064 66.3132C365.757 66.3132 340.363 71.1139 317.546 80.1637C306.141 58.4385 287.114 39.1991 262.911 25.1983C234.415 8.71305 200.535 -2.84683e-06 164.937 -2.84683e-06C121.428 -2.84683e-06 80.4069 13.1077 49.4264 36.9079C17.5523 61.3918 0 94.2247 0 129.356C0 160.996 14.4627 191.11 40.8497 214.689L41.2987 291.768C41.3214 295.791 43.3607 299.695 46.938 301.529C51.1849 303.708 55.2351 303.187 58.2054 301.636L138.104 257.008C146.963 258.141 155.968 258.715 164.937 258.715C164.939 258.715 164.941 258.715 164.944 258.715C190.918 258.715 216.405 253.944 239.36 244.865C247.737 260.924 260.271 275.614 276.553 288.122C307.533 311.922 348.556 325.029 392.064 325.029C401.076 325.029 410.133 324.449 419.038 323.304L499.037 365.499C503.577 367.813 506.943 367.247 510.18 365.192C513.532 363.063 515.68 359.476 515.704 355.501L516.153 281.004C542.537 257.427 557 227.311 557 195.671C557 160.54 539.448 127.708 507.575 103.221ZM164.942 235.961C164.94 235.961 164.936 235.961 164.936 235.961C155.679 235.961 146.38 235.276 137.297 233.929C134.045 233.449 130.912 234.392 128.529 236.298L63.9186 272.388L63.5548 209.608C63.5594 209.381 63.5548 209.151 63.5435 208.921C63.3946 205.724 61.9088 202.738 59.4467 200.695C35.7742 181.034 22.7347 155.698 22.7347 129.356C22.7347 70.5736 86.5271 22.7513 164.937 22.7513C223.028 22.7513 275.549 49.9086 296.971 89.8733C289.782 93.855 282.95 98.3065 276.552 103.221C244.679 127.707 227.126 160.54 227.126 195.671C227.126 205.232 228.438 214.62 230.972 223.72C210.679 231.745 188.064 235.961 164.942 235.961ZM497.552 267.01C495.092 269.053 493.607 272.042 493.458 275.238C493.446 275.445 493.444 275.65 493.444 275.856L493.08 336.638L428.263 302.452C425.907 300.653 422.863 299.776 419.699 300.245C410.615 301.594 401.316 302.278 392.062 302.278C327.85 302.278 273.453 270.204 255.854 226.305C255.781 226.091 255.688 225.883 255.6 225.671C251.871 216.151 249.859 206.084 249.859 195.671C249.859 157.849 276.274 124.566 315.996 105.638C316.025 105.627 316.054 105.62 316.083 105.609C316.527 105.434 316.949 105.224 317.359 105C339.081 94.905 364.678 89.0656 392.062 89.0656C470.472 89.0656 534.264 136.889 534.264 195.671C534.265 222.013 521.226 247.349 497.552 267.01Z" transform="translate(1548 205)" fill="#7C4198"/>
<path d="M507.575 103.221C476.594 79.4208 435.573 66.3132 392.064 66.3132C365.757 66.3132 340.363 71.1139 317.546 80.1637C306.141 58.4385 287.114 39.1991 262.911 25.1983C234.415 8.71305 200.535 -2.84683e-06 164.937 -2.84683e-06C121.428 -2.84683e-06 80.4069 13.1077 49.4264 36.9079C17.5523 61.3918 0 94.2247 0 129.356C0 160.996 14.4627 191.11 40.8497 214.689L41.2987 291.768C41.3214 295.791 43.3607 299.695 46.938 301.529C51.1849 303.708 55.2351 303.187 58.2054 301.636L138.104 257.008C146.963 258.141 155.968 258.715 164.937 258.715C164.939 258.715 164.941 258.715 164.944 258.715C190.918 258.715 216.405 253.944 239.36 244.865C247.737 260.924 260.271 275.614 276.553 288.122C307.533 311.922 348.556 325.029 392.064 325.029C401.076 325.029 410.133 324.449 419.038 323.304L499.037 365.499C503.577 367.813 506.943 367.247 510.18 365.192C513.532 363.063 515.68 359.476 515.704 355.501L516.153 281.004C542.537 257.427 557 227.311 557 195.671C557 160.54 539.448 127.708 507.575 103.221ZM164.942 235.961C164.94 235.961 164.936 235.961 164.936 235.961C155.679 235.961 146.38 235.276 137.297 233.929C134.045 233.449 130.912 234.392 128.529 236.298L63.9186 272.388L63.5548 209.608C63.5594 209.381 63.5548 209.151 63.5435 208.921C63.3946 205.724 61.9088 202.738 59.4467 200.695C35.7742 181.034 22.7347 155.698 22.7347 129.356C22.7347 70.5736 86.5271 22.7513 164.937 22.7513C223.028 22.7513 275.549 49.9086 296.971 89.8733C289.782 93.855 282.95 98.3065 276.552 103.221C244.679 127.707 227.126 160.54 227.126 195.671C227.126 205.232 228.438 214.62 230.972 223.72C210.679 231.745 188.064 235.961 164.942 235.961ZM497.552 267.01C495.092 269.053 493.607 272.042 493.458 275.238C493.446 275.445 493.444 275.65 493.444 275.856L493.08 336.638L428.263 302.452C425.907 300.653 422.863 299.776 419.699 300.245C410.615 301.594 401.316 302.278 392.062 302.278C327.85 302.278 273.453 270.204 255.854 226.305C255.781 226.091 255.688 225.883 255.6 225.671C251.871 216.151 249.859 206.084 249.859 195.671C249.859 135.739 314.65 89.0656 392.062 89.0656C469.474 89.0656 534.265 136.889 534.265 195.671C534.265 222.013 521.226 247.349 497.552 267.01Z" transform="translate(1548 205)" fill="#7C4198"/>
<path d="M507.575 103.221C476.594 79.4208 435.573 66.3132 392.064 66.3132C365.757 66.3132 340.363 71.1139 317.546 80.1637C306.141 58.4385 287.114 39.1991 262.911 25.1983C234.415 8.71305 200.535 -2.84683e-06 164.937 -2.84683e-06C121.428 -2.84683e-06 80.4069 13.1077 49.4264 36.9079C17.5523 61.3918 0 94.2247 0 129.356C0 160.996 14.4627 191.11 40.8497 214.689L41.2987 291.768C41.3214 295.791 43.3607 299.695 46.938 301.529C51.1849 303.708 55.2351 303.187 58.2054 301.636L138.104 257.008C146.963 258.141 155.968 258.715 164.937 258.715C164.939 258.715 164.941 258.715 164.944 258.715C190.918 258.715 216.405 253.944 239.36 244.865C247.737 260.924 260.271 275.614 276.553 288.122C307.533 311.922 348.556 325.029 392.064 325.029C401.076 325.029 410.133 324.449 419.038 323.304L499.037 365.499C503.577 367.813 506.943 367.247 510.18 365.192C513.532 363.063 515.68 359.476 515.704 355.501L516.153 281.004C542.537 257.427 557 227.311 557 195.671C557 160.54 539.448 127.708 507.575 103.221ZM164.942 235.961C164.94 235.961 164.936 235.961 164.936 235.961C155.679 235.961 146.38 235.276 137.297 233.929C134.045 233.449 130.912 234.392 128.529 236.298L63.9186 272.388L63.5548 209.608C63.5594 209.381 63.5548 209.151 63.5435 208.921C63.3946 205.724 61.9088 202.738 59.4467 200.695C35.7742 181.034 22.7347 155.698 22.7347 129.356C22.7347 70.5736 86.5271 22.7513 164.937 22.7513C223.028 22.7513 275.549 49.9086 296.971 89.8733C289.782 93.855 282.95 98.3065 276.552 103.221C244.679 127.707 227.126 160.54 227.126 195.671C227.126 205.232 228.438 214.62 230.972 223.72C210.679 231.745 188.064 235.961 164.942 235.961ZM497.552 267.01C495.092 269.053 493.607 272.042 493.458 275.238C493.446 275.445 493.444 275.65 493.444 275.856L493.08 336.638L428.263 302.452C425.907 300.653 422.863 299.776 419.699 300.245C410.615 301.594 401.316 302.278 392.062 302.278C327.85 302.278 273.453 270.204 255.854 226.305C255.781 226.091 255.688 225.883 255.6 225.671C251.871 216.151 249.859 206.084 249.859 195.671C249.859 157.849 276.274 124.566 315.996 105.638C316.025 105.627 316.054 105.62 316.083 105.609C316.527 105.434 316.949 105.224 317.359 105C339.081 94.905 364.678 89.0656 392.062 89.0656C470.472 89.0656 534.264 136.889 534.264 195.671C534.265 222.013 521.226 247.349 497.552 267.01Z" transform="translate(2982 1601)" fill="#61C4B9"/>
<path d="M507.575 103.221C476.594 79.4208 435.573 66.3132 392.064 66.3132C365.757 66.3132 340.363 71.1139 317.546 80.1637C306.141 58.4385 287.114 39.1991 262.911 25.1983C234.415 8.71305 200.535 -2.84683e-06 164.937 -2.84683e-06C121.428 -2.84683e-06 80.4069 13.1077 49.4264 36.9079C17.5523 61.3918 0 94.2247 0 129.356C0 160.996 14.4627 191.11 40.8497 214.689L41.2987 291.768C41.3214 295.791 43.3607 299.695 46.938 301.529C51.1849 303.708 55.2351 303.187 58.2054 301.636L138.104 257.008C146.963 258.141 155.968 258.715 164.937 258.715C164.939 258.715 164.941 258.715 164.944 258.715C190.918 258.715 216.405 253.944 239.36 244.865C247.737 260.924 260.271 275.614 276.553 288.122C307.533 311.922 348.556 325.029 392.064 325.029C401.076 325.029 410.133 324.449 419.038 323.304L499.037 365.499C503.577 367.813 506.943 367.247 510.18 365.192C513.532 363.063 515.68 359.476 515.704 355.501L516.153 281.004C542.537 257.427 557 227.311 557 195.671C557 160.54 539.448 127.708 507.575 103.221ZM164.942 235.961C164.94 235.961 164.936 235.961 164.936 235.961C155.679 235.961 146.38 235.276 137.297 233.929C134.045 233.449 130.912 234.392 128.529 236.298L63.9186 272.388L63.5548 209.608C63.5594 209.381 63.5548 209.151 63.5435 208.921C63.3946 205.724 61.9088 202.738 59.4467 200.695C35.7742 181.034 22.7347 155.698 22.7347 129.356C22.7347 70.5736 86.5271 22.7513 164.937 22.7513C223.028 22.7513 275.549 49.9086 296.971 89.8733C289.782 93.855 282.95 98.3065 276.552 103.221C244.679 127.707 227.126 160.54 227.126 195.671C227.126 205.232 228.438 214.62 230.972 223.72C210.679 231.745 188.064 235.961 164.942 235.961ZM497.552 267.01C495.092 269.053 493.607 272.042 493.458 275.238C493.446 275.445 493.444 275.65 493.444 275.856L493.08 336.638L428.263 302.452C425.907 300.653 422.863 299.776 419.699 300.245C410.615 301.594 401.316 302.278 392.062 302.278C327.85 302.278 273.453 270.204 255.854 226.305C255.781 226.091 255.688 225.883 255.6 225.671C251.871 216.151 249.859 206.084 249.859 195.671C249.859 135.739 314.65 89.0656 392.062 89.0656C469.474 89.0656 534.265 136.889 534.265 195.671C534.265 222.013 521.226 247.349 497.552 267.01Z" transform="translate(2982 1601)" fill="#61C4B9"/>
<path d="M0 24.3333L38.2162 73L101 0" transform="translate(3084 1699)" stroke="#61C4B9" stroke-width="20" stroke-linecap="round"/>
<line x1="10" y1="-10" x2="121.244" y2="-10" transform="translate(3328 1846) rotate(-40.3645)" stroke="#61C4B9" stroke-width="20" stroke-linecap="round"/>
<line x1="10" y1="-10" x2="121.244" y2="-10" transform="translate(3414 1848) scale(-1 1) rotate(-40.3645)" stroke="#61C4B9" stroke-width="20" stroke-linecap="round"/>
<path d="M-7.07107 463.071C-3.16582 466.976 3.16582 466.976 7.07107 463.071L70.7107 399.431C74.6159 395.526 74.6159 389.195 70.7107 385.289C66.8054 381.384 60.4738 381.384 56.5685 385.289L0 441.858L-56.5685 385.289C-60.4738 381.384 -66.8054 381.384 -70.7107 385.289C-74.6159 389.195 -74.6159 395.526 -70.7107 399.431L-7.07107 463.071ZM-10 0V456H10V0H-10Z" transform="translate(1862 3388) rotate(180)" fill="#61C4B9"/>
<path d="M-9.58692 193.156C-11.1579 198.45 -8.13918 204.016 -2.84447 205.587L83.4378 231.187C88.7325 232.758 94.2982 229.739 95.8692 224.445C97.4401 219.15 94.4214 213.584 89.1267 212.013L12.4314 189.258L35.1871 112.562C36.7581 107.268 33.7394 101.702 28.4447 100.131C23.15 98.5599 17.5843 101.579 16.0133 106.873L-9.58692 193.156ZM158.019 0.611101C161.622 59.471 112.927 123.375 -4.76763 187.21L4.76763 204.79C123.073 140.625 182.378 71.1957 177.981 -0.611101L158.019 0.611101Z" transform="translate(2031 3278) rotate(180)" fill="#61C4B9"/>
<path d="M-9.58692 139.156C-11.1579 144.45 -8.13918 150.016 -2.84447 151.587L83.4378 177.187C88.7325 178.758 94.2982 175.739 95.8692 170.445C97.4401 165.15 94.4214 159.584 89.1267 158.013L12.4314 135.258L35.1871 58.5622C36.7581 53.2675 33.7394 47.7018 28.4447 46.1308C23.15 44.5599 17.5843 47.5786 16.0133 52.8733L-9.58692 139.156ZM154.812 0.611101C155.728 15.568 153.478 26.6774 148.495 36.0583C143.444 45.5656 135.11 54.1973 122.317 63.3747C109.464 72.5958 92.7337 81.9397 71.4348 93.1511C50.34 104.255 24.7863 117.18 -4.76763 133.21L4.76763 150.79C34.2137 134.82 59.2592 122.162 80.7507 110.849C102.038 99.6436 119.881 89.7375 133.976 79.6253C148.132 69.4694 159.121 58.6844 166.157 45.4417C173.259 32.0726 175.859 17.0987 174.775 -0.611101L154.812 0.611101Z" transform="translate(1697 3322) scale(1 -1)" fill="#61C4B9"/>
<circle cx="400" cy="400" r="390" transform="translate(1463 1390)" stroke="#4F4F4F" stroke-width="20"/>
</svg>
