<svg width="7909" height="2673" viewBox="0 0 7909 2673" fill="none" xmlns="http://www.w3.org/2000/svg">
<line x1="10" y1="-10" x2="145.4" y2="-10" transform="translate(3287.6 286.524)" stroke="#ED2C75" stroke-width="20" stroke-linecap="round"/>
<path d="M0 9.83333L15.3622 29.5L40.6 0" transform="translate(3212 250)" stroke="#ED2C75" stroke-width="20" stroke-linecap="round"/>
<line x1="10" y1="-10" x2="145.4" y2="-10" transform="translate(3287.6 197.524)" stroke="#ED2C75" stroke-width="20" stroke-linecap="round"/>
<path d="M0 9.83333L15.3622 29.5L40.6 0" transform="translate(3212 161)" stroke="#ED2C75" stroke-width="20" stroke-linecap="round"/>
<line x1="10" y1="-10" x2="145.4" y2="-10" transform="translate(3287.6 368)" stroke="#ED2C75" stroke-width="20" stroke-linecap="round"/>
<path d="M0 9.83333L15.3622 29.5L40.6 0" transform="translate(3212 331.476)" stroke="#ED2C75" stroke-width="20" stroke-linecap="round"/>
<path d="M241 151L120.5 0L0 151" transform="translate(384 1098) rotate(90)" stroke="#ED2C75" stroke-width="20" stroke-linecap="round"/>
<line x1="10" y1="-10" x2="122" y2="-10" transform="translate(384 1339)" stroke="#ED2C75" stroke-width="20" stroke-linecap="round"/>
<line x1="10" y1="-10" x2="122" y2="-10" transform="translate(1121 506)" stroke="#ED2C75" stroke-width="20" stroke-linecap="round"/>
<line x1="10" y1="-10" x2="122" y2="-10" transform="translate(1481 506)" stroke="#ED2C75" stroke-width="20" stroke-linecap="round"/>
<circle cx="359" cy="359" r="349" transform="translate(0 860)" stroke="#ED2C75" stroke-width="20"/>
<path d="M241 151L120.5 0L0 151" transform="translate(1393 1938) rotate(90)" stroke="#ED2C75" stroke-width="20" stroke-linecap="round"/>
<line x1="10" y1="-10" x2="122" y2="-10" transform="translate(1393 2179)" stroke="#ED2C75" stroke-width="20" stroke-linecap="round"/>
<circle cx="359" cy="359" r="349" transform="translate(1009 1700)" stroke="#ED2C75" stroke-width="20"/>
<path d="M214 134L107 0L0 134" transform="translate(5275 668) rotate(-90)" stroke="#ED2C75" stroke-width="20" stroke-linecap="round"/>
<path d="M214 134L107 0L0 134" transform="translate(5743 454) rotate(90)" stroke="#ED2C75" stroke-width="20" stroke-linecap="round"/>
<circle cx="359" cy="359" r="349" transform="translate(5150 202)" stroke="#ED2C75" stroke-width="20"/>
<circle cx="359" cy="359" r="349" transform="translate(6006 202)" stroke="#ED2C75" stroke-width="20"/>
<circle cx="359" cy="359" r="349" transform="translate(1009 137)" stroke="#ED2C75" stroke-width="20"/>
<circle cx="252" cy="252" r="242" transform="translate(3076 18)" stroke="#ED2C75" stroke-width="20"/>
<circle cx="128.5" cy="128.5" r="118.5" transform="translate(1239 367)" stroke="#ED2C75" stroke-width="20"/>
<rect x="10" y="10" width="1994" height="744" rx="40" transform="translate(2405 814)" stroke="#ED2C75" stroke-width="20"/>
<rect x="10" y="10" width="3084" height="1558" rx="40" transform="translate(4805)" stroke="#ED2C75" stroke-width="20"/>
<line y1="-10" x2="1687" y2="-10" transform="translate(718 1219)" stroke="#ED2C75" stroke-width="20"/>
<line y1="-10" x2="393" y2="-10" transform="translate(4412 1216)" stroke="#ED2C75" stroke-width="20"/>
<line y1="-10" x2="393" y2="-10" transform="translate(3755 1216)" stroke="#ED2C75" stroke-width="20"/>
<line y1="-10" x2="493" y2="-10" transform="translate(1362 1207) rotate(90)" stroke="#ED2C75" stroke-width="20"/>
<line y1="-10" x2="1350" y2="-10" transform="translate(2405 1219)" stroke="#ED2C75" stroke-width="20" stroke-dasharray="50 75"/>
<line y1="-10" x2="237" y2="-10" transform="translate(4175 1217)" stroke="#ED2C75" stroke-width="20" stroke-dasharray="50 75"/>
<line y1="-10" x2="2388" y2="-10" transform="translate(4805 1219)" stroke="#ED2C75" stroke-width="20" stroke-dasharray="50 75"/>
<line x1="10" y1="-10" x2="360.697" y2="-10" transform="translate(5454 738) rotate(-72.7382)" stroke="#ED2C75" stroke-width="20" stroke-linecap="round"/>
<path d="M134.499 0C59.1795 32.2689 56.0411 165.826 63.887 228.571L0 299.16L36.9875 400H63.887L94.15 342.857H174.85L201.75 400H242.1L269 299.16L201.75 228.571C225.96 88.7395 167.004 17.9272 134.499 0Z" transform="translate(6230 345)" stroke="#ED2C75" stroke-width="20"/>
<circle cx="359" cy="359" r="349" transform="translate(6861 202)" stroke="#ED2C75" stroke-width="20"/>
<path d="M89.4996 0C39.3796 21.4588 37.2913 110.275 42.5121 152L0 198.941L24.6125 266H42.5121L62.65 228H116.35L134.25 266H161.1L179 198.941L134.25 152C150.36 59.0118 111.129 11.9216 89.4996 0Z" transform="translate(7134 338)" stroke="#ED2C75" stroke-width="20"/>
<path d="M216 0L196 116C172 96 115.2 72.4 80 138C59.3333 127.333 14.4 118.8 0 170H230" transform="translate(6991 575)" stroke="#ED2C75" stroke-width="20"/>
<path d="M216 0L196 116C172 96 115.2 72.4 80 138C59.3333 127.333 14.4 118.8 0 170H254" transform="translate(7461 575) scale(-1 1)" stroke="#ED2C75" stroke-width="20"/>
<path d="M63.032 146.2C79.382 146.2 93.482 140.5 103.082 129.7L93.332 120.25C85.232 128.8 75.332 132.85 63.782 132.85C40.082 132.85 22.532 115.75 22.532 92.5C22.532 69.25 40.082 52.15 63.782 52.15C75.332 52.15 85.232 56.05 93.332 64.6L103.082 55.15C93.482 44.35 79.382 38.8 63.182 38.8C31.232 38.8 7.53203 61.45 7.53203 92.5C7.53203 123.55 31.232 146.2 63.032 146.2ZM153.061 145.9C176.911 145.9 194.311 128.95 194.311 105.25C194.311 81.55 176.911 64.75 153.061 64.75C129.211 64.75 111.661 81.55 111.661 105.25C111.661 128.95 129.211 145.9 153.061 145.9ZM153.061 133.3C137.761 133.3 126.211 122.2 126.211 105.25C126.211 88.3 137.761 77.35 153.061 77.35C168.361 77.35 179.761 88.3 179.761 105.25C179.761 122.2 168.361 133.3 153.061 133.3ZM274.826 33.7V77.5C268.226 68.95 258.326 64.75 247.076 64.75C223.826 64.75 206.876 80.95 206.876 105.25C206.876 129.55 223.826 145.9 247.076 145.9C258.776 145.9 268.976 141.4 275.426 132.4V145H289.226V33.7H274.826ZM248.276 133.3C232.976 133.3 221.426 122.2 221.426 105.25C221.426 88.3 232.976 77.35 248.276 77.35C263.426 77.35 274.976 88.3 274.976 105.25C274.976 122.2 263.426 133.3 248.276 133.3ZM388.322 105.7C388.322 81.25 371.972 64.75 349.022 64.75C326.072 64.75 309.122 81.7 309.122 105.25C309.122 128.95 326.222 145.9 351.872 145.9C365.072 145.9 376.022 141.4 383.222 133L375.272 123.7C369.422 130.15 361.622 133.3 352.322 133.3C336.572 133.3 325.322 124 323.522 110.05H388.022C388.172 108.7 388.322 106.9 388.322 105.7ZM349.022 76.9C362.972 76.9 373.022 86.35 374.522 99.7H323.522C325.022 86.2 335.222 76.9 349.022 76.9Z" transform="translate(162 1610)" fill="#ED2C75"/>
<path d="M102.776 145L77.8756 109.75C92.5756 104.5 100.976 92.8 100.976 76.6C100.976 53.8 84.4756 40 57.1756 40H16.2256V145H31.2256V113.05H57.1756C59.4256 113.05 61.6756 112.9 63.7756 112.75L86.4256 145H102.776ZM56.7256 100.3H31.2256V53.05H56.7256C75.9256 53.05 85.9756 61.6 85.9756 76.6C85.9756 91.6 75.9256 100.3 56.7256 100.3ZM194.96 105.7C194.96 81.25 178.61 64.75 155.66 64.75C132.71 64.75 115.76 81.7 115.76 105.25C115.76 128.95 132.86 145.9 158.51 145.9C171.71 145.9 182.66 141.4 189.86 133L181.91 123.7C176.06 130.15 168.26 133.3 158.96 133.3C143.21 133.3 131.96 124 130.16 110.05H194.66C194.81 108.7 194.96 106.9 194.96 105.7ZM155.66 76.9C169.61 76.9 179.66 86.35 181.16 99.7H130.16C131.66 86.2 141.86 76.9 155.66 76.9ZM214.956 145H229.356V33.7H214.956V145ZM285.8 64.75C273.05 64.75 261.2 68.35 252.95 74.95L258.95 85.75C265.1 80.5 274.7 77.2 284.15 77.2C298.4 77.2 305.45 84.25 305.45 96.4V99.25H282.65C258.95 99.25 250.7 109.75 250.7 122.5C250.7 136.3 262.1 145.9 280.1 145.9C292.55 145.9 301.4 141.7 306.2 134.5V145H319.85V97C319.85 75.25 307.55 64.75 285.8 64.75ZM282.5 134.8C271.55 134.8 264.95 129.85 264.95 121.9C264.95 115.15 269 109.6 283.25 109.6H305.45V120.7C301.85 129.85 293.3 134.8 282.5 134.8ZM386.699 130C383.699 132.4 379.649 133.75 375.449 133.75C367.499 133.75 362.999 128.95 362.999 120.4V77.35H385.799V65.5H362.999V48.1H348.599V65.5H335.099V77.35H348.599V121C348.599 137.05 357.749 145.9 373.799 145.9C380.249 145.9 386.849 144.1 391.199 140.35L386.699 130ZM477.821 105.7C477.821 81.25 461.471 64.75 438.521 64.75C415.571 64.75 398.621 81.7 398.621 105.25C398.621 128.95 415.721 145.9 441.371 145.9C454.571 145.9 465.521 141.4 472.721 133L464.771 123.7C458.921 130.15 451.121 133.3 441.821 133.3C426.071 133.3 414.821 124 413.021 110.05H477.521C477.671 108.7 477.821 106.9 477.821 105.7ZM438.521 76.9C452.471 76.9 462.521 86.35 464.021 99.7H413.021C414.521 86.2 424.721 76.9 438.521 76.9ZM558.417 33.7V77.5C551.817 68.95 541.917 64.75 530.667 64.75C507.417 64.75 490.467 80.95 490.467 105.25C490.467 129.55 507.417 145.9 530.667 145.9C542.367 145.9 552.567 141.4 559.017 132.4V145H572.817V33.7H558.417ZM531.867 133.3C516.567 133.3 505.017 122.2 505.017 105.25C505.017 88.3 516.567 77.35 531.867 77.35C547.017 77.35 558.567 88.3 558.567 105.25C558.567 122.2 547.017 133.3 531.867 133.3ZM674.996 145.9C689.246 145.9 701.096 139.9 707.396 128.8L696.446 121.9C691.346 129.7 683.546 133.3 674.846 133.3C659.246 133.3 647.546 122.5 647.546 105.25C647.546 88.3 659.246 77.35 674.846 77.35C683.546 77.35 691.346 80.95 696.446 88.75L707.396 81.7C701.096 70.6 689.246 64.75 674.996 64.75C650.546 64.75 632.996 81.55 632.996 105.25C632.996 128.95 650.546 145.9 674.996 145.9ZM758.918 145.9C782.768 145.9 800.168 128.95 800.168 105.25C800.168 81.55 782.768 64.75 758.918 64.75C735.068 64.75 717.518 81.55 717.518 105.25C717.518 128.95 735.068 145.9 758.918 145.9ZM758.918 133.3C743.618 133.3 732.068 122.2 732.068 105.25C732.068 88.3 743.618 77.35 758.918 77.35C774.218 77.35 785.618 88.3 785.618 105.25C785.618 122.2 774.218 133.3 758.918 133.3ZM880.683 33.7V77.5C874.083 68.95 864.183 64.75 852.933 64.75C829.683 64.75 812.733 80.95 812.733 105.25C812.733 129.55 829.683 145.9 852.933 145.9C864.633 145.9 874.833 141.4 881.283 132.4V145H895.083V33.7H880.683ZM854.133 133.3C838.833 133.3 827.283 122.2 827.283 105.25C827.283 88.3 838.833 77.35 854.133 77.35C869.283 77.35 880.833 88.3 880.833 105.25C880.833 122.2 869.283 133.3 854.133 133.3ZM994.179 105.7C994.179 81.25 977.829 64.75 954.879 64.75C931.929 64.75 914.979 81.7 914.979 105.25C914.979 128.95 932.079 145.9 957.729 145.9C970.929 145.9 981.879 141.4 989.079 133L981.129 123.7C975.279 130.15 967.479 133.3 958.179 133.3C942.429 133.3 931.179 124 929.379 110.05H993.879C994.029 108.7 994.179 106.9 994.179 105.7ZM954.879 76.9C968.829 76.9 978.879 86.35 980.379 99.7H929.379C930.879 86.2 941.079 76.9 954.879 76.9Z" transform="translate(867 2490)" fill="#ED2C75"/>
<path d="M63.0799 146.2C79.4299 146.2 93.5299 140.5 103.13 129.7L93.3799 120.25C85.2799 128.8 75.3799 132.85 63.8299 132.85C40.1299 132.85 22.5799 115.75 22.5799 92.5C22.5799 69.25 40.1299 52.15 63.8299 52.15C75.3799 52.15 85.2799 56.05 93.3799 64.6L103.13 55.15C93.5299 44.35 79.4299 38.8 63.2299 38.8C31.2799 38.8 7.57988 61.45 7.57988 92.5C7.57988 123.55 31.2799 146.2 63.0799 146.2ZM153.109 145.9C176.959 145.9 194.359 128.95 194.359 105.25C194.359 81.55 176.959 64.75 153.109 64.75C129.259 64.75 111.709 81.55 111.709 105.25C111.709 128.95 129.259 145.9 153.109 145.9ZM153.109 133.3C137.809 133.3 126.259 122.2 126.259 105.25C126.259 88.3 137.809 77.35 153.109 77.35C168.409 77.35 179.809 88.3 179.809 105.25C179.809 122.2 168.409 133.3 153.109 133.3ZM313.724 64.75C300.224 64.75 289.124 70.45 283.124 79.45C277.874 69.55 267.674 64.75 255.524 64.75C243.524 64.75 233.774 69.25 228.074 77.35V65.5H214.274V145H228.674V104.05C228.674 86.8 238.124 77.65 252.524 77.65C265.574 77.65 273.074 85.3 273.074 100.9V145H287.474V104.05C287.474 86.8 296.924 77.65 311.324 77.65C324.374 77.65 331.874 85.3 331.874 100.9V145H346.274V99.25C346.274 75.85 333.074 64.75 313.724 64.75ZM472.22 64.75C458.72 64.75 447.62 70.45 441.62 79.45C436.37 69.55 426.17 64.75 414.02 64.75C402.02 64.75 392.27 69.25 386.57 77.35V65.5H372.77V145H387.17V104.05C387.17 86.8 396.62 77.65 411.02 77.65C424.07 77.65 431.57 85.3 431.57 100.9V145H445.97V104.05C445.97 86.8 455.42 77.65 469.82 77.65C482.87 77.65 490.37 85.3 490.37 100.9V145H504.77V99.25C504.77 75.85 491.57 64.75 472.22 64.75ZM538.466 50.2C544.166 50.2 548.216 46 548.216 40.6C548.216 35.5 544.016 31.45 538.466 31.45C532.916 31.45 528.716 35.65 528.716 40.9C528.716 46.15 532.916 50.2 538.466 50.2ZM531.266 145H545.666V65.5H531.266V145ZM613.361 130C610.361 132.4 606.311 133.75 602.111 133.75C594.161 133.75 589.661 128.95 589.661 120.4V77.35H612.461V65.5H589.661V48.1H575.261V65.5H561.761V77.35H575.261V121C575.261 137.05 584.411 145.9 600.461 145.9C606.911 145.9 613.511 144.1 617.861 140.35L613.361 130Z" transform="translate(1056 888)" fill="#ED2C75"/>
<path d="M62.827 146.2C79.177 146.2 93.277 140.5 102.877 129.7L93.127 120.25C85.027 128.8 75.127 132.85 63.577 132.85C39.877 132.85 22.327 115.75 22.327 92.5C22.327 69.25 39.877 52.15 63.577 52.15C75.127 52.15 85.027 56.05 93.127 64.6L102.877 55.15C93.277 44.35 79.177 38.8 62.977 38.8C31.027 38.8 7.32695 61.45 7.32695 92.5C7.32695 123.55 31.027 146.2 62.827 146.2ZM124.275 145H139.275V40H124.275V145ZM251.944 40H210.994V145H225.994V113.2H251.944C279.244 113.2 295.744 99.4 295.744 76.6C295.744 53.8 279.244 40 251.944 40ZM251.494 100.15H225.994V53.05H251.494C270.694 53.05 280.744 61.6 280.744 76.6C280.744 91.6 270.694 100.15 251.494 100.15ZM321.563 50.2C327.263 50.2 331.313 46 331.313 40.6C331.313 35.5 327.113 31.45 321.563 31.45C316.013 31.45 311.813 35.65 311.813 40.9C311.813 46.15 316.013 50.2 321.563 50.2ZM314.363 145H328.763V65.5H314.363V145ZM398.407 64.75C386.707 64.75 376.507 69.25 370.057 78.1V65.5H356.257V174.1H370.657V133C377.257 141.55 387.157 145.9 398.407 145.9C421.657 145.9 438.607 129.7 438.607 105.25C438.607 80.95 421.657 64.75 398.407 64.75ZM397.207 133.3C382.057 133.3 370.507 122.2 370.507 105.25C370.507 88.45 382.057 77.35 397.207 77.35C412.507 77.35 424.057 88.45 424.057 105.25C424.057 122.2 412.507 133.3 397.207 133.3ZM530.354 105.7C530.354 81.25 514.004 64.75 491.054 64.75C468.104 64.75 451.154 81.7 451.154 105.25C451.154 128.95 468.254 145.9 493.904 145.9C507.104 145.9 518.054 141.4 525.254 133L517.304 123.7C511.454 130.15 503.654 133.3 494.354 133.3C478.604 133.3 467.354 124 465.554 110.05H530.054C530.204 108.7 530.354 106.9 530.354 105.7ZM491.054 76.9C505.004 76.9 515.054 86.35 516.554 99.7H465.554C467.054 86.2 477.254 76.9 491.054 76.9ZM550.349 145H564.749V33.7H550.349V145ZM599.444 50.2C605.144 50.2 609.194 46 609.194 40.6C609.194 35.5 604.994 31.45 599.444 31.45C593.894 31.45 589.694 35.65 589.694 40.9C589.694 46.15 593.894 50.2 599.444 50.2ZM592.244 145H606.644V65.5H592.244V145ZM676.588 64.75C663.988 64.75 653.788 69.4 647.938 77.5V65.5H634.138V145H648.538V104.05C648.538 86.8 658.438 77.65 673.738 77.65C687.388 77.65 695.188 85.3 695.188 100.9V145H709.588V99.25C709.588 75.85 695.938 64.75 676.588 64.75ZM808.527 105.7C808.527 81.25 792.177 64.75 769.227 64.75C746.277 64.75 729.327 81.7 729.327 105.25C729.327 128.95 746.427 145.9 772.077 145.9C785.277 145.9 796.227 141.4 803.427 133L795.477 123.7C789.627 130.15 781.827 133.3 772.527 133.3C756.777 133.3 745.527 124 743.727 110.05H808.227C808.377 108.7 808.527 106.9 808.527 105.7ZM769.227 76.9C783.177 76.9 793.227 86.35 794.727 99.7H743.727C745.227 86.2 755.427 76.9 769.227 76.9Z" transform="translate(2921 1632)" fill="#ED2C75"/>
<path d="M63.0818 146.2C79.4318 146.2 93.5318 140.5 103.132 129.7L93.3818 120.25C85.2818 128.8 75.3818 132.85 63.8318 132.85C40.1318 132.85 22.5818 115.75 22.5818 92.5C22.5818 69.25 40.1318 52.15 63.8318 52.15C75.3818 52.15 85.2818 56.05 93.3818 64.6L103.132 55.15C93.5318 44.35 79.4318 38.8 63.2318 38.8C31.2818 38.8 7.58184 61.45 7.58184 92.5C7.58184 123.55 31.2818 146.2 63.0818 146.2ZM124.53 145H168.78C202.53 145 225.48 123.7 225.48 92.5C225.48 61.3 202.53 40 168.78 40H124.53V145ZM139.53 131.95V53.05H167.88C193.83 53.05 210.48 68.95 210.48 92.5C210.48 116.05 193.83 131.95 167.88 131.95H139.53ZM329.689 40H288.739V145H303.739V113.2H329.689C356.989 113.2 373.489 99.4 373.489 76.6C373.489 53.8 356.989 40 329.689 40ZM329.239 100.15H303.739V53.05H329.239C348.439 53.05 358.489 61.6 358.489 76.6C358.489 91.6 348.439 100.15 329.239 100.15ZM399.308 50.2C405.008 50.2 409.058 46 409.058 40.6C409.058 35.5 404.858 31.45 399.308 31.45C393.758 31.45 389.558 35.65 389.558 40.9C389.558 46.15 393.758 50.2 399.308 50.2ZM392.108 145H406.508V65.5H392.108V145ZM476.153 64.75C464.453 64.75 454.253 69.25 447.803 78.1V65.5H434.003V174.1H448.403V133C455.003 141.55 464.903 145.9 476.153 145.9C499.403 145.9 516.353 129.7 516.353 105.25C516.353 80.95 499.403 64.75 476.153 64.75ZM474.953 133.3C459.803 133.3 448.253 122.2 448.253 105.25C448.253 88.45 459.803 77.35 474.953 77.35C490.253 77.35 501.803 88.45 501.803 105.25C501.803 122.2 490.253 133.3 474.953 133.3ZM608.099 105.7C608.099 81.25 591.749 64.75 568.799 64.75C545.849 64.75 528.899 81.7 528.899 105.25C528.899 128.95 545.999 145.9 571.649 145.9C584.849 145.9 595.799 141.4 602.999 133L595.049 123.7C589.199 130.15 581.399 133.3 572.099 133.3C556.349 133.3 545.099 124 543.299 110.05H607.799C607.949 108.7 608.099 106.9 608.099 105.7ZM568.799 76.9C582.749 76.9 592.799 86.35 594.299 99.7H543.299C544.799 86.2 554.999 76.9 568.799 76.9ZM628.094 145H642.494V33.7H628.094V145ZM677.189 50.2C682.889 50.2 686.939 46 686.939 40.6C686.939 35.5 682.739 31.45 677.189 31.45C671.639 31.45 667.439 35.65 667.439 40.9C667.439 46.15 671.639 50.2 677.189 50.2ZM669.989 145H684.389V65.5H669.989V145ZM754.333 64.75C741.733 64.75 731.533 69.4 725.683 77.5V65.5H711.883V145H726.283V104.05C726.283 86.8 736.183 77.65 751.483 77.65C765.133 77.65 772.933 85.3 772.933 100.9V145H787.333V99.25C787.333 75.85 773.683 64.75 754.333 64.75ZM886.272 105.7C886.272 81.25 869.922 64.75 846.972 64.75C824.022 64.75 807.072 81.7 807.072 105.25C807.072 128.95 824.172 145.9 849.822 145.9C863.022 145.9 873.972 141.4 881.172 133L873.222 123.7C867.372 130.15 859.572 133.3 850.272 133.3C834.522 133.3 823.272 124 821.472 110.05H885.972C886.122 108.7 886.272 106.9 886.272 105.7ZM846.972 76.9C860.922 76.9 870.972 86.35 872.472 99.7H821.472C822.972 86.2 833.172 76.9 846.972 76.9Z" transform="translate(5910 1632)" fill="#ED2C75"/>
<path d="M36.6322 145H51.4822V53.05H87.4822V40H0.632227V53.05H36.6322V145ZM165.366 105.7C165.366 81.25 149.016 64.75 126.066 64.75C103.116 64.75 86.1662 81.7 86.1662 105.25C86.1662 128.95 103.266 145.9 128.916 145.9C142.116 145.9 153.066 141.4 160.266 133L152.316 123.7C146.466 130.15 138.666 133.3 129.366 133.3C113.616 133.3 102.366 124 100.566 110.05H165.066C165.216 108.7 165.366 106.9 165.366 105.7ZM126.066 76.9C140.016 76.9 150.066 86.35 151.566 99.7H100.566C102.066 86.2 112.266 76.9 126.066 76.9ZM208.162 145.9C229.312 145.9 242.512 136.75 242.512 122.35C242.512 91.45 192.112 106.75 192.112 88C192.112 81.7 198.262 77.05 210.862 77.05C218.662 77.05 226.612 78.7 233.812 83.35L239.962 71.95C233.062 67.45 221.362 64.75 211.012 64.75C190.612 64.75 177.862 74.35 177.862 88.6C177.862 120.25 228.112 104.8 228.112 122.65C228.112 129.4 222.562 133.45 209.212 133.45C198.862 133.45 188.062 130 181.312 125.2L175.312 136.6C181.912 141.85 194.962 145.9 208.162 145.9ZM300.708 130C297.708 132.4 293.658 133.75 289.458 133.75C281.508 133.75 277.008 128.95 277.008 120.4V77.35H299.808V65.5H277.008V48.1H262.608V65.5H249.108V77.35H262.608V121C262.608 137.05 271.758 145.9 287.808 145.9C294.258 145.9 300.858 144.1 305.208 140.35L300.708 130Z" transform="translate(3174 566)" fill="#ED2C75"/>
<path d="M49.5361 122C72.6611 122 86.5361 108.625 86.5361 83.25V33.5H74.4111V82.75C74.4111 102.125 65.4111 110.875 49.6611 110.875C33.9111 110.875 25.0361 102.125 25.0361 82.75V33.5H12.5361V83.25C12.5361 108.625 26.5361 122 49.5361 122ZM145.788 54.125C135.288 54.125 126.788 58 121.913 64.75V54.75H110.413V121H122.413V86.875C122.413 72.5 130.663 64.875 143.413 64.875C154.788 64.875 161.288 71.25 161.288 84.25V121H173.288V82.875C173.288 63.375 161.913 54.125 145.788 54.125ZM201.496 42C206.246 42 209.621 38.5 209.621 34C209.621 29.75 206.121 26.375 201.496 26.375C196.871 26.375 193.371 29.875 193.371 34.25C193.371 38.625 196.871 42 201.496 42ZM195.496 121H207.496V54.75H195.496V121ZM263.908 108.5C261.408 110.5 258.033 111.625 254.533 111.625C247.908 111.625 244.158 107.625 244.158 100.5V64.625H263.158V54.75H244.158V40.25H232.158V54.75H220.908V64.625H232.158V101C232.158 114.375 239.783 121.75 253.158 121.75C258.533 121.75 264.033 120.25 267.658 117.125L263.908 108.5ZM349.235 108.5C346.735 110.5 343.36 111.625 339.86 111.625C333.235 111.625 329.485 107.625 329.485 100.5V64.625H348.485V54.75H329.485V40.25H317.485V54.75H306.235V64.625H317.485V101C317.485 114.375 325.11 121.75 338.485 121.75C343.86 121.75 349.36 120.25 352.985 117.125L349.235 108.5ZM425.171 88.25C425.171 67.875 411.546 54.125 392.421 54.125C373.296 54.125 359.171 68.25 359.171 87.875C359.171 107.625 373.421 121.75 394.796 121.75C405.796 121.75 414.921 118 420.921 111L414.296 103.25C409.421 108.625 402.921 111.25 395.171 111.25C382.046 111.25 372.671 103.5 371.171 91.875H424.921C425.046 90.75 425.171 89.25 425.171 88.25ZM392.421 64.25C404.046 64.25 412.421 72.125 413.671 83.25H371.171C372.421 72 380.921 64.25 392.421 64.25ZM460.834 121.75C478.459 121.75 489.459 114.125 489.459 102.125C489.459 76.375 447.459 89.125 447.459 73.5C447.459 68.25 452.584 64.375 463.084 64.375C469.584 64.375 476.209 65.75 482.209 69.625L487.334 60.125C481.584 56.375 471.834 54.125 463.209 54.125C446.209 54.125 435.584 62.125 435.584 74C435.584 100.375 477.459 87.5 477.459 102.375C477.459 108 472.834 111.375 461.709 111.375C453.084 111.375 444.084 108.5 438.459 104.5L433.459 114C438.959 118.375 449.834 121.75 460.834 121.75ZM537.956 108.5C535.456 110.5 532.081 111.625 528.581 111.625C521.956 111.625 518.206 107.625 518.206 100.5V64.625H537.206V54.75H518.206V40.25H506.206V54.75H494.956V64.625H506.206V101C506.206 114.375 513.831 121.75 527.206 121.75C532.581 121.75 538.081 120.25 541.706 117.125L537.956 108.5Z" transform="translate(3056 929)" fill="#ED2C75"/>
<path d="M72.3857 75.625C79.2607 72.25 84.1357 65.625 84.1357 56.125C84.1357 42 72.8857 33.5 52.7607 33.5H13.5107V121H55.2607C77.3857 121 88.7607 112.375 88.7607 97.375C88.7607 85.75 82.2607 78.375 72.3857 75.625ZM51.6357 43.625C64.3857 43.625 71.6357 48.375 71.6357 57.625C71.6357 66.875 64.3857 71.625 51.6357 71.625H26.0107V43.625H51.6357ZM54.7607 110.875H26.0107V81.75H54.7607C68.6357 81.75 76.1357 86.25 76.1357 96.375C76.1357 106.5 68.6357 110.875 54.7607 110.875ZM156.115 54.75V89C156.115 103.25 148.115 111 135.615 111C124.24 111 117.74 104.5 117.74 91.5V54.75H105.74V92.875C105.74 112.375 117.115 121.75 134.24 121.75C143.615 121.75 151.865 117.875 156.74 111V121H168.115V54.75H156.115ZM196.96 42C201.71 42 205.085 38.5 205.085 34C205.085 29.75 201.585 26.375 196.96 26.375C192.335 26.375 188.835 29.875 188.835 34.25C188.835 38.625 192.335 42 196.96 42ZM190.96 121H202.96V54.75H190.96V121ZM225.872 121H237.872V28.25H225.872V121ZM311.284 28.25V64.75C305.784 57.625 297.534 54.125 288.159 54.125C268.784 54.125 254.659 67.625 254.659 87.875C254.659 108.125 268.784 121.75 288.159 121.75C297.909 121.75 306.409 118 311.784 110.5V121H323.284V28.25H311.284ZM289.159 111.25C276.409 111.25 266.784 102 266.784 87.875C266.784 73.75 276.409 64.625 289.159 64.625C301.784 64.625 311.409 73.75 311.409 87.875C311.409 102 301.784 111.25 289.159 111.25Z" transform="translate(2580 1326)" fill="#ED2C75"/>
<path d="M13.4609 121H25.9609V33.5H13.4609V121ZM85.7822 54.125C75.2822 54.125 66.7822 58 61.9072 64.75V54.75H50.4072V121H62.4072V86.875C62.4072 72.5 70.6572 64.875 83.4072 64.875C94.7822 64.875 101.282 71.25 101.282 84.25V121H113.282V82.875C113.282 63.375 101.907 54.125 85.7822 54.125ZM168.99 108.5C166.49 110.5 163.115 111.625 159.615 111.625C152.99 111.625 149.24 107.625 149.24 100.5V64.625H168.24V54.75H149.24V40.25H137.24V54.75H125.99V64.625H137.24V101C137.24 114.375 144.865 121.75 158.24 121.75C163.615 121.75 169.115 120.25 172.74 117.125L168.99 108.5ZM244.926 88.25C244.926 67.875 231.301 54.125 212.176 54.125C193.051 54.125 178.926 68.25 178.926 87.875C178.926 107.625 193.176 121.75 214.551 121.75C225.551 121.75 234.676 118 240.676 111L234.051 103.25C229.176 108.625 222.676 111.25 214.926 111.25C201.801 111.25 192.426 103.5 190.926 91.875H244.676C244.801 90.75 244.926 89.25 244.926 88.25ZM212.176 64.25C223.801 64.25 232.176 72.125 233.426 83.25H190.926C192.176 72 200.676 64.25 212.176 64.25ZM313.589 54.75V65C307.964 57.75 298.964 54.125 289.089 54.125C269.964 54.125 255.464 67 255.464 86.125C255.464 105.25 269.964 118.25 289.089 118.25C298.589 118.25 307.214 114.875 312.964 108V113.25C312.964 128.25 305.839 135.5 290.214 135.5C280.464 135.5 270.839 132.125 264.714 126.875L258.964 136.125C266.214 142.625 278.464 146 290.589 146C313.089 146 324.964 135.375 324.964 112V54.75H313.589ZM290.464 107.75C277.089 107.75 267.589 98.875 267.589 86.125C267.589 73.25 277.089 64.625 290.464 64.625C303.714 64.625 313.214 73.25 313.214 86.125C313.214 98.875 303.714 107.75 290.464 107.75ZM359.393 65.875V54.75H347.893V121H359.893V88C359.893 73.5 367.893 65.625 380.768 65.625C381.643 65.625 382.518 65.625 383.518 65.75V54.125C371.893 54.125 363.643 58.125 359.393 65.875ZM422.311 54.125C411.686 54.125 401.811 57.125 394.936 62.625L399.936 71.625C405.061 67.25 413.061 64.5 420.936 64.5C432.811 64.5 438.686 70.375 438.686 80.5V82.875H419.686C399.936 82.875 393.061 91.625 393.061 102.25C393.061 113.75 402.561 121.75 417.561 121.75C427.936 121.75 435.311 118.25 439.311 112.25V121H450.686V81C450.686 62.875 440.436 54.125 422.311 54.125ZM419.561 112.5C410.436 112.5 404.936 108.375 404.936 101.75C404.936 96.125 408.311 91.5 420.186 91.5H438.686V100.75C435.686 108.375 428.561 112.5 419.561 112.5ZM506.393 108.5C503.893 110.5 500.518 111.625 497.018 111.625C490.393 111.625 486.643 107.625 486.643 100.5V64.625H505.643V54.75H486.643V40.25H474.643V54.75H463.393V64.625H474.643V101C474.643 114.375 482.268 121.75 495.643 121.75C501.018 121.75 506.518 120.25 510.143 117.125L506.393 108.5ZM530.65 42C535.4 42 538.775 38.5 538.775 34C538.775 29.75 535.275 26.375 530.65 26.375C526.025 26.375 522.525 29.875 522.525 34.25C522.525 38.625 526.025 42 530.65 42ZM524.65 121H536.65V54.75H524.65V121ZM587.937 121.75C607.812 121.75 622.312 107.625 622.312 87.875C622.312 68.125 607.812 54.125 587.937 54.125C568.062 54.125 553.437 68.125 553.437 87.875C553.437 107.625 568.062 121.75 587.937 121.75ZM587.937 111.25C575.188 111.25 565.562 102 565.562 87.875C565.562 73.75 575.188 64.625 587.937 64.625C600.687 64.625 610.187 73.75 610.187 87.875C610.187 102 600.687 111.25 587.937 111.25ZM674.283 54.125C663.783 54.125 655.283 58 650.408 64.75V54.75H638.908V121H650.908V86.875C650.908 72.5 659.158 64.875 671.908 64.875C683.283 64.875 689.783 71.25 689.783 84.25V121H701.783V82.875C701.783 63.375 690.408 54.125 674.283 54.125ZM791.061 108.5C788.561 110.5 785.186 111.625 781.686 111.625C775.061 111.625 771.311 107.625 771.311 100.5V64.625H790.311V54.75H771.311V40.25H759.311V54.75H748.061V64.625H759.311V101C759.311 114.375 766.936 121.75 780.311 121.75C785.686 121.75 791.186 120.25 794.811 117.125L791.061 108.5ZM866.996 88.25C866.996 67.875 853.371 54.125 834.246 54.125C815.121 54.125 800.996 68.25 800.996 87.875C800.996 107.625 815.246 121.75 836.621 121.75C847.621 121.75 856.746 118 862.746 111L856.121 103.25C851.246 108.625 844.746 111.25 836.996 111.25C823.871 111.25 814.496 103.5 812.996 91.875H866.746C866.871 90.75 866.996 89.25 866.996 88.25ZM834.246 64.25C845.871 64.25 854.246 72.125 855.496 83.25H812.996C814.246 72 822.746 64.25 834.246 64.25ZM902.659 121.75C920.284 121.75 931.284 114.125 931.284 102.125C931.284 76.375 889.284 89.125 889.284 73.5C889.284 68.25 894.409 64.375 904.909 64.375C911.409 64.375 918.034 65.75 924.034 69.625L929.159 60.125C923.409 56.375 913.659 54.125 905.034 54.125C888.034 54.125 877.409 62.125 877.409 74C877.409 100.375 919.284 87.5 919.284 102.375C919.284 108 914.659 111.375 903.534 111.375C894.909 111.375 885.909 108.5 880.284 104.5L875.284 114C880.784 118.375 891.659 121.75 902.659 121.75ZM979.781 108.5C977.281 110.5 973.906 111.625 970.406 111.625C963.781 111.625 960.031 107.625 960.031 100.5V64.625H979.031V54.75H960.031V40.25H948.031V54.75H936.781V64.625H948.031V101C948.031 114.375 955.656 121.75 969.031 121.75C974.406 121.75 979.906 120.25 983.531 117.125L979.781 108.5Z" transform="translate(3329 1326)" fill="#ED2C75"/>
<path d="M85.4409 121L64.6909 91.625C76.9409 87.25 83.9409 77.5 83.9409 64C83.9409 45 70.1909 33.5 47.4409 33.5H13.3159V121H25.8159V94.375H47.4409C49.3159 94.375 51.1909 94.25 52.9409 94.125L71.8159 121H85.4409ZM47.0659 83.75H25.8159V44.375H47.0659C63.0659 44.375 71.4409 51.5 71.4409 64C71.4409 76.5 63.0659 83.75 47.0659 83.75ZM162.261 88.25C162.261 67.875 148.636 54.125 129.511 54.125C110.386 54.125 96.2612 68.25 96.2612 87.875C96.2612 107.625 110.511 121.75 131.886 121.75C142.886 121.75 152.011 118 158.011 111L151.386 103.25C146.511 108.625 140.011 111.25 132.261 111.25C119.136 111.25 109.761 103.5 108.261 91.875H162.011C162.136 90.75 162.261 89.25 162.261 88.25ZM129.511 64.25C141.136 64.25 149.511 72.125 150.761 83.25H108.261C109.511 72 118.011 64.25 129.511 64.25ZM224.579 54.75L201.329 107.875L178.579 54.75H166.079L195.079 121H207.329L236.329 54.75H224.579ZM253.528 42C258.278 42 261.653 38.5 261.653 34C261.653 29.75 258.153 26.375 253.528 26.375C248.903 26.375 245.403 29.875 245.403 34.25C245.403 38.625 248.903 42 253.528 42ZM247.528 121H259.528V54.75H247.528V121ZM342.315 88.25C342.315 67.875 328.69 54.125 309.565 54.125C290.44 54.125 276.315 68.25 276.315 87.875C276.315 107.625 290.565 121.75 311.94 121.75C322.94 121.75 332.065 118 338.065 111L331.44 103.25C326.565 108.625 320.065 111.25 312.315 111.25C299.19 111.25 289.815 103.5 288.315 91.875H342.065C342.19 90.75 342.315 89.25 342.315 88.25ZM309.565 64.25C321.19 64.25 329.565 72.125 330.815 83.25H288.315C289.565 72 298.065 64.25 309.565 64.25ZM447.257 54.75L427.507 107.75L407.882 54.75H397.757L377.757 107.5L358.507 54.75H347.132L371.757 121H383.257L402.632 70.75L421.757 121H433.257L458.007 54.75H447.257Z" transform="translate(5286 953)" fill="#ED2C75"/>
<path d="M38.9067 122C62.0317 122 72.7817 110.5 72.7817 97.125C72.7817 65 19.7817 78.375 19.7817 57C19.7817 49.375 26.1567 43.125 41.0317 43.125C48.7817 43.125 57.4067 45.375 65.0317 50.25L69.1567 40.25C61.9067 35.25 51.2817 32.5 41.0317 32.5C18.0317 32.5 7.53174 44 7.53174 57.5C7.53174 90 60.5317 76.5 60.5317 97.875C60.5317 105.5 54.0317 111.375 38.9067 111.375C27.6567 111.375 16.5317 107.125 10.0317 101.25L5.40674 111C12.4067 117.5 25.5317 122 38.9067 122ZM122.793 108.5C120.293 110.5 116.918 111.625 113.418 111.625C106.793 111.625 103.043 107.625 103.043 100.5V64.625H122.043V54.75H103.043V40.25H91.0435V54.75H79.7935V64.625H91.0435V101C91.0435 114.375 98.6685 121.75 112.043 121.75C117.418 121.75 122.918 120.25 126.543 117.125L122.793 108.5ZM165.176 54.125C154.551 54.125 144.676 57.125 137.801 62.625L142.801 71.625C147.926 67.25 155.926 64.5 163.801 64.5C175.676 64.5 181.551 70.375 181.551 80.5V82.875H162.551C142.801 82.875 135.926 91.625 135.926 102.25C135.926 113.75 145.426 121.75 160.426 121.75C170.801 121.75 178.176 118.25 182.176 112.25V121H193.551V81C193.551 62.875 183.301 54.125 165.176 54.125ZM162.426 112.5C153.301 112.5 147.801 108.375 147.801 101.75C147.801 96.125 151.176 91.5 163.051 91.5H181.551V100.75C178.551 108.375 171.426 112.5 162.426 112.5ZM268.125 54.75V65C262.5 57.75 253.5 54.125 243.625 54.125C224.5 54.125 210 67 210 86.125C210 105.25 224.5 118.25 243.625 118.25C253.125 118.25 261.75 114.875 267.5 108V113.25C267.5 128.25 260.375 135.5 244.75 135.5C235 135.5 225.375 132.125 219.25 126.875L213.5 136.125C220.75 142.625 233 146 245.125 146C267.625 146 279.5 135.375 279.5 112V54.75H268.125ZM245 107.75C231.625 107.75 222.125 98.875 222.125 86.125C222.125 73.25 231.625 64.625 245 64.625C258.25 64.625 267.75 73.25 267.75 86.125C267.75 98.875 258.25 107.75 245 107.75ZM308.428 42C313.178 42 316.553 38.5 316.553 34C316.553 29.75 313.053 26.375 308.428 26.375C303.803 26.375 300.303 29.875 300.303 34.25C300.303 38.625 303.803 42 308.428 42ZM302.428 121H314.428V54.75H302.428V121ZM372.715 54.125C362.215 54.125 353.715 58 348.84 64.75V54.75H337.34V121H349.34V86.875C349.34 72.5 357.59 64.875 370.34 64.875C381.715 64.875 388.215 71.25 388.215 84.25V121H400.215V82.875C400.215 63.375 388.84 54.125 372.715 54.125ZM474.79 54.75V65C469.165 57.75 460.165 54.125 450.29 54.125C431.165 54.125 416.665 67 416.665 86.125C416.665 105.25 431.165 118.25 450.29 118.25C459.79 118.25 468.415 114.875 474.165 108V113.25C474.165 128.25 467.04 135.5 451.415 135.5C441.665 135.5 432.04 132.125 425.915 126.875L420.165 136.125C427.415 142.625 439.665 146 451.79 146C474.29 146 486.165 135.375 486.165 112V54.75H474.79ZM451.665 107.75C438.29 107.75 428.79 98.875 428.79 86.125C428.79 73.25 438.29 64.625 451.665 64.625C464.915 64.625 474.415 73.25 474.415 86.125C474.415 98.875 464.915 107.75 451.665 107.75Z" transform="translate(6107 953)" fill="#ED2C75"/>
<path d="M47.6475 33.5H13.5225V121H26.0225V94.5H47.6475C70.3975 94.5 84.1475 83 84.1475 64C84.1475 45 70.3975 33.5 47.6475 33.5ZM47.2725 83.625H26.0225V44.375H47.2725C63.2725 44.375 71.6475 51.5 71.6475 64C71.6475 76.5 63.2725 83.625 47.2725 83.625ZM111.163 65.875V54.75H99.6631V121H111.663V88C111.663 73.5 119.663 65.625 132.538 65.625C133.413 65.625 134.288 65.625 135.288 65.75V54.125C123.663 54.125 115.413 58.125 111.163 65.875ZM177.843 121.75C197.718 121.75 212.218 107.625 212.218 87.875C212.218 68.125 197.718 54.125 177.843 54.125C157.968 54.125 143.343 68.125 143.343 87.875C143.343 107.625 157.968 121.75 177.843 121.75ZM177.843 111.25C165.093 111.25 155.468 102 155.468 87.875C155.468 73.75 165.093 64.625 177.843 64.625C190.593 64.625 200.093 73.75 200.093 87.875C200.093 102 190.593 111.25 177.843 111.25ZM279.313 28.25V64.75C273.813 57.625 265.563 54.125 256.188 54.125C236.813 54.125 222.688 67.625 222.688 87.875C222.688 108.125 236.813 121.75 256.188 121.75C265.938 121.75 274.438 118 279.813 110.5V121H291.313V28.25H279.313ZM257.188 111.25C244.438 111.25 234.813 102 234.813 87.875C234.813 73.75 244.438 64.625 257.188 64.625C269.813 64.625 279.438 73.75 279.438 87.875C279.438 102 269.813 111.25 257.188 111.25ZM363.769 54.75V89C363.769 103.25 355.769 111 343.269 111C331.894 111 325.394 104.5 325.394 91.5V54.75H313.394V92.875C313.394 112.375 324.769 121.75 341.894 121.75C351.269 121.75 359.519 117.875 364.394 111V121H375.769V54.75H363.769ZM427.488 121.75C439.363 121.75 449.238 116.75 454.488 107.5L445.363 101.75C441.113 108.25 434.613 111.25 427.363 111.25C414.363 111.25 404.613 102.25 404.613 87.875C404.613 73.75 414.363 64.625 427.363 64.625C434.613 64.625 441.113 67.625 445.363 74.125L454.488 68.25C449.238 59 439.363 54.125 427.488 54.125C407.113 54.125 392.488 68.125 392.488 87.875C392.488 107.625 407.113 121.75 427.488 121.75ZM504.379 108.5C501.879 110.5 498.504 111.625 495.004 111.625C488.379 111.625 484.629 107.625 484.629 100.5V64.625H503.629V54.75H484.629V40.25H472.629V54.75H461.379V64.625H472.629V101C472.629 114.375 480.254 121.75 493.629 121.75C499.004 121.75 504.504 120.25 508.129 117.125L504.379 108.5ZM528.637 42C533.387 42 536.762 38.5 536.762 34C536.762 29.75 533.262 26.375 528.637 26.375C524.012 26.375 520.512 29.875 520.512 34.25C520.512 38.625 524.012 42 528.637 42ZM522.637 121H534.637V54.75H522.637V121ZM585.924 121.75C605.799 121.75 620.299 107.625 620.299 87.875C620.299 68.125 605.799 54.125 585.924 54.125C566.049 54.125 551.424 68.125 551.424 87.875C551.424 107.625 566.049 121.75 585.924 121.75ZM585.924 111.25C573.174 111.25 563.549 102 563.549 87.875C563.549 73.75 573.174 64.625 585.924 64.625C598.674 64.625 608.174 73.75 608.174 87.875C608.174 102 598.674 111.25 585.924 111.25ZM672.27 54.125C661.77 54.125 653.27 58 648.395 64.75V54.75H636.895V121H648.895V86.875C648.895 72.5 657.145 64.875 669.895 64.875C681.27 64.875 687.77 71.25 687.77 84.25V121H699.77V82.875C699.77 63.375 688.395 54.125 672.27 54.125Z" transform="translate(6852 953)" fill="#ED2C75"/>
<circle cx="66.5" cy="66.5" r="56.5" transform="translate(2680 1136)" fill="white" stroke="#ED2C75" stroke-width="20"/>
<circle cx="66.5" cy="66.5" r="56.5" transform="translate(3088 1136)" fill="white" stroke="#ED2C75" stroke-width="20"/>
<circle cx="66.5" cy="66.5" r="56.5" transform="translate(5449 1136)" fill="white" stroke="#ED2C75" stroke-width="20"/>
<circle cx="66.5" cy="66.5" r="56.5" transform="translate(6290 1136)" fill="white" stroke="#ED2C75" stroke-width="20"/>
<circle cx="66.5" cy="66.5" r="56.5" transform="translate(7116 1136)" fill="white" stroke="#ED2C75" stroke-width="20"/>
<circle cx="66.5" cy="66.5" r="56.5" transform="translate(3688 1136)" fill="white" stroke="#ED2C75" stroke-width="20"/>
<circle cx="66.5" cy="66.5" r="56.5" transform="translate(3865 1136)" fill="white" stroke="#ED2C75" stroke-width="20"/>
<circle cx="66.5" cy="66.5" r="56.5" transform="translate(4042 1136)" fill="white" stroke="#ED2C75" stroke-width="20"/>
</svg>
