<svg width="23848" height="9540" viewBox="0 0 23848 9540" fill="none" xmlns="http://www.w3.org/2000/svg">
<path d="M1796.97 107V315.8L1628.97 107H1596.17V387H1636.17V178.2L1804.17 387H1836.97V107H1796.97ZM2106.78 282.2C2106.78 217 2063.18 173 2001.98 173C1940.78 173 1895.58 218.2 1895.58 281C1895.58 344.2 1941.18 389.4 2009.58 389.4C2044.78 389.4 2073.98 377.4 2093.18 355L2071.98 330.2C2056.38 347.4 2035.58 355.8 2010.78 355.8C1968.78 355.8 1938.78 331 1933.98 293.8H2105.98C2106.38 290.2 2106.78 285.4 2106.78 282.2ZM2001.98 205.4C2039.18 205.4 2065.98 230.6 2069.98 266.2H1933.98C1937.98 230.2 1965.18 205.4 2001.98 205.4ZM2442.6 175L2379.4 344.6L2316.6 175H2284.2L2220.2 343.8L2158.6 175H2122.2L2201 387H2237.8L2299.8 226.2L2361 387H2397.8L2477 175H2442.6ZM2710.58 390.2C2784.58 390.2 2818.98 353.4 2818.98 310.6C2818.98 207.8 2649.38 250.6 2649.38 182.2C2649.38 157.8 2669.78 137.8 2717.38 137.8C2742.18 137.8 2769.78 145 2794.18 160.6L2807.38 128.6C2784.18 112.6 2750.18 103.8 2717.38 103.8C2643.78 103.8 2610.18 140.6 2610.18 183.8C2610.18 287.8 2779.78 244.6 2779.78 313C2779.78 337.4 2758.98 356.2 2710.58 356.2C2674.58 356.2 2638.98 342.6 2618.18 323.8L2603.38 355C2625.78 375.8 2667.78 390.2 2710.58 390.2ZM3031.02 175V284.6C3031.02 330.2 3005.42 355 2965.42 355C2929.02 355 2908.22 334.2 2908.22 292.6V175H2869.82V297C2869.82 359.4 2906.22 389.4 2961.02 389.4C2991.02 389.4 3017.42 377 3033.02 355V387H3069.42V175H3031.02ZM3254.93 173C3224.92 173 3198.53 184.2 3180.93 207V90.2H3142.52V387H3179.32V353.4C3196.52 377.4 3223.72 389.4 3254.93 389.4C3316.93 389.4 3362.12 345.8 3362.12 281C3362.12 216.2 3316.93 173 3254.93 173ZM3251.72 355.8C3211.33 355.8 3180.53 326.2 3180.53 281C3180.53 235.8 3211.33 206.6 3251.72 206.6C3292.52 206.6 3323.32 235.8 3323.32 281C3323.32 326.2 3292.52 355.8 3251.72 355.8ZM3680.38 173C3644.38 173 3614.78 188.2 3598.78 212.2C3584.78 185.8 3557.58 173 3525.18 173C3493.18 173 3467.18 185 3451.98 206.6V175H3415.18V387H3453.58V277.8C3453.58 231.8 3478.78 207.4 3517.18 207.4C3551.98 207.4 3571.98 227.8 3571.98 269.4V387H3610.38V277.8C3610.38 231.8 3635.58 207.4 3673.98 207.4C3708.78 207.4 3728.78 227.8 3728.78 269.4V387H3767.18V265C3767.18 202.6 3731.98 173 3680.38 173ZM3857.04 134.2C3872.24 134.2 3883.04 123 3883.04 108.6C3883.04 95 3871.84 84.2 3857.04 84.2C3842.24 84.2 3831.04 95.4 3831.04 109.4C3831.04 123.4 3842.24 134.2 3857.04 134.2ZM3837.84 387H3876.24V175H3837.84V387ZM4010.36 389.4C4066.76 389.4 4101.96 365 4101.96 326.6C4101.96 244.2 3967.56 285 3967.56 235C3967.56 218.2 3983.96 205.8 4017.56 205.8C4038.36 205.8 4059.56 210.2 4078.76 222.6L4095.16 192.2C4076.76 180.2 4045.56 173 4017.96 173C3963.56 173 3929.56 198.6 3929.56 236.6C3929.56 321 4063.56 279.8 4063.56 327.4C4063.56 345.4 4048.76 356.2 4013.16 356.2C3985.56 356.2 3956.76 347 3938.76 334.2L3922.76 364.6C3940.36 378.6 3975.16 389.4 4010.36 389.4ZM4210.75 389.4C4267.15 389.4 4302.35 365 4302.35 326.6C4302.35 244.2 4167.95 285 4167.95 235C4167.95 218.2 4184.35 205.8 4217.95 205.8C4238.75 205.8 4259.95 210.2 4279.15 222.6L4295.55 192.2C4277.15 180.2 4245.95 173 4218.35 173C4163.95 173 4129.95 198.6 4129.95 236.6C4129.95 321 4263.95 279.8 4263.95 327.4C4263.95 345.4 4249.15 356.2 4213.55 356.2C4185.95 356.2 4157.15 347 4139.15 334.2L4123.15 364.6C4140.75 378.6 4175.55 389.4 4210.75 389.4ZM4369.54 134.2C4384.74 134.2 4395.54 123 4395.54 108.6C4395.54 95 4384.34 84.2 4369.54 84.2C4354.74 84.2 4343.54 95.4 4343.54 109.4C4343.54 123.4 4354.74 134.2 4369.54 134.2ZM4350.34 387H4388.74V175H4350.34V387ZM4552.86 389.4C4616.46 389.4 4662.86 344.2 4662.86 281C4662.86 217.8 4616.46 173 4552.86 173C4489.26 173 4442.46 217.8 4442.46 281C4442.46 344.2 4489.26 389.4 4552.86 389.4ZM4552.86 355.8C4512.06 355.8 4481.26 326.2 4481.26 281C4481.26 235.8 4512.06 206.6 4552.86 206.6C4593.66 206.6 4624.06 235.8 4624.06 281C4624.06 326.2 4593.66 355.8 4552.86 355.8ZM4829.16 173C4795.56 173 4768.36 185.4 4752.76 207V175H4715.96V387H4754.36V277.8C4754.36 231.8 4780.76 207.4 4821.56 207.4C4857.96 207.4 4878.76 227.8 4878.76 269.4V387H4917.16V265C4917.16 202.6 4880.76 173 4829.16 173Z" transform="translate(148 420)" fill="#4F4F4F"/>
<rect x="25" y="25" width="6752.81" height="1252" rx="75" stroke="#4F4F4F" stroke-width="50"/>
<path d="M1408.44 352.2V261.8H1548.84V227.8H1408.44V141.8H1566.04V107H1368.44V387H1571.64V352.2H1408.44ZM1789.67 90.2V207C1772.07 184.2 1745.67 173 1715.67 173C1653.67 173 1608.47 216.2 1608.47 281C1608.47 345.8 1653.67 389.4 1715.67 389.4C1746.87 389.4 1774.07 377.4 1791.27 353.4V387H1828.07V90.2H1789.67ZM1718.87 355.8C1678.07 355.8 1647.27 326.2 1647.27 281C1647.27 235.8 1678.07 206.6 1718.87 206.6C1759.27 206.6 1790.07 235.8 1790.07 281C1790.07 326.2 1759.27 355.8 1718.87 355.8ZM1919.93 134.2C1935.13 134.2 1945.93 123 1945.93 108.6C1945.93 95 1934.73 84.2 1919.93 84.2C1905.13 84.2 1893.93 95.4 1893.93 109.4C1893.93 123.4 1905.13 134.2 1919.93 134.2ZM1900.73 387H1939.13V175H1900.73V387ZM2119.65 347C2111.65 353.4 2100.85 357 2089.65 357C2068.45 357 2056.45 344.2 2056.45 321.4V206.6H2117.25V175H2056.45V128.6H2018.05V175H1982.05V206.6H2018.05V323C2018.05 365.8 2042.45 389.4 2085.25 389.4C2102.45 389.4 2120.05 384.6 2131.65 374.6L2119.65 347ZM2261.84 389.4C2325.44 389.4 2371.84 344.2 2371.84 281C2371.84 217.8 2325.44 173 2261.84 173C2198.24 173 2151.44 217.8 2151.44 281C2151.44 344.2 2198.24 389.4 2261.84 389.4ZM2261.84 355.8C2221.04 355.8 2190.24 326.2 2190.24 281C2190.24 235.8 2221.04 206.6 2261.84 206.6C2302.64 206.6 2333.04 235.8 2333.04 281C2333.04 326.2 2302.64 355.8 2261.84 355.8ZM2461.75 210.6V175H2424.95V387H2463.35V281.4C2463.35 235 2488.95 209.8 2530.15 209.8C2532.95 209.8 2535.75 209.8 2538.95 210.2V173C2501.75 173 2475.35 185.8 2461.75 210.6ZM2605.47 134.2C2620.68 134.2 2631.47 123 2631.47 108.6C2631.47 95 2620.27 84.2 2605.47 84.2C2590.67 84.2 2579.48 95.4 2579.48 109.4C2579.48 123.4 2590.67 134.2 2605.47 134.2ZM2586.27 387H2624.68V175H2586.27V387ZM2775.19 173C2741.19 173 2709.59 182.6 2687.59 200.2L2703.59 229C2719.99 215 2745.59 206.2 2770.79 206.2C2808.79 206.2 2827.59 225 2827.59 257.4V265H2766.79C2703.59 265 2681.59 293 2681.59 327C2681.59 363.8 2711.99 389.4 2759.99 389.4C2793.19 389.4 2816.79 378.2 2829.59 359V387H2865.99V259C2865.99 201 2833.19 173 2775.19 173ZM2766.39 359.8C2737.19 359.8 2719.59 346.6 2719.59 325.4C2719.59 307.4 2730.39 292.6 2768.39 292.6H2827.59V322.2C2817.99 346.6 2795.19 359.8 2766.39 359.8ZM2937.06 387H2975.46V90.2H2937.06V387ZM3243.4 390.2C3317.4 390.2 3351.8 353.4 3351.8 310.6C3351.8 207.8 3182.2 250.6 3182.2 182.2C3182.2 157.8 3202.6 137.8 3250.2 137.8C3275 137.8 3302.6 145 3327 160.6L3340.2 128.6C3317 112.6 3283 103.8 3250.2 103.8C3176.6 103.8 3143 140.6 3143 183.8C3143 287.8 3312.6 244.6 3312.6 313C3312.6 337.4 3291.8 356.2 3243.4 356.2C3207.4 356.2 3171.8 342.6 3151 323.8L3136.2 355C3158.6 375.8 3200.6 390.2 3243.4 390.2ZM3497.03 389.4C3535.03 389.4 3566.63 373.4 3583.43 343.8L3554.23 325.4C3540.63 346.2 3519.83 355.8 3496.63 355.8C3455.03 355.8 3423.83 327 3423.83 281C3423.83 235.8 3455.03 206.6 3496.63 206.6C3519.83 206.6 3540.63 216.2 3554.23 237L3583.43 218.2C3566.63 188.6 3535.03 173 3497.03 173C3431.83 173 3385.03 217.8 3385.03 281C3385.03 344.2 3431.83 389.4 3497.03 389.4ZM3669.95 210.6V175H3633.15V387H3671.55V281.4C3671.55 235 3697.15 209.8 3738.35 209.8C3741.15 209.8 3743.95 209.8 3747.15 210.2V173C3709.95 173 3683.55 185.8 3669.95 210.6ZM3984.12 282.2C3984.12 217 3940.52 173 3879.32 173C3818.13 173 3772.92 218.2 3772.92 281C3772.92 344.2 3818.53 389.4 3886.92 389.4C3922.12 389.4 3951.33 377.4 3970.53 355L3949.33 330.2C3933.73 347.4 3912.92 355.8 3888.13 355.8C3846.12 355.8 3816.13 331 3811.32 293.8H3983.33C3983.73 290.2 3984.12 285.4 3984.12 282.2ZM3879.32 205.4C3916.52 205.4 3943.32 230.6 3947.32 266.2H3811.32C3815.33 230.2 3842.53 205.4 3879.32 205.4ZM4229.05 282.2C4229.05 217 4185.45 173 4124.25 173C4063.05 173 4017.85 218.2 4017.85 281C4017.85 344.2 4063.45 389.4 4131.85 389.4C4167.05 389.4 4196.25 377.4 4215.45 355L4194.25 330.2C4178.65 347.4 4157.85 355.8 4133.05 355.8C4091.05 355.8 4061.05 331 4056.25 293.8H4228.25C4228.65 290.2 4229.05 285.4 4229.05 282.2ZM4124.25 205.4C4161.45 205.4 4188.25 230.6 4192.25 266.2H4056.25C4060.25 230.2 4087.45 205.4 4124.25 205.4ZM4395.57 173C4361.97 173 4334.77 185.4 4319.17 207V175H4282.37V387H4320.77V277.8C4320.77 231.8 4347.17 207.4 4387.97 207.4C4424.37 207.4 4445.17 227.8 4445.17 269.4V387H4483.57V265C4483.57 202.6 4447.17 173 4395.57 173ZM4573.83 134.2C4589.03 134.2 4599.83 123 4599.83 108.6C4599.83 95 4588.63 84.2 4573.83 84.2C4559.03 84.2 4547.83 95.4 4547.83 109.4C4547.83 123.4 4559.03 134.2 4573.83 134.2ZM4554.63 387H4593.03V175H4554.63V387ZM4779.55 173C4745.95 173 4718.75 185.4 4703.15 207V175H4666.35V387H4704.75V277.8C4704.75 231.8 4731.15 207.4 4771.95 207.4C4808.35 207.4 4829.15 227.8 4829.15 269.4V387H4867.55V265C4867.55 202.6 4831.15 173 4779.55 173ZM5106.19 175V207.8C5088.19 184.6 5059.39 173 5027.79 173C4966.59 173 4920.19 214.2 4920.19 275.4C4920.19 336.6 4966.59 378.2 5027.79 378.2C5058.19 378.2 5085.79 367.4 5104.19 345.4V362.2C5104.19 410.2 5081.39 433.4 5031.39 433.4C5000.19 433.4 4969.39 422.6 4949.79 405.8L4931.39 435.4C4954.59 456.2 4993.79 467 5032.59 467C5104.59 467 5142.59 433 5142.59 358.2V175H5106.19ZM5032.19 344.6C4989.39 344.6 4958.99 316.2 4958.99 275.4C4958.99 234.2 4989.39 206.6 5032.19 206.6C5074.59 206.6 5104.99 234.2 5104.99 275.4C5104.99 316.2 5074.59 344.6 5032.19 344.6Z" transform="translate(8596 420)" fill="#4F4F4F"/>
<rect x="25" y="25" width="6752.81" height="1252" rx="75" transform="translate(8448 13)" stroke="#4F4F4F" stroke-width="50"/>
<path d="M1515.08 352.2V261.8H1655.48V227.8H1515.08V141.8H1672.68V107H1475.08V387H1678.28V352.2H1515.08ZM1896.31 90.2V207C1878.71 184.2 1852.31 173 1822.31 173C1760.31 173 1715.11 216.2 1715.11 281C1715.11 345.8 1760.31 389.4 1822.31 389.4C1853.51 389.4 1880.71 377.4 1897.91 353.4V387H1934.71V90.2H1896.31ZM1825.51 355.8C1784.71 355.8 1753.91 326.2 1753.91 281C1753.91 235.8 1784.71 206.6 1825.51 206.6C1865.91 206.6 1896.71 235.8 1896.71 281C1896.71 326.2 1865.91 355.8 1825.51 355.8ZM2026.57 134.2C2041.77 134.2 2052.57 123 2052.57 108.6C2052.57 95 2041.37 84.2 2026.57 84.2C2011.77 84.2 2000.57 95.4 2000.57 109.4C2000.57 123.4 2011.77 134.2 2026.57 134.2ZM2007.37 387H2045.77V175H2007.37V387ZM2226.29 347C2218.29 353.4 2207.49 357 2196.29 357C2175.09 357 2163.09 344.2 2163.09 321.4V206.6H2223.89V175H2163.09V128.6H2124.69V175H2088.69V206.6H2124.69V323C2124.69 365.8 2149.09 389.4 2191.89 389.4C2209.09 389.4 2226.69 384.6 2238.29 374.6L2226.29 347ZM2368.48 389.4C2432.08 389.4 2478.48 344.2 2478.48 281C2478.48 217.8 2432.08 173 2368.48 173C2304.88 173 2258.08 217.8 2258.08 281C2258.08 344.2 2304.88 389.4 2368.48 389.4ZM2368.48 355.8C2327.68 355.8 2296.88 326.2 2296.88 281C2296.88 235.8 2327.68 206.6 2368.48 206.6C2409.28 206.6 2439.68 235.8 2439.68 281C2439.68 326.2 2409.28 355.8 2368.48 355.8ZM2568.39 210.6V175H2531.59V387H2569.99V281.4C2569.99 235 2595.59 209.8 2636.79 209.8C2639.59 209.8 2642.39 209.8 2645.59 210.2V173C2608.39 173 2581.99 185.8 2568.39 210.6ZM2712.12 134.2C2727.32 134.2 2738.12 123 2738.12 108.6C2738.12 95 2726.92 84.2 2712.12 84.2C2697.32 84.2 2686.12 95.4 2686.12 109.4C2686.12 123.4 2697.32 134.2 2712.12 134.2ZM2692.92 387H2731.32V175H2692.92V387ZM2881.83 173C2847.83 173 2816.23 182.6 2794.23 200.2L2810.23 229C2826.63 215 2852.23 206.2 2877.43 206.2C2915.43 206.2 2934.23 225 2934.23 257.4V265H2873.43C2810.23 265 2788.23 293 2788.23 327C2788.23 363.8 2818.63 389.4 2866.63 389.4C2899.83 389.4 2923.43 378.2 2936.23 359V387H2972.63V259C2972.63 201 2939.83 173 2881.83 173ZM2873.03 359.8C2843.83 359.8 2826.23 346.6 2826.23 325.4C2826.23 307.4 2837.03 292.6 2875.03 292.6H2934.23V322.2C2924.63 346.6 2901.83 359.8 2873.03 359.8ZM3043.7 387H3082.1V90.2H3043.7V387ZM3477.64 387H3519.64L3392.44 107H3352.84L3226.04 387H3267.24L3298.04 317H3446.84L3477.64 387ZM3312.04 285L3372.44 147.8L3432.84 285H3312.04ZM3614.65 389.4C3671.05 389.4 3706.25 365 3706.25 326.6C3706.25 244.2 3571.85 285 3571.85 235C3571.85 218.2 3588.25 205.8 3621.85 205.8C3642.65 205.8 3663.85 210.2 3683.05 222.6L3699.45 192.2C3681.05 180.2 3649.85 173 3622.25 173C3567.85 173 3533.85 198.6 3533.85 236.6C3533.85 321 3667.85 279.8 3667.85 327.4C3667.85 345.4 3653.05 356.2 3617.45 356.2C3589.85 356.2 3561.05 347 3543.05 334.2L3527.05 364.6C3544.65 378.6 3579.45 389.4 3614.65 389.4ZM3815.04 389.4C3871.44 389.4 3906.64 365 3906.64 326.6C3906.64 244.2 3772.24 285 3772.24 235C3772.24 218.2 3788.64 205.8 3822.24 205.8C3843.04 205.8 3864.24 210.2 3883.44 222.6L3899.84 192.2C3881.44 180.2 3850.24 173 3822.64 173C3768.24 173 3734.24 198.6 3734.24 236.6C3734.24 321 3868.24 279.8 3868.24 327.4C3868.24 345.4 3853.44 356.2 3817.84 356.2C3790.24 356.2 3761.44 347 3743.44 334.2L3727.44 364.6C3745.04 378.6 3779.84 389.4 3815.04 389.4ZM3973.83 134.2C3989.03 134.2 3999.83 123 3999.83 108.6C3999.83 95 3988.63 84.2 3973.83 84.2C3959.03 84.2 3947.83 95.4 3947.83 109.4C3947.83 123.4 3959.03 134.2 3973.83 134.2ZM3954.63 387H3993.03V175H3954.63V387ZM4127.15 389.4C4183.55 389.4 4218.75 365 4218.75 326.6C4218.75 244.2 4084.35 285 4084.35 235C4084.35 218.2 4100.75 205.8 4134.35 205.8C4155.15 205.8 4176.35 210.2 4195.55 222.6L4211.95 192.2C4193.55 180.2 4162.35 173 4134.75 173C4080.35 173 4046.35 198.6 4046.35 236.6C4046.35 321 4180.35 279.8 4180.35 327.4C4180.35 345.4 4165.55 356.2 4129.95 356.2C4102.35 356.2 4073.55 347 4055.55 334.2L4039.55 364.6C4057.15 378.6 4091.95 389.4 4127.15 389.4ZM4373.94 347C4365.94 353.4 4355.14 357 4343.94 357C4322.74 357 4310.74 344.2 4310.74 321.4V206.6H4371.54V175H4310.74V128.6H4272.34V175H4236.34V206.6H4272.34V323C4272.34 365.8 4296.74 389.4 4339.54 389.4C4356.74 389.4 4374.34 384.6 4385.94 374.6L4373.94 347ZM4509.57 173C4475.57 173 4443.97 182.6 4421.97 200.2L4437.97 229C4454.37 215 4479.97 206.2 4505.17 206.2C4543.17 206.2 4561.97 225 4561.97 257.4V265H4501.17C4437.97 265 4415.97 293 4415.97 327C4415.97 363.8 4446.37 389.4 4494.37 389.4C4527.57 389.4 4551.17 378.2 4563.97 359V387H4600.37V259C4600.37 201 4567.57 173 4509.57 173ZM4500.77 359.8C4471.57 359.8 4453.97 346.6 4453.97 325.4C4453.97 307.4 4464.77 292.6 4502.77 292.6H4561.97V322.2C4552.37 346.6 4529.57 359.8 4500.77 359.8ZM4784.63 173C4751.03 173 4723.83 185.4 4708.23 207V175H4671.43V387H4709.83V277.8C4709.83 231.8 4736.23 207.4 4777.03 207.4C4813.43 207.4 4834.23 227.8 4834.23 269.4V387H4872.63V265C4872.63 202.6 4836.23 173 4784.63 173ZM5050.9 347C5042.9 353.4 5032.1 357 5020.9 357C4999.7 357 4987.7 344.2 4987.7 321.4V206.6H5048.5V175H4987.7V128.6H4949.3V175H4913.3V206.6H4949.3V323C4949.3 365.8 4973.7 389.4 5016.5 389.4C5033.7 389.4 5051.3 384.6 5062.9 374.6L5050.9 347Z" transform="translate(17193 420)" fill="#4F4F4F"/>
<rect x="25" y="25" width="6752.81" height="1252" rx="75" transform="translate(17045 13)" stroke="#4F4F4F" stroke-width="50"/>
<path d="M2161.43 387H2203.43L2076.23 107H2036.63L1909.83 387H1951.03L1981.83 317H2130.63L2161.43 387ZM1995.83 285L2056.23 147.8L2116.63 285H1995.83ZM2298.44 389.4C2354.84 389.4 2390.04 365 2390.04 326.6C2390.04 244.2 2255.64 285 2255.64 235C2255.64 218.2 2272.04 205.8 2305.64 205.8C2326.44 205.8 2347.64 210.2 2366.84 222.6L2383.24 192.2C2364.84 180.2 2333.64 173 2306.04 173C2251.64 173 2217.64 198.6 2217.64 236.6C2217.64 321 2351.64 279.8 2351.64 327.4C2351.64 345.4 2336.84 356.2 2301.24 356.2C2273.64 356.2 2244.84 347 2226.84 334.2L2210.84 364.6C2228.44 378.6 2263.24 389.4 2298.44 389.4ZM2498.83 389.4C2555.23 389.4 2590.43 365 2590.43 326.6C2590.43 244.2 2456.03 285 2456.03 235C2456.03 218.2 2472.43 205.8 2506.03 205.8C2526.83 205.8 2548.03 210.2 2567.23 222.6L2583.63 192.2C2565.23 180.2 2534.03 173 2506.43 173C2452.03 173 2418.03 198.6 2418.03 236.6C2418.03 321 2552.03 279.8 2552.03 327.4C2552.03 345.4 2537.23 356.2 2501.63 356.2C2474.03 356.2 2445.23 347 2427.23 334.2L2411.23 364.6C2428.83 378.6 2463.63 389.4 2498.83 389.4ZM2657.62 134.2C2672.82 134.2 2683.62 123 2683.62 108.6C2683.62 95 2672.42 84.2 2657.62 84.2C2642.82 84.2 2631.62 95.4 2631.62 109.4C2631.62 123.4 2642.82 134.2 2657.62 134.2ZM2638.42 387H2676.82V175H2638.42V387ZM2916.54 175V207.8C2898.54 184.6 2869.74 173 2838.14 173C2776.94 173 2730.54 214.2 2730.54 275.4C2730.54 336.6 2776.94 378.2 2838.14 378.2C2868.54 378.2 2896.14 367.4 2914.54 345.4V362.2C2914.54 410.2 2891.74 433.4 2841.74 433.4C2810.54 433.4 2779.74 422.6 2760.14 405.8L2741.74 435.4C2764.94 456.2 2804.14 467 2842.94 467C2914.94 467 2952.94 433 2952.94 358.2V175H2916.54ZM2842.54 344.6C2799.74 344.6 2769.34 316.2 2769.34 275.4C2769.34 234.2 2799.74 206.6 2842.54 206.6C2884.94 206.6 2915.34 234.2 2915.34 275.4C2915.34 316.2 2884.94 344.6 2842.54 344.6ZM3139.51 173C3105.91 173 3078.71 185.4 3063.11 207V175H3026.31V387H3064.71V277.8C3064.71 231.8 3091.11 207.4 3131.91 207.4C3168.31 207.4 3189.11 227.8 3189.11 269.4V387H3227.51V265C3227.51 202.6 3191.11 173 3139.51 173ZM3451.6 352.2V261.8H3592V227.8H3451.6V141.8H3609.2V107H3411.6V387H3614.8V352.2H3451.6ZM3832.84 90.2V207C3815.24 184.2 3788.84 173 3758.84 173C3696.84 173 3651.64 216.2 3651.64 281C3651.64 345.8 3696.84 389.4 3758.84 389.4C3790.04 389.4 3817.24 377.4 3834.44 353.4V387H3871.24V90.2H3832.84ZM3762.04 355.8C3721.24 355.8 3690.44 326.2 3690.44 281C3690.44 235.8 3721.24 206.6 3762.04 206.6C3802.44 206.6 3833.24 235.8 3833.24 281C3833.24 326.2 3802.44 355.8 3762.04 355.8ZM3963.09 134.2C3978.29 134.2 3989.09 123 3989.09 108.6C3989.09 95 3977.89 84.2 3963.09 84.2C3948.29 84.2 3937.09 95.4 3937.09 109.4C3937.09 123.4 3948.29 134.2 3963.09 134.2ZM3943.89 387H3982.29V175H3943.89V387ZM4162.81 347C4154.81 353.4 4144.01 357 4132.81 357C4111.61 357 4099.61 344.2 4099.61 321.4V206.6H4160.41V175H4099.61V128.6H4061.21V175H4025.21V206.6H4061.21V323C4061.21 365.8 4085.61 389.4 4128.41 389.4C4145.61 389.4 4163.21 384.6 4174.81 374.6L4162.81 347ZM4305 389.4C4368.6 389.4 4415 344.2 4415 281C4415 217.8 4368.6 173 4305 173C4241.4 173 4194.6 217.8 4194.6 281C4194.6 344.2 4241.4 389.4 4305 389.4ZM4305 355.8C4264.2 355.8 4233.4 326.2 4233.4 281C4233.4 235.8 4264.2 206.6 4305 206.6C4345.8 206.6 4376.2 235.8 4376.2 281C4376.2 326.2 4345.8 355.8 4305 355.8ZM4504.91 210.6V175H4468.11V387H4506.51V281.4C4506.51 235 4532.11 209.8 4573.31 209.8C4576.11 209.8 4578.91 209.8 4582.11 210.2V173C4544.91 173 4518.51 185.8 4504.91 210.6Z" transform="translate(148 3374)" fill="#4F4F4F"/>
<rect x="25" y="25" width="6752.81" height="1252" rx="75" transform="translate(0 2967)" stroke="#4F4F4F" stroke-width="50"/>
<path d="M1573.93 107H1464.73V387H1504.73V302.2H1573.93C1646.73 302.2 1690.73 265.4 1690.73 204.6C1690.73 143.8 1646.73 107 1573.93 107ZM1572.73 267.4H1504.73V141.8H1572.73C1623.93 141.8 1650.73 164.6 1650.73 204.6C1650.73 244.6 1623.93 267.4 1572.73 267.4ZM1907 175V284.6C1907 330.2 1881.4 355 1841.4 355C1805 355 1784.2 334.2 1784.2 292.6V175H1745.8V297C1745.8 359.4 1782.2 389.4 1837 389.4C1867 389.4 1893.4 377 1909 355V387H1945.4V175H1907ZM2130.9 173C2100.9 173 2074.5 184.2 2056.9 207V90.2H2018.5V387H2055.3V353.4C2072.5 377.4 2099.7 389.4 2130.9 389.4C2192.9 389.4 2238.1 345.8 2238.1 281C2238.1 216.2 2192.9 173 2130.9 173ZM2127.7 355.8C2087.3 355.8 2056.5 326.2 2056.5 281C2056.5 235.8 2087.3 206.6 2127.7 206.6C2168.5 206.6 2199.3 235.8 2199.3 281C2199.3 326.2 2168.5 355.8 2127.7 355.8ZM2291.16 387H2329.56V90.2H2291.16V387ZM2422.08 134.2C2437.28 134.2 2448.08 123 2448.08 108.6C2448.08 95 2436.88 84.2 2422.08 84.2C2407.28 84.2 2396.08 95.4 2396.08 109.4C2396.08 123.4 2407.28 134.2 2422.08 134.2ZM2402.88 387H2441.28V175H2402.88V387ZM2575.4 389.4C2631.8 389.4 2667 365 2667 326.6C2667 244.2 2532.6 285 2532.6 235C2532.6 218.2 2549 205.8 2582.6 205.8C2603.4 205.8 2624.6 210.2 2643.8 222.6L2660.2 192.2C2641.8 180.2 2610.6 173 2583 173C2528.6 173 2494.6 198.6 2494.6 236.6C2494.6 321 2628.6 279.8 2628.6 327.4C2628.6 345.4 2613.8 356.2 2578.2 356.2C2550.6 356.2 2521.8 347 2503.8 334.2L2487.8 364.6C2505.4 378.6 2540.2 389.4 2575.4 389.4ZM2828.19 173C2795.79 173 2769.39 184.6 2753.39 205V90.2H2714.99V387H2753.39V277.8C2753.39 231.8 2779.79 207.4 2820.59 207.4C2856.99 207.4 2877.79 227.8 2877.79 269.4V387H2916.19V265C2916.19 202.6 2879.79 173 2828.19 173ZM3216.27 390.2C3290.27 390.2 3334.67 347.4 3334.67 266.2V107H3295.87V264.6C3295.87 326.6 3267.07 354.6 3216.67 354.6C3166.27 354.6 3137.87 326.6 3137.87 264.6V107H3097.87V266.2C3097.87 347.4 3142.67 390.2 3216.27 390.2ZM3524.28 173C3490.68 173 3463.48 185.4 3447.88 207V175H3411.08V387H3449.48V277.8C3449.48 231.8 3475.88 207.4 3516.68 207.4C3553.08 207.4 3573.88 227.8 3573.88 269.4V387H3612.28V265C3612.28 202.6 3575.88 173 3524.28 173ZM3760.55 173C3726.55 173 3694.95 182.6 3672.95 200.2L3688.95 229C3705.35 215 3730.95 206.2 3756.15 206.2C3794.15 206.2 3812.95 225 3812.95 257.4V265H3752.15C3688.95 265 3666.95 293 3666.95 327C3666.95 363.8 3697.35 389.4 3745.35 389.4C3778.55 389.4 3802.15 378.2 3814.95 359V387H3851.35V259C3851.35 201 3818.55 173 3760.55 173ZM3751.75 359.8C3722.55 359.8 3704.95 346.6 3704.95 325.4C3704.95 307.4 3715.75 292.6 3753.75 292.6H3812.95V322.2C3803.35 346.6 3780.55 359.8 3751.75 359.8ZM3922.41 387H3960.81V90.2H3922.41V387ZM4146.4 347C4138.4 353.4 4127.6 357 4116.4 357C4095.2 357 4083.2 344.2 4083.2 321.4V206.6H4144V175H4083.2V128.6H4044.8V175H4008.8V206.6H4044.8V323C4044.8 365.8 4069.2 389.4 4112 389.4C4129.2 389.4 4146.8 384.6 4158.4 374.6L4146.4 347ZM4389.4 282.2C4389.4 217 4345.8 173 4284.6 173C4223.4 173 4178.2 218.2 4178.2 281C4178.2 344.2 4223.8 389.4 4292.2 389.4C4327.4 389.4 4356.6 377.4 4375.8 355L4354.6 330.2C4339 347.4 4318.2 355.8 4293.4 355.8C4251.4 355.8 4221.4 331 4216.6 293.8H4388.6C4389 290.2 4389.4 285.4 4389.4 282.2ZM4284.6 205.4C4321.8 205.4 4348.6 230.6 4352.6 266.2H4216.6C4220.6 230.2 4247.8 205.4 4284.6 205.4ZM4479.52 210.6V175H4442.72V387H4481.12V281.4C4481.12 235 4506.72 209.8 4547.92 209.8C4550.72 209.8 4553.52 209.8 4556.72 210.2V173C4519.52 173 4493.12 185.8 4479.52 210.6ZM4793.7 282.2C4793.7 217 4750.1 173 4688.9 173C4627.7 173 4582.5 218.2 4582.5 281C4582.5 344.2 4628.1 389.4 4696.5 389.4C4731.7 389.4 4760.9 377.4 4780.1 355L4758.9 330.2C4743.3 347.4 4722.5 355.8 4697.7 355.8C4655.7 355.8 4625.7 331 4620.9 293.8H4792.9C4793.3 290.2 4793.7 285.4 4793.7 282.2ZM4688.9 205.4C4726.1 205.4 4752.9 230.6 4756.9 266.2H4620.9C4624.9 230.2 4652.1 205.4 4688.9 205.4ZM5008.62 90.2V207C4991.02 184.2 4964.62 173 4934.62 173C4872.62 173 4827.42 216.2 4827.42 281C4827.42 345.8 4872.62 389.4 4934.62 389.4C4965.82 389.4 4993.02 377.4 5010.22 353.4V387H5047.02V90.2H5008.62ZM4937.82 355.8C4897.02 355.8 4866.22 326.2 4866.22 281C4866.22 235.8 4897.02 206.6 4937.82 206.6C4978.22 206.6 5009.02 235.8 5009.02 281C5009.02 326.2 4978.22 355.8 4937.82 355.8Z" transform="translate(148 8616)" fill="#61C4B9"/>
<rect x="25" y="25" width="6752.81" height="1252" rx="75" transform="translate(0 8238)" stroke="#61C4B9" stroke-width="50"/>
<path d="M2880.29 387L2813.89 293C2853.09 279 2875.49 247.8 2875.49 204.6C2875.49 143.8 2831.49 107 2758.69 107H2649.49V387H2689.49V301.8H2758.69C2764.69 301.8 2770.69 301.4 2776.29 301L2836.69 387H2880.29ZM2757.49 267.8H2689.49V141.8H2757.49C2808.69 141.8 2835.49 164.6 2835.49 204.6C2835.49 244.6 2808.69 267.8 2757.49 267.8ZM3126.12 282.2C3126.12 217 3082.52 173 3021.32 173C2960.12 173 2914.92 218.2 2914.92 281C2914.92 344.2 2960.52 389.4 3028.92 389.4C3064.12 389.4 3093.32 377.4 3112.52 355L3091.32 330.2C3075.72 347.4 3054.92 355.8 3030.12 355.8C2988.12 355.8 2958.12 331 2953.32 293.8H3125.32C3125.72 290.2 3126.12 285.4 3126.12 282.2ZM3021.32 205.4C3058.52 205.4 3085.32 230.6 3089.32 266.2H2953.32C2957.32 230.2 2984.52 205.4 3021.32 205.4ZM3200.64 134.2C3215.84 134.2 3226.64 123 3226.64 108.6C3226.64 95 3215.44 84.2 3200.64 84.2C3185.84 84.2 3174.64 95.4 3174.64 109.4C3174.64 123.4 3185.84 134.2 3200.64 134.2ZM3152.24 467C3195.84 467 3219.84 439.8 3219.84 396.6V175H3181.44V397.4C3181.44 421.8 3170.24 434.6 3149.84 434.6C3137.44 434.6 3126.24 431 3118.64 424.6L3106.24 454.2C3117.04 463 3134.64 467 3152.24 467ZM3484.71 282.2C3484.71 217 3441.11 173 3379.91 173C3318.71 173 3273.51 218.2 3273.51 281C3273.51 344.2 3319.11 389.4 3387.51 389.4C3422.71 389.4 3451.91 377.4 3471.11 355L3449.91 330.2C3434.31 347.4 3413.51 355.8 3388.71 355.8C3346.71 355.8 3316.71 331 3311.91 293.8H3483.91C3484.31 290.2 3484.71 285.4 3484.71 282.2ZM3379.91 205.4C3417.11 205.4 3443.91 230.6 3447.91 266.2H3311.91C3315.91 230.2 3343.11 205.4 3379.91 205.4ZM3630.43 389.4C3668.43 389.4 3700.03 373.4 3716.83 343.8L3687.63 325.4C3674.03 346.2 3653.23 355.8 3630.03 355.8C3588.43 355.8 3557.23 327 3557.23 281C3557.23 235.8 3588.43 206.6 3630.03 206.6C3653.23 206.6 3674.03 216.2 3687.63 237L3716.83 218.2C3700.03 188.6 3668.43 173 3630.43 173C3565.23 173 3518.43 217.8 3518.43 281C3518.43 344.2 3565.23 389.4 3630.43 389.4ZM3876.48 347C3868.48 353.4 3857.68 357 3846.48 357C3825.28 357 3813.28 344.2 3813.28 321.4V206.6H3874.08V175H3813.28V128.6H3774.88V175H3738.88V206.6H3774.88V323C3774.88 365.8 3799.28 389.4 3842.08 389.4C3859.28 389.4 3876.88 384.6 3888.48 374.6L3876.48 347Z" transform="translate(17181 8645)" fill="#ED2C75"/>
<rect x="25" y="25" width="6752.81" height="1252" rx="75" transform="translate(17033 8238)" stroke="#ED2C75" stroke-width="50"/>
<path d="M1739.55 387H1781.55L1654.35 107H1614.75L1487.95 387H1529.15L1559.95 317H1708.75L1739.55 387ZM1573.95 285L1634.35 147.8L1694.75 285H1573.95ZM1876.57 389.4C1932.97 389.4 1968.17 365 1968.17 326.6C1968.17 244.2 1833.77 285 1833.77 235C1833.77 218.2 1850.17 205.8 1883.77 205.8C1904.57 205.8 1925.77 210.2 1944.97 222.6L1961.37 192.2C1942.97 180.2 1911.77 173 1884.17 173C1829.77 173 1795.77 198.6 1795.77 236.6C1795.77 321 1929.77 279.8 1929.77 327.4C1929.77 345.4 1914.97 356.2 1879.37 356.2C1851.77 356.2 1822.97 347 1804.97 334.2L1788.97 364.6C1806.57 378.6 1841.37 389.4 1876.57 389.4ZM2076.96 389.4C2133.36 389.4 2168.56 365 2168.56 326.6C2168.56 244.2 2034.16 285 2034.16 235C2034.16 218.2 2050.56 205.8 2084.16 205.8C2104.96 205.8 2126.16 210.2 2145.36 222.6L2161.76 192.2C2143.36 180.2 2112.16 173 2084.56 173C2030.16 173 1996.16 198.6 1996.16 236.6C1996.16 321 2130.16 279.8 2130.16 327.4C2130.16 345.4 2115.36 356.2 2079.76 356.2C2052.16 356.2 2023.36 347 2005.36 334.2L1989.36 364.6C2006.96 378.6 2041.76 389.4 2076.96 389.4ZM2235.75 134.2C2250.95 134.2 2261.75 123 2261.75 108.6C2261.75 95 2250.55 84.2 2235.75 84.2C2220.95 84.2 2209.75 95.4 2209.75 109.4C2209.75 123.4 2220.95 134.2 2235.75 134.2ZM2216.55 387H2254.95V175H2216.55V387ZM2494.67 175V207.8C2476.67 184.6 2447.87 173 2416.27 173C2355.07 173 2308.67 214.2 2308.67 275.4C2308.67 336.6 2355.07 378.2 2416.27 378.2C2446.67 378.2 2474.27 367.4 2492.67 345.4V362.2C2492.67 410.2 2469.87 433.4 2419.87 433.4C2388.67 433.4 2357.87 422.6 2338.27 405.8L2319.87 435.4C2343.07 456.2 2382.27 467 2421.07 467C2493.07 467 2531.07 433 2531.07 358.2V175H2494.67ZM2420.67 344.6C2377.87 344.6 2347.47 316.2 2347.47 275.4C2347.47 234.2 2377.87 206.6 2420.67 206.6C2463.07 206.6 2493.47 234.2 2493.47 275.4C2493.47 316.2 2463.07 344.6 2420.67 344.6ZM2717.64 173C2684.04 173 2656.84 185.4 2641.24 207V175H2604.44V387H2642.84V277.8C2642.84 231.8 2669.24 207.4 2710.04 207.4C2746.44 207.4 2767.24 227.8 2767.24 269.4V387H2805.64V265C2805.64 202.6 2769.24 173 2717.64 173ZM3220.53 387L3154.13 293C3193.33 279 3215.73 247.8 3215.73 204.6C3215.73 143.8 3171.73 107 3098.93 107H2989.73V387H3029.73V301.8H3098.93C3104.93 301.8 3110.93 301.4 3116.53 301L3176.93 387H3220.53ZM3097.73 267.8H3029.73V141.8H3097.73C3148.93 141.8 3175.73 164.6 3175.73 204.6C3175.73 244.6 3148.93 267.8 3097.73 267.8ZM3466.35 282.2C3466.35 217 3422.75 173 3361.55 173C3300.35 173 3255.15 218.2 3255.15 281C3255.15 344.2 3300.75 389.4 3369.15 389.4C3404.35 389.4 3433.55 377.4 3452.75 355L3431.55 330.2C3415.95 347.4 3395.15 355.8 3370.35 355.8C3328.35 355.8 3298.35 331 3293.55 293.8H3465.55C3465.95 290.2 3466.35 285.4 3466.35 282.2ZM3361.55 205.4C3398.75 205.4 3425.55 230.6 3429.55 266.2H3293.55C3297.55 230.2 3324.75 205.4 3361.55 205.4ZM3665.77 175L3591.37 345L3518.57 175H3478.57L3571.37 387H3610.57L3703.37 175H3665.77ZM3758.4 134.2C3773.6 134.2 3784.4 123 3784.4 108.6C3784.4 95 3773.2 84.2 3758.4 84.2C3743.6 84.2 3732.4 95.4 3732.4 109.4C3732.4 123.4 3743.6 134.2 3758.4 134.2ZM3739.2 387H3777.6V175H3739.2V387ZM4042.52 282.2C4042.52 217 3998.92 173 3937.72 173C3876.52 173 3831.32 218.2 3831.32 281C3831.32 344.2 3876.92 389.4 3945.32 389.4C3980.52 389.4 4009.72 377.4 4028.92 355L4007.72 330.2C3992.12 347.4 3971.32 355.8 3946.52 355.8C3904.52 355.8 3874.52 331 3869.72 293.8H4041.72C4042.12 290.2 4042.52 285.4 4042.52 282.2ZM3937.72 205.4C3974.92 205.4 4001.72 230.6 4005.72 266.2H3869.72C3873.72 230.2 3900.92 205.4 3937.72 205.4ZM4378.34 175L4315.14 344.6L4252.34 175H4219.94L4155.94 343.8L4094.34 175H4057.94L4136.74 387H4173.54L4235.54 226.2L4296.74 387H4333.54L4412.74 175H4378.34ZM4637.45 282.2C4637.45 217 4593.85 173 4532.65 173C4471.45 173 4426.25 218.2 4426.25 281C4426.25 344.2 4471.85 389.4 4540.25 389.4C4575.45 389.4 4604.65 377.4 4623.85 355L4602.65 330.2C4587.05 347.4 4566.25 355.8 4541.45 355.8C4499.45 355.8 4469.45 331 4464.65 293.8H4636.65C4637.05 290.2 4637.45 285.4 4637.45 282.2ZM4532.65 205.4C4569.85 205.4 4596.65 230.6 4600.65 266.2H4464.65C4468.65 230.2 4495.85 205.4 4532.65 205.4ZM4727.57 210.6V175H4690.77V387H4729.17V281.4C4729.17 235 4754.77 209.8 4795.97 209.8C4798.77 209.8 4801.57 209.8 4804.77 210.2V173C4767.57 173 4741.17 185.8 4727.57 210.6ZM4914.46 389.4C4970.86 389.4 5006.06 365 5006.06 326.6C5006.06 244.2 4871.66 285 4871.66 235C4871.66 218.2 4888.06 205.8 4921.66 205.8C4942.46 205.8 4963.66 210.2 4982.86 222.6L4999.26 192.2C4980.86 180.2 4949.66 173 4922.06 173C4867.66 173 4833.66 198.6 4833.66 236.6C4833.66 321 4967.66 279.8 4967.66 327.4C4967.66 345.4 4952.86 356.2 4917.26 356.2C4889.66 356.2 4860.86 347 4842.86 334.2L4826.86 364.6C4844.46 378.6 4879.26 389.4 4914.46 389.4Z" transform="translate(8596 3374)" fill="#4F4F4F"/>
<rect x="25" y="25" width="6752.81" height="1252" rx="75" transform="translate(8448 2967)" stroke="#4F4F4F" stroke-width="50"/>
<path d="M1837.91 387L1771.51 293C1810.71 279 1833.11 247.8 1833.11 204.6C1833.11 143.8 1789.11 107 1716.31 107H1607.11V387H1647.11V301.8H1716.31C1722.31 301.8 1728.31 301.4 1733.91 301L1794.31 387H1837.91ZM1715.11 267.8H1647.11V141.8H1715.11C1766.31 141.8 1793.11 164.6 1793.11 204.6C1793.11 244.6 1766.31 267.8 1715.11 267.8ZM2083.73 282.2C2083.73 217 2040.13 173 1978.93 173C1917.73 173 1872.53 218.2 1872.53 281C1872.53 344.2 1918.13 389.4 1986.53 389.4C2021.73 389.4 2050.93 377.4 2070.13 355L2048.93 330.2C2033.33 347.4 2012.53 355.8 1987.73 355.8C1945.73 355.8 1915.73 331 1910.93 293.8H2082.93C2083.33 290.2 2083.73 285.4 2083.73 282.2ZM1978.93 205.4C2016.13 205.4 2042.93 230.6 2046.93 266.2H1910.93C1914.93 230.2 1942.13 205.4 1978.93 205.4ZM2283.15 175L2208.75 345L2135.95 175H2095.95L2188.75 387H2227.95L2320.75 175H2283.15ZM2375.79 134.2C2390.99 134.2 2401.79 123 2401.79 108.6C2401.79 95 2390.59 84.2 2375.79 84.2C2360.99 84.2 2349.79 95.4 2349.79 109.4C2349.79 123.4 2360.99 134.2 2375.79 134.2ZM2356.59 387H2394.99V175H2356.59V387ZM2659.91 282.2C2659.91 217 2616.31 173 2555.11 173C2493.91 173 2448.71 218.2 2448.71 281C2448.71 344.2 2494.31 389.4 2562.71 389.4C2597.91 389.4 2627.11 377.4 2646.31 355L2625.11 330.2C2609.51 347.4 2588.71 355.8 2563.91 355.8C2521.91 355.8 2491.91 331 2487.11 293.8H2659.11C2659.51 290.2 2659.91 285.4 2659.91 282.2ZM2555.11 205.4C2592.31 205.4 2619.11 230.6 2623.11 266.2H2487.11C2491.11 230.2 2518.31 205.4 2555.11 205.4ZM2995.72 175L2932.52 344.6L2869.72 175H2837.32L2773.32 343.8L2711.72 175H2675.32L2754.12 387H2790.92L2852.92 226.2L2914.12 387H2950.92L3030.12 175H2995.72ZM3254.83 282.2C3254.83 217 3211.23 173 3150.03 173C3088.83 173 3043.63 218.2 3043.63 281C3043.63 344.2 3089.23 389.4 3157.63 389.4C3192.83 389.4 3222.03 377.4 3241.23 355L3220.03 330.2C3204.43 347.4 3183.63 355.8 3158.83 355.8C3116.83 355.8 3086.83 331 3082.03 293.8H3254.03C3254.43 290.2 3254.83 285.4 3254.83 282.2ZM3150.03 205.4C3187.23 205.4 3214.03 230.6 3218.03 266.2H3082.03C3086.03 230.2 3113.23 205.4 3150.03 205.4ZM3344.95 210.6V175H3308.15V387H3346.55V281.4C3346.55 235 3372.15 209.8 3413.35 209.8C3416.15 209.8 3418.95 209.8 3422.15 210.2V173C3384.95 173 3358.55 185.8 3344.95 210.6ZM3816.03 387L3749.63 293C3788.83 279 3811.23 247.8 3811.23 204.6C3811.23 143.8 3767.23 107 3694.43 107H3585.23V387H3625.23V301.8H3694.43C3700.43 301.8 3706.43 301.4 3712.03 301L3772.43 387H3816.03ZM3693.23 267.8H3625.23V141.8H3693.23C3744.43 141.8 3771.23 164.6 3771.23 204.6C3771.23 244.6 3744.43 267.8 3693.23 267.8ZM4061.86 282.2C4061.86 217 4018.26 173 3957.06 173C3895.86 173 3850.66 218.2 3850.66 281C3850.66 344.2 3896.26 389.4 3964.66 389.4C3999.86 389.4 4029.06 377.4 4048.26 355L4027.06 330.2C4011.46 347.4 3990.66 355.8 3965.86 355.8C3923.86 355.8 3893.86 331 3889.06 293.8H4061.06C4061.46 290.2 4061.86 285.4 4061.86 282.2ZM3957.06 205.4C3994.26 205.4 4021.06 230.6 4025.06 266.2H3889.06C3893.06 230.2 3920.26 205.4 3957.06 205.4ZM4227.58 173C4196.38 173 4169.18 185 4151.98 208.6V175H4115.18V464.6H4153.58V355C4171.18 377.8 4197.58 389.4 4227.58 389.4C4289.58 389.4 4334.78 346.2 4334.78 281C4334.78 216.2 4289.58 173 4227.58 173ZM4224.38 355.8C4183.98 355.8 4153.18 326.2 4153.18 281C4153.18 236.2 4183.98 206.6 4224.38 206.6C4265.18 206.6 4295.98 236.2 4295.98 281C4295.98 326.2 4265.18 355.8 4224.38 355.8ZM4478.64 389.4C4542.24 389.4 4588.64 344.2 4588.64 281C4588.64 217.8 4542.24 173 4478.64 173C4415.04 173 4368.24 217.8 4368.24 281C4368.24 344.2 4415.04 389.4 4478.64 389.4ZM4478.64 355.8C4437.84 355.8 4407.04 326.2 4407.04 281C4407.04 235.8 4437.84 206.6 4478.64 206.6C4519.44 206.6 4549.84 235.8 4549.84 281C4549.84 326.2 4519.44 355.8 4478.64 355.8ZM4678.54 210.6V175H4641.74V387H4680.14V281.4C4680.14 235 4705.74 209.8 4746.94 209.8C4749.74 209.8 4752.54 209.8 4755.74 210.2V173C4718.54 173 4692.14 185.8 4678.54 210.6ZM4918.87 347C4910.87 353.4 4900.07 357 4888.87 357C4867.67 357 4855.67 344.2 4855.67 321.4V206.6H4916.47V175H4855.67V128.6H4817.27V175H4781.27V206.6H4817.27V323C4817.27 365.8 4841.67 389.4 4884.47 389.4C4901.67 389.4 4919.27 384.6 4930.87 374.6L4918.87 347Z" transform="translate(17191 3374)" fill="#4F4F4F"/>
<rect x="25" y="25" width="6752.81" height="1252" rx="75" transform="translate(17043 2967)" stroke="#4F4F4F" stroke-width="50"/>
<path d="M1480.51 352.2V261.8H1620.91V227.8H1480.51V141.8H1638.11V107H1440.51V387H1643.71V352.2H1480.51ZM1861.74 90.2V207C1844.14 184.2 1817.74 173 1787.74 173C1725.74 173 1680.54 216.2 1680.54 281C1680.54 345.8 1725.74 389.4 1787.74 389.4C1818.94 389.4 1846.14 377.4 1863.34 353.4V387H1900.14V90.2H1861.74ZM1790.94 355.8C1750.14 355.8 1719.34 326.2 1719.34 281C1719.34 235.8 1750.14 206.6 1790.94 206.6C1831.34 206.6 1862.14 235.8 1862.14 281C1862.14 326.2 1831.34 355.8 1790.94 355.8ZM1992 134.2C2007.2 134.2 2018 123 2018 108.6C2018 95 2006.8 84.2 1992 84.2C1977.2 84.2 1966 95.4 1966 109.4C1966 123.4 1977.2 134.2 1992 134.2ZM1972.8 387H2011.2V175H1972.8V387ZM2191.72 347C2183.72 353.4 2172.92 357 2161.72 357C2140.52 357 2128.52 344.2 2128.52 321.4V206.6H2189.32V175H2128.52V128.6H2090.12V175H2054.12V206.6H2090.12V323C2090.12 365.8 2114.52 389.4 2157.32 389.4C2174.52 389.4 2192.12 384.6 2203.72 374.6L2191.72 347ZM2333.91 389.4C2397.51 389.4 2443.91 344.2 2443.91 281C2443.91 217.8 2397.51 173 2333.91 173C2270.31 173 2223.51 217.8 2223.51 281C2223.51 344.2 2270.31 389.4 2333.91 389.4ZM2333.91 355.8C2293.11 355.8 2262.31 326.2 2262.31 281C2262.31 235.8 2293.11 206.6 2333.91 206.6C2374.71 206.6 2405.11 235.8 2405.11 281C2405.11 326.2 2374.71 355.8 2333.91 355.8ZM2533.82 210.6V175H2497.02V387H2535.42V281.4C2535.42 235 2561.02 209.8 2602.22 209.8C2605.02 209.8 2607.82 209.8 2611.02 210.2V173C2573.82 173 2547.42 185.8 2533.82 210.6ZM2735.3 107V141.8H2798.5V387H2838.1V107H2735.3ZM2977.35 389.4C3033.75 389.4 3068.95 365 3068.95 326.6C3068.95 244.2 2934.55 285 2934.55 235C2934.55 218.2 2950.95 205.8 2984.55 205.8C3005.35 205.8 3026.55 210.2 3045.75 222.6L3062.15 192.2C3043.75 180.2 3012.55 173 2984.95 173C2930.55 173 2896.55 198.6 2896.55 236.6C2896.55 321 3030.55 279.8 3030.55 327.4C3030.55 345.4 3015.75 356.2 2980.15 356.2C2952.55 356.2 2923.75 347 2905.75 334.2L2889.75 364.6C2907.35 378.6 2942.15 389.4 2977.35 389.4ZM3224.14 347C3216.14 353.4 3205.34 357 3194.14 357C3172.94 357 3160.94 344.2 3160.94 321.4V206.6H3221.74V175H3160.94V128.6H3122.54V175H3086.54V206.6H3122.54V323C3122.54 365.8 3146.94 389.4 3189.74 389.4C3206.94 389.4 3224.54 384.6 3236.14 374.6L3224.14 347ZM3395.59 387H3513.59C3603.59 387 3664.79 330.2 3664.79 247C3664.79 163.8 3603.59 107 3513.59 107H3395.59V387ZM3435.59 352.2V141.8H3511.19C3580.39 141.8 3624.79 184.2 3624.79 247C3624.79 309.8 3580.39 352.2 3511.19 352.2H3435.59ZM3912.05 282.2C3912.05 217 3868.45 173 3807.25 173C3746.05 173 3700.85 218.2 3700.85 281C3700.85 344.2 3746.45 389.4 3814.85 389.4C3850.05 389.4 3879.25 377.4 3898.45 355L3877.25 330.2C3861.65 347.4 3840.85 355.8 3816.05 355.8C3774.05 355.8 3744.05 331 3739.25 293.8H3911.25C3911.65 290.2 3912.05 285.4 3912.05 282.2ZM3807.25 205.4C3844.45 205.4 3871.25 230.6 3875.25 266.2H3739.25C3743.25 230.2 3770.45 205.4 3807.25 205.4ZM4057.78 389.4C4095.78 389.4 4127.38 373.4 4144.18 343.8L4114.98 325.4C4101.38 346.2 4080.58 355.8 4057.38 355.8C4015.78 355.8 3984.58 327 3984.58 281C3984.58 235.8 4015.78 206.6 4057.38 206.6C4080.58 206.6 4101.38 216.2 4114.98 237L4144.18 218.2C4127.38 188.6 4095.78 173 4057.78 173C3992.58 173 3945.78 217.8 3945.78 281C3945.78 344.2 3992.58 389.4 4057.78 389.4ZM4213.09 134.2C4228.29 134.2 4239.09 123 4239.09 108.6C4239.09 95 4227.89 84.2 4213.09 84.2C4198.29 84.2 4187.09 95.4 4187.09 109.4C4187.09 123.4 4198.29 134.2 4213.09 134.2ZM4193.89 387H4232.29V175H4193.89V387ZM4366.41 389.4C4422.81 389.4 4458.01 365 4458.01 326.6C4458.01 244.2 4323.61 285 4323.61 235C4323.61 218.2 4340.01 205.8 4373.61 205.8C4394.41 205.8 4415.61 210.2 4434.81 222.6L4451.21 192.2C4432.81 180.2 4401.61 173 4374.01 173C4319.61 173 4285.61 198.6 4285.61 236.6C4285.61 321 4419.61 279.8 4419.61 327.4C4419.61 345.4 4404.81 356.2 4369.21 356.2C4341.61 356.2 4312.81 347 4294.81 334.2L4278.81 364.6C4296.41 378.6 4331.21 389.4 4366.41 389.4ZM4525.2 134.2C4540.4 134.2 4551.2 123 4551.2 108.6C4551.2 95 4540 84.2 4525.2 84.2C4510.4 84.2 4499.2 95.4 4499.2 109.4C4499.2 123.4 4510.4 134.2 4525.2 134.2ZM4506 387H4544.4V175H4506V387ZM4708.52 389.4C4772.12 389.4 4818.52 344.2 4818.52 281C4818.52 217.8 4772.12 173 4708.52 173C4644.92 173 4598.12 217.8 4598.12 281C4598.12 344.2 4644.92 389.4 4708.52 389.4ZM4708.52 355.8C4667.72 355.8 4636.92 326.2 4636.92 281C4636.92 235.8 4667.72 206.6 4708.52 206.6C4749.32 206.6 4779.72 235.8 4779.72 281C4779.72 326.2 4749.32 355.8 4708.52 355.8ZM4984.83 173C4951.23 173 4924.03 185.4 4908.43 207V175H4871.63V387H4910.03V277.8C4910.03 231.8 4936.43 207.4 4977.23 207.4C5013.63 207.4 5034.43 227.8 5034.43 269.4V387H5072.83V265C5072.83 202.6 5036.43 173 4984.83 173Z" transform="translate(8596 6148)" fill="#4F4F4F"/>
<rect x="25" y="25" width="6752.81" height="1252" rx="75" transform="translate(8448 5741)" stroke="#4F4F4F" stroke-width="50"/>
<path d="M406.333 390.2C449.933 390.2 487.533 375 513.133 346.2L487.133 321C465.533 343.8 439.133 354.6 408.333 354.6C345.133 354.6 298.333 309 298.333 247C298.333 185 345.133 139.4 408.333 139.4C439.133 139.4 465.533 149.8 487.133 172.6L513.133 147.4C487.533 118.6 449.933 103.8 406.733 103.8C321.533 103.8 258.333 164.2 258.333 247C258.333 329.8 321.533 390.2 406.333 390.2ZM646.411 389.4C710.011 389.4 756.411 344.2 756.411 281C756.411 217.8 710.011 173 646.411 173C582.811 173 536.011 217.8 536.011 281C536.011 344.2 582.811 389.4 646.411 389.4ZM646.411 355.8C605.611 355.8 574.811 326.2 574.811 281C574.811 235.8 605.611 206.6 646.411 206.6C687.211 206.6 717.611 235.8 717.611 281C717.611 326.2 687.211 355.8 646.411 355.8ZM922.717 173C889.117 173 861.917 185.4 846.317 207V175H809.517V387H847.917V277.8C847.917 231.8 874.317 207.4 915.117 207.4C951.517 207.4 972.317 227.8 972.317 269.4V387H1010.72V265C1010.72 202.6 974.317 173 922.717 173ZM1142.58 389.4C1198.98 389.4 1234.18 365 1234.18 326.6C1234.18 244.2 1099.78 285 1099.78 235C1099.78 218.2 1116.18 205.8 1149.78 205.8C1170.58 205.8 1191.78 210.2 1210.98 222.6L1227.38 192.2C1208.98 180.2 1177.78 173 1150.18 173C1095.78 173 1061.78 198.6 1061.78 236.6C1061.78 321 1195.78 279.8 1195.78 327.4C1195.78 345.4 1180.98 356.2 1145.38 356.2C1117.78 356.2 1088.98 347 1070.98 334.2L1054.98 364.6C1072.58 378.6 1107.38 389.4 1142.58 389.4ZM1301.37 134.2C1316.57 134.2 1327.37 123 1327.37 108.6C1327.37 95 1316.17 84.2 1301.37 84.2C1286.57 84.2 1275.37 95.4 1275.37 109.4C1275.37 123.4 1286.57 134.2 1301.37 134.2ZM1282.17 387H1320.57V175H1282.17V387ZM1555.49 90.2V207C1537.89 184.2 1511.49 173 1481.49 173C1419.49 173 1374.29 216.2 1374.29 281C1374.29 345.8 1419.49 389.4 1481.49 389.4C1512.69 389.4 1539.89 377.4 1557.09 353.4V387H1593.89V90.2H1555.49ZM1484.69 355.8C1443.89 355.8 1413.09 326.2 1413.09 281C1413.09 235.8 1443.89 206.6 1484.69 206.6C1525.09 206.6 1555.89 235.8 1555.89 281C1555.89 326.2 1525.09 355.8 1484.69 355.8ZM1858.15 282.2C1858.15 217 1814.55 173 1753.35 173C1692.15 173 1646.95 218.2 1646.95 281C1646.95 344.2 1692.55 389.4 1760.95 389.4C1796.15 389.4 1825.35 377.4 1844.55 355L1823.35 330.2C1807.75 347.4 1786.95 355.8 1762.15 355.8C1720.15 355.8 1690.15 331 1685.35 293.8H1857.35C1857.75 290.2 1858.15 285.4 1858.15 282.2ZM1753.35 205.4C1790.55 205.4 1817.35 230.6 1821.35 266.2H1685.35C1689.35 230.2 1716.55 205.4 1753.35 205.4ZM1948.27 210.6V175H1911.47V387H1949.87V281.4C1949.87 235 1975.47 209.8 2016.67 209.8C2019.47 209.8 2022.27 209.8 2025.47 210.2V173C1988.27 173 1961.87 185.8 1948.27 210.6ZM2260.15 173C2226.15 173 2194.55 182.6 2172.55 200.2L2188.55 229C2204.95 215 2230.55 206.2 2255.75 206.2C2293.75 206.2 2312.55 225 2312.55 257.4V265H2251.75C2188.55 265 2166.55 293 2166.55 327C2166.55 363.8 2196.95 389.4 2244.95 389.4C2278.15 389.4 2301.75 378.2 2314.55 359V387H2350.95V259C2350.95 201 2318.15 173 2260.15 173ZM2251.35 359.8C2222.15 359.8 2204.55 346.6 2204.55 325.4C2204.55 307.4 2215.35 292.6 2253.35 292.6H2312.55V322.2C2302.95 346.6 2280.15 359.8 2251.35 359.8ZM2499.62 119.4C2510.82 119.4 2521.22 123.4 2529.22 129.4L2540.82 100.2C2530.02 91.8 2514.02 87.8 2497.62 87.8C2452.42 87.8 2427.62 115 2427.62 156.2V175H2391.62V206.6H2427.62V387H2466.02V206.6H2526.82V175H2465.22V156.6C2465.22 132.2 2476.82 119.4 2499.62 119.4ZM2670.23 347C2662.23 353.4 2651.43 357 2640.23 357C2619.03 357 2607.03 344.2 2607.03 321.4V206.6H2667.83V175H2607.03V128.6H2568.63V175H2532.63V206.6H2568.63V323C2568.63 365.8 2593.03 389.4 2635.83 389.4C2653.03 389.4 2670.63 384.6 2682.23 374.6L2670.23 347ZM2913.23 282.2C2913.23 217 2869.63 173 2808.43 173C2747.23 173 2702.03 218.2 2702.03 281C2702.03 344.2 2747.63 389.4 2816.03 389.4C2851.23 389.4 2880.43 377.4 2899.63 355L2878.43 330.2C2862.83 347.4 2842.03 355.8 2817.23 355.8C2775.23 355.8 2745.23 331 2740.43 293.8H2912.43C2912.83 290.2 2913.23 285.4 2913.23 282.2ZM2808.43 205.4C2845.63 205.4 2872.43 230.6 2876.43 266.2H2740.43C2744.43 230.2 2771.63 205.4 2808.43 205.4ZM3003.35 210.6V175H2966.55V387H3004.95V281.4C3004.95 235 3030.55 209.8 3071.75 209.8C3074.55 209.8 3077.35 209.8 3080.55 210.2V173C3043.35 173 3016.95 185.8 3003.35 210.6ZM3503.23 173C3467.23 173 3437.63 188.2 3421.63 212.2C3407.63 185.8 3380.43 173 3348.03 173C3316.03 173 3290.03 185 3274.83 206.6V175H3238.03V387H3276.43V277.8C3276.43 231.8 3301.63 207.4 3340.03 207.4C3374.83 207.4 3394.83 227.8 3394.83 269.4V387H3433.23V277.8C3433.23 231.8 3458.43 207.4 3496.83 207.4C3531.63 207.4 3551.63 227.8 3551.63 269.4V387H3590.03V265C3590.03 202.6 3554.83 173 3503.23 173ZM3679.89 134.2C3695.09 134.2 3705.89 123 3705.89 108.6C3705.89 95 3694.69 84.2 3679.89 84.2C3665.09 84.2 3653.89 95.4 3653.89 109.4C3653.89 123.4 3665.09 134.2 3679.89 134.2ZM3660.69 387H3699.09V175H3660.69V387ZM3885.61 173C3852.01 173 3824.81 185.4 3809.21 207V175H3772.41V387H3810.81V277.8C3810.81 231.8 3837.21 207.4 3878.01 207.4C3914.41 207.4 3935.21 227.8 3935.21 269.4V387H3973.61V265C3973.61 202.6 3937.21 173 3885.61 173ZM4136.65 389.4C4200.25 389.4 4246.65 344.2 4246.65 281C4246.65 217.8 4200.25 173 4136.65 173C4073.05 173 4026.25 217.8 4026.25 281C4026.25 344.2 4073.05 389.4 4136.65 389.4ZM4136.65 355.8C4095.85 355.8 4065.05 326.2 4065.05 281C4065.05 235.8 4095.85 206.6 4136.65 206.6C4177.45 206.6 4207.85 235.8 4207.85 281C4207.85 326.2 4177.45 355.8 4136.65 355.8ZM4336.55 210.6V175H4299.75V387H4338.15V281.4C4338.15 235 4363.75 209.8 4404.95 209.8C4407.75 209.8 4410.55 209.8 4413.75 210.2V173C4376.55 173 4350.15 185.8 4336.55 210.6ZM4663.64 389.4C4701.64 389.4 4733.24 373.4 4750.04 343.8L4720.84 325.4C4707.24 346.2 4686.44 355.8 4663.24 355.8C4621.64 355.8 4590.44 327 4590.44 281C4590.44 235.8 4621.64 206.6 4663.24 206.6C4686.44 206.6 4707.24 216.2 4720.84 237L4750.04 218.2C4733.24 188.6 4701.64 173 4663.64 173C4598.44 173 4551.64 217.8 4551.64 281C4551.64 344.2 4598.44 389.4 4663.64 389.4ZM4910.22 173C4877.82 173 4851.42 184.6 4835.42 205V90.2H4797.02V387H4835.42V277.8C4835.42 231.8 4861.82 207.4 4902.62 207.4C4939.02 207.4 4959.82 227.8 4959.82 269.4V387H4998.22V265C4998.22 202.6 4961.82 173 4910.22 173ZM5146.48 173C5112.48 173 5080.88 182.6 5058.88 200.2L5074.88 229C5091.28 215 5116.88 206.2 5142.08 206.2C5180.08 206.2 5198.88 225 5198.88 257.4V265H5138.08C5074.88 265 5052.88 293 5052.88 327C5052.88 363.8 5083.28 389.4 5131.28 389.4C5164.48 389.4 5188.08 378.2 5200.88 359V387H5237.28V259C5237.28 201 5204.48 173 5146.48 173ZM5137.68 359.8C5108.48 359.8 5090.88 346.6 5090.88 325.4C5090.88 307.4 5101.68 292.6 5139.68 292.6H5198.88V322.2C5189.28 346.6 5166.48 359.8 5137.68 359.8ZM5421.55 173C5387.95 173 5360.75 185.4 5345.15 207V175H5308.35V387H5346.75V277.8C5346.75 231.8 5373.15 207.4 5413.95 207.4C5450.35 207.4 5471.15 227.8 5471.15 269.4V387H5509.55V265C5509.55 202.6 5473.15 173 5421.55 173ZM5748.18 175V207.8C5730.18 184.6 5701.38 173 5669.78 173C5608.58 173 5562.18 214.2 5562.18 275.4C5562.18 336.6 5608.58 378.2 5669.78 378.2C5700.18 378.2 5727.78 367.4 5746.18 345.4V362.2C5746.18 410.2 5723.38 433.4 5673.38 433.4C5642.18 433.4 5611.38 422.6 5591.78 405.8L5573.38 435.4C5596.58 456.2 5635.78 467 5674.58 467C5746.58 467 5784.58 433 5784.58 358.2V175H5748.18ZM5674.18 344.6C5631.38 344.6 5600.98 316.2 5600.98 275.4C5600.98 234.2 5631.38 206.6 5674.18 206.6C5716.58 206.6 5746.98 234.2 5746.98 275.4C5746.98 316.2 5716.58 344.6 5674.18 344.6ZM6049.55 282.2C6049.55 217 6005.95 173 5944.75 173C5883.55 173 5838.35 218.2 5838.35 281C5838.35 344.2 5883.95 389.4 5952.35 389.4C5987.55 389.4 6016.75 377.4 6035.95 355L6014.75 330.2C5999.15 347.4 5978.35 355.8 5953.55 355.8C5911.55 355.8 5881.55 331 5876.75 293.8H6048.75C6049.15 290.2 6049.55 285.4 6049.55 282.2ZM5944.75 205.4C5981.95 205.4 6008.75 230.6 6012.75 266.2H5876.75C5880.75 230.2 5907.95 205.4 5944.75 205.4ZM6163.68 389.4C6220.08 389.4 6255.28 365 6255.28 326.6C6255.28 244.2 6120.88 285 6120.88 235C6120.88 218.2 6137.28 205.8 6170.88 205.8C6191.68 205.8 6212.88 210.2 6232.08 222.6L6248.48 192.2C6230.08 180.2 6198.88 173 6171.28 173C6116.88 173 6082.88 198.6 6082.88 236.6C6082.88 321 6216.88 279.8 6216.88 327.4C6216.88 345.4 6202.08 356.2 6166.48 356.2C6138.88 356.2 6110.08 347 6092.08 334.2L6076.08 364.6C6093.68 378.6 6128.48 389.4 6163.68 389.4Z" transform="translate(8596 8641)" fill="#7C4198"/>
<rect x="25" y="25" width="6752.81" height="1252" rx="75" transform="translate(8448 8238)" stroke="#7C4198" stroke-width="50"/>
<path d="M1343.68 17.6777C1353.44 7.91456 1353.44 -7.91456 1343.68 -17.6777L1184.58 -176.777C1174.82 -186.54 1158.99 -186.54 1149.22 -176.777C1139.46 -167.014 1139.46 -151.184 1149.22 -141.421L1290.64 0L1149.22 141.421C1139.46 151.184 1139.46 167.014 1149.22 176.777C1158.99 186.54 1174.82 186.54 1184.58 176.777L1343.68 17.6777ZM0 25H1326V-25H0V25Z" transform="translate(6803 651)" fill="#4F4F4F"/>
<path d="M1343.68 17.6777C1353.44 7.91456 1353.44 -7.91456 1343.68 -17.6777L1184.58 -176.777C1174.82 -186.54 1158.99 -186.54 1149.22 -176.777C1139.46 -167.014 1139.46 -151.184 1149.22 -141.421L1290.64 0L1149.22 141.421C1139.46 151.184 1139.46 167.014 1149.22 176.777C1158.99 186.54 1174.82 186.54 1184.58 176.777L1343.68 17.6777ZM0 25H1326V-25H0V25Z" transform="translate(6803 3618)" fill="#4F4F4F"/>
<path d="M1343.68 17.6777C1353.44 7.91456 1353.44 -7.91456 1343.68 -17.6777L1184.58 -176.777C1174.82 -186.54 1158.99 -186.54 1149.22 -176.777C1139.46 -167.014 1139.46 -151.184 1149.22 -141.421L1290.64 0L1149.22 141.421C1139.46 151.184 1139.46 167.014 1149.22 176.777C1158.99 186.54 1174.82 186.54 1184.58 176.777L1343.68 17.6777ZM0 25H1326V-25H0V25Z" transform="translate(15251 3618)" fill="#4F4F4F"/>
<path d="M1031.68 17.6777C1041.44 7.91456 1041.44 -7.91456 1031.68 -17.6777L872.579 -176.777C862.816 -186.54 846.986 -186.54 837.223 -176.777C827.46 -167.014 827.46 -151.184 837.223 -141.421L978.645 0L837.223 141.421C827.46 151.184 827.46 167.014 837.223 176.777C846.986 186.54 862.816 186.54 872.579 176.777L1031.68 17.6777ZM0 25H1014V-25H0V25Z" transform="translate(11696 7036) rotate(90)" fill="#4F4F4F"/>
<path d="M1343.68 17.6777C1353.44 7.91456 1353.44 -7.91456 1343.68 -17.6777L1184.58 -176.777C1174.82 -186.54 1158.99 -186.54 1149.22 -176.777C1139.46 -167.014 1139.46 -151.184 1149.22 -141.421L1290.64 0L1149.22 141.421C1139.46 151.184 1139.46 167.014 1149.22 176.777C1158.99 186.54 1174.82 186.54 1184.58 176.777L1343.68 17.6777ZM0 25H1326V-25H0V25Z" transform="translate(15251 651)" fill="#4F4F4F"/>
<path d="M17376 740.571V765.571H17401V740.571H17376ZM0 740.571V715.571H-25V740.571H0ZM-17.6777 1457.68C-7.91456 1467.44 7.91456 1467.44 17.6777 1457.68L176.777 1298.58C186.54 1288.82 186.54 1272.99 176.777 1263.22C167.014 1253.46 151.184 1253.46 141.421 1263.22L0 1404.64L-141.421 1263.22C-151.184 1253.46 -167.014 1253.46 -176.777 1263.22C-186.54 1272.99 -186.54 1288.82 -176.777 1298.58L-17.6777 1457.68ZM17351 0V740.571H17401V0H17351ZM17376 715.571H0V765.571H17376V715.571ZM-25 740.571V1440H25V740.571H-25Z" transform="translate(3248 1335)" fill="#4F4F4F"/>
<path d="M8928 674.743V699.743H8953V674.743H8928ZM0 674.743V649.743H-25V674.743H0ZM-17.6777 1329.68C-7.91456 1339.44 7.91456 1339.44 17.6777 1329.68L176.777 1170.58C186.54 1160.82 186.54 1144.99 176.777 1135.22C167.014 1125.46 151.184 1125.46 141.421 1135.22L0 1276.64L-141.421 1135.22C-151.184 1125.46 -167.014 1125.46 -176.777 1135.22C-186.54 1144.99 -186.54 1160.82 -176.777 1170.58L-17.6777 1329.68ZM8903 0V674.743H8953V0H8903ZM8928 649.743H0V699.743H8928V649.743ZM-25 674.743V1312H25V674.743H-25Z" transform="translate(11696 4227)" fill="#4F4F4F"/>
<path d="M0 0V-25H-25V0H0ZM-17.6777 1681.68C-7.91456 1691.44 7.91456 1691.44 17.6777 1681.68L176.777 1522.58C186.54 1512.82 186.54 1496.99 176.777 1487.22C167.014 1477.46 151.184 1477.46 141.421 1487.22L0 1628.64L-141.421 1487.22C-151.184 1477.46 -167.014 1477.46 -176.777 1487.22C-186.54 1496.99 -186.54 1512.82 -176.777 1522.58L-17.6777 1681.68ZM5192 -25H0V25H5192V-25ZM-25 0V1664H25V0H-25Z" transform="translate(3248 6391)" fill="#4F4F4F"/>
<path d="M0 0V-25H-25V0H0ZM-17.6777 1681.68C-7.91456 1691.44 7.91456 1691.44 17.6777 1681.68L176.777 1522.58C186.54 1512.82 186.54 1496.99 176.777 1487.22C167.014 1477.46 151.184 1477.46 141.421 1487.22L0 1628.64L-141.421 1487.22C-151.184 1477.46 -167.014 1477.46 -176.777 1487.22C-186.54 1496.99 -186.54 1512.82 -176.777 1522.58L-17.6777 1681.68ZM5373 -25H0V25H5373V-25ZM-25 0V1664H25V0H-25Z" transform="translate(20624 6391) scale(-1 1)" fill="#4F4F4F"/>
</svg>
