<svg width="4944" height="1053" viewBox="0 0 4944 1053" fill="none" xmlns="http://www.w3.org/2000/svg">
<path d="M16.1455 145H60.3955C94.1455 145 117.096 123.7 117.096 92.5C117.096 61.3 94.1455 40 60.3955 40H16.1455V145ZM31.1455 131.95V53.05H59.4955C85.4455 53.05 102.096 68.95 102.096 92.5C102.096 116.05 85.4455 131.95 59.4955 131.95H31.1455ZM166.921 64.75C154.171 64.75 142.321 68.35 134.071 74.95L140.071 85.75C146.221 80.5 155.821 77.2 165.271 77.2C179.521 77.2 186.571 84.25 186.571 96.4V99.25H163.771C140.071 99.25 131.821 109.75 131.821 122.5C131.821 136.3 143.221 145.9 161.221 145.9C173.671 145.9 182.521 141.7 187.321 134.5V145H200.971V97C200.971 75.25 188.671 64.75 166.921 64.75ZM163.621 134.8C152.671 134.8 146.071 129.85 146.071 121.9C146.071 115.15 150.121 109.6 164.371 109.6H186.571V120.7C182.971 129.85 174.421 134.8 163.621 134.8ZM250.42 145.9C271.57 145.9 284.77 136.75 284.77 122.35C284.77 91.45 234.37 106.75 234.37 88C234.37 81.7 240.52 77.05 253.12 77.05C260.92 77.05 268.87 78.7 276.07 83.35L282.22 71.95C275.32 67.45 263.62 64.75 253.27 64.75C232.87 64.75 220.12 74.35 220.12 88.6C220.12 120.25 270.37 104.8 270.37 122.65C270.37 129.4 264.82 133.45 251.47 133.45C241.12 133.45 230.32 130 223.57 125.2L217.57 136.6C224.17 141.85 237.22 145.9 250.42 145.9ZM345.216 64.75C333.066 64.75 323.166 69.1 317.166 76.75V33.7H302.766V145H317.166V104.05C317.166 86.8 327.066 77.65 342.366 77.65C356.016 77.65 363.816 85.3 363.816 100.9V145H378.216V99.25C378.216 75.85 364.566 64.75 345.216 64.75ZM447.016 64.75C435.766 64.75 425.866 68.95 419.266 77.5V33.7H404.866V145H418.666V132.4C425.116 141.4 435.316 145.9 447.016 145.9C470.266 145.9 487.216 129.55 487.216 105.25C487.216 80.95 470.266 64.75 447.016 64.75ZM445.816 133.3C430.666 133.3 419.116 122.2 419.116 105.25C419.116 88.3 430.666 77.35 445.816 77.35C461.116 77.35 472.666 88.3 472.666 105.25C472.666 122.2 461.116 133.3 445.816 133.3ZM541.162 145.9C565.012 145.9 582.412 128.95 582.412 105.25C582.412 81.55 565.012 64.75 541.162 64.75C517.312 64.75 499.762 81.55 499.762 105.25C499.762 128.95 517.312 145.9 541.162 145.9ZM541.162 133.3C525.862 133.3 514.312 122.2 514.312 105.25C514.312 88.3 525.862 77.35 541.162 77.35C556.462 77.35 567.862 88.3 567.862 105.25C567.862 122.2 556.462 133.3 541.162 133.3ZM630.544 64.75C617.794 64.75 605.944 68.35 597.694 74.95L603.694 85.75C609.844 80.5 619.444 77.2 628.894 77.2C643.144 77.2 650.194 84.25 650.194 96.4V99.25H627.394C603.694 99.25 595.444 109.75 595.444 122.5C595.444 136.3 606.844 145.9 624.844 145.9C637.294 145.9 646.144 141.7 650.944 134.5V145H664.594V97C664.594 75.25 652.294 64.75 630.544 64.75ZM627.244 134.8C616.294 134.8 609.694 129.85 609.694 121.9C609.694 115.15 613.744 109.6 627.994 109.6H650.194V120.7C646.594 129.85 638.044 134.8 627.244 134.8ZM705.043 78.85V65.5H691.243V145H705.643V105.4C705.643 88 715.243 78.55 730.693 78.55C731.743 78.55 732.793 78.55 733.993 78.7V64.75C720.043 64.75 710.143 69.55 705.043 78.85ZM811.608 33.7V77.5C805.008 68.95 795.108 64.75 783.858 64.75C760.608 64.75 743.658 80.95 743.658 105.25C743.658 129.55 760.608 145.9 783.858 145.9C795.558 145.9 805.758 141.4 812.208 132.4V145H826.008V33.7H811.608ZM785.058 133.3C769.758 133.3 758.208 122.2 758.208 105.25C758.208 88.3 769.758 77.35 785.058 77.35C800.208 77.35 811.758 88.3 811.758 105.25C811.758 122.2 800.208 133.3 785.058 133.3Z" transform="translate(0 870)" fill="#4F4F4F"/>
<rect x="10" y="10" width="465" height="320" rx="20" transform="translate(183 211)" stroke="#7C4198" stroke-width="20"/>
<rect x="10" y="10" width="78" height="34" transform="translate(380 533)" stroke="#7C4198" stroke-width="20"/>
<rect x="10" y="10" width="182" height="34" rx="17" transform="translate(328 567)" stroke="#7C4198" stroke-width="20"/>
<line x1="10" y1="-10" x2="101" y2="-10" transform="translate(297 299)" stroke="#61C4B9" stroke-width="20" stroke-linecap="round"/>
<line x1="10" y1="-10" x2="162" y2="-10" transform="translate(442 437)" stroke="#ED2C75" stroke-width="20" stroke-linecap="round"/>
<line x1="10" y1="-10" x2="162" y2="-10" transform="translate(442 402)" stroke="#ED2C75" stroke-width="20" stroke-linecap="round"/>
<line x1="10" y1="-10" x2="162" y2="-10" transform="translate(442 475)" stroke="#ED2C75" stroke-width="20" stroke-linecap="round"/>
<line x1="10" y1="-10" x2="48" y2="-10" transform="translate(556 364)" stroke="#ED2C75" stroke-width="20" stroke-linecap="round"/>
<line x1="10" y1="-10" x2="48" y2="-10" transform="translate(556 329.5)" stroke="#ED2C75" stroke-width="20" stroke-linecap="round"/>
<line x1="10" y1="-10" x2="48" y2="-10" transform="translate(556 295)" stroke="#ED2C75" stroke-width="20" stroke-linecap="round"/>
<path d="M0 7L10.973 21L29 0" transform="translate(243 273)" stroke="#61C4B9" stroke-width="20" stroke-linecap="round"/>
<line x1="10" y1="-10" x2="101" y2="-10" transform="translate(297 357)" stroke="#61C4B9" stroke-width="20" stroke-linecap="round"/>
<path d="M0 7L10.973 21L29 0" transform="translate(243 331)" stroke="#61C4B9" stroke-width="20" stroke-linecap="round"/>
<line x1="10" y1="-10" x2="101" y2="-10" transform="translate(297 417)" stroke="#61C4B9" stroke-width="20" stroke-linecap="round"/>
<path d="M0 7L10.973 21L29 0" transform="translate(243 391)" stroke="#61C4B9" stroke-width="20" stroke-linecap="round"/>
<line x1="10" y1="-10" x2="101" y2="-10" transform="translate(297 475)" stroke="#61C4B9" stroke-width="20" stroke-linecap="round"/>
<path d="M0 7L10.973 21L29 0" transform="translate(243 449)" stroke="#61C4B9" stroke-width="20" stroke-linecap="round"/>
<rect width="72" height="69" transform="translate(451 285)" stroke="#ED2C75" stroke-width="20" stroke-linecap="round" stroke-linejoin="round"/>
<circle cx="400" cy="400" r="390" transform="translate(26 16)" stroke="#4F4F4F" stroke-width="20"/>
<rect x="10" y="10" width="264" height="381" rx="20" transform="translate(3024 199)" stroke="#7C4198" stroke-width="20"/>
<circle cx="400" cy="400" r="390" transform="translate(1397)" stroke="#ED2C75" stroke-width="20"/>
<path d="M46.4418 146.2C74.1918 146.2 87.0918 132.4 87.0918 116.35C87.0918 77.8 23.4918 93.85 23.4918 68.2C23.4918 59.05 31.1418 51.55 48.9918 51.55C58.2918 51.55 68.6418 54.25 77.7918 60.1L82.7418 48.1C74.0418 42.1 61.2918 38.8 48.9918 38.8C21.3918 38.8 8.7918 52.6 8.7918 68.8C8.7918 107.8 72.3918 91.6 72.3918 117.25C72.3918 126.4 64.5918 133.45 46.4418 133.45C32.9418 133.45 19.5918 128.35 11.7918 121.3L6.2418 133C14.6418 140.8 30.3918 146.2 46.4418 146.2ZM166.606 65.5V106.6C166.606 123.7 157.006 133 142.006 133C128.356 133 120.556 125.2 120.556 109.6V65.5H106.156V111.25C106.156 134.65 119.806 145.9 140.356 145.9C151.606 145.9 161.506 141.25 167.356 133V145H181.006V65.5H166.606ZM250.57 64.75C239.32 64.75 229.42 68.95 222.82 77.5V33.7H208.42V145H222.22V132.4C228.67 141.4 238.87 145.9 250.57 145.9C273.82 145.9 290.77 129.55 290.77 105.25C290.77 80.95 273.82 64.75 250.57 64.75ZM249.37 133.3C234.22 133.3 222.67 122.2 222.67 105.25C222.67 88.3 234.22 77.35 249.37 77.35C264.67 77.35 276.22 88.3 276.22 105.25C276.22 122.2 264.67 133.3 249.37 133.3ZM410.116 64.75C396.616 64.75 385.516 70.45 379.516 79.45C374.266 69.55 364.066 64.75 351.916 64.75C339.916 64.75 330.166 69.25 324.466 77.35V65.5H310.666V145H325.066V104.05C325.066 86.8 334.516 77.65 348.916 77.65C361.966 77.65 369.466 85.3 369.466 100.9V145H383.866V104.05C383.866 86.8 393.316 77.65 407.716 77.65C420.766 77.65 428.266 85.3 428.266 100.9V145H442.666V99.25C442.666 75.85 429.466 64.75 410.116 64.75ZM476.362 50.2C482.062 50.2 486.112 46 486.112 40.6C486.112 35.5 481.912 31.45 476.362 31.45C470.812 31.45 466.612 35.65 466.612 40.9C466.612 46.15 470.812 50.2 476.362 50.2ZM469.162 145H483.562V65.5H469.162V145ZM533.856 145.9C555.006 145.9 568.206 136.75 568.206 122.35C568.206 91.45 517.806 106.75 517.806 88C517.806 81.7 523.956 77.05 536.556 77.05C544.356 77.05 552.306 78.7 559.506 83.35L565.656 71.95C558.756 67.45 547.056 64.75 536.706 64.75C516.306 64.75 503.556 74.35 503.556 88.6C503.556 120.25 553.806 104.8 553.806 122.65C553.806 129.4 548.256 133.45 534.906 133.45C524.556 133.45 513.756 130 507.006 125.2L501.006 136.6C507.606 141.85 520.656 145.9 533.856 145.9ZM609.003 145.9C630.153 145.9 643.353 136.75 643.353 122.35C643.353 91.45 592.953 106.75 592.953 88C592.953 81.7 599.103 77.05 611.703 77.05C619.503 77.05 627.453 78.7 634.653 83.35L640.803 71.95C633.903 67.45 622.203 64.75 611.853 64.75C591.453 64.75 578.703 74.35 578.703 88.6C578.703 120.25 628.953 104.8 628.953 122.65C628.953 129.4 623.403 133.45 610.053 133.45C599.703 133.45 588.903 130 582.153 125.2L576.153 136.6C582.753 141.85 595.803 145.9 609.003 145.9ZM668.549 50.2C674.249 50.2 678.299 46 678.299 40.6C678.299 35.5 674.099 31.45 668.549 31.45C662.999 31.45 658.799 35.65 658.799 40.9C658.799 46.15 662.999 50.2 668.549 50.2ZM661.349 145H675.749V65.5H661.349V145ZM737.294 145.9C761.144 145.9 778.544 128.95 778.544 105.25C778.544 81.55 761.144 64.75 737.294 64.75C713.444 64.75 695.894 81.55 695.894 105.25C695.894 128.95 713.444 145.9 737.294 145.9ZM737.294 133.3C721.994 133.3 710.444 122.2 710.444 105.25C710.444 88.3 721.994 77.35 737.294 77.35C752.594 77.35 763.994 88.3 763.994 105.25C763.994 122.2 752.594 133.3 737.294 133.3ZM840.909 64.75C828.309 64.75 818.109 69.4 812.259 77.5V65.5H798.459V145H812.859V104.05C812.859 86.8 822.759 77.65 838.059 77.65C851.709 77.65 859.509 85.3 859.509 100.9V145H873.909V99.25C873.909 75.85 860.259 64.75 840.909 64.75Z" transform="translate(1357 870)" fill="#ED2C75"/>
<path d="M339.139 100.554C334.68 74.0879 321.561 49.9344 301.495 31.6051C279.201 11.2202 250.217 -3.26732e-07 220.033 -3.26732e-07C196.709 -3.26732e-07 173.986 6.68076 154.521 19.2714C138.314 29.7208 124.851 43.8532 115.333 60.4694C111.217 59.6986 106.93 59.2703 102.642 59.2703C66.1986 59.2703 36.5293 88.9055 36.5293 125.307C36.5293 130.018 37.0438 134.557 37.9013 139.011C14.3202 156.141 0 183.721 0 213.099C0 236.824 8.8322 259.864 24.9531 278.108C41.5028 296.78 63.3689 307.829 86.6928 309.113C86.95 309.113 87.1215 309.113 87.3788 309.113H161.123C167.555 309.113 172.7 303.974 172.7 297.551C172.7 291.127 167.555 285.988 161.123 285.988H87.7218C52.6502 283.847 23.1524 250.528 23.1524 213.013C23.1524 188.774 36.1863 166.162 57.1949 153.914C62.0827 151.088 64.1407 145.178 62.2542 139.868C60.5392 135.242 59.6817 130.36 59.6817 125.136C59.6817 101.496 78.9753 82.2247 102.642 82.2247C107.701 82.2247 112.675 83.0812 117.305 84.7942C122.965 86.8498 129.225 84.2803 131.797 78.8843C147.832 44.881 182.475 22.9544 220.119 22.9544C270.711 22.9544 312.471 60.812 317.273 111.003C317.788 116.228 321.732 120.425 326.877 121.281C365.036 127.791 393.848 162.993 393.848 203.164C393.848 245.732 360.32 282.733 318.988 285.902H255.791C249.36 285.902 244.215 291.041 244.215 297.465C244.215 303.889 249.36 309.028 255.791 309.028H319.417C319.674 309.028 319.932 309.028 320.275 309.028C346.428 307.144 370.867 295.152 389.046 275.11C407.139 255.239 417 229.715 417 203.164C416.914 155.113 384.072 112.374 339.139 100.554Z" transform="translate(1588 207)" fill="#ED2C75"/>
<path d="M142.323 81.0256C146.868 76.4861 146.868 69.2058 142.323 64.6663L81.0119 3.42602C78.8681 1.28476 75.8669 -5.22771e-06 72.8657 -5.22771e-06C69.8644 -5.22771e-06 66.8632 1.1991 64.7195 3.42602L3.40854 64.6663C-1.13618 69.2058 -1.13618 76.4861 3.40854 81.0256C5.63803 83.2525 8.63926 84.4516 11.5547 84.4516C14.4702 84.4516 17.4715 83.3382 19.701 81.0256L61.2895 39.485V230.4C61.2895 236.824 66.4345 241.963 72.8657 241.963C79.2969 241.963 84.4419 236.824 84.4419 230.4V39.485L126.03 81.0256C130.489 85.5651 137.778 85.5651 142.323 81.0256Z" transform="translate(1723.68 350.037)" fill="#ED2C75"/>
<circle cx="400" cy="400" r="390" transform="translate(2766)" stroke="#7C4198" stroke-width="20"/>
<path d="M0 0V37" transform="translate(3194 461)" stroke="#7C4198" stroke-width="10" stroke-linecap="round"/>
<path d="M31.0869 131.95V98.05H83.7369V85.3H31.0869V53.05H90.1869V40H16.0869V145H92.2869V131.95H31.0869ZM128.275 78.85V65.5H114.475V145H128.875V105.4C128.875 88 138.475 78.55 153.925 78.55C154.975 78.55 156.025 78.55 157.225 78.7V64.75C143.275 64.75 133.375 69.55 128.275 78.85ZM188.773 78.85V65.5H174.973V145H189.373V105.4C189.373 88 198.973 78.55 214.423 78.55C215.473 78.55 216.523 78.55 217.723 78.7V64.75C203.773 64.75 193.873 69.55 188.773 78.85ZM268.789 145.9C292.639 145.9 310.039 128.95 310.039 105.25C310.039 81.55 292.639 64.75 268.789 64.75C244.939 64.75 227.389 81.55 227.389 105.25C227.389 128.95 244.939 145.9 268.789 145.9ZM268.789 133.3C253.489 133.3 241.939 122.2 241.939 105.25C241.939 88.3 253.489 77.35 268.789 77.35C284.089 77.35 295.489 88.3 295.489 105.25C295.489 122.2 284.089 133.3 268.789 133.3ZM343.754 78.85V65.5H329.954V145H344.354V105.4C344.354 88 353.954 78.55 369.404 78.55C370.454 78.55 371.504 78.55 372.704 78.7V64.75C358.754 64.75 348.854 69.55 343.754 78.85ZM474.81 40H433.86V145H448.86V113.2H474.81C502.11 113.2 518.61 99.4 518.61 76.6C518.61 53.8 502.11 40 474.81 40ZM474.36 100.15H448.86V53.05H474.36C493.56 53.05 503.61 61.6 503.61 76.6C503.61 91.6 493.56 100.15 474.36 100.15ZM566.765 64.75C554.015 64.75 542.165 68.35 533.915 74.95L539.915 85.75C546.065 80.5 555.665 77.2 565.115 77.2C579.365 77.2 586.415 84.25 586.415 96.4V99.25H563.615C539.915 99.25 531.665 109.75 531.665 122.5C531.665 136.3 543.065 145.9 561.065 145.9C573.515 145.9 582.365 141.7 587.165 134.5V145H600.815V97C600.815 75.25 588.515 64.75 566.765 64.75ZM563.465 134.8C552.515 134.8 545.915 129.85 545.915 121.9C545.915 115.15 549.965 109.6 564.215 109.6H586.415V120.7C582.815 129.85 574.265 134.8 563.465 134.8ZM690.303 65.5V77.8C683.553 69.1 672.753 64.75 660.903 64.75C637.953 64.75 620.553 80.2 620.553 103.15C620.553 126.1 637.953 141.7 660.903 141.7C672.303 141.7 682.653 137.65 689.553 129.4V135.7C689.553 153.7 681.003 162.4 662.253 162.4C650.553 162.4 639.003 158.35 631.653 152.05L624.753 163.15C633.453 170.95 648.153 175 662.703 175C689.703 175 703.953 162.25 703.953 134.2V65.5H690.303ZM662.553 129.1C646.503 129.1 635.103 118.45 635.103 103.15C635.103 87.7 646.503 77.35 662.553 77.35C678.453 77.35 689.853 87.7 689.853 103.15C689.853 118.45 678.453 129.1 662.553 129.1ZM803.317 105.7C803.317 81.25 786.967 64.75 764.017 64.75C741.067 64.75 724.117 81.7 724.117 105.25C724.117 128.95 741.217 145.9 766.867 145.9C780.067 145.9 791.017 141.4 798.217 133L790.267 123.7C784.417 130.15 776.617 133.3 767.317 133.3C751.567 133.3 740.317 124 738.517 110.05H803.017C803.167 108.7 803.317 106.9 803.317 105.7ZM764.017 76.9C777.967 76.9 788.017 86.35 789.517 99.7H738.517C740.017 86.2 750.217 76.9 764.017 76.9Z" transform="translate(2764 870)" fill="#7C4198"/>
<line x1="10" y1="-10" x2="73.4386" y2="-10" transform="translate(3095 369) rotate(-45)" stroke="#7C4198" stroke-width="20" stroke-linecap="round"/>
<line x1="10" y1="-10" x2="73.4386" y2="-10" transform="translate(3154 355) rotate(-135)" stroke="#7C4198" stroke-width="20" stroke-linecap="round"/>
<line x1="10" y1="-10" x2="73.4386" y2="-10" transform="translate(3195 369) rotate(-45)" stroke="#7C4198" stroke-width="20" stroke-linecap="round"/>
<line x1="10" y1="-10" x2="73.4386" y2="-10" transform="translate(3254 355) rotate(-135)" stroke="#7C4198" stroke-width="20" stroke-linecap="round"/>
<path d="M0 23.853C30.6667 5.85295 106 -19.347 162 23.853" transform="translate(3085 456.147)" stroke="#7C4198" stroke-width="20" stroke-linecap="round"/>
<path d="M0.329739 0V38.6667C-1.48714 45.1111 3.58523 64 31.2018 64C58.8185 64 60.2872 45.1111 58.4705 38.6667V5.08772" transform="translate(3165 460)" stroke="#7C4198" stroke-width="20"/>
<circle cx="400" cy="400" r="390" transform="translate(4144)" stroke="#61C4B9" stroke-width="20"/>
<path d="M99.3027 145L59.5527 90.7L96.6027 40H80.2527L51.1527 80.35L21.7527 40H4.65273L41.7027 91.15L2.25273 145H19.5027L50.5527 101.65L82.0527 145H99.3027ZM225.215 145L225.065 40H212.765L169.565 113.8L125.765 40H113.465V145H127.865V68.95L165.815 132.25H172.715L210.665 68.5L210.815 145H225.215ZM256.727 145H328.577V131.95H271.727V40H256.727V145ZM487.172 146.05C481.772 152.05 475.472 155.05 467.972 155.05C461.222 155.05 454.922 152.05 447.872 144.55C472.322 138.85 489.122 118.6 489.122 92.5C489.122 61.6 465.422 38.8 433.472 38.8C401.222 38.8 377.522 61.75 377.522 92.5C377.522 122.05 399.422 144.4 429.572 146.05C444.272 161.2 454.622 166.9 467.822 166.9C478.322 166.9 487.472 162.55 494.222 154.6L487.172 146.05ZM392.522 92.5C392.522 69.4 409.922 52.15 433.472 52.15C456.722 52.15 474.122 69.4 474.122 92.5C474.122 115.6 456.722 132.85 433.472 132.85C409.922 132.85 392.522 115.6 392.522 92.5ZM589.034 145H604.784L557.084 40H542.234L494.684 145H510.134L521.684 118.75H577.484L589.034 145ZM526.934 106.75L549.584 55.3L572.234 106.75H526.934Z" transform="translate(4245 870)" fill="#61C4B9"/>
<path d="M71.1 97L45 60.8L69.4 27H51.9L36.1 49.7L20 27H1.6L26.2 61.4L0.3 97H18.9L35.5 72.7L52.4 97H71.1ZM156.341 97L156.141 27H142.841L117.041 70.5L90.8406 27H77.4406V97H92.6406V55.9L113.141 89.6H120.441L141.041 55L141.141 97H156.341ZM172.948 97H224.248V83.8H189.148V27H172.948V97Z" transform="translate(4431 534)" fill="#61C4B9"/>
<path d="M172.893 108.231L86.4463 0L0 108.231" transform="translate(4321 402.446) rotate(-90)" stroke="#61C4B9" stroke-width="20" stroke-linecap="round"/>
<path d="M172.893 108.231L86.4463 0L0 108.231" transform="translate(4767.23 229.554) rotate(90)" stroke="#61C4B9" stroke-width="20" stroke-linecap="round"/>
<line x1="10" y1="-10" x2="289.482" y2="-10" transform="matrix(0.296666 -0.954981 0.954936 0.296811 4503.58 459)" stroke="#61C4B9" stroke-width="20" stroke-linecap="round"/>
<rect x="10" y="10" width="372" height="171" rx="85.5" transform="translate(4348 499)" stroke="#61C4B9" stroke-width="20"/>
<line y1="-10" x2="590" y2="-10" transform="translate(826 417)" stroke="#ED2C75" stroke-width="20"/>
<line y1="-10" x2="590" y2="-10" transform="translate(2184 417)" stroke="#7C4198" stroke-width="20"/>
<line y1="-10" x2="590" y2="-10" transform="translate(3566 417)" stroke="#61C4B9" stroke-width="20"/>
</svg>
