<svg width="21250" height="19609" viewBox="0 0 21250 19609" fill="none" xmlns="http://www.w3.org/2000/svg">
<rect x="50" y="50" width="6862.54" height="3996" rx="50" transform="translate(2434 9600)" stroke="#4F4F4F" stroke-opacity="0.5" stroke-width="100"/>
<path d="M721.454 678H794.954L572.354 188H503.054L281.154 678H353.254L407.154 555.5H667.554L721.454 678ZM431.654 499.5L537.354 259.4L643.054 499.5H431.654ZM1130.01 307V498.8C1130.01 578.6 1085.21 622 1015.21 622C951.513 622 915.113 585.6 915.113 512.8V307H847.913V520.5C847.913 629.7 911.613 682.2 1007.51 682.2C1060.01 682.2 1106.21 660.5 1133.51 622V678H1197.21V307H1130.01ZM1512.74 608C1498.74 619.2 1479.84 625.5 1460.24 625.5C1423.14 625.5 1402.14 603.1 1402.14 563.2V362.3H1508.54V307H1402.14V225.8H1334.94V307H1271.94V362.3H1334.94V566C1334.94 640.9 1377.64 682.2 1452.54 682.2C1482.64 682.2 1513.44 673.8 1533.74 656.3L1512.74 608ZM1813.09 303.5C1756.39 303.5 1710.19 323.8 1682.19 359.5V158.6H1614.99V678H1682.19V486.9C1682.19 406.4 1728.39 363.7 1799.79 363.7C1863.49 363.7 1899.89 399.4 1899.89 472.2V678H1967.09V464.5C1967.09 355.3 1903.39 303.5 1813.09 303.5ZM2252.4 682.2C2363.7 682.2 2444.9 603.1 2444.9 492.5C2444.9 381.9 2363.7 303.5 2252.4 303.5C2141.1 303.5 2059.2 381.9 2059.2 492.5C2059.2 603.1 2141.1 682.2 2252.4 682.2ZM2252.4 623.4C2181 623.4 2127.1 571.6 2127.1 492.5C2127.1 413.4 2181 362.3 2252.4 362.3C2323.8 362.3 2377 413.4 2377 492.5C2377 571.6 2323.8 623.4 2252.4 623.4ZM2602.24 369.3V307H2537.84V678H2605.04V493.2C2605.04 412 2649.84 367.9 2721.94 367.9C2726.84 367.9 2731.74 367.9 2737.34 368.6V303.5C2672.24 303.5 2626.04 325.9 2602.24 369.3Z" transform="translate(4057.31 767)" fill="#4F4F4F"/>
<path d="M402.385 683.6C531.885 683.6 592.085 619.2 592.085 544.3C592.085 364.4 295.285 439.3 295.285 319.6C295.285 276.9 330.985 241.9 414.285 241.9C457.685 241.9 505.985 254.5 548.685 281.8L571.785 225.8C531.185 197.8 471.685 182.4 414.285 182.4C285.485 182.4 226.685 246.8 226.685 322.4C226.685 504.4 523.485 428.8 523.485 548.5C523.485 591.2 487.085 624.1 402.385 624.1C339.385 624.1 277.085 600.3 240.685 567.4L214.785 622C253.985 658.4 327.485 683.6 402.385 683.6ZM872.15 608C858.15 619.2 839.25 625.5 819.65 625.5C782.55 625.5 761.55 603.1 761.55 563.2V362.3H867.95V307H761.55V225.8H694.35V307H631.35V362.3H694.35V566C694.35 640.9 737.05 682.2 811.95 682.2C842.05 682.2 872.85 673.8 893.15 656.3L872.15 608ZM1109.49 303.5C1049.99 303.5 994.694 320.3 956.194 351.1L984.194 401.5C1012.89 377 1057.69 361.6 1101.79 361.6C1168.29 361.6 1201.19 394.5 1201.19 451.2V464.5H1094.79C984.194 464.5 945.694 513.5 945.694 573C945.694 637.4 998.894 682.2 1082.89 682.2C1140.99 682.2 1182.29 662.6 1204.69 629V678H1268.39V454C1268.39 352.5 1210.99 303.5 1109.49 303.5ZM1094.09 630.4C1042.99 630.4 1012.19 607.3 1012.19 570.2C1012.19 538.7 1031.09 512.8 1097.59 512.8H1201.19V564.6C1184.39 607.3 1144.49 630.4 1094.09 630.4ZM1528.55 209.7C1548.15 209.7 1566.35 216.7 1580.35 227.2L1600.65 176.1C1581.75 161.4 1553.75 154.4 1525.05 154.4C1445.95 154.4 1402.55 202 1402.55 274.1V307H1339.55V362.3H1402.55V678H1469.75V362.3H1576.15V307H1468.35V274.8C1468.35 232.1 1488.65 209.7 1528.55 209.7ZM1775.33 209.7C1794.93 209.7 1813.13 216.7 1827.13 227.2L1847.43 176.1C1828.53 161.4 1800.53 154.4 1771.83 154.4C1692.73 154.4 1649.33 202 1649.33 274.1V307H1586.33V362.3H1649.33V678H1716.53V362.3H1822.93V307H1715.13V274.8C1715.13 232.1 1735.43 209.7 1775.33 209.7Z" transform="translate(12990.6 767)" fill="#4F4F4F"/>
<rect x="50" y="50" width="6702.81" height="1202" rx="50" transform="translate(2202 543)" stroke="#4F4F4F" stroke-width="100"/>
<path d="M740.506 484H793.006L634.006 134H584.506L426.006 484H477.506L516.006 396.5H702.006L740.506 484ZM533.506 356.5L609.006 185L684.506 356.5H533.506ZM1032.33 219V356C1032.33 413 1000.33 444 950.334 444C904.834 444 878.834 418 878.834 366V219H830.834V371.5C830.834 449.5 876.334 487 944.834 487C982.334 487 1015.33 471.5 1034.83 444V484H1080.33V219H1032.33ZM1305.71 434C1295.71 442 1282.21 446.5 1268.21 446.5C1241.71 446.5 1226.71 430.5 1226.71 402V258.5H1302.71V219H1226.71V161H1178.71V219H1133.71V258.5H1178.71V404C1178.71 457.5 1209.21 487 1262.71 487C1284.21 487 1306.21 481 1320.71 468.5L1305.71 434ZM1520.24 216.5C1479.74 216.5 1446.74 231 1426.74 256.5V113H1378.74V484H1426.74V347.5C1426.74 290 1459.74 259.5 1510.74 259.5C1556.24 259.5 1582.24 285 1582.24 337V484H1630.24V331.5C1630.24 253.5 1584.74 216.5 1520.24 216.5ZM1834.04 487C1913.54 487 1971.54 430.5 1971.54 351.5C1971.54 272.5 1913.54 216.5 1834.04 216.5C1754.54 216.5 1696.04 272.5 1696.04 351.5C1696.04 430.5 1754.54 487 1834.04 487ZM1834.04 445C1783.04 445 1744.54 408 1744.54 351.5C1744.54 295 1783.04 258.5 1834.04 258.5C1885.04 258.5 1923.04 295 1923.04 351.5C1923.04 408 1885.04 445 1834.04 445ZM2083.92 263.5V219H2037.92V484H2085.92V352C2085.92 294 2117.92 262.5 2169.42 262.5C2172.92 262.5 2176.42 262.5 2180.42 263V216.5C2133.92 216.5 2100.92 232.5 2083.92 263.5ZM2453.28 487C2523.78 487 2567.78 456.5 2567.78 408.5C2567.78 305.5 2399.78 356.5 2399.78 294C2399.78 273 2420.28 257.5 2462.28 257.5C2488.28 257.5 2514.78 263 2538.78 278.5L2559.28 240.5C2536.28 225.5 2497.28 216.5 2462.78 216.5C2394.78 216.5 2352.28 248.5 2352.28 296C2352.28 401.5 2519.78 350 2519.78 409.5C2519.78 432 2501.28 445.5 2456.78 445.5C2422.28 445.5 2386.28 434 2363.78 418L2343.78 456C2365.78 473.5 2409.28 487 2453.28 487ZM2761.77 434C2751.77 442 2738.27 446.5 2724.27 446.5C2697.77 446.5 2682.77 430.5 2682.77 402V258.5H2758.77V219H2682.77V161H2634.77V219H2589.77V258.5H2634.77V404C2634.77 457.5 2665.27 487 2718.77 487C2740.27 487 2762.27 481 2776.77 468.5L2761.77 434ZM2931.3 216.5C2888.8 216.5 2849.3 228.5 2821.8 250.5L2841.8 286.5C2862.3 269 2894.3 258 2925.8 258C2973.3 258 2996.8 281.5 2996.8 322V331.5H2920.8C2841.8 331.5 2814.3 366.5 2814.3 409C2814.3 455 2852.3 487 2912.3 487C2953.8 487 2983.3 473 2999.3 449V484H3044.8V324C3044.8 251.5 3003.8 216.5 2931.3 216.5ZM2920.3 450C2883.8 450 2861.8 433.5 2861.8 407C2861.8 384.5 2875.3 366 2922.8 366H2996.8V403C2984.8 433.5 2956.3 450 2920.3 450ZM3179.63 263.5V219H3133.63V484H3181.63V352C3181.63 294 3213.63 262.5 3265.13 262.5C3268.63 262.5 3272.13 262.5 3276.13 263V216.5C3229.63 216.5 3196.63 232.5 3179.63 263.5ZM3480.03 434C3470.03 442 3456.53 446.5 3442.53 446.5C3416.03 446.5 3401.03 430.5 3401.03 402V258.5H3477.03V219H3401.03V161H3353.03V219H3308.03V258.5H3353.03V404C3353.03 457.5 3383.53 487 3437.03 487C3458.53 487 3480.53 481 3495.03 468.5L3480.03 434ZM3629.06 487C3699.56 487 3743.56 456.5 3743.56 408.5C3743.56 305.5 3575.56 356.5 3575.56 294C3575.56 273 3596.06 257.5 3638.06 257.5C3664.06 257.5 3690.56 263 3714.56 278.5L3735.06 240.5C3712.06 225.5 3673.06 216.5 3638.56 216.5C3570.56 216.5 3528.06 248.5 3528.06 296C3528.06 401.5 3695.56 350 3695.56 409.5C3695.56 432 3677.06 445.5 3632.56 445.5C3598.06 445.5 3562.06 434 3539.56 418L3519.56 456C3541.56 473.5 3585.06 487 3629.06 487ZM765.78 1036C836.28 1036 880.28 1005.5 880.28 957.5C880.28 854.5 712.28 905.5 712.28 843C712.28 822 732.78 806.5 774.78 806.5C800.78 806.5 827.28 812 851.28 827.5L871.78 789.5C848.78 774.5 809.78 765.5 775.28 765.5C707.28 765.5 664.78 797.5 664.78 845C664.78 950.5 832.28 899 832.28 958.5C832.28 981 813.78 994.5 769.28 994.5C734.78 994.5 698.78 983 676.28 967L656.28 1005C678.28 1022.5 721.78 1036 765.78 1036ZM1139.27 768V905C1139.27 962 1107.27 993 1057.27 993C1011.77 993 985.768 967 985.768 915V768H937.768V920.5C937.768 998.5 983.268 1036 1051.77 1036C1089.27 1036 1122.27 1020.5 1141.77 993V1033H1187.27V768H1139.27ZM1419.15 765.5C1381.65 765.5 1348.65 779.5 1326.65 808V662H1278.65V1033H1324.65V991C1346.15 1021 1380.15 1036 1419.15 1036C1496.65 1036 1553.15 981.5 1553.15 900.5C1553.15 819.5 1496.65 765.5 1419.15 765.5ZM1415.15 994C1364.65 994 1326.15 957 1326.15 900.5C1326.15 844 1364.65 807.5 1415.15 807.5C1466.15 807.5 1504.65 844 1504.65 900.5C1504.65 957 1466.15 994 1415.15 994ZM1950.97 765.5C1905.97 765.5 1868.97 784.5 1848.97 814.5C1831.47 781.5 1797.47 765.5 1756.97 765.5C1716.97 765.5 1684.47 780.5 1665.47 807.5V768H1619.47V1033H1667.47V896.5C1667.47 839 1698.97 808.5 1746.97 808.5C1790.47 808.5 1815.47 834 1815.47 886V1033H1863.47V896.5C1863.47 839 1894.97 808.5 1942.97 808.5C1986.47 808.5 2011.47 834 2011.47 886V1033H2059.47V880.5C2059.47 802.5 2015.47 765.5 1950.97 765.5ZM2171.79 717C2190.79 717 2204.29 703 2204.29 685C2204.29 668 2190.29 654.5 2171.79 654.5C2153.29 654.5 2139.29 668.5 2139.29 686C2139.29 703.5 2153.29 717 2171.79 717ZM2147.79 1033H2195.79V768H2147.79V1033ZM2363.44 1036C2433.94 1036 2477.94 1005.5 2477.94 957.5C2477.94 854.5 2309.94 905.5 2309.94 843C2309.94 822 2330.44 806.5 2372.44 806.5C2398.44 806.5 2424.94 812 2448.94 827.5L2469.44 789.5C2446.44 774.5 2407.44 765.5 2372.94 765.5C2304.94 765.5 2262.44 797.5 2262.44 845C2262.44 950.5 2429.94 899 2429.94 958.5C2429.94 981 2411.44 994.5 2366.94 994.5C2332.44 994.5 2296.44 983 2273.94 967L2253.94 1005C2275.94 1022.5 2319.44 1036 2363.44 1036ZM2613.92 1036C2684.42 1036 2728.42 1005.5 2728.42 957.5C2728.42 854.5 2560.42 905.5 2560.42 843C2560.42 822 2580.92 806.5 2622.92 806.5C2648.92 806.5 2675.42 812 2699.42 827.5L2719.92 789.5C2696.92 774.5 2657.92 765.5 2623.42 765.5C2555.42 765.5 2512.92 797.5 2512.92 845C2512.92 950.5 2680.42 899 2680.42 958.5C2680.42 981 2661.92 994.5 2617.42 994.5C2582.92 994.5 2546.92 983 2524.42 967L2504.42 1005C2526.42 1022.5 2569.92 1036 2613.92 1036ZM2812.41 717C2831.41 717 2844.91 703 2844.91 685C2844.91 668 2830.91 654.5 2812.41 654.5C2793.91 654.5 2779.91 668.5 2779.91 686C2779.91 703.5 2793.91 717 2812.41 717ZM2788.41 1033H2836.41V768H2788.41V1033ZM3041.56 1036C3121.06 1036 3179.06 979.5 3179.06 900.5C3179.06 821.5 3121.06 765.5 3041.56 765.5C2962.06 765.5 2903.56 821.5 2903.56 900.5C2903.56 979.5 2962.06 1036 3041.56 1036ZM3041.56 994C2990.56 994 2952.06 957 2952.06 900.5C2952.06 844 2990.56 807.5 3041.56 807.5C3092.56 807.5 3130.56 844 3130.56 900.5C3130.56 957 3092.56 994 3041.56 994ZM3386.94 765.5C3344.94 765.5 3310.94 781 3291.44 808V768H3245.44V1033H3293.44V896.5C3293.44 839 3326.44 808.5 3377.44 808.5C3422.94 808.5 3448.94 834 3448.94 886V1033H3496.94V880.5C3496.94 802.5 3451.44 765.5 3386.94 765.5Z" transform="translate(3510.09 7183)" fill="#7C4198"/>
<path d="M52.5 484H102.5V134H52.5V484ZM341.785 216.5C299.785 216.5 265.785 232 246.285 259V219H200.285V484H248.285V347.5C248.285 290 281.285 259.5 332.285 259.5C377.785 259.5 403.785 285 403.785 337V484H451.785V331.5C451.785 253.5 406.285 216.5 341.785 216.5ZM564.617 168C583.617 168 597.117 154 597.117 136C597.117 119 583.117 105.5 564.617 105.5C546.117 105.5 532.117 119.5 532.117 137C532.117 154.5 546.117 168 564.617 168ZM540.617 484H588.617V219H540.617V484ZM814.266 434C804.266 442 790.766 446.5 776.766 446.5C750.266 446.5 735.266 430.5 735.266 402V258.5H811.266V219H735.266V161H687.266V219H642.266V258.5H687.266V404C687.266 457.5 717.766 487 771.266 487C792.766 487 814.766 481 829.266 468.5L814.266 434ZM911.297 168C930.297 168 943.797 154 943.797 136C943.797 119 929.797 105.5 911.297 105.5C892.797 105.5 878.797 119.5 878.797 137C878.797 154.5 892.797 168 911.297 168ZM887.297 484H935.297V219H887.297V484ZM1123.45 216.5C1080.95 216.5 1041.45 228.5 1013.95 250.5L1033.95 286.5C1054.45 269 1086.45 258 1117.95 258C1165.45 258 1188.95 281.5 1188.95 322V331.5H1112.95C1033.95 331.5 1006.45 366.5 1006.45 409C1006.45 455 1044.45 487 1104.45 487C1145.95 487 1175.45 473 1191.45 449V484H1236.95V324C1236.95 251.5 1195.95 216.5 1123.45 216.5ZM1112.45 450C1075.95 450 1053.95 433.5 1053.95 407C1053.95 384.5 1067.45 366 1114.95 366H1188.95V403C1176.95 433.5 1148.45 450 1112.45 450ZM1325.77 484H1373.77V113H1325.77V484ZM1675.7 487C1746.2 487 1790.2 456.5 1790.2 408.5C1790.2 305.5 1622.2 356.5 1622.2 294C1622.2 273 1642.7 257.5 1684.7 257.5C1710.7 257.5 1737.2 263 1761.2 278.5L1781.7 240.5C1758.7 225.5 1719.7 216.5 1685.2 216.5C1617.2 216.5 1574.7 248.5 1574.7 296C1574.7 401.5 1742.2 350 1742.2 409.5C1742.2 432 1723.7 445.5 1679.2 445.5C1644.7 445.5 1608.7 434 1586.2 418L1566.2 456C1588.2 473.5 1631.7 487 1675.7 487ZM2049.19 219V356C2049.19 413 2017.19 444 1967.19 444C1921.69 444 1895.69 418 1895.69 366V219H1847.69V371.5C1847.69 449.5 1893.19 487 1961.69 487C1999.19 487 2032.19 471.5 2051.69 444V484H2097.19V219H2049.19ZM2329.07 216.5C2291.57 216.5 2258.57 230.5 2236.57 259V113H2188.57V484H2234.57V442C2256.07 472 2290.07 487 2329.07 487C2406.57 487 2463.07 432.5 2463.07 351.5C2463.07 270.5 2406.57 216.5 2329.07 216.5ZM2325.07 445C2274.57 445 2236.07 408 2236.07 351.5C2236.07 295 2274.57 258.5 2325.07 258.5C2376.07 258.5 2414.57 295 2414.57 351.5C2414.57 408 2376.07 445 2325.07 445ZM2860.89 216.5C2815.89 216.5 2778.89 235.5 2758.89 265.5C2741.39 232.5 2707.39 216.5 2666.89 216.5C2626.89 216.5 2594.39 231.5 2575.39 258.5V219H2529.39V484H2577.39V347.5C2577.39 290 2608.89 259.5 2656.89 259.5C2700.39 259.5 2725.39 285 2725.39 337V484H2773.39V347.5C2773.39 290 2804.89 259.5 2852.89 259.5C2896.39 259.5 2921.39 285 2921.39 337V484H2969.39V331.5C2969.39 253.5 2925.39 216.5 2860.89 216.5ZM3081.71 168C3100.71 168 3114.21 154 3114.21 136C3114.21 119 3100.21 105.5 3081.71 105.5C3063.21 105.5 3049.21 119.5 3049.21 137C3049.21 154.5 3063.21 168 3081.71 168ZM3057.71 484H3105.71V219H3057.71V484ZM3273.36 487C3343.86 487 3387.86 456.5 3387.86 408.5C3387.86 305.5 3219.86 356.5 3219.86 294C3219.86 273 3240.36 257.5 3282.36 257.5C3308.36 257.5 3334.86 263 3358.86 278.5L3379.36 240.5C3356.36 225.5 3317.36 216.5 3282.86 216.5C3214.86 216.5 3172.36 248.5 3172.36 296C3172.36 401.5 3339.86 350 3339.86 409.5C3339.86 432 3321.36 445.5 3276.86 445.5C3242.36 445.5 3206.36 434 3183.86 418L3163.86 456C3185.86 473.5 3229.36 487 3273.36 487ZM3523.84 487C3594.34 487 3638.34 456.5 3638.34 408.5C3638.34 305.5 3470.34 356.5 3470.34 294C3470.34 273 3490.84 257.5 3532.84 257.5C3558.84 257.5 3585.34 263 3609.34 278.5L3629.84 240.5C3606.84 225.5 3567.84 216.5 3533.34 216.5C3465.34 216.5 3422.84 248.5 3422.84 296C3422.84 401.5 3590.34 350 3590.34 409.5C3590.34 432 3571.84 445.5 3527.34 445.5C3492.84 445.5 3456.84 434 3434.34 418L3414.34 456C3436.34 473.5 3479.84 487 3523.84 487ZM3722.33 168C3741.33 168 3754.83 154 3754.83 136C3754.83 119 3740.83 105.5 3722.33 105.5C3703.83 105.5 3689.83 119.5 3689.83 137C3689.83 154.5 3703.83 168 3722.33 168ZM3698.33 484H3746.33V219H3698.33V484ZM3951.48 487C4030.98 487 4088.98 430.5 4088.98 351.5C4088.98 272.5 4030.98 216.5 3951.48 216.5C3871.98 216.5 3813.48 272.5 3813.48 351.5C3813.48 430.5 3871.98 487 3951.48 487ZM3951.48 445C3900.48 445 3861.98 408 3861.98 351.5C3861.98 295 3900.48 258.5 3951.48 258.5C4002.48 258.5 4040.48 295 4040.48 351.5C4040.48 408 4002.48 445 3951.48 445ZM4296.86 216.5C4254.86 216.5 4220.86 232 4201.36 259V219H4155.36V484H4203.36V347.5C4203.36 290 4236.36 259.5 4287.36 259.5C4332.86 259.5 4358.86 285 4358.86 337V484H4406.86V331.5C4406.86 253.5 4361.36 216.5 4296.86 216.5Z" transform="translate(857 2873) rotate(90)" fill="#4F4F4F"/>
<rect x="50" y="50" width="6862.54" height="3996" rx="50" transform="translate(2146.22 2873)" stroke="#4F4F4F" stroke-opacity="0.5" stroke-width="100"/>
<rect x="50" y="50" width="2745" height="540" rx="50" transform="translate(4204.13 4143)" stroke="#4F4F4F" stroke-width="100"/>
<rect width="773.615" height="298" rx="100" transform="translate(4204 3685)" fill="#7C4198"/>
<rect x="50" y="50" width="2745" height="540" rx="50" transform="translate(4204.13 4943)" stroke="#4F4F4F" stroke-width="100"/>
<rect x="50" y="50" width="2745" height="540" rx="50" transform="translate(12652.1 4143)" stroke="#7C4198" stroke-width="100"/>
<rect width="773.615" height="298" rx="100" transform="translate(12652 3685)" fill="#4F4F4F"/>
<rect x="50" y="50" width="2745" height="540" rx="50" transform="translate(12652.1 4943)" stroke="#4F4F4F" stroke-width="100"/>
<path d="M564.405 488C656.905 488 699.905 442 699.905 388.5C699.905 260 487.905 313.5 487.905 228C487.905 197.5 513.405 172.5 572.905 172.5C603.905 172.5 638.405 181.5 668.905 201L685.405 161C656.405 141 613.905 130 572.905 130C480.905 130 438.905 176 438.905 230C438.905 360 650.905 306 650.905 391.5C650.905 422 624.905 445.5 564.405 445.5C519.405 445.5 474.905 428.5 448.905 405L430.405 444C458.405 470 510.905 488 564.405 488ZM899.951 434C889.951 442 876.451 446.5 862.451 446.5C835.951 446.5 820.951 430.5 820.951 402V258.5H896.951V219H820.951V161H772.951V219H727.951V258.5H772.951V404C772.951 457.5 803.451 487 856.951 487C878.451 487 900.451 481 914.951 468.5L899.951 434ZM1069.48 216.5C1026.98 216.5 987.483 228.5 959.983 250.5L979.983 286.5C1000.48 269 1032.48 258 1063.98 258C1111.48 258 1134.98 281.5 1134.98 322V331.5H1058.98C979.983 331.5 952.483 366.5 952.483 409C952.483 455 990.483 487 1050.48 487C1091.98 487 1121.48 473 1137.48 449V484H1182.98V324C1182.98 251.5 1141.98 216.5 1069.48 216.5ZM1058.48 450C1021.98 450 999.983 433.5 999.983 407C999.983 384.5 1013.48 366 1060.98 366H1134.98V403C1122.98 433.5 1094.48 450 1058.48 450ZM1368.81 149.5C1382.81 149.5 1395.81 154.5 1405.81 162L1420.31 125.5C1406.81 115 1386.81 110 1366.31 110C1309.81 110 1278.81 144 1278.81 195.5V219H1233.81V258.5H1278.81V484H1326.81V258.5H1402.81V219H1325.81V196C1325.81 165.5 1340.31 149.5 1368.81 149.5ZM1545.08 149.5C1559.08 149.5 1572.08 154.5 1582.08 162L1596.58 125.5C1583.08 115 1563.08 110 1542.58 110C1486.08 110 1455.08 144 1455.08 195.5V219H1410.08V258.5H1455.08V484H1503.08V258.5H1579.08V219H1502.08V196C1502.08 165.5 1516.58 149.5 1545.08 149.5ZM1804.63 263.5V219H1758.63V484H1806.63V352C1806.63 294 1838.63 262.5 1890.13 262.5C1893.63 262.5 1897.13 262.5 1901.13 263V216.5C1854.63 216.5 1821.63 232.5 1804.63 263.5ZM2197.35 353C2197.35 271.5 2142.85 216.5 2066.35 216.5C1989.85 216.5 1933.35 273 1933.35 351.5C1933.35 430.5 1990.35 487 2075.85 487C2119.85 487 2156.35 472 2180.35 444L2153.85 413C2134.35 434.5 2108.35 445 2077.35 445C2024.85 445 1987.35 414 1981.35 367.5H2196.35C2196.85 363 2197.35 357 2197.35 353ZM2066.35 257C2112.85 257 2146.35 288.5 2151.35 333H1981.35C1986.35 288 2020.35 257 2066.35 257ZM2379.5 487C2427 487 2466.5 467 2487.5 430L2451 407C2434 433 2408 445 2379 445C2327 445 2288 409 2288 351.5C2288 295 2327 258.5 2379 258.5C2408 258.5 2434 270.5 2451 296.5L2487.5 273C2466.5 236 2427 216.5 2379.5 216.5C2298 216.5 2239.5 272.5 2239.5 351.5C2239.5 430.5 2298 487 2379.5 487ZM2785.24 353C2785.24 271.5 2730.74 216.5 2654.24 216.5C2577.74 216.5 2521.24 273 2521.24 351.5C2521.24 430.5 2578.24 487 2663.74 487C2707.74 487 2744.24 472 2768.24 444L2741.74 413C2722.24 434.5 2696.24 445 2665.24 445C2612.74 445 2575.24 414 2569.24 367.5H2784.24C2784.74 363 2785.24 357 2785.24 353ZM2654.24 257C2700.74 257 2734.24 288.5 2739.24 333H2569.24C2574.24 288 2608.24 257 2654.24 257ZM2875.89 168C2894.89 168 2908.39 154 2908.39 136C2908.39 119 2894.39 105.5 2875.89 105.5C2857.39 105.5 2843.39 119.5 2843.39 137C2843.39 154.5 2857.39 168 2875.89 168ZM2851.89 484H2899.89V219H2851.89V484ZM3179.04 219L3086.04 431.5L2995.04 219H2945.04L3061.04 484H3110.04L3226.04 219H3179.04ZM3503.01 353C3503.01 271.5 3448.51 216.5 3372.01 216.5C3295.51 216.5 3239.01 273 3239.01 351.5C3239.01 430.5 3296.01 487 3381.51 487C3425.51 487 3462.01 472 3486.01 444L3459.51 413C3440.01 434.5 3414.01 445 3383.01 445C3330.51 445 3293.01 414 3287.01 367.5H3502.01C3502.51 363 3503.01 357 3503.01 353ZM3372.01 257C3418.51 257 3452.01 288.5 3457.01 333H3287.01C3292.01 288 3326.01 257 3372.01 257ZM3645.66 487C3716.16 487 3760.16 456.5 3760.16 408.5C3760.16 305.5 3592.16 356.5 3592.16 294C3592.16 273 3612.66 257.5 3654.66 257.5C3680.66 257.5 3707.16 263 3731.16 278.5L3751.66 240.5C3728.66 225.5 3689.66 216.5 3655.16 216.5C3587.16 216.5 3544.66 248.5 3544.66 296C3544.66 401.5 3712.16 350 3712.16 409.5C3712.16 432 3693.66 445.5 3649.16 445.5C3614.66 445.5 3578.66 434 3556.16 418L3536.16 456C3558.16 473.5 3601.66 487 3645.66 487ZM765.78 1036C836.28 1036 880.28 1005.5 880.28 957.5C880.28 854.5 712.28 905.5 712.28 843C712.28 822 732.78 806.5 774.78 806.5C800.78 806.5 827.28 812 851.28 827.5L871.78 789.5C848.78 774.5 809.78 765.5 775.28 765.5C707.28 765.5 664.78 797.5 664.78 845C664.78 950.5 832.28 899 832.28 958.5C832.28 981 813.78 994.5 769.28 994.5C734.78 994.5 698.78 983 676.28 967L656.28 1005C678.28 1022.5 721.78 1036 765.78 1036ZM1139.27 768V905C1139.27 962 1107.27 993 1057.27 993C1011.77 993 985.768 967 985.768 915V768H937.768V920.5C937.768 998.5 983.268 1036 1051.77 1036C1089.27 1036 1122.27 1020.5 1141.77 993V1033H1187.27V768H1139.27ZM1419.15 765.5C1381.65 765.5 1348.65 779.5 1326.65 808V662H1278.65V1033H1324.65V991C1346.15 1021 1380.15 1036 1419.15 1036C1496.65 1036 1553.15 981.5 1553.15 900.5C1553.15 819.5 1496.65 765.5 1419.15 765.5ZM1415.15 994C1364.65 994 1326.15 957 1326.15 900.5C1326.15 844 1364.65 807.5 1415.15 807.5C1466.15 807.5 1504.65 844 1504.65 900.5C1504.65 957 1466.15 994 1415.15 994ZM1950.97 765.5C1905.97 765.5 1868.97 784.5 1848.97 814.5C1831.47 781.5 1797.47 765.5 1756.97 765.5C1716.97 765.5 1684.47 780.5 1665.47 807.5V768H1619.47V1033H1667.47V896.5C1667.47 839 1698.97 808.5 1746.97 808.5C1790.47 808.5 1815.47 834 1815.47 886V1033H1863.47V896.5C1863.47 839 1894.97 808.5 1942.97 808.5C1986.47 808.5 2011.47 834 2011.47 886V1033H2059.47V880.5C2059.47 802.5 2015.47 765.5 1950.97 765.5ZM2171.79 717C2190.79 717 2204.29 703 2204.29 685C2204.29 668 2190.29 654.5 2171.79 654.5C2153.29 654.5 2139.29 668.5 2139.29 686C2139.29 703.5 2153.29 717 2171.79 717ZM2147.79 1033H2195.79V768H2147.79V1033ZM2363.44 1036C2433.94 1036 2477.94 1005.5 2477.94 957.5C2477.94 854.5 2309.94 905.5 2309.94 843C2309.94 822 2330.44 806.5 2372.44 806.5C2398.44 806.5 2424.94 812 2448.94 827.5L2469.44 789.5C2446.44 774.5 2407.44 765.5 2372.94 765.5C2304.94 765.5 2262.44 797.5 2262.44 845C2262.44 950.5 2429.94 899 2429.94 958.5C2429.94 981 2411.44 994.5 2366.94 994.5C2332.44 994.5 2296.44 983 2273.94 967L2253.94 1005C2275.94 1022.5 2319.44 1036 2363.44 1036ZM2613.92 1036C2684.42 1036 2728.42 1005.5 2728.42 957.5C2728.42 854.5 2560.42 905.5 2560.42 843C2560.42 822 2580.92 806.5 2622.92 806.5C2648.92 806.5 2675.42 812 2699.42 827.5L2719.92 789.5C2696.92 774.5 2657.92 765.5 2623.42 765.5C2555.42 765.5 2512.92 797.5 2512.92 845C2512.92 950.5 2680.42 899 2680.42 958.5C2680.42 981 2661.92 994.5 2617.42 994.5C2582.92 994.5 2546.92 983 2524.42 967L2504.42 1005C2526.42 1022.5 2569.92 1036 2613.92 1036ZM2812.41 717C2831.41 717 2844.91 703 2844.91 685C2844.91 668 2830.91 654.5 2812.41 654.5C2793.91 654.5 2779.91 668.5 2779.91 686C2779.91 703.5 2793.91 717 2812.41 717ZM2788.41 1033H2836.41V768H2788.41V1033ZM3041.56 1036C3121.06 1036 3179.06 979.5 3179.06 900.5C3179.06 821.5 3121.06 765.5 3041.56 765.5C2962.06 765.5 2903.56 821.5 2903.56 900.5C2903.56 979.5 2962.06 1036 3041.56 1036ZM3041.56 994C2990.56 994 2952.06 957 2952.06 900.5C2952.06 844 2990.56 807.5 3041.56 807.5C3092.56 807.5 3130.56 844 3130.56 900.5C3130.56 957 3092.56 994 3041.56 994ZM3386.94 765.5C3344.94 765.5 3310.94 781 3291.44 808V768H3245.44V1033H3293.44V896.5C3293.44 839 3326.44 808.5 3377.44 808.5C3422.94 808.5 3448.94 834 3448.94 886V1033H3496.94V880.5C3496.94 802.5 3451.44 765.5 3386.94 765.5Z" transform="translate(11957.9 7183)" fill="#7C4198"/>
<rect x="50" y="50" width="6862.54" height="3996" rx="50" transform="translate(10594 2873)" stroke="#4F4F4F" stroke-opacity="0.5" stroke-width="100"/>
<path d="M1180.53 484H1233.03L1074.03 134H1024.53L866.025 484H917.525L956.025 396.5H1142.03L1180.53 484ZM973.525 356.5L1049.03 185L1124.53 356.5H973.525ZM1472.35 219V356C1472.35 413 1440.35 444 1390.35 444C1344.85 444 1318.85 418 1318.85 366V219H1270.85V371.5C1270.85 449.5 1316.35 487 1384.85 487C1422.35 487 1455.35 471.5 1474.85 444V484H1520.35V219H1472.35ZM1745.73 434C1735.73 442 1722.23 446.5 1708.23 446.5C1681.73 446.5 1666.73 430.5 1666.73 402V258.5H1742.73V219H1666.73V161H1618.73V219H1573.73V258.5H1618.73V404C1618.73 457.5 1649.23 487 1702.73 487C1724.23 487 1746.23 481 1760.73 468.5L1745.73 434ZM1960.26 216.5C1919.76 216.5 1886.76 231 1866.76 256.5V113H1818.76V484H1866.76V347.5C1866.76 290 1899.76 259.5 1950.76 259.5C1996.26 259.5 2022.26 285 2022.26 337V484H2070.26V331.5C2070.26 253.5 2024.76 216.5 1960.26 216.5ZM2274.06 487C2353.56 487 2411.56 430.5 2411.56 351.5C2411.56 272.5 2353.56 216.5 2274.06 216.5C2194.56 216.5 2136.06 272.5 2136.06 351.5C2136.06 430.5 2194.56 487 2274.06 487ZM2274.06 445C2223.06 445 2184.56 408 2184.56 351.5C2184.56 295 2223.06 258.5 2274.06 258.5C2325.06 258.5 2363.06 295 2363.06 351.5C2363.06 408 2325.06 445 2274.06 445ZM2523.94 263.5V219H2477.94V484H2525.94V352C2525.94 294 2557.94 262.5 2609.44 262.5C2612.94 262.5 2616.44 262.5 2620.44 263V216.5C2573.94 216.5 2540.94 232.5 2523.94 263.5ZM2932.8 487C2980.3 487 3019.8 467 3040.8 430L3004.3 407C2987.3 433 2961.3 445 2932.3 445C2880.3 445 2841.3 409 2841.3 351.5C2841.3 295 2880.3 258.5 2932.3 258.5C2961.3 258.5 2987.3 270.5 3004.3 296.5L3040.8 273C3019.8 236 2980.3 216.5 2932.8 216.5C2851.3 216.5 2792.8 272.5 2792.8 351.5C2792.8 430.5 2851.3 487 2932.8 487ZM3148.94 263.5V219H3102.94V484H3150.94V352C3150.94 294 3182.94 262.5 3234.44 262.5C3237.94 262.5 3241.44 262.5 3245.44 263V216.5C3198.94 216.5 3165.94 232.5 3148.94 263.5ZM3541.66 353C3541.66 271.5 3487.16 216.5 3410.66 216.5C3334.16 216.5 3277.66 273 3277.66 351.5C3277.66 430.5 3334.66 487 3420.16 487C3464.16 487 3500.66 472 3524.66 444L3498.16 413C3478.66 434.5 3452.66 445 3421.66 445C3369.16 445 3331.66 414 3325.66 367.5H3540.66C3541.16 363 3541.66 357 3541.66 353ZM3410.66 257C3457.16 257 3490.66 288.5 3495.66 333H3325.66C3330.66 288 3364.66 257 3410.66 257ZM3697.49 216.5C3654.99 216.5 3615.49 228.5 3587.99 250.5L3607.99 286.5C3628.49 269 3660.49 258 3691.99 258C3739.49 258 3762.99 281.5 3762.99 322V331.5H3686.99C3607.99 331.5 3580.49 366.5 3580.49 409C3580.49 455 3618.49 487 3678.49 487C3719.99 487 3749.49 473 3765.49 449V484H3810.99V324C3810.99 251.5 3769.99 216.5 3697.49 216.5ZM3686.49 450C3649.99 450 3627.99 433.5 3627.99 407C3627.99 384.5 3641.49 366 3688.99 366H3762.99V403C3750.99 433.5 3722.49 450 3686.49 450ZM4033.82 434C4023.82 442 4010.32 446.5 3996.32 446.5C3969.82 446.5 3954.82 430.5 3954.82 402V258.5H4030.82V219H3954.82V161H3906.82V219H3861.82V258.5H3906.82V404C3906.82 457.5 3937.32 487 3990.82 487C4012.32 487 4034.32 481 4048.82 468.5L4033.82 434ZM4337.56 353C4337.56 271.5 4283.06 216.5 4206.56 216.5C4130.06 216.5 4073.56 273 4073.56 351.5C4073.56 430.5 4130.56 487 4216.06 487C4260.06 487 4296.56 472 4320.56 444L4294.06 413C4274.56 434.5 4248.56 445 4217.56 445C4165.06 445 4127.56 414 4121.56 367.5H4336.56C4337.06 363 4337.56 357 4337.56 353ZM4206.56 257C4253.06 257 4286.56 288.5 4291.56 333H4121.56C4126.56 288 4160.56 257 4206.56 257ZM4480.21 487C4550.71 487 4594.71 456.5 4594.71 408.5C4594.71 305.5 4426.71 356.5 4426.71 294C4426.71 273 4447.21 257.5 4489.21 257.5C4515.21 257.5 4541.71 263 4565.71 278.5L4586.21 240.5C4563.21 225.5 4524.21 216.5 4489.71 216.5C4421.71 216.5 4379.21 248.5 4379.21 296C4379.21 401.5 4546.71 350 4546.71 409.5C4546.71 432 4528.21 445.5 4483.71 445.5C4449.21 445.5 4413.21 434 4390.71 418L4370.71 456C4392.71 473.5 4436.21 487 4480.21 487ZM4864.98 487C4935.48 487 4979.48 456.5 4979.48 408.5C4979.48 305.5 4811.48 356.5 4811.48 294C4811.48 273 4831.98 257.5 4873.98 257.5C4899.98 257.5 4926.48 263 4950.48 278.5L4970.98 240.5C4947.98 225.5 4908.98 216.5 4874.48 216.5C4806.48 216.5 4763.98 248.5 4763.98 296C4763.98 401.5 4931.48 350 4931.48 409.5C4931.48 432 4912.98 445.5 4868.48 445.5C4833.98 445.5 4797.98 434 4775.48 418L4755.48 456C4777.48 473.5 4820.98 487 4864.98 487ZM5238.47 219V356C5238.47 413 5206.47 444 5156.47 444C5110.97 444 5084.97 418 5084.97 366V219H5036.97V371.5C5036.97 449.5 5082.47 487 5150.97 487C5188.47 487 5221.47 471.5 5240.97 444V484H5286.47V219H5238.47ZM5518.35 216.5C5480.85 216.5 5447.85 230.5 5425.85 259V113H5377.85V484H5423.85V442C5445.35 472 5479.35 487 5518.35 487C5595.85 487 5652.35 432.5 5652.35 351.5C5652.35 270.5 5595.85 216.5 5518.35 216.5ZM5514.35 445C5463.85 445 5425.35 408 5425.35 351.5C5425.35 295 5463.85 258.5 5514.35 258.5C5565.35 258.5 5603.85 295 5603.85 351.5C5603.85 408 5565.35 445 5514.35 445ZM6050.17 216.5C6005.17 216.5 5968.17 235.5 5948.17 265.5C5930.67 232.5 5896.67 216.5 5856.17 216.5C5816.17 216.5 5783.67 231.5 5764.67 258.5V219H5718.67V484H5766.67V347.5C5766.67 290 5798.17 259.5 5846.17 259.5C5889.67 259.5 5914.67 285 5914.67 337V484H5962.67V347.5C5962.67 290 5994.17 259.5 6042.17 259.5C6085.67 259.5 6110.67 285 6110.67 337V484H6158.67V331.5C6158.67 253.5 6114.67 216.5 6050.17 216.5ZM6270.99 168C6289.99 168 6303.49 154 6303.49 136C6303.49 119 6289.49 105.5 6270.99 105.5C6252.49 105.5 6238.49 119.5 6238.49 137C6238.49 154.5 6252.49 168 6270.99 168ZM6246.99 484H6294.99V219H6246.99V484ZM6462.63 487C6533.13 487 6577.13 456.5 6577.13 408.5C6577.13 305.5 6409.13 356.5 6409.13 294C6409.13 273 6429.63 257.5 6471.63 257.5C6497.63 257.5 6524.13 263 6548.13 278.5L6568.63 240.5C6545.63 225.5 6506.63 216.5 6472.13 216.5C6404.13 216.5 6361.63 248.5 6361.63 296C6361.63 401.5 6529.13 350 6529.13 409.5C6529.13 432 6510.63 445.5 6466.13 445.5C6431.63 445.5 6395.63 434 6373.13 418L6353.13 456C6375.13 473.5 6418.63 487 6462.63 487ZM6713.12 487C6783.62 487 6827.62 456.5 6827.62 408.5C6827.62 305.5 6659.62 356.5 6659.62 294C6659.62 273 6680.12 257.5 6722.12 257.5C6748.12 257.5 6774.62 263 6798.62 278.5L6819.12 240.5C6796.12 225.5 6757.12 216.5 6722.62 216.5C6654.62 216.5 6612.12 248.5 6612.12 296C6612.12 401.5 6779.62 350 6779.62 409.5C6779.62 432 6761.12 445.5 6716.62 445.5C6682.12 445.5 6646.12 434 6623.62 418L6603.62 456C6625.62 473.5 6669.12 487 6713.12 487ZM6911.61 168C6930.61 168 6944.11 154 6944.11 136C6944.11 119 6930.11 105.5 6911.61 105.5C6893.11 105.5 6879.11 119.5 6879.11 137C6879.11 154.5 6893.11 168 6911.61 168ZM6887.61 484H6935.61V219H6887.61V484ZM7140.76 487C7220.26 487 7278.26 430.5 7278.26 351.5C7278.26 272.5 7220.26 216.5 7140.76 216.5C7061.26 216.5 7002.76 272.5 7002.76 351.5C7002.76 430.5 7061.26 487 7140.76 487ZM7140.76 445C7089.76 445 7051.26 408 7051.26 351.5C7051.26 295 7089.76 258.5 7140.76 258.5C7191.76 258.5 7229.76 295 7229.76 351.5C7229.76 408 7191.76 445 7140.76 445ZM7486.14 216.5C7444.14 216.5 7410.14 232 7390.64 259V219H7344.64V484H7392.64V347.5C7392.64 290 7425.64 259.5 7476.64 259.5C7522.14 259.5 7548.14 285 7548.14 337V484H7596.14V331.5C7596.14 253.5 7550.64 216.5 7486.14 216.5ZM1263.81 1130H1309.31C1268.81 1059 1251.31 983.5 1251.31 896C1251.31 808.5 1268.81 733 1309.31 662H1263.81C1225.81 721.5 1204.31 804 1204.31 896C1204.31 988 1225.81 1069.5 1263.81 1130ZM1702.27 765.5C1657.27 765.5 1620.27 784.5 1600.27 814.5C1582.77 781.5 1548.77 765.5 1508.27 765.5C1468.27 765.5 1435.77 780.5 1416.77 807.5V768H1370.77V1033H1418.77V896.5C1418.77 839 1450.27 808.5 1498.27 808.5C1541.77 808.5 1566.77 834 1566.77 886V1033H1614.77V896.5C1614.77 839 1646.27 808.5 1694.27 808.5C1737.77 808.5 1762.77 834 1762.77 886V1033H1810.77V880.5C1810.77 802.5 1766.77 765.5 1702.27 765.5ZM2098.09 768V905C2098.09 962 2066.09 993 2016.09 993C1970.59 993 1944.59 967 1944.59 915V768H1896.59V920.5C1896.59 998.5 1942.09 1036 2010.59 1036C2048.09 1036 2081.09 1020.5 2100.59 993V1033H2146.09V768H2098.09ZM2237.46 1033H2285.46V662H2237.46V1033ZM2517.46 983C2507.46 991 2493.96 995.5 2479.96 995.5C2453.46 995.5 2438.46 979.5 2438.46 951V807.5H2514.46V768H2438.46V710H2390.46V768H2345.46V807.5H2390.46V953C2390.46 1006.5 2420.96 1036 2474.46 1036C2495.96 1036 2517.96 1030 2532.46 1017.5L2517.46 983ZM2614.49 717C2633.49 717 2646.99 703 2646.99 685C2646.99 668 2632.99 654.5 2614.49 654.5C2595.99 654.5 2581.99 668.5 2581.99 686C2581.99 703.5 2595.99 717 2614.49 717ZM2590.49 1033H2638.49V768H2590.49V1033ZM2713.14 916.5H2847.64V875H2713.14V916.5ZM2997.55 1036C3068.05 1036 3112.05 1005.5 3112.05 957.5C3112.05 854.5 2944.05 905.5 2944.05 843C2944.05 822 2964.55 806.5 3006.55 806.5C3032.55 806.5 3059.05 812 3083.05 827.5L3103.55 789.5C3080.55 774.5 3041.55 765.5 3007.05 765.5C2939.05 765.5 2896.55 797.5 2896.55 845C2896.55 950.5 3064.05 899 3064.05 958.5C3064.05 981 3045.55 994.5 3001.05 994.5C2966.55 994.5 2930.55 983 2908.05 967L2888.05 1005C2910.05 1022.5 2953.55 1036 2997.55 1036ZM3411.54 902C3411.54 820.5 3357.04 765.5 3280.54 765.5C3204.04 765.5 3147.54 822 3147.54 900.5C3147.54 979.5 3204.54 1036 3290.04 1036C3334.04 1036 3370.54 1021 3394.54 993L3368.04 962C3348.54 983.5 3322.54 994 3291.54 994C3239.04 994 3201.54 963 3195.54 916.5H3410.54C3411.04 912 3411.54 906 3411.54 902ZM3280.54 806C3327.04 806 3360.54 837.5 3365.54 882H3195.54C3200.54 837 3234.54 806 3280.54 806ZM3612.19 983C3602.19 991 3588.69 995.5 3574.69 995.5C3548.19 995.5 3533.19 979.5 3533.19 951V807.5H3609.19V768H3533.19V710H3485.19V768H3440.19V807.5H3485.19V953C3485.19 1006.5 3515.69 1036 3569.19 1036C3590.69 1036 3612.69 1030 3627.19 1017.5L3612.19 983ZM3884.22 768V905C3884.22 962 3852.22 993 3802.22 993C3756.72 993 3730.72 967 3730.72 915V768H3682.72V920.5C3682.72 998.5 3728.22 1036 3796.72 1036C3834.22 1036 3867.22 1020.5 3886.72 993V1033H3932.22V768H3884.22ZM4164.1 765.5C4125.1 765.5 4091.1 780.5 4069.6 810V768H4023.6V1130H4071.6V993C4093.6 1021.5 4126.6 1036 4164.1 1036C4241.6 1036 4298.1 982 4298.1 900.5C4298.1 819.5 4241.6 765.5 4164.1 765.5ZM4160.1 994C4109.6 994 4071.1 957 4071.1 900.5C4071.1 844.5 4109.6 807.5 4160.1 807.5C4211.1 807.5 4249.6 844.5 4249.6 900.5C4249.6 957 4211.1 994 4160.1 994ZM4574.7 1036C4645.2 1036 4689.2 1005.5 4689.2 957.5C4689.2 854.5 4521.2 905.5 4521.2 843C4521.2 822 4541.7 806.5 4583.7 806.5C4609.7 806.5 4636.2 812 4660.2 827.5L4680.7 789.5C4657.7 774.5 4618.7 765.5 4584.2 765.5C4516.2 765.5 4473.7 797.5 4473.7 845C4473.7 950.5 4641.2 899 4641.2 958.5C4641.2 981 4622.7 994.5 4578.2 994.5C4543.7 994.5 4507.7 983 4485.2 967L4465.2 1005C4487.2 1022.5 4530.7 1036 4574.7 1036ZM4948.18 768V905C4948.18 962 4916.18 993 4866.18 993C4820.68 993 4794.68 967 4794.68 915V768H4746.68V920.5C4746.68 998.5 4792.18 1036 4860.68 1036C4898.18 1036 4931.18 1020.5 4950.68 993V1033H4996.18V768H4948.18ZM5228.06 765.5C5190.56 765.5 5157.56 779.5 5135.56 808V662H5087.56V1033H5133.56V991C5155.06 1021 5189.06 1036 5228.06 1036C5305.56 1036 5362.06 981.5 5362.06 900.5C5362.06 819.5 5305.56 765.5 5228.06 765.5ZM5224.06 994C5173.56 994 5135.06 957 5135.06 900.5C5135.06 844 5173.56 807.5 5224.06 807.5C5275.06 807.5 5313.56 844 5313.56 900.5C5313.56 957 5275.06 994 5224.06 994ZM5759.88 765.5C5714.88 765.5 5677.88 784.5 5657.88 814.5C5640.38 781.5 5606.38 765.5 5565.88 765.5C5525.88 765.5 5493.38 780.5 5474.38 807.5V768H5428.38V1033H5476.38V896.5C5476.38 839 5507.88 808.5 5555.88 808.5C5599.38 808.5 5624.38 834 5624.38 886V1033H5672.38V896.5C5672.38 839 5703.88 808.5 5751.88 808.5C5795.38 808.5 5820.38 834 5820.38 886V1033H5868.38V880.5C5868.38 802.5 5824.38 765.5 5759.88 765.5ZM5980.7 717C5999.7 717 6013.2 703 6013.2 685C6013.2 668 5999.2 654.5 5980.7 654.5C5962.2 654.5 5948.2 668.5 5948.2 686C5948.2 703.5 5962.2 717 5980.7 717ZM5956.7 1033H6004.7V768H5956.7V1033ZM6172.35 1036C6242.85 1036 6286.85 1005.5 6286.85 957.5C6286.85 854.5 6118.85 905.5 6118.85 843C6118.85 822 6139.35 806.5 6181.35 806.5C6207.35 806.5 6233.85 812 6257.85 827.5L6278.35 789.5C6255.35 774.5 6216.35 765.5 6181.85 765.5C6113.85 765.5 6071.35 797.5 6071.35 845C6071.35 950.5 6238.85 899 6238.85 958.5C6238.85 981 6220.35 994.5 6175.85 994.5C6141.35 994.5 6105.35 983 6082.85 967L6062.85 1005C6084.85 1022.5 6128.35 1036 6172.35 1036ZM6422.84 1036C6493.34 1036 6537.34 1005.5 6537.34 957.5C6537.34 854.5 6369.34 905.5 6369.34 843C6369.34 822 6389.84 806.5 6431.84 806.5C6457.84 806.5 6484.34 812 6508.34 827.5L6528.84 789.5C6505.84 774.5 6466.84 765.5 6432.34 765.5C6364.34 765.5 6321.84 797.5 6321.84 845C6321.84 950.5 6489.34 899 6489.34 958.5C6489.34 981 6470.84 994.5 6426.34 994.5C6391.84 994.5 6355.84 983 6333.34 967L6313.34 1005C6335.34 1022.5 6378.84 1036 6422.84 1036ZM6621.33 717C6640.33 717 6653.83 703 6653.83 685C6653.83 668 6639.83 654.5 6621.33 654.5C6602.83 654.5 6588.83 668.5 6588.83 686C6588.83 703.5 6602.83 717 6621.33 717ZM6597.33 1033H6645.33V768H6597.33V1033ZM6850.48 1036C6929.98 1036 6987.98 979.5 6987.98 900.5C6987.98 821.5 6929.98 765.5 6850.48 765.5C6770.98 765.5 6712.48 821.5 6712.48 900.5C6712.48 979.5 6770.98 1036 6850.48 1036ZM6850.48 994C6799.48 994 6760.98 957 6760.98 900.5C6760.98 844 6799.48 807.5 6850.48 807.5C6901.48 807.5 6939.48 844 6939.48 900.5C6939.48 957 6901.48 994 6850.48 994ZM7195.86 765.5C7153.86 765.5 7119.86 781 7100.36 808V768H7054.36V1033H7102.36V896.5C7102.36 839 7135.36 808.5 7186.36 808.5C7231.86 808.5 7257.86 834 7257.86 886V1033H7305.86V880.5C7305.86 802.5 7260.36 765.5 7195.86 765.5ZM1337.58 1584C1385.08 1584 1424.58 1564 1445.58 1527L1409.08 1504C1392.08 1530 1366.08 1542 1337.08 1542C1285.08 1542 1246.08 1506 1246.08 1448.5C1246.08 1392 1285.08 1355.5 1337.08 1355.5C1366.08 1355.5 1392.08 1367.5 1409.08 1393.5L1445.58 1370C1424.58 1333 1385.08 1313.5 1337.58 1313.5C1256.08 1313.5 1197.58 1369.5 1197.58 1448.5C1197.58 1527.5 1256.08 1584 1337.58 1584ZM1617.32 1584C1696.82 1584 1754.82 1527.5 1754.82 1448.5C1754.82 1369.5 1696.82 1313.5 1617.32 1313.5C1537.82 1313.5 1479.32 1369.5 1479.32 1448.5C1479.32 1527.5 1537.82 1584 1617.32 1584ZM1617.32 1542C1566.32 1542 1527.82 1505 1527.82 1448.5C1527.82 1392 1566.32 1355.5 1617.32 1355.5C1668.32 1355.5 1706.32 1392 1706.32 1448.5C1706.32 1505 1668.32 1542 1617.32 1542ZM1962.71 1313.5C1920.71 1313.5 1886.71 1329 1867.21 1356V1316H1821.21V1581H1869.21V1444.5C1869.21 1387 1902.21 1356.5 1953.21 1356.5C1998.71 1356.5 2024.71 1382 2024.71 1434V1581H2072.71V1428.5C2072.71 1350.5 2027.21 1313.5 1962.71 1313.5ZM2295.54 1531C2285.54 1539 2272.04 1543.5 2258.04 1543.5C2231.54 1543.5 2216.54 1527.5 2216.54 1499V1355.5H2292.54V1316H2216.54V1258H2168.54V1316H2123.54V1355.5H2168.54V1501C2168.54 1554.5 2199.04 1584 2252.54 1584C2274.04 1584 2296.04 1578 2310.54 1565.5L2295.54 1531ZM2414.57 1360.5V1316H2368.57V1581H2416.57V1449C2416.57 1391 2448.57 1359.5 2500.07 1359.5C2503.57 1359.5 2507.07 1359.5 2511.07 1360V1313.5C2464.57 1313.5 2431.57 1329.5 2414.57 1360.5ZM2681.29 1584C2760.79 1584 2818.79 1527.5 2818.79 1448.5C2818.79 1369.5 2760.79 1313.5 2681.29 1313.5C2601.79 1313.5 2543.29 1369.5 2543.29 1448.5C2543.29 1527.5 2601.79 1584 2681.29 1584ZM2681.29 1542C2630.29 1542 2591.79 1505 2591.79 1448.5C2591.79 1392 2630.29 1355.5 2681.29 1355.5C2732.29 1355.5 2770.29 1392 2770.29 1448.5C2770.29 1505 2732.29 1542 2681.29 1542ZM2885.17 1581H2933.17V1210H2885.17V1581ZM3255.6 1313.5C3213.1 1313.5 3173.6 1325.5 3146.1 1347.5L3166.1 1383.5C3186.6 1366 3218.6 1355 3250.1 1355C3297.6 1355 3321.1 1378.5 3321.1 1419V1428.5H3245.1C3166.1 1428.5 3138.6 1463.5 3138.6 1506C3138.6 1552 3176.6 1584 3236.6 1584C3278.1 1584 3307.6 1570 3323.6 1546V1581H3369.1V1421C3369.1 1348.5 3328.1 1313.5 3255.6 1313.5ZM3244.6 1547C3208.1 1547 3186.1 1530.5 3186.1 1504C3186.1 1481.5 3199.6 1463 3247.1 1463H3321.1V1500C3309.1 1530.5 3280.6 1547 3244.6 1547ZM3599.42 1313.5C3557.42 1313.5 3523.42 1329 3503.92 1356V1316H3457.92V1581H3505.92V1444.5C3505.92 1387 3538.92 1356.5 3589.92 1356.5C3635.42 1356.5 3661.42 1382 3661.42 1434V1581H3709.42V1428.5C3709.42 1350.5 3663.92 1313.5 3599.42 1313.5ZM4001.72 1210V1356C3979.72 1327.5 3946.72 1313.5 3909.22 1313.5C3831.72 1313.5 3775.22 1367.5 3775.22 1448.5C3775.22 1529.5 3831.72 1584 3909.22 1584C3948.22 1584 3982.22 1569 4003.72 1539V1581H4049.72V1210H4001.72ZM3913.22 1542C3862.22 1542 3823.72 1505 3823.72 1448.5C3823.72 1392 3862.22 1355.5 3913.22 1355.5C3963.72 1355.5 4002.22 1392 4002.22 1448.5C4002.22 1505 3963.72 1542 3913.22 1542ZM4606.32 1313.5C4561.32 1313.5 4524.32 1332.5 4504.32 1362.5C4486.82 1329.5 4452.82 1313.5 4412.32 1313.5C4372.32 1313.5 4339.82 1328.5 4320.82 1355.5V1316H4274.82V1581H4322.82V1444.5C4322.82 1387 4354.32 1356.5 4402.32 1356.5C4445.82 1356.5 4470.82 1382 4470.82 1434V1581H4518.82V1444.5C4518.82 1387 4550.32 1356.5 4598.32 1356.5C4641.82 1356.5 4666.82 1382 4666.82 1434V1581H4714.82V1428.5C4714.82 1350.5 4670.82 1313.5 4606.32 1313.5ZM4899.64 1313.5C4857.14 1313.5 4817.64 1325.5 4790.14 1347.5L4810.14 1383.5C4830.64 1366 4862.64 1355 4894.14 1355C4941.64 1355 4965.14 1378.5 4965.14 1419V1428.5H4889.14C4810.14 1428.5 4782.64 1463.5 4782.64 1506C4782.64 1552 4820.64 1584 4880.64 1584C4922.14 1584 4951.64 1570 4967.64 1546V1581H5013.14V1421C5013.14 1348.5 4972.14 1313.5 4899.64 1313.5ZM4888.64 1547C4852.14 1547 4830.14 1530.5 4830.14 1504C4830.14 1481.5 4843.64 1463 4891.14 1463H4965.14V1500C4953.14 1530.5 4924.64 1547 4888.64 1547ZM5243.47 1313.5C5201.47 1313.5 5167.47 1329 5147.97 1356V1316H5101.97V1581H5149.97V1444.5C5149.97 1387 5182.97 1356.5 5233.97 1356.5C5279.47 1356.5 5305.47 1382 5305.47 1434V1581H5353.47V1428.5C5353.47 1350.5 5307.97 1313.5 5243.47 1313.5ZM5641.3 1316V1453C5641.3 1510 5609.3 1541 5559.3 1541C5513.8 1541 5487.8 1515 5487.8 1463V1316H5439.8V1468.5C5439.8 1546.5 5485.3 1584 5553.8 1584C5591.3 1584 5624.3 1568.5 5643.8 1541V1581H5689.3V1316H5641.3ZM5856.68 1584C5927.18 1584 5971.18 1553.5 5971.18 1505.5C5971.18 1402.5 5803.18 1453.5 5803.18 1391C5803.18 1370 5823.68 1354.5 5865.68 1354.5C5891.68 1354.5 5918.18 1360 5942.18 1375.5L5962.68 1337.5C5939.68 1322.5 5900.68 1313.5 5866.18 1313.5C5798.18 1313.5 5755.68 1345.5 5755.68 1393C5755.68 1498.5 5923.18 1447 5923.18 1506.5C5923.18 1529 5904.68 1542.5 5860.18 1542.5C5825.68 1542.5 5789.68 1531 5767.18 1515L5747.18 1553C5769.18 1570.5 5812.68 1584 5856.68 1584ZM6146.67 1584C6194.17 1584 6233.67 1564 6254.67 1527L6218.17 1504C6201.17 1530 6175.17 1542 6146.17 1542C6094.17 1542 6055.17 1506 6055.17 1448.5C6055.17 1392 6094.17 1355.5 6146.17 1355.5C6175.17 1355.5 6201.17 1367.5 6218.17 1393.5L6254.67 1370C6233.67 1333 6194.17 1313.5 6146.67 1313.5C6065.17 1313.5 6006.67 1369.5 6006.67 1448.5C6006.67 1527.5 6065.17 1584 6146.67 1584ZM6362.81 1360.5V1316H6316.81V1581H6364.81V1449C6364.81 1391 6396.81 1359.5 6448.31 1359.5C6451.81 1359.5 6455.31 1359.5 6459.31 1360V1313.5C6412.81 1313.5 6379.81 1329.5 6362.81 1360.5ZM6542.47 1265C6561.47 1265 6574.97 1251 6574.97 1233C6574.97 1216 6560.97 1202.5 6542.47 1202.5C6523.97 1202.5 6509.97 1216.5 6509.97 1234C6509.97 1251.5 6523.97 1265 6542.47 1265ZM6518.47 1581H6566.47V1316H6518.47V1581ZM6798.62 1313.5C6759.62 1313.5 6725.62 1328.5 6704.12 1358V1316H6658.12V1678H6706.12V1541C6728.12 1569.5 6761.12 1584 6798.62 1584C6876.12 1584 6932.62 1530 6932.62 1448.5C6932.62 1367.5 6876.12 1313.5 6798.62 1313.5ZM6794.62 1542C6744.12 1542 6705.62 1505 6705.62 1448.5C6705.62 1392.5 6744.12 1355.5 6794.62 1355.5C6845.62 1355.5 6884.12 1392.5 6884.12 1448.5C6884.12 1505 6845.62 1542 6794.62 1542ZM7132.94 1531C7122.94 1539 7109.44 1543.5 7095.44 1543.5C7068.94 1543.5 7053.94 1527.5 7053.94 1499V1355.5H7129.94V1316H7053.94V1258H7005.94V1316H6960.94V1355.5H7005.94V1501C7005.94 1554.5 7036.44 1584 7089.94 1584C7111.44 1584 7133.44 1578 7147.94 1565.5L7132.94 1531ZM7221.97 1678C7260.47 1617.5 7281.97 1536 7281.97 1444C7281.97 1352 7260.47 1269.5 7221.97 1210H7176.47C7216.97 1281 7234.97 1356.5 7234.97 1444C7234.97 1531.5 7216.97 1607 7176.47 1678H7221.97Z" transform="translate(1350 14191)" fill="#7C4198"/>
<rect width="6962.54" height="4096" rx="100" transform="translate(2146.22 9881)" fill="white"/>
<rect x="50" y="50" width="6862.54" height="3996" rx="50" transform="translate(2146.22 9881)" stroke="#4F4F4F" stroke-opacity="0.5" stroke-width="100"/>
<rect x="50" y="50" width="2745" height="1931" rx="50" transform="translate(4204 11018)" stroke="#4F4F4F" stroke-width="100"/>
<rect width="773.615" height="298" rx="100" transform="translate(4204 13209)" fill="#7C4198"/>
<rect x="50" y="50" width="6702.81" height="1202" rx="50" transform="translate(10594.2 543)" stroke="#4F4F4F" stroke-width="100"/>
<rect x="50" y="50" width="1763" height="1202" rx="50" transform="translate(18843 543)" stroke="#4F4F4F" stroke-width="100"/>
<line x1="50" y1="-50" x2="2454" y2="-50" transform="translate(4375 10600)" stroke="#4F4F4F" stroke-width="100" stroke-linecap="round"/>
<circle cx="170.5" cy="170.5" r="170.5" transform="translate(4204 10383)" fill="#4F4F4F"/>
<circle cx="170.5" cy="170.5" r="170.5" transform="translate(6708 10383)" fill="#4F4F4F"/>
<circle cx="170.5" cy="170.5" r="170.5" transform="translate(5059 10383)" fill="#4F4F4F"/>
<circle cx="170.5" cy="170.5" r="170.5" transform="translate(5915 10383)" fill="#4F4F4F"/>
<rect x="50" y="50" width="6862.54" height="3996" rx="50" transform="translate(10829 9600)" stroke="#4F4F4F" stroke-opacity="0.5" stroke-width="100"/>
<path d="M553.74 488C646.24 488 689.24 442 689.24 388.5C689.24 260 477.24 313.5 477.24 228C477.24 197.5 502.74 172.5 562.24 172.5C593.24 172.5 627.74 181.5 658.24 201L674.74 161C645.74 141 603.24 130 562.24 130C470.24 130 428.24 176 428.24 230C428.24 360 640.24 306 640.24 391.5C640.24 422 614.24 445.5 553.74 445.5C508.74 445.5 464.24 428.5 438.24 405L419.74 444C447.74 470 500.24 488 553.74 488ZM889.287 434C879.287 442 865.787 446.5 851.787 446.5C825.287 446.5 810.287 430.5 810.287 402V258.5H886.287V219H810.287V161H762.287V219H717.287V258.5H762.287V404C762.287 457.5 792.787 487 846.287 487C867.787 487 889.787 481 904.287 468.5L889.287 434ZM1058.82 216.5C1016.32 216.5 976.818 228.5 949.318 250.5L969.318 286.5C989.818 269 1021.82 258 1053.32 258C1100.82 258 1124.32 281.5 1124.32 322V331.5H1048.32C969.318 331.5 941.818 366.5 941.818 409C941.818 455 979.818 487 1039.82 487C1081.32 487 1110.82 473 1126.82 449V484H1172.32V324C1172.32 251.5 1131.32 216.5 1058.82 216.5ZM1047.82 450C1011.32 450 989.318 433.5 989.318 407C989.318 384.5 1002.82 366 1050.32 366H1124.32V403C1112.32 433.5 1083.82 450 1047.82 450ZM1358.15 149.5C1372.15 149.5 1385.15 154.5 1395.15 162L1409.65 125.5C1396.15 115 1376.15 110 1355.65 110C1299.15 110 1268.15 144 1268.15 195.5V219H1223.15V258.5H1268.15V484H1316.15V258.5H1392.15V219H1315.15V196C1315.15 165.5 1329.65 149.5 1358.15 149.5ZM1534.42 149.5C1548.42 149.5 1561.42 154.5 1571.42 162L1585.92 125.5C1572.42 115 1552.42 110 1531.92 110C1475.42 110 1444.42 144 1444.42 195.5V219H1399.42V258.5H1444.42V484H1492.42V258.5H1568.42V219H1491.42V196C1491.42 165.5 1505.92 149.5 1534.42 149.5ZM2091.96 487.5C2073.96 507.5 2052.96 517.5 2027.96 517.5C2005.46 517.5 1984.46 507.5 1960.96 482.5C2042.46 463.5 2098.46 396 2098.46 309C2098.46 206 2019.46 130 1912.96 130C1805.46 130 1726.46 206.5 1726.46 309C1726.46 407.5 1799.46 482 1899.96 487.5C1948.96 538 1983.46 557 2027.46 557C2062.46 557 2092.96 542.5 2115.46 516L2091.96 487.5ZM1776.46 309C1776.46 232 1834.46 174.5 1912.96 174.5C1990.46 174.5 2048.46 232 2048.46 309C2048.46 386 1990.46 443.5 1912.96 443.5C1834.46 443.5 1776.46 386 1776.46 309ZM2331.38 488C2385.88 488 2432.88 469 2464.88 433L2432.38 401.5C2405.38 430 2372.38 443.5 2333.88 443.5C2254.88 443.5 2196.38 386.5 2196.38 309C2196.38 231.5 2254.88 174.5 2333.88 174.5C2372.38 174.5 2405.38 187.5 2432.38 216L2464.88 184.5C2432.88 148.5 2385.88 130 2331.88 130C2225.38 130 2146.38 205.5 2146.38 309C2146.38 412.5 2225.38 488 2331.38 488ZM2724.99 581H2770.49C2729.99 510 2712.49 434.5 2712.49 347C2712.49 259.5 2729.99 184 2770.49 113H2724.99C2686.99 172.5 2665.49 255 2665.49 347C2665.49 439 2686.99 520.5 2724.99 581ZM2907.95 487C2978.45 487 3022.45 456.5 3022.45 408.5C3022.45 305.5 2854.45 356.5 2854.45 294C2854.45 273 2874.95 257.5 2916.95 257.5C2942.95 257.5 2969.45 263 2993.45 278.5L3013.95 240.5C2990.95 225.5 2951.95 216.5 2917.45 216.5C2849.45 216.5 2806.95 248.5 2806.95 296C2806.95 401.5 2974.45 350 2974.45 409.5C2974.45 432 2955.95 445.5 2911.45 445.5C2876.95 445.5 2840.95 434 2818.45 418L2798.45 456C2820.45 473.5 2863.95 487 2907.95 487ZM3281.44 219V356C3281.44 413 3249.44 444 3199.44 444C3153.94 444 3127.94 418 3127.94 366V219H3079.94V371.5C3079.94 449.5 3125.44 487 3193.94 487C3231.44 487 3264.44 471.5 3283.94 444V484H3329.44V219H3281.44ZM3561.31 216.5C3523.81 216.5 3490.81 230.5 3468.81 259V113H3420.81V484H3466.81V442C3488.31 472 3522.31 487 3561.31 487C3638.81 487 3695.31 432.5 3695.31 351.5C3695.31 270.5 3638.81 216.5 3561.31 216.5ZM3557.31 445C3506.81 445 3468.31 408 3468.31 351.5C3468.31 295 3506.81 258.5 3557.31 258.5C3608.31 258.5 3646.81 295 3646.81 351.5C3646.81 408 3608.31 445 3557.31 445ZM4093.13 216.5C4048.13 216.5 4011.13 235.5 3991.13 265.5C3973.63 232.5 3939.63 216.5 3899.13 216.5C3859.13 216.5 3826.63 231.5 3807.63 258.5V219H3761.63V484H3809.63V347.5C3809.63 290 3841.13 259.5 3889.13 259.5C3932.63 259.5 3957.63 285 3957.63 337V484H4005.63V347.5C4005.63 290 4037.13 259.5 4085.13 259.5C4128.63 259.5 4153.63 285 4153.63 337V484H4201.63V331.5C4201.63 253.5 4157.63 216.5 4093.13 216.5ZM4313.96 168C4332.96 168 4346.46 154 4346.46 136C4346.46 119 4332.46 105.5 4313.96 105.5C4295.46 105.5 4281.46 119.5 4281.46 137C4281.46 154.5 4295.46 168 4313.96 168ZM4289.96 484H4337.96V219H4289.96V484ZM4505.6 487C4576.1 487 4620.1 456.5 4620.1 408.5C4620.1 305.5 4452.1 356.5 4452.1 294C4452.1 273 4472.6 257.5 4514.6 257.5C4540.6 257.5 4567.1 263 4591.1 278.5L4611.6 240.5C4588.6 225.5 4549.6 216.5 4515.1 216.5C4447.1 216.5 4404.6 248.5 4404.6 296C4404.6 401.5 4572.1 350 4572.1 409.5C4572.1 432 4553.6 445.5 4509.1 445.5C4474.6 445.5 4438.6 434 4416.1 418L4396.1 456C4418.1 473.5 4461.6 487 4505.6 487ZM4756.09 487C4826.59 487 4870.59 456.5 4870.59 408.5C4870.59 305.5 4702.59 356.5 4702.59 294C4702.59 273 4723.09 257.5 4765.09 257.5C4791.09 257.5 4817.59 263 4841.59 278.5L4862.09 240.5C4839.09 225.5 4800.09 216.5 4765.59 216.5C4697.59 216.5 4655.09 248.5 4655.09 296C4655.09 401.5 4822.59 350 4822.59 409.5C4822.59 432 4804.09 445.5 4759.59 445.5C4725.09 445.5 4689.09 434 4666.59 418L4646.59 456C4668.59 473.5 4712.09 487 4756.09 487ZM4954.58 168C4973.58 168 4987.08 154 4987.08 136C4987.08 119 4973.08 105.5 4954.58 105.5C4936.08 105.5 4922.08 119.5 4922.08 137C4922.08 154.5 4936.08 168 4954.58 168ZM4930.58 484H4978.58V219H4930.58V484ZM5183.73 487C5263.23 487 5321.23 430.5 5321.23 351.5C5321.23 272.5 5263.23 216.5 5183.73 216.5C5104.23 216.5 5045.73 272.5 5045.73 351.5C5045.73 430.5 5104.23 487 5183.73 487ZM5183.73 445C5132.73 445 5094.23 408 5094.23 351.5C5094.23 295 5132.73 258.5 5183.73 258.5C5234.73 258.5 5272.73 295 5272.73 351.5C5272.73 408 5234.73 445 5183.73 445ZM5529.11 216.5C5487.11 216.5 5453.11 232 5433.61 259V219H5387.61V484H5435.61V347.5C5435.61 290 5468.61 259.5 5519.61 259.5C5565.11 259.5 5591.11 285 5591.11 337V484H5639.11V331.5C5639.11 253.5 5593.61 216.5 5529.11 216.5ZM5739.94 418.5C5720.94 418.5 5706.44 432.5 5706.44 452.5C5706.44 467.5 5714.94 479 5727.44 483.5L5708.94 558H5740.44L5763.94 488.5C5770.44 470 5772.44 462.5 5772.44 452.5C5772.44 433 5758.94 418.5 5739.94 418.5ZM6116 216.5C6077 216.5 6043 231.5 6021.5 261V219H5975.5V581H6023.5V444C6045.5 472.5 6078.5 487 6116 487C6193.5 487 6250 433 6250 351.5C6250 270.5 6193.5 216.5 6116 216.5ZM6112 445C6061.5 445 6023 408 6023 351.5C6023 295.5 6061.5 258.5 6112 258.5C6163 258.5 6201.5 295.5 6201.5 351.5C6201.5 408 6163 445 6112 445ZM6410.38 216.5C6367.88 216.5 6328.38 228.5 6300.88 250.5L6320.88 286.5C6341.38 269 6373.38 258 6404.88 258C6452.38 258 6475.88 281.5 6475.88 322V331.5H6399.88C6320.88 331.5 6293.38 366.5 6293.38 409C6293.38 455 6331.38 487 6391.38 487C6432.88 487 6462.38 473 6478.38 449V484H6523.88V324C6523.88 251.5 6482.88 216.5 6410.38 216.5ZM6399.38 450C6362.88 450 6340.88 433.5 6340.88 407C6340.88 384.5 6354.38 366 6401.88 366H6475.88V403C6463.88 433.5 6435.38 450 6399.38 450ZM6688.71 487C6759.21 487 6803.21 456.5 6803.21 408.5C6803.21 305.5 6635.21 356.5 6635.21 294C6635.21 273 6655.71 257.5 6697.71 257.5C6723.71 257.5 6750.21 263 6774.21 278.5L6794.71 240.5C6771.71 225.5 6732.71 216.5 6698.21 216.5C6630.21 216.5 6587.71 248.5 6587.71 296C6587.71 401.5 6755.21 350 6755.21 409.5C6755.21 432 6736.71 445.5 6692.21 445.5C6657.71 445.5 6621.71 434 6599.21 418L6579.21 456C6601.21 473.5 6644.71 487 6688.71 487ZM6939.2 487C7009.7 487 7053.7 456.5 7053.7 408.5C7053.7 305.5 6885.7 356.5 6885.7 294C6885.7 273 6906.2 257.5 6948.2 257.5C6974.2 257.5 7000.7 263 7024.7 278.5L7045.2 240.5C7022.2 225.5 6983.2 216.5 6948.7 216.5C6880.7 216.5 6838.2 248.5 6838.2 296C6838.2 401.5 7005.7 350 7005.7 409.5C7005.7 432 6987.2 445.5 6942.7 445.5C6908.2 445.5 6872.2 434 6849.7 418L6829.7 456C6851.7 473.5 6895.2 487 6939.2 487ZM7054.19 534H7097.69L7262.69 63H7219.19L7054.19 534ZM7386.47 149.5C7400.47 149.5 7413.47 154.5 7423.47 162L7437.97 125.5C7424.47 115 7404.47 110 7383.97 110C7327.47 110 7296.47 144 7296.47 195.5V219H7251.47V258.5H7296.47V484H7344.47V258.5H7420.47V219H7343.47V196C7343.47 165.5 7357.97 149.5 7386.47 149.5ZM7557.35 216.5C7514.85 216.5 7475.35 228.5 7447.85 250.5L7467.85 286.5C7488.35 269 7520.35 258 7551.85 258C7599.35 258 7622.85 281.5 7622.85 322V331.5H7546.85C7467.85 331.5 7440.35 366.5 7440.35 409C7440.35 455 7478.35 487 7538.35 487C7579.85 487 7609.35 473 7625.35 449V484H7670.85V324C7670.85 251.5 7629.85 216.5 7557.35 216.5ZM7546.35 450C7509.85 450 7487.85 433.5 7487.85 407C7487.85 384.5 7501.35 366 7548.85 366H7622.85V403C7610.85 433.5 7582.35 450 7546.35 450ZM7783.68 168C7802.68 168 7816.18 154 7816.18 136C7816.18 119 7802.18 105.5 7783.68 105.5C7765.18 105.5 7751.18 119.5 7751.18 137C7751.18 154.5 7765.18 168 7783.68 168ZM7759.68 484H7807.68V219H7759.68V484ZM7899.33 484H7947.33V113H7899.33V484ZM8050.98 418.5C8031.98 418.5 8017.48 432.5 8017.48 452.5C8017.48 467.5 8025.98 479 8038.48 483.5L8019.98 558H8051.48L8074.98 488.5C8081.48 470 8083.48 462.5 8083.48 452.5C8083.48 433 8069.98 418.5 8050.98 418.5ZM1519.16 765.5C1474.16 765.5 1437.16 784.5 1417.16 814.5C1399.66 781.5 1365.66 765.5 1325.16 765.5C1285.16 765.5 1252.66 780.5 1233.66 807.5V768H1187.66V1033H1235.66V896.5C1235.66 839 1267.16 808.5 1315.16 808.5C1358.66 808.5 1383.66 834 1383.66 886V1033H1431.66V896.5C1431.66 839 1463.16 808.5 1511.16 808.5C1554.66 808.5 1579.66 834 1579.66 886V1033H1627.66V880.5C1627.66 802.5 1583.66 765.5 1519.16 765.5ZM1812.48 765.5C1769.98 765.5 1730.48 777.5 1702.98 799.5L1722.98 835.5C1743.48 818 1775.48 807 1806.98 807C1854.48 807 1877.98 830.5 1877.98 871V880.5H1801.98C1722.98 880.5 1695.48 915.5 1695.48 958C1695.48 1004 1733.48 1036 1793.48 1036C1834.98 1036 1864.48 1022 1880.48 998V1033H1925.98V873C1925.98 800.5 1884.98 765.5 1812.48 765.5ZM1801.48 999C1764.98 999 1742.98 982.5 1742.98 956C1742.98 933.5 1756.48 915 1803.98 915H1877.98V952C1865.98 982.5 1837.48 999 1801.48 999ZM2156.31 765.5C2114.31 765.5 2080.31 781 2060.81 808V768H2014.81V1033H2062.81V896.5C2062.81 839 2095.81 808.5 2146.81 808.5C2192.31 808.5 2218.31 834 2218.31 886V1033H2266.31V880.5C2266.31 802.5 2220.81 765.5 2156.31 765.5ZM2554.14 768V905C2554.14 962 2522.14 993 2472.14 993C2426.64 993 2400.64 967 2400.64 915V768H2352.64V920.5C2352.64 998.5 2398.14 1036 2466.64 1036C2504.14 1036 2537.14 1020.5 2556.64 993V1033H2602.14V768H2554.14ZM2769.52 1036C2840.02 1036 2884.02 1005.5 2884.02 957.5C2884.02 854.5 2716.02 905.5 2716.02 843C2716.02 822 2736.52 806.5 2778.52 806.5C2804.52 806.5 2831.02 812 2855.02 827.5L2875.52 789.5C2852.52 774.5 2813.52 765.5 2779.02 765.5C2711.02 765.5 2668.52 797.5 2668.52 845C2668.52 950.5 2836.02 899 2836.02 958.5C2836.02 981 2817.52 994.5 2773.02 994.5C2738.52 994.5 2702.52 983 2680.02 967L2660.02 1005C2682.02 1022.5 2725.52 1036 2769.52 1036ZM3059.51 1036C3107.01 1036 3146.51 1016 3167.51 979L3131.01 956C3114.01 982 3088.01 994 3059.01 994C3007.01 994 2968.01 958 2968.01 900.5C2968.01 844 3007.01 807.5 3059.01 807.5C3088.01 807.5 3114.01 819.5 3131.01 845.5L3167.51 822C3146.51 785 3107.01 765.5 3059.51 765.5C2978.01 765.5 2919.51 821.5 2919.51 900.5C2919.51 979.5 2978.01 1036 3059.51 1036ZM3275.65 812.5V768H3229.65V1033H3277.65V901C3277.65 843 3309.65 811.5 3361.15 811.5C3364.65 811.5 3368.15 811.5 3372.15 812V765.5C3325.65 765.5 3292.65 781.5 3275.65 812.5ZM3455.31 717C3474.31 717 3487.81 703 3487.81 685C3487.81 668 3473.81 654.5 3455.31 654.5C3436.81 654.5 3422.81 668.5 3422.81 686C3422.81 703.5 3436.81 717 3455.31 717ZM3431.31 1033H3479.31V768H3431.31V1033ZM3711.46 765.5C3672.46 765.5 3638.46 780.5 3616.96 810V768H3570.96V1130H3618.96V993C3640.96 1021.5 3673.96 1036 3711.46 1036C3788.96 1036 3845.46 982 3845.46 900.5C3845.46 819.5 3788.96 765.5 3711.46 765.5ZM3707.46 994C3656.96 994 3618.46 957 3618.46 900.5C3618.46 844.5 3656.96 807.5 3707.46 807.5C3758.46 807.5 3796.96 844.5 3796.96 900.5C3796.96 957 3758.46 994 3707.46 994ZM4045.78 983C4035.78 991 4022.28 995.5 4008.28 995.5C3981.78 995.5 3966.78 979.5 3966.78 951V807.5H4042.78V768H3966.78V710H3918.78V768H3873.78V807.5H3918.78V953C3918.78 1006.5 3949.28 1036 4002.78 1036C4024.28 1036 4046.28 1030 4060.78 1017.5L4045.78 983ZM4349.59 765.5C4307.09 765.5 4267.59 777.5 4240.09 799.5L4260.09 835.5C4280.59 818 4312.59 807 4344.09 807C4391.59 807 4415.09 830.5 4415.09 871V880.5H4339.09C4260.09 880.5 4232.59 915.5 4232.59 958C4232.59 1004 4270.59 1036 4330.59 1036C4372.09 1036 4401.59 1022 4417.59 998V1033H4463.09V873C4463.09 800.5 4422.09 765.5 4349.59 765.5ZM4338.59 999C4302.09 999 4280.09 982.5 4280.09 956C4280.09 933.5 4293.59 915 4341.09 915H4415.09V952C4403.09 982.5 4374.59 999 4338.59 999ZM4693.42 765.5C4651.42 765.5 4617.42 781 4597.92 808V768H4551.92V1033H4599.92V896.5C4599.92 839 4632.92 808.5 4683.92 808.5C4729.42 808.5 4755.42 834 4755.42 886V1033H4803.42V880.5C4803.42 802.5 4757.92 765.5 4693.42 765.5ZM5095.71 662V808C5073.71 779.5 5040.71 765.5 5003.21 765.5C4925.71 765.5 4869.21 819.5 4869.21 900.5C4869.21 981.5 4925.71 1036 5003.21 1036C5042.21 1036 5076.21 1021 5097.71 991V1033H5143.71V662H5095.71ZM5007.21 994C4956.21 994 4917.71 957 4917.71 900.5C4917.71 844 4956.21 807.5 5007.21 807.5C5057.71 807.5 5096.21 844 5096.21 900.5C5096.21 957 5057.71 994 5007.21 994ZM5484.31 1036C5531.81 1036 5571.31 1016 5592.31 979L5555.81 956C5538.81 982 5512.81 994 5483.81 994C5431.81 994 5392.81 958 5392.81 900.5C5392.81 844 5431.81 807.5 5483.81 807.5C5512.81 807.5 5538.81 819.5 5555.81 845.5L5592.31 822C5571.31 785 5531.81 765.5 5484.31 765.5C5402.81 765.5 5344.31 821.5 5344.31 900.5C5344.31 979.5 5402.81 1036 5484.31 1036ZM5764.05 1036C5843.55 1036 5901.55 979.5 5901.55 900.5C5901.55 821.5 5843.55 765.5 5764.05 765.5C5684.55 765.5 5626.05 821.5 5626.05 900.5C5626.05 979.5 5684.55 1036 5764.05 1036ZM5764.05 994C5713.05 994 5674.55 957 5674.55 900.5C5674.55 844 5713.05 807.5 5764.05 807.5C5815.05 807.5 5853.05 844 5853.05 900.5C5853.05 957 5815.05 994 5764.05 994ZM6299.43 765.5C6254.43 765.5 6217.43 784.5 6197.43 814.5C6179.93 781.5 6145.93 765.5 6105.43 765.5C6065.43 765.5 6032.93 780.5 6013.93 807.5V768H5967.93V1033H6015.93V896.5C6015.93 839 6047.43 808.5 6095.43 808.5C6138.93 808.5 6163.93 834 6163.93 886V1033H6211.93V896.5C6211.93 839 6243.43 808.5 6291.43 808.5C6334.93 808.5 6359.93 834 6359.93 886V1033H6407.93V880.5C6407.93 802.5 6363.93 765.5 6299.43 765.5ZM6827.75 765.5C6782.75 765.5 6745.75 784.5 6725.75 814.5C6708.25 781.5 6674.25 765.5 6633.75 765.5C6593.75 765.5 6561.25 780.5 6542.25 807.5V768H6496.25V1033H6544.25V896.5C6544.25 839 6575.75 808.5 6623.75 808.5C6667.25 808.5 6692.25 834 6692.25 886V1033H6740.25V896.5C6740.25 839 6771.75 808.5 6819.75 808.5C6863.25 808.5 6888.25 834 6888.25 886V1033H6936.25V880.5C6936.25 802.5 6892.25 765.5 6827.75 765.5ZM7100.57 1036C7171.07 1036 7215.07 1005.5 7215.07 957.5C7215.07 854.5 7047.07 905.5 7047.07 843C7047.07 822 7067.57 806.5 7109.57 806.5C7135.57 806.5 7162.07 812 7186.07 827.5L7206.57 789.5C7183.57 774.5 7144.57 765.5 7110.07 765.5C7042.07 765.5 6999.57 797.5 6999.57 845C6999.57 950.5 7167.07 899 7167.07 958.5C7167.07 981 7148.57 994.5 7104.07 994.5C7069.57 994.5 7033.57 983 7011.07 967L6991.07 1005C7013.07 1022.5 7056.57 1036 7100.57 1036ZM1853.7 1584C1901.2 1584 1940.7 1564 1961.7 1527L1925.2 1504C1908.2 1530 1882.2 1542 1853.2 1542C1801.2 1542 1762.2 1506 1762.2 1448.5C1762.2 1392 1801.2 1355.5 1853.2 1355.5C1882.2 1355.5 1908.2 1367.5 1925.2 1393.5L1961.7 1370C1940.7 1333 1901.2 1313.5 1853.7 1313.5C1772.2 1313.5 1713.7 1369.5 1713.7 1448.5C1713.7 1527.5 1772.2 1584 1853.7 1584ZM2133.44 1584C2212.94 1584 2270.94 1527.5 2270.94 1448.5C2270.94 1369.5 2212.94 1313.5 2133.44 1313.5C2053.94 1313.5 1995.44 1369.5 1995.44 1448.5C1995.44 1527.5 2053.94 1584 2133.44 1584ZM2133.44 1542C2082.44 1542 2043.94 1505 2043.94 1448.5C2043.94 1392 2082.44 1355.5 2133.44 1355.5C2184.44 1355.5 2222.44 1392 2222.44 1448.5C2222.44 1505 2184.44 1542 2133.44 1542ZM2478.82 1313.5C2436.82 1313.5 2402.82 1329 2383.32 1356V1316H2337.32V1581H2385.32V1444.5C2385.32 1387 2418.32 1356.5 2469.32 1356.5C2514.82 1356.5 2540.82 1382 2540.82 1434V1581H2588.82V1428.5C2588.82 1350.5 2543.32 1313.5 2478.82 1313.5ZM2811.65 1531C2801.65 1539 2788.15 1543.5 2774.15 1543.5C2747.65 1543.5 2732.65 1527.5 2732.65 1499V1355.5H2808.65V1316H2732.65V1258H2684.65V1316H2639.65V1355.5H2684.65V1501C2684.65 1554.5 2715.15 1584 2768.65 1584C2790.15 1584 2812.15 1578 2826.65 1565.5L2811.65 1531ZM2930.68 1360.5V1316H2884.68V1581H2932.68V1449C2932.68 1391 2964.68 1359.5 3016.18 1359.5C3019.68 1359.5 3023.18 1359.5 3027.18 1360V1313.5C2980.68 1313.5 2947.68 1329.5 2930.68 1360.5ZM3197.4 1584C3276.9 1584 3334.9 1527.5 3334.9 1448.5C3334.9 1369.5 3276.9 1313.5 3197.4 1313.5C3117.9 1313.5 3059.4 1369.5 3059.4 1448.5C3059.4 1527.5 3117.9 1584 3197.4 1584ZM3197.4 1542C3146.4 1542 3107.9 1505 3107.9 1448.5C3107.9 1392 3146.4 1355.5 3197.4 1355.5C3248.4 1355.5 3286.4 1392 3286.4 1448.5C3286.4 1505 3248.4 1542 3197.4 1542ZM3401.28 1581H3449.28V1210H3401.28V1581ZM3772.21 1246.5C3786.21 1246.5 3799.21 1251.5 3809.21 1259L3823.71 1222.5C3810.21 1212 3790.21 1207 3769.71 1207C3713.21 1207 3682.21 1241 3682.21 1292.5V1316H3637.21V1355.5H3682.21V1581H3730.21V1355.5H3806.21V1316H3729.21V1293C3729.21 1262.5 3743.71 1246.5 3772.21 1246.5ZM3961.07 1584C4040.57 1584 4098.57 1527.5 4098.57 1448.5C4098.57 1369.5 4040.57 1313.5 3961.07 1313.5C3881.57 1313.5 3823.07 1369.5 3823.07 1448.5C3823.07 1527.5 3881.57 1584 3961.07 1584ZM3961.07 1542C3910.07 1542 3871.57 1505 3871.57 1448.5C3871.57 1392 3910.07 1355.5 3961.07 1355.5C4012.07 1355.5 4050.07 1392 4050.07 1448.5C4050.07 1505 4012.07 1542 3961.07 1542ZM4210.96 1360.5V1316H4164.96V1581H4212.96V1449C4212.96 1391 4244.96 1359.5 4296.46 1359.5C4299.96 1359.5 4303.46 1359.5 4307.46 1360V1313.5C4260.96 1313.5 4227.96 1329.5 4210.96 1360.5ZM4601.31 1246.5C4615.31 1246.5 4628.31 1251.5 4638.31 1259L4652.81 1222.5C4639.31 1212 4619.31 1207 4598.81 1207C4542.31 1207 4511.31 1241 4511.31 1292.5V1316H4466.31V1355.5H4511.31V1581H4559.31V1355.5H4635.31V1316H4558.31V1293C4558.31 1262.5 4572.81 1246.5 4601.31 1246.5ZM4916.17 1450C4916.17 1368.5 4861.67 1313.5 4785.17 1313.5C4708.67 1313.5 4652.17 1370 4652.17 1448.5C4652.17 1527.5 4709.17 1584 4794.67 1584C4838.67 1584 4875.17 1569 4899.17 1541L4872.67 1510C4853.17 1531.5 4827.17 1542 4796.17 1542C4743.67 1542 4706.17 1511 4700.17 1464.5H4915.17C4915.67 1460 4916.17 1454 4916.17 1450ZM4785.17 1354C4831.67 1354 4865.17 1385.5 4870.17 1430H4700.17C4705.17 1385 4739.17 1354 4785.17 1354ZM5222.33 1450C5222.33 1368.5 5167.83 1313.5 5091.33 1313.5C5014.83 1313.5 4958.33 1370 4958.33 1448.5C4958.33 1527.5 5015.33 1584 5100.83 1584C5144.83 1584 5181.33 1569 5205.33 1541L5178.83 1510C5159.33 1531.5 5133.33 1542 5102.33 1542C5049.83 1542 5012.33 1511 5006.33 1464.5H5221.33C5221.83 1460 5222.33 1454 5222.33 1450ZM5091.33 1354C5137.83 1354 5171.33 1385.5 5176.33 1430H5006.33C5011.33 1385 5045.33 1354 5091.33 1354ZM5490.98 1210V1356C5468.98 1327.5 5435.98 1313.5 5398.48 1313.5C5320.98 1313.5 5264.48 1367.5 5264.48 1448.5C5264.48 1529.5 5320.98 1584 5398.48 1584C5437.48 1584 5471.48 1569 5492.98 1539V1581H5538.98V1210H5490.98ZM5402.48 1542C5351.48 1542 5312.98 1505 5312.98 1448.5C5312.98 1392 5351.48 1355.5 5402.48 1355.5C5452.98 1355.5 5491.48 1392 5491.48 1448.5C5491.48 1505 5452.98 1542 5402.48 1542ZM5770.3 1313.5C5732.8 1313.5 5699.8 1327.5 5677.8 1356V1210H5629.8V1581H5675.8V1539C5697.3 1569 5731.3 1584 5770.3 1584C5847.8 1584 5904.3 1529.5 5904.3 1448.5C5904.3 1367.5 5847.8 1313.5 5770.3 1313.5ZM5766.3 1542C5715.8 1542 5677.3 1505 5677.3 1448.5C5677.3 1392 5715.8 1355.5 5766.3 1355.5C5817.3 1355.5 5855.8 1392 5855.8 1448.5C5855.8 1505 5817.3 1542 5766.3 1542ZM6064.68 1313.5C6022.18 1313.5 5982.68 1325.5 5955.18 1347.5L5975.18 1383.5C5995.68 1366 6027.68 1355 6059.18 1355C6106.68 1355 6130.18 1378.5 6130.18 1419V1428.5H6054.18C5975.18 1428.5 5947.68 1463.5 5947.68 1506C5947.68 1552 5985.68 1584 6045.68 1584C6087.18 1584 6116.68 1570 6132.68 1546V1581H6178.18V1421C6178.18 1348.5 6137.18 1313.5 6064.68 1313.5ZM6053.68 1547C6017.18 1547 5995.18 1530.5 5995.18 1504C5995.18 1481.5 6008.68 1463 6056.18 1463H6130.18V1500C6118.18 1530.5 6089.68 1547 6053.68 1547ZM6383.97 1584C6431.47 1584 6470.97 1564 6491.97 1527L6455.47 1504C6438.47 1530 6412.47 1542 6383.47 1542C6331.47 1542 6292.47 1506 6292.47 1448.5C6292.47 1392 6331.47 1355.5 6383.47 1355.5C6412.47 1355.5 6438.47 1367.5 6455.47 1393.5L6491.97 1370C6470.97 1333 6431.47 1313.5 6383.97 1313.5C6302.47 1313.5 6243.97 1369.5 6243.97 1448.5C6243.97 1527.5 6302.47 1584 6383.97 1584ZM6753.2 1581H6812.2L6689.7 1425.5L6801.2 1316H6743.2L6598.7 1448V1210H6550.7V1581H6598.7V1508.5L6653.7 1457.5L6753.2 1581Z" transform="translate(9745 14191)" fill="#7C4198"/>
<rect width="6962.54" height="4096" rx="100" transform="translate(10541.2 9881)" fill="white"/>
<rect x="50" y="50" width="6862.54" height="3996" rx="50" transform="translate(10541.2 9881)" stroke="#4F4F4F" stroke-opacity="0.5" stroke-width="100"/>
<rect x="50" y="50" width="1575" height="3996" rx="50" transform="translate(15829 9881)" fill="white" stroke="#4F4F4F" stroke-width="100"/>
<rect x="50" y="50" width="2745" height="1931" rx="50" transform="translate(12652 11018)" stroke="#4F4F4F" stroke-width="100"/>
<rect width="773.615" height="298" rx="100" transform="translate(12652 13209)" fill="#4F4F4F"/>
<rect width="773.615" height="298" rx="100" transform="translate(14704 13209)" fill="#ED2C75"/>
<rect width="773.615" height="298" rx="100" transform="translate(13848 13209)" fill="#7C4198"/>
<line x1="50" y1="-50" x2="2454" y2="-50" transform="translate(12823 10600)" stroke="#4F4F4F" stroke-width="100" stroke-linecap="round"/>
<circle cx="170.5" cy="170.5" r="170.5" transform="translate(12652 10383)" fill="#4F4F4F"/>
<circle cx="170.5" cy="170.5" r="170.5" transform="translate(15156 10383)" fill="#4F4F4F"/>
<circle cx="170.5" cy="170.5" r="170.5" transform="translate(13507 10383)" fill="#4F4F4F"/>
<circle cx="170.5" cy="170.5" r="170.5" transform="translate(14363 10383)" fill="#4F4F4F"/>
<path fill-rule="evenodd" clip-rule="evenodd" d="M51.0781 0C23.4609 0 1.07812 22.3867 1.07812 50V300.523L0 300.082V790.539L217.141 573.273H673.438C701.055 573.273 723.438 550.887 723.438 523.273V50C723.438 22.3867 701.055 0 673.438 0H51.0781Z" transform="translate(17095 11768.5) scale(-1 1)" fill="#4F4F4F"/>
<path fill-rule="evenodd" clip-rule="evenodd" d="M51.0781 0C23.4609 0 1.07812 22.3867 1.07812 50V300.523L0 300.082V790.539L217.141 573.273H673.438C701.055 573.273 723.438 550.887 723.438 523.273V50C723.438 22.3867 701.055 0 673.438 0H51.0781Z" transform="translate(16220 11648)" fill="#4F4F4F" stroke="white" stroke-width="50"/>
<line y1="-25" x2="20546" y2="-25" transform="translate(0 2378)" stroke="#4F4F4F" stroke-opacity="0.5" stroke-width="50"/>
<line y1="-25" x2="18709" y2="-25" transform="translate(1370) rotate(90)" stroke="#4F4F4F" stroke-opacity="0.5" stroke-width="50"/>
<line y1="-25" x2="18709" y2="-25" transform="translate(9745) rotate(90)" stroke="#4F4F4F" stroke-opacity="0.5" stroke-width="50"/>
<line y1="-25" x2="18709" y2="-25" transform="translate(18187) rotate(90)" stroke="#4F4F4F" stroke-opacity="0.5" stroke-width="50"/>
<path d="M0 6918.5H616.5V0H1062" transform="translate(9383 4693)" stroke="#61C4B9" stroke-width="100"/>
<path d="M314.5 0L586.865 318L42.135 318L314.5 0Z" transform="translate(10541 4378) rotate(90)" fill="#61C4B9"/>
<path d="M0 14016V0H746" transform="translate(18602 4693)" stroke="#61C4B9" stroke-width="100"/>
<path d="M314.5 0L586.865 318L42.135 318L314.5 0Z" transform="translate(19491 4378) rotate(90)" fill="#61C4B9"/>
<path d="M314.5 0L586.865 318L42.135 318L314.5 0Z" transform="translate(6007 9355) rotate(180)" fill="#61C4B9"/>
<line y1="-50" x2="790" y2="-50" transform="translate(5627 8459) rotate(90)" stroke="#61C4B9" stroke-width="100"/>
<path d="M314.5 0L586.865 318L42.135 318L314.5 0Z" transform="translate(5378 16096)" fill="#61C4B9"/>
<path fill-rule="evenodd" clip-rule="evenodd" d="M2758 100H0V0H2758V100Z" transform="translate(5658 18755) rotate(-90)" fill="#61C4B9"/>
<path fill-rule="evenodd" clip-rule="evenodd" d="M2613 92H0V0H2613V92Z" transform="translate(14105 16096) rotate(90)" fill="#61C4B9"/>
<path d="M314.5 0L586.865 318L42.135 318L314.5 0Z" transform="translate(14363 9355) rotate(180)" fill="#61C4B9"/>
<line y1="-50" x2="790" y2="-50" transform="translate(13983 8459) rotate(90)" stroke="#61C4B9" stroke-width="100"/>
<path fill-rule="evenodd" clip-rule="evenodd" d="M18729.2 17377.8L18720 17344L19296 16576L19008 15584L19296 13408L18560 11744L19008 11328L18720 9632L19296 8320L18720 7456L19008 6592L18720 5536L19296 4320L18720 3424L19296 2528L18560 960L19296 0H20736V19456H19296L19273.9 19375H0V17935L2112 17359L2880 17935L3872 17647L6048 17935L7712 17199L8128 17647L9824 17359L11136 17935L12000 17359L12864 17647L13920 17359L15136 17935L16032 17359L16928 17935L18496 17199L18729.2 17377.8Z" transform="translate(514 153)" fill="#E5E5E5"/>
<path d="M0 18016L2176 17344L2912 18016L4064 17632L6144 18016L7744 17344L8128 17632L9984 17344L11232 18016L12096 17344L12992 17632L14080 17344L15232 18016L16096 17344L17088 18016L18528 17344H18752L19488 16672L19104 15584L19488 13632L18752 11680L19104 11264L18752 9568L19488 8384L18752 7488L19104 6528L18752 5536L19264 4320L18752 3360L19264 2496L18752 1088L19488 0" transform="translate(418 104)" stroke="#BDBDBD" stroke-width="100" stroke-linecap="round"/>
</svg>
