<svg width="6595" height="4850" viewBox="0 0 6595 4850" fill="none" xmlns="http://www.w3.org/2000/svg">
<rect x="10" y="10" width="2988" height="4450" rx="40" transform="translate(3587)" stroke="#61C4B9" stroke-width="20" stroke-dasharray="100 100"/>
<mask id="path-2-inside-1" fill="white">
<path fill-rule="evenodd" clip-rule="evenodd" d="M50 0C22.3857 0 0 22.3857 0 50V4420C0 4447.61 22.3857 4470 50 4470H1438C1465.61 4470 1488 4447.61 1488 4420V3141H2899V1533H1488V50C1488 22.3857 1465.61 0 1438 0H50Z"/>
</mask>
<path d="M1488 3141V3131H1478V3141H1488ZM2899 3141V3151H2909V3141H2899ZM2899 1533H2909V1523H2899V1533ZM1488 1533H1478V1543H1488V1533ZM-10 50V99.6591H10V50H-10ZM-10 198.977V298.295H10V198.977H-10ZM-10 397.614V496.932H10V397.614H-10ZM-10 596.25V695.568H10V596.25H-10ZM-10 794.886V894.205H10V794.886H-10ZM-10 993.523V1092.84H10V993.523H-10ZM-10 1192.16V1291.48H10V1192.16H-10ZM-10 1390.8V1490.11H10V1390.8H-10ZM-10 1589.43V1688.75H10V1589.43H-10ZM-10 1788.07V1887.39H10V1788.07H-10ZM-10 1986.7V2086.02H10V1986.7H-10ZM-10 2185.34V2284.66H10V2185.34H-10ZM-10 2383.98V2483.3H10V2383.98H-10ZM-10 2582.61V2681.93H10V2582.61H-10ZM-10 2781.25V2880.57H10V2781.25H-10ZM-10 2979.89V3079.2H10V2979.89H-10ZM-10 3178.52V3277.84H10V3178.52H-10ZM-10 3377.16V3476.48H10V3377.16H-10ZM-10 3575.8V3675.11H10V3575.8H-10ZM-10 3774.43V3873.75H10V3774.43H-10ZM-10 3973.07V4072.39H10V3973.07H-10ZM-10 4171.7V4271.02H10V4171.7H-10ZM-10 4370.34V4420H10V4370.34H-10ZM-10 4420C-10 4428.12 -8.38265 4435.88 -5.44324 4442.97L13.0313 4435.31C11.0813 4430.61 10 4425.44 10 4420H-10ZM27.0301 4475.44C34.1184 4478.38 41.8829 4480 50 4480V4460C44.5579 4460 39.3936 4458.92 34.6911 4456.97L27.0301 4475.44ZM50 4480H99.5714V4460H50V4480ZM198.714 4480H297.857V4460H198.714V4480ZM397 4480H496.143V4460H397V4480ZM595.286 4480H694.429V4460H595.286V4480ZM793.571 4480H892.714V4460H793.571V4480ZM991.857 4480H1091V4460H991.857V4480ZM1190.14 4480H1289.29V4460H1190.14V4480ZM1388.43 4480H1438V4460H1388.43V4480ZM1438 4480C1446.12 4480 1453.88 4478.38 1460.97 4475.44L1453.31 4456.97C1448.61 4458.92 1443.44 4460 1438 4460V4480ZM1493.44 4442.97C1496.38 4435.88 1498 4428.12 1498 4420H1478C1478 4425.44 1476.92 4430.61 1474.97 4435.31L1493.44 4442.97ZM1498 4420V4366.71H1478V4420H1498ZM1498 4260.12V4153.54H1478V4260.12H1498ZM1498 4046.96V3940.37H1478V4046.96H1498ZM1498 3833.79V3727.21H1478V3833.79H1498ZM1498 3620.62V3514.04H1478V3620.62H1498ZM1498 3407.46V3300.87H1478V3407.46H1498ZM1498 3194.29V3141H1478V3194.29H1498ZM1488 3151H1538.39V3131H1488V3151ZM1639.18 3151H1739.96V3131H1639.18V3151ZM1840.75 3151H1941.54V3131H1840.75V3151ZM2042.32 3151H2143.11V3131H2042.32V3151ZM2243.89 3151H2344.68V3131H2243.89V3151ZM2445.46 3151H2546.25V3131H2445.46V3151ZM2647.04 3151H2747.82V3131H2647.04V3151ZM2848.61 3151H2899V3131H2848.61V3151ZM2909 3141V3090.75H2889V3141H2909ZM2909 2990.25V2889.75H2889V2990.25H2909ZM2909 2789.25V2688.75H2889V2789.25H2909ZM2909 2588.25V2487.75H2889V2588.25H2909ZM2909 2387.25V2286.75H2889V2387.25H2909ZM2909 2186.25V2085.75H2889V2186.25H2909ZM2909 1985.25V1884.75H2889V1985.25H2909ZM2909 1784.25V1683.75H2889V1784.25H2909ZM2909 1583.25V1533H2889V1583.25H2909ZM2899 1523H2848.61V1543H2899V1523ZM2747.82 1523H2647.04V1543H2747.82V1523ZM2546.25 1523H2445.46V1543H2546.25V1523ZM2344.68 1523H2243.89V1543H2344.68V1523ZM2143.11 1523H2042.32V1543H2143.11V1523ZM1941.54 1523H1840.75V1543H1941.54V1523ZM1739.96 1523H1639.18V1543H1739.96V1523ZM1538.39 1523H1488V1543H1538.39V1523ZM1498 1533V1480.04H1478V1533H1498ZM1498 1374.11V1268.18H1478V1374.11H1498ZM1498 1162.25V1056.32H1478V1162.25H1498ZM1498 950.393V844.464H1478V950.393H1498ZM1498 738.536V632.607H1478V738.536H1498ZM1498 526.679V420.75H1478V526.679H1498ZM1498 314.821V208.893H1478V314.821H1498ZM1498 102.964V50H1478V102.964H1498ZM1498 50C1498 41.8829 1496.38 34.1184 1493.44 27.0301L1474.97 34.6911C1476.92 39.3936 1478 44.5579 1478 50H1498ZM1460.97 -5.44324C1453.88 -8.38265 1446.12 -10 1438 -10V10C1443.44 10 1448.61 11.0813 1453.31 13.0313L1460.97 -5.44324ZM1438 -10H1388.43V10H1438V-10ZM1289.29 -10H1190.14V10H1289.29V-10ZM1091 -10H991.857V10H1091V-10ZM892.714 -10H793.571V10H892.714V-10ZM694.429 -10H595.286V10H694.429V-10ZM496.143 -10H397V10H496.143V-10ZM297.857 -10H198.714V10H297.857V-10ZM99.5714 -10H50V10H99.5714V-10ZM50 -10C41.8829 -10 34.1184 -8.38265 27.0301 -5.44324L34.6911 13.0313C39.3936 11.0813 44.5579 10 50 10V-10ZM-5.44324 27.0301C-8.38265 34.1184 -10 41.8829 -10 50H10C10 44.5579 11.0813 39.3936 13.0313 34.6911L-5.44324 27.0301ZM1488 3141V3121H1468V3141H1488ZM2899 3141V3161H2919V3141H2899ZM2899 1533H2919V1513H2899V1533ZM1488 1533H1468V1553H1488V1533ZM-20 50V99.6591H20V50H-20ZM-20 198.977V298.295H20V198.977H-20ZM-20 397.614V496.932H20V397.614H-20ZM-20 596.25V695.568H20V596.25H-20ZM-20 794.886V894.205H20V794.886H-20ZM-20 993.523V1092.84H20V993.523H-20ZM-20 1192.16V1291.48H20V1192.16H-20ZM-20 1390.8V1490.11H20V1390.8H-20ZM-20 1589.43V1688.75H20V1589.43H-20ZM-20 1788.07V1887.39H20V1788.07H-20ZM-20 1986.7V2086.02H20V1986.7H-20ZM-20 2185.34V2284.66H20V2185.34H-20ZM-20 2383.98V2483.3H20V2383.98H-20ZM-20 2582.61V2681.93H20V2582.61H-20ZM-20 2781.25V2880.57H20V2781.25H-20ZM-20 2979.89V3079.2H20V2979.89H-20ZM-20 3178.52V3277.84H20V3178.52H-20ZM-20 3377.16V3476.48H20V3377.16H-20ZM-20 3575.8V3675.11H20V3575.8H-20ZM-20 3774.43V3873.75H20V3774.43H-20ZM-20 3973.07V4072.39H20V3973.07H-20ZM-20 4171.7V4271.02H20V4171.7H-20ZM-20 4370.34V4420H20V4370.34H-20ZM-20 4420C-20 4429.45 -18.1146 4438.52 -14.6805 4446.8L22.2685 4431.48C20.8132 4427.97 20 4424.1 20 4420H-20ZM23.1995 4484.68C31.4808 4488.11 40.5455 4490 50 4490V4450C45.8954 4450 42.0312 4449.19 38.5217 4447.73L23.1995 4484.68ZM50 4490H99.5714V4450H50V4490ZM198.714 4490H297.857V4450H198.714V4490ZM397 4490H496.143V4450H397V4490ZM595.286 4490H694.429V4450H595.286V4490ZM793.571 4490H892.714V4450H793.571V4490ZM991.857 4490H1091V4450H991.857V4490ZM1190.14 4490H1289.29V4450H1190.14V4490ZM1388.43 4490H1438V4450H1388.43V4490ZM1438 4490C1447.45 4490 1456.52 4488.11 1464.8 4484.68L1449.48 4447.73C1445.97 4449.19 1442.1 4450 1438 4450V4490ZM1502.68 4446.8C1506.11 4438.52 1508 4429.45 1508 4420H1468C1468 4424.1 1467.19 4427.97 1465.73 4431.48L1502.68 4446.8ZM1508 4420V4366.71H1468V4420H1508ZM1508 4260.12V4153.54H1468V4260.12H1508ZM1508 4046.96V3940.37H1468V4046.96H1508ZM1508 3833.79V3727.21H1468V3833.79H1508ZM1508 3620.62V3514.04H1468V3620.62H1508ZM1508 3407.46V3300.87H1468V3407.46H1508ZM1508 3194.29V3141H1468V3194.29H1508ZM1488 3161H1538.39V3121H1488V3161ZM1639.18 3161H1739.96V3121H1639.18V3161ZM1840.75 3161H1941.54V3121H1840.75V3161ZM2042.32 3161H2143.11V3121H2042.32V3161ZM2243.89 3161H2344.68V3121H2243.89V3161ZM2445.46 3161H2546.25V3121H2445.46V3161ZM2647.04 3161H2747.82V3121H2647.04V3161ZM2848.61 3161H2899V3121H2848.61V3161ZM2919 3141V3090.75H2879V3141H2919ZM2919 2990.25V2889.75H2879V2990.25H2919ZM2919 2789.25V2688.75H2879V2789.25H2919ZM2919 2588.25V2487.75H2879V2588.25H2919ZM2919 2387.25V2286.75H2879V2387.25H2919ZM2919 2186.25V2085.75H2879V2186.25H2919ZM2919 1985.25V1884.75H2879V1985.25H2919ZM2919 1784.25V1683.75H2879V1784.25H2919ZM2919 1583.25V1533H2879V1583.25H2919ZM2899 1513H2848.61V1553H2899V1513ZM2747.82 1513H2647.04V1553H2747.82V1513ZM2546.25 1513H2445.46V1553H2546.25V1513ZM2344.68 1513H2243.89V1553H2344.68V1513ZM2143.11 1513H2042.32V1553H2143.11V1513ZM1941.54 1513H1840.75V1553H1941.54V1513ZM1739.96 1513H1639.18V1553H1739.96V1513ZM1538.39 1513H1488V1553H1538.39V1513ZM1508 1533V1480.04H1468V1533H1508ZM1508 1374.11V1268.18H1468V1374.11H1508ZM1508 1162.25V1056.32H1468V1162.25H1508ZM1508 950.393V844.464H1468V950.393H1508ZM1508 738.536V632.607H1468V738.536H1508ZM1508 526.679V420.75H1468V526.679H1508ZM1508 314.821V208.893H1468V314.821H1508ZM1508 102.964V50H1468V102.964H1508ZM1508 50C1508 40.5455 1506.11 31.4808 1502.68 23.1995L1465.73 38.5217C1467.19 42.0312 1468 45.8954 1468 50H1508ZM1464.8 -14.6805C1456.52 -18.1146 1447.45 -20 1438 -20V20C1442.1 20 1445.97 20.8132 1449.48 22.2685L1464.8 -14.6805ZM1438 -20H1388.43V20H1438V-20ZM1289.29 -20H1190.14V20H1289.29V-20ZM1091 -20H991.857V20H1091V-20ZM892.714 -20H793.571V20H892.714V-20ZM694.429 -20H595.286V20H694.429V-20ZM496.143 -20H397V20H496.143V-20ZM297.857 -20H198.714V20H297.857V-20ZM99.5714 -20H50V20H99.5714V-20ZM50 -20C40.5455 -20 31.4808 -18.1146 23.1995 -14.6805L38.5217 22.2685C42.0312 20.8132 45.8954 20 50 20V-20ZM-14.6805 23.1995C-18.1146 31.4808 -20 40.5455 -20 50H20C20 45.8954 20.8132 42.0312 22.2685 38.5217L-14.6805 23.1995Z" fill="#7C4198" mask="url(#path-2-inside-1)"/>
<path d="M0 10H1378.37V-10H0V10Z" transform="translate(1030 905) rotate(46.0288)" fill="#4F4F4F"/>
<path d="M0.0026784 10.3641L1359.27 10L1359.27 -10L-0.0026784 -9.63593L0.0026784 10.3641Z" transform="translate(5535.74 918.747) scale(-1 1) rotate(46.0288)" fill="#4F4F4F"/>
<path d="M0.0026784 10.3641L1359.27 10L1359.27 -10L-0.0026784 -9.63593L0.0026784 10.3641Z" transform="translate(5545.74 3424.51) rotate(-133.971)" fill="#4F4F4F"/>
<path d="M0 10H543.29V-10H0V10ZM543.29 10H1378.37V-10H543.29V10Z" transform="translate(1998 2454) scale(-1 1) rotate(46.0288)" fill="#4F4F4F"/>
<circle cx="400" cy="400" r="390" transform="translate(3924 1773)" stroke="#4F4F4F" stroke-width="20"/>
<circle cx="400" cy="400" r="390" transform="translate(1831 248)" stroke="#4F4F4F" stroke-width="20"/>
<circle cx="400" cy="400" r="390" transform="translate(325 248)" stroke="#4F4F4F" stroke-width="20"/>
<circle cx="400" cy="400" r="390" transform="translate(325 3290)" stroke="#4F4F4F" stroke-width="20"/>
<circle cx="400" cy="400" r="390" transform="translate(325 1769)" stroke="#4F4F4F" stroke-width="20"/>
<mask id="mask0" mask-type="alpha" maskUnits="userSpaceOnUse" x="2231" y="1972" width="400" height="601">
<path d="M254.451 52.9102L346.061 1.75184e-08C415.184 119.638 420.317 271.889 346.29 400.157C272.305 528.346 138.046 600.016 -2.75796e-08 600.033V494.086L254.999 347.134V53.2261L254.451 52.9102Z" transform="translate(2231.12 1972.97)" fill="white"/>
</mask>
<g mask="url(#mask0)">
<path d="M407.895 0H0V608.033H407.895V0Z" transform="translate(2227.12 1968.97)" fill="#ED2C75"/>
</g>
<mask id="mask1" mask-type="alpha" maskUnits="userSpaceOnUse" x="1884" y="1773" width="694" height="254">
<path d="M91.4324 253.085L-5.01448e-10 200.277C69.0078 80.5745 198.25 -5.94375e-10 346.307 -5.94375e-10C494.277 -5.94375e-10 623.452 80.4779 692.49 200.066L600.873 252.978L346.245 106.239L91.4324 253.085Z" transform="translate(1884.88 1773)" fill="white"/>
</mask>
<g mask="url(#mask1)">
<path d="M700.508 0H0V261.085H700.508V0Z" transform="translate(1880.87 1769)" fill="#61C4B9"/>
</g>
<mask id="mask2" mask-type="alpha" maskUnits="userSpaceOnUse" x="1831" y="1973" width="401" height="600">
<path d="M400.125 493.982V599.821C261.991 599.888 127.615 528.208 53.5869 399.942C-20.3982 271.752 -15.3158 119.604 53.6963 2.90305e-08L145.397 52.9637L145.126 53.118V347.028L400.125 493.982Z" transform="translate(1831 1973.07)" fill="white"/>
</mask>
<g mask="url(#mask2)">
<path d="M408.141 0H0V607.824H408.141V0Z" transform="translate(1826.99 1969.07)" fill="#7C4198"/>
</g>
<circle cx="400" cy="400" r="390" transform="translate(1831 1773)" stroke="#4F4F4F" stroke-width="20"/>
<mask id="mask3" mask-type="alpha" maskUnits="userSpaceOnUse" x="4107" y="1923" width="435" height="251">
<path d="M1.32884e-08 125.184L216.916 250.367L434.164 124.961L217.53 1.50158e-09L1.32884e-08 125.184Z" transform="translate(4107.18 1923.05)" fill="white"/>
</mask>
<g mask="url(#mask3)">
<path d="M442.181 0H0V258.369H442.181V0Z" transform="translate(4103.17 1919.05)" fill="#ED2C75"/>
</g>
<mask id="mask4" mask-type="alpha" maskUnits="userSpaceOnUse" x="4107" y="2048" width="218" height="376">
<path d="M0.102006 -1.22629e-08L216.624 125.255V374.621L1.07811e-08 249.275L0.102006 -1.22629e-08Z" transform="translate(4107.38 2048.4)" fill="white"/>
</mask>
<g mask="url(#mask4)">
<path d="M224.64 0H0V382.621H224.64V0Z" transform="translate(4103.37 2044.4)" fill="#61C4B9"/>
</g>
<mask id="mask5" mask-type="alpha" maskUnits="userSpaceOnUse" x="4324" y="2047" width="218" height="377">
<path d="M9.02606e-09 375.346V125.655L217.484 -2.40253e-08V249.661L9.02606e-09 375.346Z" transform="translate(4324.07 2047.81)" fill="white"/>
</mask>
<g mask="url(#mask5)">
<path d="M225.503 0H0V383.346H225.503V0Z" transform="translate(4320.06 2043.81)" fill="#7C4198"/>
</g>
<path d="M471.619 80.4582C460.664 39.8982 379.128 0 236.5 0C93.8716 0 12.3264 39.8982 1.38116 80.4582C0.586519 81.848 0 83.3702 0 85.0909V89.8182V198.545V203.273V208V312V316.727V321.455V434.909C0 436.441 0.406781 437.887 1.10682 439.173C12.2791 485.453 112.233 520 236.5 520C360.483 520 460.276 485.595 471.818 439.485C472.574 438.133 473 436.573 473 434.909V321.455V316.727V312V208V203.273V198.545V89.8182V85.0909C473 83.3702 472.413 81.848 471.619 80.4582ZM453.333 321.313C453.068 322.457 452.699 323.591 452.235 324.745C451.857 325.681 451.393 326.617 450.883 327.553C450.249 328.716 449.539 329.879 448.697 331.041C448.073 331.921 447.363 332.791 446.626 333.66C445.575 334.899 444.459 336.137 443.192 337.367C442.425 338.113 441.583 338.851 440.732 339.598C439.181 340.95 437.563 342.292 435.756 343.625C434.98 344.202 434.148 344.76 433.325 345.327C431.187 346.802 428.954 348.268 426.504 349.705C425.861 350.092 425.17 350.461 424.499 350.839C421.68 352.428 418.737 354.007 415.559 355.538C415.152 355.737 414.726 355.926 414.31 356.115C410.763 357.788 407.054 359.433 403.091 361.022C402.977 361.069 402.864 361.107 402.75 361.154C381.266 369.729 353.785 376.943 321.763 381.671C321.602 381.689 321.441 381.708 321.281 381.737C315.056 382.654 308.67 383.467 302.115 384.185C301.046 384.299 299.92 384.375 298.841 384.488C293.118 385.084 287.329 385.632 281.369 386.067C278.644 386.265 275.787 386.36 273.016 386.53C268.532 386.795 264.095 387.088 259.497 387.249C251.986 387.485 244.323 387.636 236.5 387.636C228.677 387.636 221.014 387.485 213.493 387.22C208.896 387.06 204.459 386.757 199.975 386.502C197.203 386.341 194.346 386.237 191.622 386.039C185.662 385.604 179.872 385.055 174.149 384.46C173.071 384.346 171.945 384.271 170.876 384.157C164.32 383.439 157.935 382.616 151.71 381.708C151.549 381.689 151.388 381.671 151.228 381.642C119.205 376.915 91.7242 369.701 70.2405 361.126C70.127 361.088 70.0135 361.041 69.8999 360.993C65.9362 359.405 62.2184 357.76 58.6804 356.087C58.2736 355.888 57.8384 355.699 57.4317 355.51C54.2531 353.978 51.311 352.409 48.492 350.811C47.8298 350.433 47.1297 350.064 46.4864 349.676C44.0363 348.239 41.8037 346.774 39.6658 345.299C38.8522 344.732 38.0103 344.174 37.2346 343.597C35.4277 342.264 33.81 340.921 32.2586 339.569C31.4167 338.832 30.5653 338.095 29.799 337.338C28.5314 336.109 27.4151 334.88 26.365 333.632C25.6271 332.762 24.9176 331.892 24.2933 331.013C23.4608 329.85 22.7513 328.687 22.108 327.524C21.5972 326.588 21.1431 325.652 20.7552 324.716C20.2917 323.572 19.9228 322.428 19.6579 321.284C19.3079 319.781 18.92 318.249 18.92 316.727C18.92 315.659 19.043 314.591 19.2133 313.532C19.4498 312.104 19.3173 310.676 18.92 309.324V239.134C19.1849 239.38 19.516 239.616 19.7903 239.862C21.8526 241.677 23.9527 243.483 26.3177 245.223C61.9535 272.159 133.216 293.091 236.5 293.091C339.349 293.091 410.432 272.329 446.219 245.553C449.076 243.473 451.649 241.327 454.071 239.143L454.08 239.134V309.324C453.683 310.676 453.55 312.104 453.787 313.532C453.966 314.591 454.08 315.659 454.08 316.727C454.08 318.249 453.692 319.781 453.333 321.313ZM454.08 125.679V195.87C453.683 197.222 453.55 198.649 453.787 200.077C453.966 201.136 454.08 202.204 454.08 203.273C454.08 204.795 453.692 206.327 453.333 207.858C453.068 209.002 452.699 210.137 452.235 211.29C451.857 212.226 451.393 213.162 450.883 214.098C450.249 215.261 449.539 216.424 448.697 217.587C448.073 218.466 447.363 219.336 446.626 220.206C445.575 221.444 444.459 222.683 443.192 223.912C442.425 224.659 441.583 225.396 440.732 226.143C439.181 227.495 437.563 228.838 435.756 230.171C434.98 230.748 434.148 231.305 433.325 231.873C431.187 233.348 428.954 234.813 426.504 236.25C425.861 236.638 425.17 237.007 424.499 237.385C421.68 238.973 418.737 240.552 415.559 242.084C415.152 242.282 414.726 242.471 414.31 242.66C410.763 244.334 407.054 245.979 403.091 247.567C402.977 247.615 402.864 247.652 402.75 247.7C381.266 256.275 353.785 263.489 321.763 268.216C321.602 268.235 321.441 268.254 321.281 268.282C315.056 269.199 308.67 270.012 302.115 270.731C301.046 270.844 299.92 270.92 298.841 271.033C293.118 271.629 287.329 272.177 281.369 272.612C278.644 272.811 275.787 272.905 273.016 273.076C268.532 273.34 264.095 273.633 259.497 273.794C251.986 274.031 244.323 274.182 236.5 274.182C228.677 274.182 221.014 274.031 213.493 273.766C208.896 273.605 204.459 273.303 199.975 273.047C197.203 272.887 194.346 272.783 191.622 272.584C185.662 272.149 179.872 271.601 174.149 271.005C173.071 270.892 171.945 270.816 170.876 270.703C164.32 269.984 157.935 269.161 151.71 268.254C151.549 268.235 151.388 268.216 151.228 268.188C119.205 263.46 91.7242 256.247 70.2405 247.671C70.127 247.633 70.0135 247.586 69.8999 247.539C65.9362 245.951 62.2184 244.305 58.6804 242.632C58.2736 242.433 57.8384 242.244 57.4317 242.055C54.2531 240.524 51.311 238.954 48.492 237.356C47.8298 236.978 47.1297 236.609 46.4864 236.222C44.0363 234.785 41.8037 233.319 39.6658 231.844C38.8522 231.277 38.0103 230.719 37.2346 230.143C35.4277 228.809 33.81 227.467 32.2586 226.115C31.4167 225.377 30.5653 224.64 29.799 223.884C28.5314 222.655 27.4151 221.425 26.365 220.177C25.6271 219.308 24.9176 218.438 24.2933 217.559C23.4608 216.396 22.7513 215.233 22.108 214.07C21.5972 213.134 21.1431 212.198 20.7552 211.262C20.2917 210.118 19.9228 208.974 19.6579 207.83C19.3079 206.327 18.92 204.795 18.92 203.273C18.92 202.204 19.043 201.136 19.2133 200.077C19.4498 198.649 19.3173 197.222 18.92 195.87V125.679C20.0552 126.71 21.3512 127.721 22.581 128.743C23.2621 129.31 23.896 129.877 24.6149 130.444C27.4529 132.676 30.518 134.879 33.8384 137.025C34.529 137.469 35.3047 137.904 36.0237 138.348C38.8049 140.079 41.747 141.771 44.8404 143.435C45.9851 144.049 47.1297 144.655 48.3122 145.26C51.7651 147.018 55.3883 148.729 59.2007 150.384C59.825 150.658 60.3926 150.942 61.0265 151.207C65.4632 153.088 70.1743 154.884 75.0746 156.624C76.4273 157.106 77.8463 157.56 79.237 158.033C83.1345 159.347 87.1644 160.604 91.3363 161.824C92.8404 162.259 94.3162 162.713 95.8582 163.129C101.392 164.66 107.106 166.116 113.104 167.459C113.927 167.648 114.816 167.799 115.649 167.979C120.937 169.132 126.423 170.201 132.062 171.203C133.973 171.543 135.912 171.865 137.861 172.186C143.224 173.065 148.749 173.869 154.416 174.607C155.872 174.796 157.263 175.013 158.739 175.193C165.777 176.044 173.061 176.772 180.544 177.396C182.389 177.547 184.309 177.66 186.182 177.793C192.17 178.228 198.291 178.587 204.554 178.871C206.833 178.975 209.104 179.079 211.431 179.164C219.586 179.438 227.891 179.636 236.5 179.636C245.109 179.636 253.414 179.438 261.569 179.164C263.887 179.079 266.157 178.975 268.446 178.871C274.709 178.587 280.83 178.228 286.818 177.793C288.691 177.651 290.602 177.547 292.456 177.396C299.939 176.781 307.223 176.044 314.261 175.193C315.737 175.013 317.128 174.796 318.584 174.607C324.251 173.869 329.766 173.065 335.139 172.186C337.088 171.865 339.027 171.543 340.938 171.203C346.577 170.201 352.063 169.132 357.352 167.979C358.184 167.799 359.073 167.639 359.896 167.459C365.894 166.116 371.608 164.651 377.142 163.129C378.684 162.703 380.16 162.259 381.664 161.824C385.836 160.604 389.866 159.347 393.763 158.033C395.154 157.56 396.573 157.106 397.925 156.624C402.826 154.884 407.546 153.088 411.974 151.207C412.607 150.942 413.175 150.658 413.799 150.384C417.612 148.72 421.235 147.018 424.688 145.26C425.87 144.655 427.024 144.049 428.16 143.435C431.253 141.78 434.195 140.088 436.976 138.348C437.695 137.904 438.471 137.469 439.162 137.025C442.482 134.879 445.547 132.685 448.385 130.444C449.095 129.877 449.728 129.31 450.419 128.743C451.649 127.721 452.945 126.71 454.08 125.679ZM236.5 18.9091C364.73 18.9091 454.08 56.2735 454.08 89.8182C454.08 123.363 364.73 160.727 236.5 160.727C108.27 160.727 18.92 123.363 18.92 89.8182C18.92 56.2735 108.27 18.9091 236.5 18.9091ZM454.08 432.101C453.948 432.517 453.853 432.943 453.777 433.377C448.413 466.081 359.821 501.091 236.5 501.091C113.179 501.091 24.5865 466.081 19.2227 433.377C19.147 432.952 19.043 432.536 18.92 432.139V352.588C19.1849 352.834 19.516 353.071 19.7903 353.316C21.8526 355.132 23.9527 356.937 26.3177 358.677C61.9535 385.613 133.216 406.545 236.5 406.545C339.349 406.545 410.432 385.783 446.219 359.008C449.076 356.928 451.649 354.782 454.071 352.598L454.08 352.588V432.101V432.101Z" transform="translate(1998 388)" fill="#4F4F4F"/>
<path d="M56.1984 64.75C44.4984 64.75 34.2984 69.25 27.8484 78.1V65.5H14.0484V174.1H28.4484V133C35.0484 141.55 44.9484 145.9 56.1984 145.9C79.4484 145.9 96.3984 129.7 96.3984 105.25C96.3984 80.95 79.4484 64.75 56.1984 64.75ZM54.9984 133.3C39.8484 133.3 28.2984 122.2 28.2984 105.25C28.2984 88.45 39.8484 77.35 54.9984 77.35C70.2984 77.35 81.8484 88.45 81.8484 105.25C81.8484 122.2 70.2984 133.3 54.9984 133.3ZM175.995 65.5V106.6C175.995 123.7 166.395 133 151.395 133C137.745 133 129.945 125.2 129.945 109.6V65.5H115.545V111.25C115.545 134.65 129.195 145.9 149.745 145.9C160.995 145.9 170.895 141.25 176.745 133V145H190.395V65.5H175.995ZM259.958 64.75C248.708 64.75 238.808 68.95 232.208 77.5V33.7H217.808V145H231.608V132.4C238.058 141.4 248.258 145.9 259.958 145.9C283.208 145.9 300.158 129.55 300.158 105.25C300.158 80.95 283.208 64.75 259.958 64.75ZM258.758 133.3C243.608 133.3 232.058 122.2 232.058 105.25C232.058 88.3 243.608 77.35 258.758 77.35C274.058 77.35 285.608 88.3 285.608 105.25C285.608 122.2 274.058 133.3 258.758 133.3ZM342.854 145.9C364.004 145.9 377.204 136.75 377.204 122.35C377.204 91.45 326.804 106.75 326.804 88C326.804 81.7 332.954 77.05 345.554 77.05C353.354 77.05 361.304 78.7 368.504 83.35L374.654 71.95C367.754 67.45 356.054 64.75 345.704 64.75C325.304 64.75 312.554 74.35 312.554 88.6C312.554 120.25 362.804 104.8 362.804 122.65C362.804 129.4 357.254 133.45 343.904 133.45C333.554 133.45 322.754 130 316.004 125.2L310.004 136.6C316.604 141.85 329.654 145.9 342.854 145.9ZM501.136 65.5L477.436 129.1L453.886 65.5H441.736L417.736 128.8L394.636 65.5H380.986L410.536 145H424.336L447.586 84.7L470.536 145H484.336L514.036 65.5H501.136ZM598.301 105.7C598.301 81.25 581.951 64.75 559.001 64.75C536.051 64.75 519.101 81.7 519.101 105.25C519.101 128.95 536.201 145.9 561.851 145.9C575.051 145.9 586.001 141.4 593.201 133L585.251 123.7C579.401 130.15 571.601 133.3 562.301 133.3C546.551 133.3 535.301 124 533.501 110.05H598.001C598.151 108.7 598.301 106.9 598.301 105.7ZM559.001 76.9C572.951 76.9 583.001 86.35 584.501 99.7H533.501C535.001 86.2 545.201 76.9 559.001 76.9ZM690.146 105.7C690.146 81.25 673.796 64.75 650.846 64.75C627.896 64.75 610.946 81.7 610.946 105.25C610.946 128.95 628.046 145.9 653.696 145.9C666.896 145.9 677.846 141.4 685.046 133L677.096 123.7C671.246 130.15 663.446 133.3 654.146 133.3C638.396 133.3 627.146 124 625.346 110.05H689.846C689.996 108.7 690.146 106.9 690.146 105.7ZM650.846 76.9C664.796 76.9 674.846 86.35 676.346 99.7H625.346C626.846 86.2 637.046 76.9 650.846 76.9ZM750.342 130C747.342 132.4 743.292 133.75 739.092 133.75C731.142 133.75 726.642 128.95 726.642 120.4V77.35H749.442V65.5H726.642V48.1H712.242V65.5H698.742V77.35H712.242V121C712.242 137.05 721.392 145.9 737.442 145.9C743.892 145.9 750.492 144.1 754.842 140.35L750.342 130ZM183.113 328.9C204.263 328.9 217.463 319.75 217.463 305.35C217.463 274.45 167.063 289.75 167.063 271C167.063 264.7 173.213 260.05 185.813 260.05C193.613 260.05 201.563 261.7 208.763 266.35L214.913 254.95C208.013 250.45 196.313 247.75 185.963 247.75C165.563 247.75 152.813 257.35 152.813 271.6C152.813 303.25 203.063 287.8 203.063 305.65C203.063 312.4 197.513 316.45 184.163 316.45C173.813 316.45 163.013 313 156.263 308.2L150.263 319.6C156.863 324.85 169.913 328.9 183.113 328.9ZM307.31 288.7C307.31 264.25 290.96 247.75 268.01 247.75C245.06 247.75 228.11 264.7 228.11 288.25C228.11 311.95 245.21 328.9 270.86 328.9C284.06 328.9 295.01 324.4 302.21 316L294.26 306.7C288.41 313.15 280.61 316.3 271.31 316.3C255.56 316.3 244.31 307 242.51 293.05H307.01C307.16 291.7 307.31 289.9 307.31 288.7ZM268.01 259.9C281.96 259.9 292.01 269.35 293.51 282.7H242.51C244.01 269.2 254.21 259.9 268.01 259.9ZM341.105 261.85V248.5H327.305V328H341.705V288.4C341.705 271 351.305 261.55 366.755 261.55C367.805 261.55 368.855 261.55 370.055 261.7V247.75C356.105 247.75 346.205 252.55 341.105 261.85ZM447.276 248.5L419.376 312.25L392.076 248.5H377.076L411.876 328H426.576L461.376 248.5H447.276ZM544.468 288.7C544.468 264.25 528.118 247.75 505.168 247.75C482.218 247.75 465.268 264.7 465.268 288.25C465.268 311.95 482.368 328.9 508.018 328.9C521.218 328.9 532.168 324.4 539.368 316L531.418 306.7C525.568 313.15 517.768 316.3 508.468 316.3C492.718 316.3 481.468 307 479.668 293.05H544.168C544.318 291.7 544.468 289.9 544.468 288.7ZM505.168 259.9C519.118 259.9 529.168 269.35 530.668 282.7H479.668C481.168 269.2 491.368 259.9 505.168 259.9ZM578.263 261.85V248.5H564.463V328H578.863V288.4C578.863 271 588.463 261.55 603.913 261.55C604.963 261.55 606.013 261.55 607.213 261.7V247.75C593.263 247.75 583.363 252.55 578.263 261.85Z" transform="translate(1855 2629)" fill="#4F4F4F"/>
<path d="M31.1045 131.95V98.05H83.7545V85.3H31.1045V53.05H90.2045V40H16.1045V145H92.3045V131.95H31.1045ZM179.785 145L148.135 104.35L178.135 65.5H162.385L140.635 94.15L118.735 65.5H102.685L132.535 104.35L101.185 145H117.235L140.485 114.55L163.435 145H179.785ZM237.649 64.75C225.949 64.75 215.749 69.25 209.299 78.1V65.5H195.499V174.1H209.899V133C216.499 141.55 226.399 145.9 237.649 145.9C260.899 145.9 277.849 129.7 277.849 105.25C277.849 80.95 260.899 64.75 237.649 64.75ZM236.449 133.3C221.299 133.3 209.749 122.2 209.749 105.25C209.749 88.45 221.299 77.35 236.449 77.35C251.749 77.35 263.299 88.45 263.299 105.25C263.299 122.2 251.749 133.3 236.449 133.3ZM311.545 78.85V65.5H297.745V145H312.145V105.4C312.145 88 321.745 78.55 337.195 78.55C338.245 78.55 339.295 78.55 340.495 78.7V64.75C326.545 64.75 316.645 69.55 311.545 78.85ZM429.36 105.7C429.36 81.25 413.01 64.75 390.06 64.75C367.11 64.75 350.16 81.7 350.16 105.25C350.16 128.95 367.26 145.9 392.91 145.9C406.11 145.9 417.06 141.4 424.26 133L416.31 123.7C410.46 130.15 402.66 133.3 393.36 133.3C377.61 133.3 366.36 124 364.56 110.05H429.06C429.21 108.7 429.36 106.9 429.36 105.7ZM390.06 76.9C404.01 76.9 414.06 86.35 415.56 99.7H364.56C366.06 86.2 376.26 76.9 390.06 76.9ZM472.156 145.9C493.306 145.9 506.506 136.75 506.506 122.35C506.506 91.45 456.106 106.75 456.106 88C456.106 81.7 462.256 77.05 474.856 77.05C482.656 77.05 490.606 78.7 497.806 83.35L503.956 71.95C497.056 67.45 485.356 64.75 475.006 64.75C454.606 64.75 441.856 74.35 441.856 88.6C441.856 120.25 492.106 104.8 492.106 122.65C492.106 129.4 486.556 133.45 473.206 133.45C462.856 133.45 452.056 130 445.306 125.2L439.306 136.6C445.906 141.85 458.956 145.9 472.156 145.9ZM547.303 145.9C568.453 145.9 581.653 136.75 581.653 122.35C581.653 91.45 531.253 106.75 531.253 88C531.253 81.7 537.403 77.05 550.003 77.05C557.803 77.05 565.753 78.7 572.953 83.35L579.103 71.95C572.203 67.45 560.503 64.75 550.153 64.75C529.753 64.75 517.003 74.35 517.003 88.6C517.003 120.25 567.253 104.8 567.253 122.65C567.253 129.4 561.703 133.45 548.353 133.45C538.003 133.45 527.203 130 520.453 125.2L514.453 136.6C521.053 141.85 534.103 145.9 547.303 145.9ZM603.099 145.9C608.499 145.9 612.999 141.55 612.999 135.55C612.999 129.55 608.499 125.35 603.099 125.35C597.549 125.35 592.899 129.55 592.899 135.55C592.899 141.55 597.549 145.9 603.099 145.9ZM643.048 50.2C648.748 50.2 652.798 46 652.798 40.6C652.798 35.5 648.598 31.45 643.048 31.45C637.498 31.45 633.298 35.65 633.298 40.9C633.298 46.15 637.498 50.2 643.048 50.2ZM624.898 175C641.248 175 650.248 164.8 650.248 148.6V65.5H635.848V148.9C635.848 158.05 631.648 162.85 623.998 162.85C619.348 162.85 615.148 161.5 612.298 159.1L607.648 170.2C611.698 173.5 618.298 175 624.898 175ZM700.525 145.9C721.675 145.9 734.875 136.75 734.875 122.35C734.875 91.45 684.475 106.75 684.475 88C684.475 81.7 690.625 77.05 703.225 77.05C711.025 77.05 718.975 78.7 726.175 83.35L732.325 71.95C725.425 67.45 713.725 64.75 703.375 64.75C682.975 64.75 670.225 74.35 670.225 88.6C670.225 120.25 720.475 104.8 720.475 122.65C720.475 129.4 714.925 133.45 701.575 133.45C691.225 133.45 680.425 130 673.675 125.2L667.675 136.6C674.275 141.85 687.325 145.9 700.525 145.9ZM822.105 64.75C809.355 64.75 797.505 68.35 789.255 74.95L795.255 85.75C801.405 80.5 811.005 77.2 820.455 77.2C834.705 77.2 841.755 84.25 841.755 96.4V99.25H818.955C795.255 99.25 787.005 109.75 787.005 122.5C787.005 136.3 798.405 145.9 816.405 145.9C828.855 145.9 837.705 141.7 842.505 134.5V145H856.155V97C856.155 75.25 843.855 64.75 822.105 64.75ZM818.805 134.8C807.855 134.8 801.255 129.85 801.255 121.9C801.255 115.15 805.305 109.6 819.555 109.6H841.755V120.7C838.155 129.85 829.605 134.8 818.805 134.8ZM924.953 64.75C913.253 64.75 903.053 69.25 896.603 78.1V65.5H882.803V174.1H897.203V133C903.803 141.55 913.703 145.9 924.953 145.9C948.203 145.9 965.153 129.7 965.153 105.25C965.153 80.95 948.203 64.75 924.953 64.75ZM923.753 133.3C908.603 133.3 897.053 122.2 897.053 105.25C897.053 88.45 908.603 77.35 923.753 77.35C939.053 77.35 950.603 88.45 950.603 105.25C950.603 122.2 939.053 133.3 923.753 133.3ZM1027.2 64.75C1015.5 64.75 1005.3 69.25 998.849 78.1V65.5H985.049V174.1H999.449V133C1006.05 141.55 1015.95 145.9 1027.2 145.9C1050.45 145.9 1067.4 129.7 1067.4 105.25C1067.4 80.95 1050.45 64.75 1027.2 64.75ZM1026 133.3C1010.85 133.3 999.299 122.2 999.299 105.25C999.299 88.45 1010.85 77.35 1026 77.35C1041.3 77.35 1052.85 88.45 1052.85 105.25C1052.85 122.2 1041.3 133.3 1026 133.3Z" transform="translate(946 4667)" fill="#7C4198"/>
<path d="M102.314 145L77.4137 109.75C92.1137 104.5 100.514 92.8 100.514 76.6C100.514 53.8 84.0137 40 56.7137 40H15.7637V145H30.7637V113.05H56.7137C58.9637 113.05 61.2137 112.9 63.3137 112.75L85.9637 145H102.314ZM56.2637 100.3H30.7637V53.05H56.2637C75.4637 53.05 85.5137 61.6 85.5137 76.6C85.5137 91.6 75.4637 100.3 56.2637 100.3ZM194.498 105.7C194.498 81.25 178.148 64.75 155.198 64.75C132.248 64.75 115.298 81.7 115.298 105.25C115.298 128.95 132.398 145.9 158.048 145.9C171.248 145.9 182.198 141.4 189.398 133L181.448 123.7C175.598 130.15 167.798 133.3 158.498 133.3C142.748 133.3 131.498 124 129.698 110.05H194.198C194.348 108.7 194.498 106.9 194.498 105.7ZM155.198 76.9C169.148 76.9 179.198 86.35 180.698 99.7H129.698C131.198 86.2 141.398 76.9 155.198 76.9ZM241.246 64.75C228.496 64.75 216.646 68.35 208.396 74.95L214.396 85.75C220.546 80.5 230.146 77.2 239.596 77.2C253.846 77.2 260.896 84.25 260.896 96.4V99.25H238.096C214.396 99.25 206.146 109.75 206.146 122.5C206.146 136.3 217.546 145.9 235.546 145.9C247.996 145.9 256.846 141.7 261.646 134.5V145H275.296V97C275.296 75.25 262.996 64.75 241.246 64.75ZM237.946 134.8C226.996 134.8 220.396 129.85 220.396 121.9C220.396 115.15 224.446 109.6 238.696 109.6H260.896V120.7C257.296 129.85 248.746 134.8 237.946 134.8ZM337.034 145.9C351.284 145.9 363.134 139.9 369.434 128.8L358.484 121.9C353.384 129.7 345.584 133.3 336.884 133.3C321.284 133.3 309.584 122.5 309.584 105.25C309.584 88.3 321.284 77.35 336.884 77.35C345.584 77.35 353.384 80.95 358.484 88.75L369.434 81.7C363.134 70.6 351.284 64.75 337.034 64.75C312.584 64.75 295.034 81.55 295.034 105.25C295.034 128.95 312.584 145.9 337.034 145.9ZM429.303 130C426.303 132.4 422.253 133.75 418.053 133.75C410.103 133.75 405.603 128.95 405.603 120.4V77.35H428.403V65.5H405.603V48.1H391.203V65.5H377.703V77.35H391.203V121C391.203 137.05 400.353 145.9 416.403 145.9C422.853 145.9 429.453 144.1 433.803 140.35L429.303 130ZM520.446 64.75C507.696 64.75 495.846 68.35 487.596 74.95L493.596 85.75C499.746 80.5 509.346 77.2 518.796 77.2C533.046 77.2 540.096 84.25 540.096 96.4V99.25H517.296C493.596 99.25 485.346 109.75 485.346 122.5C485.346 136.3 496.746 145.9 514.746 145.9C527.196 145.9 536.046 141.7 540.846 134.5V145H554.496V97C554.496 75.25 542.196 64.75 520.446 64.75ZM517.146 134.8C506.196 134.8 499.596 129.85 499.596 121.9C499.596 115.15 503.646 109.6 517.896 109.6H540.096V120.7C536.496 129.85 527.946 134.8 517.146 134.8ZM623.294 64.75C611.594 64.75 601.394 69.25 594.944 78.1V65.5H581.144V174.1H595.544V133C602.144 141.55 612.044 145.9 623.294 145.9C646.544 145.9 663.494 129.7 663.494 105.25C663.494 80.95 646.544 64.75 623.294 64.75ZM622.094 133.3C606.944 133.3 595.394 122.2 595.394 105.25C595.394 88.45 606.944 77.35 622.094 77.35C637.394 77.35 648.944 88.45 648.944 105.25C648.944 122.2 637.394 133.3 622.094 133.3ZM725.54 64.75C713.84 64.75 703.64 69.25 697.19 78.1V65.5H683.39V174.1H697.79V133C704.39 141.55 714.29 145.9 725.54 145.9C748.79 145.9 765.74 129.7 765.74 105.25C765.74 80.95 748.79 64.75 725.54 64.75ZM724.34 133.3C709.19 133.3 697.64 122.2 697.64 105.25C697.64 88.45 709.19 77.35 724.34 77.35C739.64 77.35 751.19 88.45 751.19 105.25C751.19 122.2 739.64 133.3 724.34 133.3Z" transform="translate(4705 4667)" fill="#61C4B9"/>
<path d="M56.1984 64.75C44.4984 64.75 34.2984 69.25 27.8484 78.1V65.5H14.0484V174.1H28.4484V133C35.0484 141.55 44.9484 145.9 56.1984 145.9C79.4484 145.9 96.3984 129.7 96.3984 105.25C96.3984 80.95 79.4484 64.75 56.1984 64.75ZM54.9984 133.3C39.8484 133.3 28.2984 122.2 28.2984 105.25C28.2984 88.45 39.8484 77.35 54.9984 77.35C70.2984 77.35 81.8484 88.45 81.8484 105.25C81.8484 122.2 70.2984 133.3 54.9984 133.3ZM175.995 65.5V106.6C175.995 123.7 166.395 133 151.395 133C137.745 133 129.945 125.2 129.945 109.6V65.5H115.545V111.25C115.545 134.65 129.195 145.9 149.745 145.9C160.995 145.9 170.895 141.25 176.745 133V145H190.395V65.5H175.995ZM259.958 64.75C248.708 64.75 238.808 68.95 232.208 77.5V33.7H217.808V145H231.608V132.4C238.058 141.4 248.258 145.9 259.958 145.9C283.208 145.9 300.158 129.55 300.158 105.25C300.158 80.95 283.208 64.75 259.958 64.75ZM258.758 133.3C243.608 133.3 232.058 122.2 232.058 105.25C232.058 88.3 243.608 77.35 258.758 77.35C274.058 77.35 285.608 88.3 285.608 105.25C285.608 122.2 274.058 133.3 258.758 133.3ZM342.854 145.9C364.004 145.9 377.204 136.75 377.204 122.35C377.204 91.45 326.804 106.75 326.804 88C326.804 81.7 332.954 77.05 345.554 77.05C353.354 77.05 361.304 78.7 368.504 83.35L374.654 71.95C367.754 67.45 356.054 64.75 345.704 64.75C325.304 64.75 312.554 74.35 312.554 88.6C312.554 120.25 362.804 104.8 362.804 122.65C362.804 129.4 357.254 133.45 343.904 133.45C333.554 133.45 322.754 130 316.004 125.2L310.004 136.6C316.604 141.85 329.654 145.9 342.854 145.9ZM501.136 65.5L477.436 129.1L453.886 65.5H441.736L417.736 128.8L394.636 65.5H380.986L410.536 145H424.336L447.586 84.7L470.536 145H484.336L514.036 65.5H501.136ZM598.301 105.7C598.301 81.25 581.951 64.75 559.001 64.75C536.051 64.75 519.101 81.7 519.101 105.25C519.101 128.95 536.201 145.9 561.851 145.9C575.051 145.9 586.001 141.4 593.201 133L585.251 123.7C579.401 130.15 571.601 133.3 562.301 133.3C546.551 133.3 535.301 124 533.501 110.05H598.001C598.151 108.7 598.301 106.9 598.301 105.7ZM559.001 76.9C572.951 76.9 583.001 86.35 584.501 99.7H533.501C535.001 86.2 545.201 76.9 559.001 76.9ZM690.146 105.7C690.146 81.25 673.796 64.75 650.846 64.75C627.896 64.75 610.946 81.7 610.946 105.25C610.946 128.95 628.046 145.9 653.696 145.9C666.896 145.9 677.846 141.4 685.046 133L677.096 123.7C671.246 130.15 663.446 133.3 654.146 133.3C638.396 133.3 627.146 124 625.346 110.05H689.846C689.996 108.7 690.146 106.9 690.146 105.7ZM650.846 76.9C664.796 76.9 674.846 86.35 676.346 99.7H625.346C626.846 86.2 637.046 76.9 650.846 76.9ZM750.342 130C747.342 132.4 743.292 133.75 739.092 133.75C731.142 133.75 726.642 128.95 726.642 120.4V77.35H749.442V65.5H726.642V48.1H712.242V65.5H698.742V77.35H712.242V121C712.242 137.05 721.392 145.9 737.442 145.9C743.892 145.9 750.492 144.1 754.842 140.35L750.342 130ZM215.544 328.9C229.794 328.9 241.644 322.9 247.944 311.8L236.994 304.9C231.894 312.7 224.094 316.3 215.394 316.3C199.794 316.3 188.094 305.5 188.094 288.25C188.094 271.3 199.794 260.35 215.394 260.35C224.094 260.35 231.894 263.95 236.994 271.75L247.944 264.7C241.644 253.6 229.794 247.75 215.544 247.75C191.094 247.75 173.544 264.55 173.544 288.25C173.544 311.95 191.094 328.9 215.544 328.9ZM265.562 328H279.962V216.7H265.562V328ZM314.657 233.2C320.357 233.2 324.407 229 324.407 223.6C324.407 218.5 320.207 214.45 314.657 214.45C309.107 214.45 304.907 218.65 304.907 223.9C304.907 229.15 309.107 233.2 314.657 233.2ZM307.457 328H321.857V248.5H307.457V328ZM421.201 288.7C421.201 264.25 404.851 247.75 381.901 247.75C358.951 247.75 342.001 264.7 342.001 288.25C342.001 311.95 359.101 328.9 384.751 328.9C397.951 328.9 408.901 324.4 416.101 316L408.151 306.7C402.301 313.15 394.501 316.3 385.201 316.3C369.451 316.3 358.201 307 356.401 293.05H420.901C421.051 291.7 421.201 289.9 421.201 288.7ZM381.901 259.9C395.851 259.9 405.901 269.35 407.401 282.7H356.401C357.901 269.2 368.101 259.9 381.901 259.9ZM483.647 247.75C471.047 247.75 460.847 252.4 454.997 260.5V248.5H441.197V328H455.597V287.05C455.597 269.8 465.497 260.65 480.797 260.65C494.447 260.65 502.247 268.3 502.247 283.9V328H516.647V282.25C516.647 258.85 502.997 247.75 483.647 247.75ZM583.496 313C580.496 315.4 576.446 316.75 572.246 316.75C564.296 316.75 559.796 311.95 559.796 303.4V260.35H582.596V248.5H559.796V231.1H545.396V248.5H531.896V260.35H545.396V304C545.396 320.05 554.546 328.9 570.596 328.9C577.046 328.9 583.646 327.1 587.996 323.35L583.496 313Z" transform="translate(3940 2629)" fill="#4F4F4F"/>
<path d="M91.2902 40V85.15H30.9902V40H15.9902V145H30.9902V98.2H91.2902V145H106.29V40H91.2902ZM158.569 145H173.419V53.05H209.419V40H122.569V53.05H158.569V145ZM248.071 145H262.921V53.05H298.921V40H212.071V53.05H248.071V145ZM356.208 40H315.258V145H330.258V113.2H356.208C383.508 113.2 400.008 99.4 400.008 76.6C400.008 53.8 383.508 40 356.208 40ZM355.758 100.15H330.258V53.05H355.758C374.958 53.05 385.008 61.6 385.008 76.6C385.008 91.6 374.958 100.15 355.758 100.15Z" transform="translate(3069 2278)" fill="#4F4F4F"/>
<path d="M16.0068 145H60.2568C94.0068 145 116.957 123.7 116.957 92.5C116.957 61.3 94.0068 40 60.2568 40H16.0068V145ZM31.0068 131.95V53.05H59.3568C85.3068 53.05 101.957 68.95 101.957 92.5C101.957 116.05 85.3068 131.95 59.3568 131.95H31.0068ZM166.783 64.75C154.033 64.75 142.183 68.35 133.933 74.95L139.933 85.75C146.083 80.5 155.683 77.2 165.133 77.2C179.383 77.2 186.433 84.25 186.433 96.4V99.25H163.633C139.933 99.25 131.683 109.75 131.683 122.5C131.683 136.3 143.083 145.9 161.083 145.9C173.533 145.9 182.383 141.7 187.183 134.5V145H200.833V97C200.833 75.25 188.533 64.75 166.783 64.75ZM163.483 134.8C152.533 134.8 145.933 129.85 145.933 121.9C145.933 115.15 149.983 109.6 164.233 109.6H186.433V120.7C182.833 129.85 174.283 134.8 163.483 134.8ZM267.681 130C264.681 132.4 260.631 133.75 256.431 133.75C248.481 133.75 243.981 128.95 243.981 120.4V77.35H266.781V65.5H243.981V48.1H229.581V65.5H216.081V77.35H229.581V121C229.581 137.05 238.731 145.9 254.781 145.9C261.231 145.9 267.831 144.1 272.181 140.35L267.681 130ZM318.54 64.75C305.79 64.75 293.94 68.35 285.69 74.95L291.69 85.75C297.84 80.5 307.44 77.2 316.89 77.2C331.14 77.2 338.19 84.25 338.19 96.4V99.25H315.39C291.69 99.25 283.44 109.75 283.44 122.5C283.44 136.3 294.84 145.9 312.84 145.9C325.29 145.9 334.14 141.7 338.94 134.5V145H352.59V97C352.59 75.25 340.29 64.75 318.54 64.75ZM315.24 134.8C304.29 134.8 297.69 129.85 297.69 121.9C297.69 115.15 301.74 109.6 315.99 109.6H338.19V120.7C334.59 129.85 326.04 134.8 315.24 134.8ZM421.389 64.75C410.139 64.75 400.239 68.95 393.639 77.5V33.7H379.239V145H393.039V132.4C399.489 141.4 409.689 145.9 421.389 145.9C444.639 145.9 461.589 129.55 461.589 105.25C461.589 80.95 444.639 64.75 421.389 64.75ZM420.189 133.3C405.039 133.3 393.489 122.2 393.489 105.25C393.489 88.3 405.039 77.35 420.189 77.35C435.489 77.35 447.039 88.3 447.039 105.25C447.039 122.2 435.489 133.3 420.189 133.3ZM509.703 64.75C496.953 64.75 485.103 68.35 476.853 74.95L482.853 85.75C489.003 80.5 498.603 77.2 508.053 77.2C522.303 77.2 529.353 84.25 529.353 96.4V99.25H506.553C482.853 99.25 474.603 109.75 474.603 122.5C474.603 136.3 486.003 145.9 504.003 145.9C516.453 145.9 525.303 141.7 530.103 134.5V145H543.753V97C543.753 75.25 531.453 64.75 509.703 64.75ZM506.403 134.8C495.453 134.8 488.853 129.85 488.853 121.9C488.853 115.15 492.903 109.6 507.153 109.6H529.353V120.7C525.753 129.85 517.203 134.8 506.403 134.8ZM593.201 145.9C614.351 145.9 627.551 136.75 627.551 122.35C627.551 91.45 577.151 106.75 577.151 88C577.151 81.7 583.301 77.05 595.901 77.05C603.701 77.05 611.651 78.7 618.851 83.35L625.001 71.95C618.101 67.45 606.401 64.75 596.051 64.75C575.651 64.75 562.901 74.35 562.901 88.6C562.901 120.25 613.151 104.8 613.151 122.65C613.151 129.4 607.601 133.45 594.251 133.45C583.901 133.45 573.101 130 566.351 125.2L560.351 136.6C566.951 141.85 580.001 145.9 593.201 145.9ZM717.397 105.7C717.397 81.25 701.047 64.75 678.097 64.75C655.147 64.75 638.197 81.7 638.197 105.25C638.197 128.95 655.297 145.9 680.947 145.9C694.147 145.9 705.097 141.4 712.297 133L704.347 123.7C698.497 130.15 690.697 133.3 681.397 133.3C665.647 133.3 654.397 124 652.597 110.05H717.097C717.247 108.7 717.397 106.9 717.397 105.7ZM678.097 76.9C692.047 76.9 702.097 86.35 703.597 99.7H652.597C654.097 86.2 664.297 76.9 678.097 76.9Z" transform="translate(1872 1118)" fill="#4F4F4F"/>
<path d="M62.8025 146.2C79.1525 146.2 93.2525 140.5 102.853 129.7L93.1025 120.25C85.0025 128.8 75.1025 132.85 63.5525 132.85C39.8525 132.85 22.3025 115.75 22.3025 92.5C22.3025 69.25 39.8525 52.15 63.5525 52.15C75.1025 52.15 85.0025 56.05 93.1025 64.6L102.853 55.15C93.2525 44.35 79.1525 38.8 62.9525 38.8C31.0025 38.8 7.30254 61.45 7.30254 92.5C7.30254 123.55 31.0025 146.2 62.8025 146.2ZM152.832 145.9C176.682 145.9 194.082 128.95 194.082 105.25C194.082 81.55 176.682 64.75 152.832 64.75C128.982 64.75 111.432 81.55 111.432 105.25C111.432 128.95 128.982 145.9 152.832 145.9ZM152.832 133.3C137.532 133.3 125.982 122.2 125.982 105.25C125.982 88.3 137.532 77.35 152.832 77.35C168.132 77.35 179.532 88.3 179.532 105.25C179.532 122.2 168.132 133.3 152.832 133.3ZM313.447 64.75C299.947 64.75 288.847 70.45 282.847 79.45C277.597 69.55 267.397 64.75 255.247 64.75C243.247 64.75 233.497 69.25 227.797 77.35V65.5H213.997V145H228.397V104.05C228.397 86.8 237.847 77.65 252.247 77.65C265.297 77.65 272.797 85.3 272.797 100.9V145H287.197V104.05C287.197 86.8 296.647 77.65 311.047 77.65C324.097 77.65 331.597 85.3 331.597 100.9V145H345.997V99.25C345.997 75.85 332.797 64.75 313.447 64.75ZM414.643 64.75C402.943 64.75 392.743 69.25 386.293 78.1V65.5H372.493V174.1H386.893V133C393.493 141.55 403.393 145.9 414.643 145.9C437.893 145.9 454.843 129.7 454.843 105.25C454.843 80.95 437.893 64.75 414.643 64.75ZM413.443 133.3C398.293 133.3 386.743 122.2 386.743 105.25C386.743 88.45 398.293 77.35 413.443 77.35C428.743 77.35 440.293 88.45 440.293 105.25C440.293 122.2 428.743 133.3 413.443 133.3ZM508.789 145.9C532.639 145.9 550.039 128.95 550.039 105.25C550.039 81.55 532.639 64.75 508.789 64.75C484.939 64.75 467.389 81.55 467.389 105.25C467.389 128.95 484.939 145.9 508.789 145.9ZM508.789 133.3C493.489 133.3 481.939 122.2 481.939 105.25C481.939 88.3 493.489 77.35 508.789 77.35C524.089 77.35 535.489 88.3 535.489 105.25C535.489 122.2 524.089 133.3 508.789 133.3ZM612.404 64.75C599.804 64.75 589.604 69.4 583.754 77.5V65.5H569.954V145H584.354V104.05C584.354 86.8 594.254 77.65 609.554 77.65C623.204 77.65 631.004 85.3 631.004 100.9V145H645.404V99.25C645.404 75.85 631.754 64.75 612.404 64.75ZM744.343 105.7C744.343 81.25 727.993 64.75 705.043 64.75C682.093 64.75 665.143 81.7 665.143 105.25C665.143 128.95 682.243 145.9 707.893 145.9C721.093 145.9 732.043 141.4 739.243 133L731.293 123.7C725.443 130.15 717.643 133.3 708.343 133.3C692.593 133.3 681.343 124 679.543 110.05H744.043C744.193 108.7 744.343 106.9 744.343 105.7ZM705.043 76.9C718.993 76.9 729.043 86.35 730.543 99.7H679.543C681.043 86.2 691.243 76.9 705.043 76.9ZM806.788 64.75C794.188 64.75 783.988 69.4 778.138 77.5V65.5H764.338V145H778.738V104.05C778.738 86.8 788.638 77.65 803.938 77.65C817.588 77.65 825.388 85.3 825.388 100.9V145H839.788V99.25C839.788 75.85 826.138 64.75 806.788 64.75ZM906.638 130C903.638 132.4 899.588 133.75 895.388 133.75C887.438 133.75 882.938 128.95 882.938 120.4V77.35H905.738V65.5H882.938V48.1H868.538V65.5H855.038V77.35H868.538V121C868.538 137.05 877.688 145.9 893.738 145.9C900.188 145.9 906.788 144.1 911.138 140.35L906.638 130Z" transform="translate(268 1118)" fill="#4F4F4F"/>
<path d="M62.8025 146.2C79.1525 146.2 93.2525 140.5 102.853 129.7L93.1025 120.25C85.0025 128.8 75.1025 132.85 63.5525 132.85C39.8525 132.85 22.3025 115.75 22.3025 92.5C22.3025 69.25 39.8525 52.15 63.5525 52.15C75.1025 52.15 85.0025 56.05 93.1025 64.6L102.853 55.15C93.2525 44.35 79.1525 38.8 62.9525 38.8C31.0025 38.8 7.30254 61.45 7.30254 92.5C7.30254 123.55 31.0025 146.2 62.8025 146.2ZM152.832 145.9C176.682 145.9 194.082 128.95 194.082 105.25C194.082 81.55 176.682 64.75 152.832 64.75C128.982 64.75 111.432 81.55 111.432 105.25C111.432 128.95 128.982 145.9 152.832 145.9ZM152.832 133.3C137.532 133.3 125.982 122.2 125.982 105.25C125.982 88.3 137.532 77.35 152.832 77.35C168.132 77.35 179.532 88.3 179.532 105.25C179.532 122.2 168.132 133.3 152.832 133.3ZM313.447 64.75C299.947 64.75 288.847 70.45 282.847 79.45C277.597 69.55 267.397 64.75 255.247 64.75C243.247 64.75 233.497 69.25 227.797 77.35V65.5H213.997V145H228.397V104.05C228.397 86.8 237.847 77.65 252.247 77.65C265.297 77.65 272.797 85.3 272.797 100.9V145H287.197V104.05C287.197 86.8 296.647 77.65 311.047 77.65C324.097 77.65 331.597 85.3 331.597 100.9V145H345.997V99.25C345.997 75.85 332.797 64.75 313.447 64.75ZM414.643 64.75C402.943 64.75 392.743 69.25 386.293 78.1V65.5H372.493V174.1H386.893V133C393.493 141.55 403.393 145.9 414.643 145.9C437.893 145.9 454.843 129.7 454.843 105.25C454.843 80.95 437.893 64.75 414.643 64.75ZM413.443 133.3C398.293 133.3 386.743 122.2 386.743 105.25C386.743 88.45 398.293 77.35 413.443 77.35C428.743 77.35 440.293 88.45 440.293 105.25C440.293 122.2 428.743 133.3 413.443 133.3ZM508.789 145.9C532.639 145.9 550.039 128.95 550.039 105.25C550.039 81.55 532.639 64.75 508.789 64.75C484.939 64.75 467.389 81.55 467.389 105.25C467.389 128.95 484.939 145.9 508.789 145.9ZM508.789 133.3C493.489 133.3 481.939 122.2 481.939 105.25C481.939 88.3 493.489 77.35 508.789 77.35C524.089 77.35 535.489 88.3 535.489 105.25C535.489 122.2 524.089 133.3 508.789 133.3ZM612.404 64.75C599.804 64.75 589.604 69.4 583.754 77.5V65.5H569.954V145H584.354V104.05C584.354 86.8 594.254 77.65 609.554 77.65C623.204 77.65 631.004 85.3 631.004 100.9V145H645.404V99.25C645.404 75.85 631.754 64.75 612.404 64.75ZM744.343 105.7C744.343 81.25 727.993 64.75 705.043 64.75C682.093 64.75 665.143 81.7 665.143 105.25C665.143 128.95 682.243 145.9 707.893 145.9C721.093 145.9 732.043 141.4 739.243 133L731.293 123.7C725.443 130.15 717.643 133.3 708.343 133.3C692.593 133.3 681.343 124 679.543 110.05H744.043C744.193 108.7 744.343 106.9 744.343 105.7ZM705.043 76.9C718.993 76.9 729.043 86.35 730.543 99.7H679.543C681.043 86.2 691.243 76.9 705.043 76.9ZM806.788 64.75C794.188 64.75 783.988 69.4 778.138 77.5V65.5H764.338V145H778.738V104.05C778.738 86.8 788.638 77.65 803.938 77.65C817.588 77.65 825.388 85.3 825.388 100.9V145H839.788V99.25C839.788 75.85 826.138 64.75 806.788 64.75ZM906.638 130C903.638 132.4 899.588 133.75 895.388 133.75C887.438 133.75 882.938 128.95 882.938 120.4V77.35H905.738V65.5H882.938V48.1H868.538V65.5H855.038V77.35H868.538V121C868.538 137.05 877.688 145.9 893.738 145.9C900.188 145.9 906.788 144.1 911.138 140.35L906.638 130Z" transform="translate(268 2629)" fill="#4F4F4F"/>
<path d="M62.8025 146.2C79.1525 146.2 93.2525 140.5 102.853 129.7L93.1025 120.25C85.0025 128.8 75.1025 132.85 63.5525 132.85C39.8525 132.85 22.3025 115.75 22.3025 92.5C22.3025 69.25 39.8525 52.15 63.5525 52.15C75.1025 52.15 85.0025 56.05 93.1025 64.6L102.853 55.15C93.2525 44.35 79.1525 38.8 62.9525 38.8C31.0025 38.8 7.30254 61.45 7.30254 92.5C7.30254 123.55 31.0025 146.2 62.8025 146.2ZM152.832 145.9C176.682 145.9 194.082 128.95 194.082 105.25C194.082 81.55 176.682 64.75 152.832 64.75C128.982 64.75 111.432 81.55 111.432 105.25C111.432 128.95 128.982 145.9 152.832 145.9ZM152.832 133.3C137.532 133.3 125.982 122.2 125.982 105.25C125.982 88.3 137.532 77.35 152.832 77.35C168.132 77.35 179.532 88.3 179.532 105.25C179.532 122.2 168.132 133.3 152.832 133.3ZM313.447 64.75C299.947 64.75 288.847 70.45 282.847 79.45C277.597 69.55 267.397 64.75 255.247 64.75C243.247 64.75 233.497 69.25 227.797 77.35V65.5H213.997V145H228.397V104.05C228.397 86.8 237.847 77.65 252.247 77.65C265.297 77.65 272.797 85.3 272.797 100.9V145H287.197V104.05C287.197 86.8 296.647 77.65 311.047 77.65C324.097 77.65 331.597 85.3 331.597 100.9V145H345.997V99.25C345.997 75.85 332.797 64.75 313.447 64.75ZM414.643 64.75C402.943 64.75 392.743 69.25 386.293 78.1V65.5H372.493V174.1H386.893V133C393.493 141.55 403.393 145.9 414.643 145.9C437.893 145.9 454.843 129.7 454.843 105.25C454.843 80.95 437.893 64.75 414.643 64.75ZM413.443 133.3C398.293 133.3 386.743 122.2 386.743 105.25C386.743 88.45 398.293 77.35 413.443 77.35C428.743 77.35 440.293 88.45 440.293 105.25C440.293 122.2 428.743 133.3 413.443 133.3ZM508.789 145.9C532.639 145.9 550.039 128.95 550.039 105.25C550.039 81.55 532.639 64.75 508.789 64.75C484.939 64.75 467.389 81.55 467.389 105.25C467.389 128.95 484.939 145.9 508.789 145.9ZM508.789 133.3C493.489 133.3 481.939 122.2 481.939 105.25C481.939 88.3 493.489 77.35 508.789 77.35C524.089 77.35 535.489 88.3 535.489 105.25C535.489 122.2 524.089 133.3 508.789 133.3ZM612.404 64.75C599.804 64.75 589.604 69.4 583.754 77.5V65.5H569.954V145H584.354V104.05C584.354 86.8 594.254 77.65 609.554 77.65C623.204 77.65 631.004 85.3 631.004 100.9V145H645.404V99.25C645.404 75.85 631.754 64.75 612.404 64.75ZM744.343 105.7C744.343 81.25 727.993 64.75 705.043 64.75C682.093 64.75 665.143 81.7 665.143 105.25C665.143 128.95 682.243 145.9 707.893 145.9C721.093 145.9 732.043 141.4 739.243 133L731.293 123.7C725.443 130.15 717.643 133.3 708.343 133.3C692.593 133.3 681.343 124 679.543 110.05H744.043C744.193 108.7 744.343 106.9 744.343 105.7ZM705.043 76.9C718.993 76.9 729.043 86.35 730.543 99.7H679.543C681.043 86.2 691.243 76.9 705.043 76.9ZM806.788 64.75C794.188 64.75 783.988 69.4 778.138 77.5V65.5H764.338V145H778.738V104.05C778.738 86.8 788.638 77.65 803.938 77.65C817.588 77.65 825.388 85.3 825.388 100.9V145H839.788V99.25C839.788 75.85 826.138 64.75 806.788 64.75ZM906.638 130C903.638 132.4 899.588 133.75 895.388 133.75C887.438 133.75 882.938 128.95 882.938 120.4V77.35H905.738V65.5H882.938V48.1H868.538V65.5H855.038V77.35H868.538V121C868.538 137.05 877.688 145.9 893.738 145.9C900.188 145.9 906.788 144.1 911.138 140.35L906.638 130Z" transform="translate(268 4136)" fill="#4F4F4F"/>
<path d="M-7.07107 -7.07107C-10.9763 -3.16582 -10.9763 3.16582 -7.07107 7.07107L56.5685 70.7107C60.4738 74.6159 66.8054 74.6159 70.7107 70.7107C74.6159 66.8054 74.6159 60.4738 70.7107 56.5685L14.1421 0L70.7107 -56.5685C74.6159 -60.4738 74.6159 -66.8054 70.7107 -70.7107C66.8054 -74.6159 60.4738 -74.6159 56.5685 -70.7107L-7.07107 -7.07107ZM1075.07 7.07107C1078.98 3.16582 1078.98 -3.16582 1075.07 -7.07107L1011.43 -70.7107C1007.53 -74.6159 1001.19 -74.6159 997.289 -70.7107C993.384 -66.8054 993.384 -60.4738 997.289 -56.5685L1053.86 0L997.289 56.5685C993.384 60.4738 993.384 66.8054 997.289 70.7107C1001.19 74.6159 1007.53 74.6159 1011.43 70.7107L1075.07 7.07107ZM0 10H1068V-10H0V10Z" transform="translate(2739 2173)" fill="#4F4F4F"/>
<path d="M0 10H702V-10H0V10Z" transform="translate(1125 2173)" fill="#4F4F4F"/>
<path d="M0 10H702V-10H0V10Z" transform="translate(4724 2173)" fill="#4F4F4F"/>
<path d="M-7.07107 -7.07107C-10.9763 -3.16582 -10.9763 3.16582 -7.07107 7.07107L56.5685 70.7107C60.4738 74.6159 66.8054 74.6159 70.7107 70.7107C74.6159 66.8054 74.6159 60.4738 70.7107 56.5685L14.1421 0L70.7107 -56.5685C74.6159 -60.4738 74.6159 -66.8054 70.7107 -70.7107C66.8054 -74.6159 60.4738 -74.6159 56.5685 -70.7107L-7.07107 -7.07107ZM0 10H298V-10H0V10Z" transform="translate(2147 1388) rotate(90)" fill="#4F4F4F"/>
<path d="M-7.07107 -7.07107C-10.9763 -3.16582 -10.9763 3.16582 -7.07107 7.07107L56.5685 70.7107C60.4738 74.6159 66.8054 74.6159 70.7107 70.7107C74.6159 66.8054 74.6159 60.4738 70.7107 56.5685L14.1421 0L70.7107 -56.5685C74.6159 -60.4738 74.6159 -66.8054 70.7107 -70.7107C66.8054 -74.6159 60.4738 -74.6159 56.5685 -70.7107L-7.07107 -7.07107ZM0 10H298V-10H0V10Z" transform="translate(2314 1686) rotate(-90)" fill="#4F4F4F"/>
<path d="M45.8382 139.523L267.5 11.547L489.162 139.523V395.477L267.5 523.453L45.8382 395.477V139.523Z" transform="translate(458 381)" stroke="#61C4B9" stroke-width="20"/>
<path d="M45.8382 139.523L267.5 11.547L489.162 139.523V395.477L267.5 523.453L45.8382 395.477V139.523Z" transform="translate(458 1899)" stroke="#7C4198" stroke-width="20"/>
<path d="M45.8382 139.523L267.5 11.547L489.162 139.523V395.477L267.5 523.453L45.8382 395.477V139.523Z" transform="translate(458 3422)" stroke="#ED2C75" stroke-width="20"/>
<circle cx="400" cy="400" r="390" transform="translate(5416 248)" stroke="#4F4F4F" stroke-width="20"/>
<circle cx="400" cy="400" r="390" transform="translate(5416 3290)" stroke="#4F4F4F" stroke-width="20"/>
<circle cx="400" cy="400" r="390" transform="translate(5416 1769)" stroke="#4F4F4F" stroke-width="20"/>
<path d="M62.8025 146.2C79.1525 146.2 93.2525 140.5 102.853 129.7L93.1025 120.25C85.0025 128.8 75.1025 132.85 63.5525 132.85C39.8525 132.85 22.3025 115.75 22.3025 92.5C22.3025 69.25 39.8525 52.15 63.5525 52.15C75.1025 52.15 85.0025 56.05 93.1025 64.6L102.853 55.15C93.2525 44.35 79.1525 38.8 62.9525 38.8C31.0025 38.8 7.30254 61.45 7.30254 92.5C7.30254 123.55 31.0025 146.2 62.8025 146.2ZM152.832 145.9C176.682 145.9 194.082 128.95 194.082 105.25C194.082 81.55 176.682 64.75 152.832 64.75C128.982 64.75 111.432 81.55 111.432 105.25C111.432 128.95 128.982 145.9 152.832 145.9ZM152.832 133.3C137.532 133.3 125.982 122.2 125.982 105.25C125.982 88.3 137.532 77.35 152.832 77.35C168.132 77.35 179.532 88.3 179.532 105.25C179.532 122.2 168.132 133.3 152.832 133.3ZM313.447 64.75C299.947 64.75 288.847 70.45 282.847 79.45C277.597 69.55 267.397 64.75 255.247 64.75C243.247 64.75 233.497 69.25 227.797 77.35V65.5H213.997V145H228.397V104.05C228.397 86.8 237.847 77.65 252.247 77.65C265.297 77.65 272.797 85.3 272.797 100.9V145H287.197V104.05C287.197 86.8 296.647 77.65 311.047 77.65C324.097 77.65 331.597 85.3 331.597 100.9V145H345.997V99.25C345.997 75.85 332.797 64.75 313.447 64.75ZM414.643 64.75C402.943 64.75 392.743 69.25 386.293 78.1V65.5H372.493V174.1H386.893V133C393.493 141.55 403.393 145.9 414.643 145.9C437.893 145.9 454.843 129.7 454.843 105.25C454.843 80.95 437.893 64.75 414.643 64.75ZM413.443 133.3C398.293 133.3 386.743 122.2 386.743 105.25C386.743 88.45 398.293 77.35 413.443 77.35C428.743 77.35 440.293 88.45 440.293 105.25C440.293 122.2 428.743 133.3 413.443 133.3ZM508.789 145.9C532.639 145.9 550.039 128.95 550.039 105.25C550.039 81.55 532.639 64.75 508.789 64.75C484.939 64.75 467.389 81.55 467.389 105.25C467.389 128.95 484.939 145.9 508.789 145.9ZM508.789 133.3C493.489 133.3 481.939 122.2 481.939 105.25C481.939 88.3 493.489 77.35 508.789 77.35C524.089 77.35 535.489 88.3 535.489 105.25C535.489 122.2 524.089 133.3 508.789 133.3ZM612.404 64.75C599.804 64.75 589.604 69.4 583.754 77.5V65.5H569.954V145H584.354V104.05C584.354 86.8 594.254 77.65 609.554 77.65C623.204 77.65 631.004 85.3 631.004 100.9V145H645.404V99.25C645.404 75.85 631.754 64.75 612.404 64.75ZM744.343 105.7C744.343 81.25 727.993 64.75 705.043 64.75C682.093 64.75 665.143 81.7 665.143 105.25C665.143 128.95 682.243 145.9 707.893 145.9C721.093 145.9 732.043 141.4 739.243 133L731.293 123.7C725.443 130.15 717.643 133.3 708.343 133.3C692.593 133.3 681.343 124 679.543 110.05H744.043C744.193 108.7 744.343 106.9 744.343 105.7ZM705.043 76.9C718.993 76.9 729.043 86.35 730.543 99.7H679.543C681.043 86.2 691.243 76.9 705.043 76.9ZM806.788 64.75C794.188 64.75 783.988 69.4 778.138 77.5V65.5H764.338V145H778.738V104.05C778.738 86.8 788.638 77.65 803.938 77.65C817.588 77.65 825.388 85.3 825.388 100.9V145H839.788V99.25C839.788 75.85 826.138 64.75 806.788 64.75ZM906.638 130C903.638 132.4 899.588 133.75 895.388 133.75C887.438 133.75 882.938 128.95 882.938 120.4V77.35H905.738V65.5H882.938V48.1H868.538V65.5H855.038V77.35H868.538V121C868.538 137.05 877.688 145.9 893.738 145.9C900.188 145.9 906.788 144.1 911.138 140.35L906.638 130Z" transform="translate(5359 1118)" fill="#4F4F4F"/>
<path d="M62.8025 146.2C79.1525 146.2 93.2525 140.5 102.853 129.7L93.1025 120.25C85.0025 128.8 75.1025 132.85 63.5525 132.85C39.8525 132.85 22.3025 115.75 22.3025 92.5C22.3025 69.25 39.8525 52.15 63.5525 52.15C75.1025 52.15 85.0025 56.05 93.1025 64.6L102.853 55.15C93.2525 44.35 79.1525 38.8 62.9525 38.8C31.0025 38.8 7.30254 61.45 7.30254 92.5C7.30254 123.55 31.0025 146.2 62.8025 146.2ZM152.832 145.9C176.682 145.9 194.082 128.95 194.082 105.25C194.082 81.55 176.682 64.75 152.832 64.75C128.982 64.75 111.432 81.55 111.432 105.25C111.432 128.95 128.982 145.9 152.832 145.9ZM152.832 133.3C137.532 133.3 125.982 122.2 125.982 105.25C125.982 88.3 137.532 77.35 152.832 77.35C168.132 77.35 179.532 88.3 179.532 105.25C179.532 122.2 168.132 133.3 152.832 133.3ZM313.447 64.75C299.947 64.75 288.847 70.45 282.847 79.45C277.597 69.55 267.397 64.75 255.247 64.75C243.247 64.75 233.497 69.25 227.797 77.35V65.5H213.997V145H228.397V104.05C228.397 86.8 237.847 77.65 252.247 77.65C265.297 77.65 272.797 85.3 272.797 100.9V145H287.197V104.05C287.197 86.8 296.647 77.65 311.047 77.65C324.097 77.65 331.597 85.3 331.597 100.9V145H345.997V99.25C345.997 75.85 332.797 64.75 313.447 64.75ZM414.643 64.75C402.943 64.75 392.743 69.25 386.293 78.1V65.5H372.493V174.1H386.893V133C393.493 141.55 403.393 145.9 414.643 145.9C437.893 145.9 454.843 129.7 454.843 105.25C454.843 80.95 437.893 64.75 414.643 64.75ZM413.443 133.3C398.293 133.3 386.743 122.2 386.743 105.25C386.743 88.45 398.293 77.35 413.443 77.35C428.743 77.35 440.293 88.45 440.293 105.25C440.293 122.2 428.743 133.3 413.443 133.3ZM508.789 145.9C532.639 145.9 550.039 128.95 550.039 105.25C550.039 81.55 532.639 64.75 508.789 64.75C484.939 64.75 467.389 81.55 467.389 105.25C467.389 128.95 484.939 145.9 508.789 145.9ZM508.789 133.3C493.489 133.3 481.939 122.2 481.939 105.25C481.939 88.3 493.489 77.35 508.789 77.35C524.089 77.35 535.489 88.3 535.489 105.25C535.489 122.2 524.089 133.3 508.789 133.3ZM612.404 64.75C599.804 64.75 589.604 69.4 583.754 77.5V65.5H569.954V145H584.354V104.05C584.354 86.8 594.254 77.65 609.554 77.65C623.204 77.65 631.004 85.3 631.004 100.9V145H645.404V99.25C645.404 75.85 631.754 64.75 612.404 64.75ZM744.343 105.7C744.343 81.25 727.993 64.75 705.043 64.75C682.093 64.75 665.143 81.7 665.143 105.25C665.143 128.95 682.243 145.9 707.893 145.9C721.093 145.9 732.043 141.4 739.243 133L731.293 123.7C725.443 130.15 717.643 133.3 708.343 133.3C692.593 133.3 681.343 124 679.543 110.05H744.043C744.193 108.7 744.343 106.9 744.343 105.7ZM705.043 76.9C718.993 76.9 729.043 86.35 730.543 99.7H679.543C681.043 86.2 691.243 76.9 705.043 76.9ZM806.788 64.75C794.188 64.75 783.988 69.4 778.138 77.5V65.5H764.338V145H778.738V104.05C778.738 86.8 788.638 77.65 803.938 77.65C817.588 77.65 825.388 85.3 825.388 100.9V145H839.788V99.25C839.788 75.85 826.138 64.75 806.788 64.75ZM906.638 130C903.638 132.4 899.588 133.75 895.388 133.75C887.438 133.75 882.938 128.95 882.938 120.4V77.35H905.738V65.5H882.938V48.1H868.538V65.5H855.038V77.35H868.538V121C868.538 137.05 877.688 145.9 893.738 145.9C900.188 145.9 906.788 144.1 911.138 140.35L906.638 130Z" transform="translate(5359 2629)" fill="#4F4F4F"/>
<path d="M62.8025 146.2C79.1525 146.2 93.2525 140.5 102.853 129.7L93.1025 120.25C85.0025 128.8 75.1025 132.85 63.5525 132.85C39.8525 132.85 22.3025 115.75 22.3025 92.5C22.3025 69.25 39.8525 52.15 63.5525 52.15C75.1025 52.15 85.0025 56.05 93.1025 64.6L102.853 55.15C93.2525 44.35 79.1525 38.8 62.9525 38.8C31.0025 38.8 7.30254 61.45 7.30254 92.5C7.30254 123.55 31.0025 146.2 62.8025 146.2ZM152.832 145.9C176.682 145.9 194.082 128.95 194.082 105.25C194.082 81.55 176.682 64.75 152.832 64.75C128.982 64.75 111.432 81.55 111.432 105.25C111.432 128.95 128.982 145.9 152.832 145.9ZM152.832 133.3C137.532 133.3 125.982 122.2 125.982 105.25C125.982 88.3 137.532 77.35 152.832 77.35C168.132 77.35 179.532 88.3 179.532 105.25C179.532 122.2 168.132 133.3 152.832 133.3ZM313.447 64.75C299.947 64.75 288.847 70.45 282.847 79.45C277.597 69.55 267.397 64.75 255.247 64.75C243.247 64.75 233.497 69.25 227.797 77.35V65.5H213.997V145H228.397V104.05C228.397 86.8 237.847 77.65 252.247 77.65C265.297 77.65 272.797 85.3 272.797 100.9V145H287.197V104.05C287.197 86.8 296.647 77.65 311.047 77.65C324.097 77.65 331.597 85.3 331.597 100.9V145H345.997V99.25C345.997 75.85 332.797 64.75 313.447 64.75ZM414.643 64.75C402.943 64.75 392.743 69.25 386.293 78.1V65.5H372.493V174.1H386.893V133C393.493 141.55 403.393 145.9 414.643 145.9C437.893 145.9 454.843 129.7 454.843 105.25C454.843 80.95 437.893 64.75 414.643 64.75ZM413.443 133.3C398.293 133.3 386.743 122.2 386.743 105.25C386.743 88.45 398.293 77.35 413.443 77.35C428.743 77.35 440.293 88.45 440.293 105.25C440.293 122.2 428.743 133.3 413.443 133.3ZM508.789 145.9C532.639 145.9 550.039 128.95 550.039 105.25C550.039 81.55 532.639 64.75 508.789 64.75C484.939 64.75 467.389 81.55 467.389 105.25C467.389 128.95 484.939 145.9 508.789 145.9ZM508.789 133.3C493.489 133.3 481.939 122.2 481.939 105.25C481.939 88.3 493.489 77.35 508.789 77.35C524.089 77.35 535.489 88.3 535.489 105.25C535.489 122.2 524.089 133.3 508.789 133.3ZM612.404 64.75C599.804 64.75 589.604 69.4 583.754 77.5V65.5H569.954V145H584.354V104.05C584.354 86.8 594.254 77.65 609.554 77.65C623.204 77.65 631.004 85.3 631.004 100.9V145H645.404V99.25C645.404 75.85 631.754 64.75 612.404 64.75ZM744.343 105.7C744.343 81.25 727.993 64.75 705.043 64.75C682.093 64.75 665.143 81.7 665.143 105.25C665.143 128.95 682.243 145.9 707.893 145.9C721.093 145.9 732.043 141.4 739.243 133L731.293 123.7C725.443 130.15 717.643 133.3 708.343 133.3C692.593 133.3 681.343 124 679.543 110.05H744.043C744.193 108.7 744.343 106.9 744.343 105.7ZM705.043 76.9C718.993 76.9 729.043 86.35 730.543 99.7H679.543C681.043 86.2 691.243 76.9 705.043 76.9ZM806.788 64.75C794.188 64.75 783.988 69.4 778.138 77.5V65.5H764.338V145H778.738V104.05C778.738 86.8 788.638 77.65 803.938 77.65C817.588 77.65 825.388 85.3 825.388 100.9V145H839.788V99.25C839.788 75.85 826.138 64.75 806.788 64.75ZM906.638 130C903.638 132.4 899.588 133.75 895.388 133.75C887.438 133.75 882.938 128.95 882.938 120.4V77.35H905.738V65.5H882.938V48.1H868.538V65.5H855.038V77.35H868.538V121C868.538 137.05 877.688 145.9 893.738 145.9C900.188 145.9 906.788 144.1 911.138 140.35L906.638 130Z" transform="translate(5359 4136)" fill="#4F4F4F"/>
<path d="M45.8382 139.523L267.5 11.547L489.162 139.523V395.477L267.5 523.453L45.8382 395.477V139.523Z" transform="translate(5549 381)" stroke="#61C4B9" stroke-width="20"/>
<path d="M45.8382 139.523L267.5 11.547L489.162 139.523V395.477L267.5 523.453L45.8382 395.477V139.523Z" transform="translate(5549 1906)" stroke="#7C4198" stroke-width="20"/>
<path d="M45.8382 139.523L267.5 11.547L489.162 139.523V395.477L267.5 523.453L45.8382 395.477V139.523Z" transform="translate(5549 3422)" stroke="#ED2C75" stroke-width="20"/>
</svg>
