<svg width="3422" height="3678" viewBox="0 0 3422 3678" fill="none" xmlns="http://www.w3.org/2000/svg">
<path d="M890.297 12.5422C895.819 12.6483 900.381 8.2581 900.487 2.73627C900.593 -2.78555 896.203 -7.34796 890.681 -7.45415L890.297 12.5422ZM-4.07814 654.086C0.0865411 657.713 6.40319 657.277 10.0305 653.113L69.1407 585.245C72.768 581.081 72.3324 574.764 68.1677 571.137C64.0031 567.509 57.6864 567.945 54.0591 572.11L1.51666 632.436L-58.8099 579.894C-62.9745 576.266 -69.2912 576.702 -72.9185 580.867C-76.5458 585.031 -76.1102 591.348 -71.9455 594.975L-4.07814 654.086ZM890.681 -7.45415C752.782 -10.1061 516.469 -23.3194 320.887 52.2162C222.756 90.1149 134.301 150.533 73.5483 246.184C12.8018 341.825 -19.5946 471.667 -7.48663 647.233L12.466 645.857C0.573983 473.423 32.5107 348.098 90.4308 256.906C148.345 165.724 232.889 107.641 328.092 70.8731C519.176 -2.92522 750.863 9.86073 890.297 12.5422L890.681 -7.45415Z" transform="translate(2990.49 3054.55) rotate(-180)" fill="#4F4F4F"/>
<path d="M879.808 10.6741C885.33 10.7802 889.892 6.39 889.998 0.868177C890.104 -4.65365 885.714 -9.21606 880.192 -9.32225L879.808 10.6741ZM-7.07107 863.747C-3.16582 867.652 3.16582 867.652 7.07107 863.747L70.7107 800.107C74.6159 796.202 74.6159 789.87 70.7107 785.965C66.8054 782.06 60.4738 782.06 56.5685 785.965L-9.4535e-08 842.534L-56.5685 785.965C-60.4738 782.06 -66.8054 782.06 -70.7107 785.965C-74.6159 789.87 -74.6159 796.202 -70.7107 800.107L-7.07107 863.747ZM880.192 -9.32225C741.649 -11.9865 518.997 -12.1982 330.977 97.0293C141.858 206.895 -10 426.011 -10 856.676L10 856.676C10 431.341 159.476 219.79 341.023 114.323C523.67 8.21697 741.017 8.00501 879.808 10.6741L880.192 -9.32225Z" transform="translate(427 399.325)" fill="#4F4F4F"/>
<path d="M879.808 10.2384C885.33 10.3446 889.892 5.95432 889.998 0.432492C890.104 -5.08933 885.714 -9.65174 880.192 -9.75793L879.808 10.2384ZM-7.07107 863.311C-3.16582 867.216 3.16582 867.216 7.07107 863.311L70.7107 799.672C74.6159 795.766 74.6159 789.435 70.7107 785.529C66.8054 781.624 60.4738 781.624 56.5685 785.529L-1.03217e-07 842.098L-56.5685 785.529C-60.4738 781.624 -66.8054 781.624 -70.7107 785.529C-74.6159 789.435 -74.6159 795.766 -70.7107 799.672L-7.07107 863.311ZM880.192 -9.75793C740.791 -12.4387 518.45 5.5719 330.673 123.777C142.098 242.483 -10 461.215 -10 856.24L10 856.24C10 467.263 159.235 255.328 341.327 140.702C524.217 25.5742 741.876 7.58583 879.808 10.2384L880.192 -9.75793Z" transform="translate(2980 399.762) scale(-1 1)" fill="#4F4F4F"/>
<circle cx="400" cy="400" r="390" transform="translate(1300)" stroke="#ED2C75" stroke-width="20"/>
<circle cx="79.5" cy="79.5" r="69.5" transform="translate(1439 162)" stroke="#ED2C75" stroke-width="20"/>
<circle cx="79.5" cy="79.5" r="69.5" transform="translate(1631 321)" stroke="#ED2C75" stroke-width="20"/>
<circle cx="79.5" cy="79.5" r="69.5" transform="translate(1802 480)" stroke="#ED2C75" stroke-width="20"/>
<path d="M0 0H352V158H248" transform="translate(1590 240)" stroke="#ED2C75" stroke-width="20"/>
<path d="M0 0H293V158H117" transform="translate(1755 559) rotate(180)" stroke="#ED2C75" stroke-width="20"/>
<path d="M29 0L54.1147 43.5L3.88526 43.5L29 0Z" transform="translate(1807 369) scale(1 -1) rotate(-90)" fill="#ED2C75"/>
<path d="M29 0L54.1147 43.5L3.88526 43.5L29 0Z" transform="translate(1790 588) scale(-1 1) rotate(-90)" fill="#ED2C75"/>
<path d="M150.079 40L121.129 125.8L92.1785 40H78.3785L48.8285 125.35L20.4785 40H5.02852L40.1285 145H56.1785L84.8285 61.15L113.479 145H129.229L164.329 40H150.079ZM208.622 145.9C232.472 145.9 249.872 128.95 249.872 105.25C249.872 81.55 232.472 64.75 208.622 64.75C184.772 64.75 167.222 81.55 167.222 105.25C167.222 128.95 184.772 145.9 208.622 145.9ZM208.622 133.3C193.322 133.3 181.772 122.2 181.772 105.25C181.772 88.3 193.322 77.35 208.622 77.35C223.922 77.35 235.322 88.3 235.322 105.25C235.322 122.2 223.922 133.3 208.622 133.3ZM283.587 78.85V65.5H269.787V145H284.187V105.4C284.187 88 293.787 78.55 309.237 78.55C310.287 78.55 311.337 78.55 312.537 78.7V64.75C298.587 64.75 288.687 69.55 283.587 78.85ZM391.035 145H408.735L371.985 98.35L405.435 65.5H388.035L344.685 105.1V33.7H330.285V145H344.685V123.25L361.185 107.95L391.035 145ZM424.816 58.45V65.5H411.316V77.35H424.816V145H439.216V77.35H462.016V65.5H438.916V58.6C438.916 49.45 443.266 44.65 451.816 44.65C456.016 44.65 459.916 46.15 462.916 48.4L467.266 37.45C463.216 34.3 457.216 32.8 451.066 32.8C434.116 32.8 424.816 43 424.816 58.45ZM475.666 33.7V145H490.066V33.7H475.666ZM551.542 145.9C575.392 145.9 592.792 128.95 592.792 105.25C592.792 81.55 575.392 64.75 551.542 64.75C527.692 64.75 510.142 81.55 510.142 105.25C510.142 128.95 527.692 145.9 551.542 145.9ZM551.542 133.3C536.242 133.3 524.692 122.2 524.692 105.25C524.692 88.3 536.242 77.35 551.542 77.35C566.842 77.35 578.242 88.3 578.242 105.25C578.242 122.2 566.842 133.3 551.542 133.3ZM717.909 65.5L694.209 129.1L670.659 65.5H658.509L634.509 128.8L611.409 65.5H597.759L627.309 145H641.109L664.359 84.7L687.309 145H701.109L730.809 65.5H717.909Z" transform="translate(1333 844)" fill="#ED2C75"/>
<circle cx="400" cy="400" r="390" transform="translate(41 1323)" stroke="#ED2C75" stroke-width="20"/>
<path d="M16.2109 145H60.4609C94.2109 145 117.161 123.7 117.161 92.5C117.161 61.3 94.2109 40 60.4609 40H16.2109V145ZM31.2109 131.95V53.05H59.5609C85.5109 53.05 102.161 68.95 102.161 92.5C102.161 116.05 85.5109 131.95 59.5609 131.95H31.2109ZM166.987 64.75C154.237 64.75 142.387 68.35 134.137 74.95L140.137 85.75C146.287 80.5 155.887 77.2 165.337 77.2C179.587 77.2 186.637 84.25 186.637 96.4V99.25H163.837C140.137 99.25 131.887 109.75 131.887 122.5C131.887 136.3 143.287 145.9 161.287 145.9C173.737 145.9 182.587 141.7 187.387 134.5V145H201.037V97C201.037 75.25 188.737 64.75 166.987 64.75ZM163.687 134.8C152.737 134.8 146.137 129.85 146.137 121.9C146.137 115.15 150.187 109.6 164.437 109.6H186.637V120.7C183.037 129.85 174.487 134.8 163.687 134.8ZM267.885 130C264.885 132.4 260.835 133.75 256.635 133.75C248.685 133.75 244.185 128.95 244.185 120.4V77.35H266.985V65.5H244.185V48.1H229.785V65.5H216.285V77.35H229.785V121C229.785 137.05 238.935 145.9 254.985 145.9C261.435 145.9 268.035 144.1 272.385 140.35L267.885 130ZM318.745 64.75C305.995 64.75 294.145 68.35 285.895 74.95L291.895 85.75C298.045 80.5 307.645 77.2 317.095 77.2C331.345 77.2 338.395 84.25 338.395 96.4V99.25H315.595C291.895 99.25 283.645 109.75 283.645 122.5C283.645 136.3 295.045 145.9 313.045 145.9C325.495 145.9 334.345 141.7 339.145 134.5V145H352.795V97C352.795 75.25 340.495 64.75 318.745 64.75ZM315.445 134.8C304.495 134.8 297.895 129.85 297.895 121.9C297.895 115.15 301.945 109.6 316.195 109.6H338.395V120.7C334.795 129.85 326.245 134.8 315.445 134.8ZM533.576 145L533.426 40H521.126L477.926 113.8L434.126 40H421.826V145H436.226V68.95L474.176 132.25H481.076L519.026 68.5L519.176 145H533.576ZM597.038 145.9C620.888 145.9 638.288 128.95 638.288 105.25C638.288 81.55 620.888 64.75 597.038 64.75C573.188 64.75 555.638 81.55 555.638 105.25C555.638 128.95 573.188 145.9 597.038 145.9ZM597.038 133.3C581.738 133.3 570.188 122.2 570.188 105.25C570.188 88.3 581.738 77.35 597.038 77.35C612.338 77.35 623.738 88.3 623.738 105.25C623.738 122.2 612.338 133.3 597.038 133.3ZM718.803 33.7V77.5C712.203 68.95 702.303 64.75 691.053 64.75C667.803 64.75 650.853 80.95 650.853 105.25C650.853 129.55 667.803 145.9 691.053 145.9C702.753 145.9 712.953 141.4 719.403 132.4V145H733.203V33.7H718.803ZM692.253 133.3C676.953 133.3 665.403 122.2 665.403 105.25C665.403 88.3 676.953 77.35 692.253 77.35C707.403 77.35 718.953 88.3 718.953 105.25C718.953 122.2 707.403 133.3 692.253 133.3ZM832.299 105.7C832.299 81.25 815.949 64.75 792.999 64.75C770.049 64.75 753.099 81.7 753.099 105.25C753.099 128.95 770.199 145.9 795.849 145.9C809.049 145.9 819.999 141.4 827.199 133L819.249 123.7C813.399 130.15 805.599 133.3 796.299 133.3C780.549 133.3 769.299 124 767.499 110.05H831.999C832.149 108.7 832.299 106.9 832.299 105.7ZM792.999 76.9C806.949 76.9 816.999 86.35 818.499 99.7H767.499C768.999 86.2 779.199 76.9 792.999 76.9ZM852.295 145H866.695V33.7H852.295V145Z" transform="translate(0 2167)" fill="#ED2C75"/>
<circle cx="110" cy="110" r="100" transform="translate(331 1613)" stroke="#ED2C75" stroke-width="20"/>
<circle cx="61" cy="61" r="51" transform="translate(299 1433)" stroke="#ED2C75" stroke-width="20"/>
<circle cx="46.5" cy="46.5" r="36.5" transform="translate(551 1535)" stroke="#ED2C75" stroke-width="20"/>
<circle cx="46.5" cy="46.5" r="36.5" transform="translate(151 1677)" stroke="#ED2C75" stroke-width="20"/>
<circle cx="75" cy="75" r="65" transform="translate(505 1833)" stroke="#ED2C75" stroke-width="20"/>
<line y1="-10" x2="93.6376" y2="-10" transform="translate(368 1546) rotate(70.0169)" stroke="#ED2C75" stroke-width="20"/>
<line y1="-10" x2="106.052" y2="-10" transform="translate(233 1735.32) rotate(-1.79466)" stroke="#ED2C75" stroke-width="20"/>
<line y1="-10" x2="79.4612" y2="-10" transform="translate(518 1663) rotate(-38.9943)" stroke="#ED2C75" stroke-width="20"/>
<line y1="-10" x2="71.0275" y2="-10" transform="translate(491 1808) rotate(51.687)" stroke="#ED2C75" stroke-width="20"/>
<circle cx="400" cy="400" r="390" transform="translate(2560 1323)" stroke="#ED2C75" stroke-width="20"/>
<circle cx="204.5" cy="204.5" r="194.5" transform="translate(2755 1519)" stroke="#ED2C75" stroke-width="20"/>
<path d="M150.045 40L121.095 125.8L92.1453 40H78.3453L48.7953 125.35L20.4453 40H4.99531L40.0953 145H56.1453L84.7953 61.15L113.445 145H129.195L164.295 40H150.045ZM208.589 145.9C232.439 145.9 249.839 128.95 249.839 105.25C249.839 81.55 232.439 64.75 208.589 64.75C184.739 64.75 167.189 81.55 167.189 105.25C167.189 128.95 184.739 145.9 208.589 145.9ZM208.589 133.3C193.289 133.3 181.739 122.2 181.739 105.25C181.739 88.3 193.289 77.35 208.589 77.35C223.889 77.35 235.289 88.3 235.289 105.25C235.289 122.2 223.889 133.3 208.589 133.3ZM283.554 78.85V65.5H269.754V145H284.154V105.4C284.154 88 293.754 78.55 309.204 78.55C310.254 78.55 311.304 78.55 312.504 78.7V64.75C298.554 64.75 288.654 69.55 283.554 78.85ZM391.002 145H408.702L371.952 98.35L405.402 65.5H388.002L344.652 105.1V33.7H330.252V145H344.652V123.25L361.152 107.95L391.002 145ZM442.993 145.9C464.143 145.9 477.343 136.75 477.343 122.35C477.343 91.45 426.943 106.75 426.943 88C426.943 81.7 433.093 77.05 445.693 77.05C453.493 77.05 461.443 78.7 468.643 83.35L474.793 71.95C467.893 67.45 456.193 64.75 445.843 64.75C425.443 64.75 412.693 74.35 412.693 88.6C412.693 120.25 462.943 104.8 462.943 122.65C462.943 129.4 457.393 133.45 444.043 133.45C433.693 133.45 422.893 130 416.143 125.2L410.143 136.6C416.743 141.85 429.793 145.9 442.993 145.9ZM537.489 64.75C525.789 64.75 515.589 69.25 509.139 78.1V65.5H495.339V174.1H509.739V133C516.339 141.55 526.239 145.9 537.489 145.9C560.739 145.9 577.689 129.7 577.689 105.25C577.689 80.95 560.739 64.75 537.489 64.75ZM536.289 133.3C521.139 133.3 509.589 122.2 509.589 105.25C509.589 88.45 521.139 77.35 536.289 77.35C551.589 77.35 563.139 88.45 563.139 105.25C563.139 122.2 551.589 133.3 536.289 133.3ZM625.803 64.75C613.053 64.75 601.203 68.35 592.953 74.95L598.953 85.75C605.103 80.5 614.703 77.2 624.153 77.2C638.403 77.2 645.453 84.25 645.453 96.4V99.25H622.653C598.953 99.25 590.703 109.75 590.703 122.5C590.703 136.3 602.103 145.9 620.103 145.9C632.553 145.9 641.403 141.7 646.203 134.5V145H659.853V97C659.853 75.25 647.553 64.75 625.803 64.75ZM622.503 134.8C611.553 134.8 604.953 129.85 604.953 121.9C604.953 115.15 609.003 109.6 623.253 109.6H645.453V120.7C641.853 129.85 633.303 134.8 622.503 134.8ZM721.591 145.9C735.841 145.9 747.691 139.9 753.991 128.8L743.041 121.9C737.941 129.7 730.141 133.3 721.441 133.3C705.841 133.3 694.141 122.5 694.141 105.25C694.141 88.3 705.841 77.35 721.441 77.35C730.141 77.35 737.941 80.95 743.041 88.75L753.991 81.7C747.691 70.6 735.841 64.75 721.591 64.75C697.141 64.75 679.591 81.55 679.591 105.25C679.591 128.95 697.141 145.9 721.591 145.9ZM843.312 105.7C843.312 81.25 826.962 64.75 804.012 64.75C781.063 64.75 764.112 81.7 764.112 105.25C764.112 128.95 781.213 145.9 806.862 145.9C820.062 145.9 831.013 141.4 838.213 133L830.263 123.7C824.413 130.15 816.612 133.3 807.313 133.3C791.562 133.3 780.313 124 778.512 110.05H843.013C843.163 108.7 843.312 106.9 843.312 105.7ZM804.012 76.9C817.962 76.9 828.012 86.35 829.512 99.7H778.512C780.013 86.2 790.213 76.9 804.012 76.9ZM886.108 145.9C907.258 145.9 920.458 136.75 920.458 122.35C920.458 91.45 870.058 106.75 870.058 88C870.058 81.7 876.208 77.05 888.808 77.05C896.608 77.05 904.558 78.7 911.758 83.35L917.908 71.95C911.008 67.45 899.308 64.75 888.958 64.75C868.558 64.75 855.808 74.35 855.808 88.6C855.808 120.25 906.058 104.8 906.058 122.65C906.058 129.4 900.508 133.45 887.158 133.45C876.808 133.45 866.008 130 859.258 125.2L853.258 136.6C859.858 141.85 872.908 145.9 886.108 145.9Z" transform="translate(2497 2167)" fill="#ED2C75"/>
<path d="M59.2813 146.2C87.0312 146.2 103.681 130.15 103.681 99.7V40H89.1312V99.1C89.1312 122.35 78.3313 132.85 59.4312 132.85C40.5313 132.85 29.8813 122.35 29.8813 99.1V40H14.8812V99.7C14.8812 130.15 31.6812 146.2 59.2813 146.2ZM134.434 145H149.434V40H134.434V145ZM160.919 160H173.969L223.469 18.7H210.419L160.919 160ZM277.104 146.2C304.854 146.2 321.504 130.15 321.504 99.7V40H306.954V99.1C306.954 122.35 296.154 132.85 277.254 132.85C258.354 132.85 247.704 122.35 247.704 99.1V40H232.704V99.7C232.704 130.15 249.504 146.2 277.104 146.2ZM434.041 145L394.291 90.7L431.341 40H414.991L385.891 80.35L356.491 40H339.391L376.441 91.15L336.991 145H354.241L385.291 101.65L416.791 145H434.041Z" transform="translate(1490 2167)" fill="#ED2C75"/>
<circle cx="400" cy="400" r="390" transform="translate(1300 2651)" stroke="#ED2C75" stroke-width="20"/>
<path d="M150.264 40L121.314 125.8L92.3641 40H78.5641L49.0141 125.35L20.6641 40H5.21406L40.3141 145H56.3641L85.0141 61.15L113.664 145H129.414L164.514 40H150.264ZM188.11 50.2C193.81 50.2 197.86 46 197.86 40.6C197.86 35.5 193.66 31.45 188.11 31.45C182.56 31.45 178.36 35.65 178.36 40.9C178.36 46.15 182.56 50.2 188.11 50.2ZM180.91 145H195.31V65.5H180.91V145ZM236.604 78.85V65.5H222.804V145H237.204V105.4C237.204 88 246.804 78.55 262.254 78.55C263.304 78.55 264.354 78.55 265.554 78.7V64.75C251.604 64.75 241.704 69.55 236.604 78.85ZM354.42 105.7C354.42 81.25 338.07 64.75 315.12 64.75C292.17 64.75 275.22 81.7 275.22 105.25C275.22 128.95 292.32 145.9 317.97 145.9C331.17 145.9 342.12 141.4 349.32 133L341.37 123.7C335.52 130.15 327.72 133.3 318.42 133.3C302.67 133.3 291.42 124 289.62 110.05H354.12C354.27 108.7 354.42 106.9 354.42 105.7ZM315.12 76.9C329.07 76.9 339.12 86.35 340.62 99.7H289.62C291.12 86.2 301.32 76.9 315.12 76.9ZM403.516 44.65C407.716 44.65 411.616 46.15 414.616 48.4L418.966 37.45C414.916 34.3 408.916 32.8 402.766 32.8C385.816 32.8 376.516 43 376.516 58.45V65.5H363.016V77.35H376.516V145H390.916V77.35H413.716V65.5H390.616V58.6C390.616 49.45 394.966 44.65 403.516 44.65ZM453.108 78.85V65.5H439.308V145H453.708V105.4C453.708 88 463.308 78.55 478.758 78.55C479.808 78.55 480.858 78.55 482.058 78.7V64.75C468.108 64.75 458.208 69.55 453.108 78.85ZM528.61 64.75C515.86 64.75 504.01 68.35 495.76 74.95L501.76 85.75C507.91 80.5 517.51 77.2 526.96 77.2C541.21 77.2 548.26 84.25 548.26 96.4V99.25H525.46C501.76 99.25 493.51 109.75 493.51 122.5C493.51 136.3 504.91 145.9 522.91 145.9C535.36 145.9 544.21 141.7 549.01 134.5V145H562.66V97C562.66 75.25 550.36 64.75 528.61 64.75ZM525.31 134.8C514.36 134.8 507.76 129.85 507.76 121.9C507.76 115.15 511.81 109.6 526.06 109.6H548.26V120.7C544.66 129.85 536.11 134.8 525.31 134.8ZM688.758 64.75C675.258 64.75 664.158 70.45 658.158 79.45C652.908 69.55 642.708 64.75 630.558 64.75C618.558 64.75 608.808 69.25 603.108 77.35V65.5H589.308V145H603.708V104.05C603.708 86.8 613.158 77.65 627.558 77.65C640.608 77.65 648.108 85.3 648.108 100.9V145H662.508V104.05C662.508 86.8 671.958 77.65 686.358 77.65C699.408 77.65 706.908 85.3 706.908 100.9V145H721.308V99.25C721.308 75.85 708.108 64.75 688.758 64.75ZM820.094 105.7C820.094 81.25 803.744 64.75 780.794 64.75C757.844 64.75 740.894 81.7 740.894 105.25C740.894 128.95 757.994 145.9 783.644 145.9C796.844 145.9 807.794 141.4 814.994 133L807.044 123.7C801.194 130.15 793.394 133.3 784.094 133.3C768.344 133.3 757.094 124 755.294 110.05H819.794C819.944 108.7 820.094 106.9 820.094 105.7ZM780.794 76.9C794.744 76.9 804.794 86.35 806.294 99.7H755.294C756.794 86.2 766.994 76.9 780.794 76.9ZM862.889 145.9C884.039 145.9 897.239 136.75 897.239 122.35C897.239 91.45 846.839 106.75 846.839 88C846.839 81.7 852.989 77.05 865.589 77.05C873.389 77.05 881.339 78.7 888.539 83.35L894.689 71.95C887.789 67.45 876.089 64.75 865.739 64.75C845.339 64.75 832.589 74.35 832.589 88.6C832.589 120.25 882.839 104.8 882.839 122.65C882.839 129.4 877.289 133.45 863.939 133.45C853.589 133.45 842.789 130 836.039 125.2L830.039 136.6C836.639 141.85 849.689 145.9 862.889 145.9Z" transform="translate(1248 3495)" fill="#ED2C75"/>
<rect x="10" y="10" width="182" height="261" transform="translate(1464 2811)" stroke="#ED2C75" stroke-width="20"/>
<rect x="10" y="10" width="182" height="143" transform="translate(1700 2811)" stroke="#ED2C75" stroke-width="20"/>
<rect x="10" y="10" width="182" height="143" transform="translate(1700 3129)" stroke="#ED2C75" stroke-width="20"/>
<rect x="10" y="10" width="182" height="143" transform="translate(1464 3129)" stroke="#ED2C75" stroke-width="20"/>
<rect x="10" y="10" width="182" height="59" transform="translate(1700 3013)" stroke="#ED2C75" stroke-width="20"/>
<line y1="-10" x2="304.818" y2="-10" transform="translate(1475 2828) rotate(56.7791)" stroke="#ED2C75" stroke-width="20"/>
<line y1="-10" x2="304.818" y2="-10" transform="translate(1657 2828) scale(-1 1) rotate(56.7791)" stroke="#ED2C75" stroke-width="20"/>
<line y1="-10" x2="215.23" y2="-10" transform="translate(1882 3136) rotate(142.172)" stroke="#ED2C75" stroke-width="20"/>
<line y1="-10" x2="215.23" y2="-10" transform="translate(1882 2819) rotate(142.172)" stroke="#ED2C75" stroke-width="20"/>
<line y1="-10" x2="215.23" y2="-10" transform="translate(1720 3136) scale(1 -1) rotate(-37.8283)" stroke="#ED2C75" stroke-width="20"/>
<line y1="-10" x2="215.23" y2="-10" transform="translate(1720 2819) scale(1 -1) rotate(-37.8283)" stroke="#ED2C75" stroke-width="20"/>
<path d="M811 405.5C811 629.451 629.451 811 405.5 811C181.549 811 0 629.451 0 405.5C0 181.549 181.549 0 405.5 0" transform="translate(1305 1313)" stroke="#ED2C75" stroke-width="20"/>
<path d="M230.78 164C230.78 207.382 217.858 246.257 197.458 274.048C177.053 301.844 149.688 318 120.39 318C91.0918 318 63.7271 301.844 43.3226 274.048C22.922 246.257 10 207.382 10 164C10 120.618 22.922 81.7424 43.3226 53.952C63.7271 26.1562 91.0918 10 120.39 10C149.688 10 177.053 26.1562 197.458 53.952C217.858 81.7424 230.78 120.618 230.78 164Z" transform="translate(1590.28 1485.63)" fill="white" stroke="#ED2C75" stroke-width="20"/>
<path d="M0 176.481C19.6634 78.6385 86.501 0.00047353 187.498 2.61351e-09C284.939 -0.000456848 353.041 59.8933 387.601 188.066" transform="translate(1510.63 1888.69)" stroke="#ED2C75" stroke-width="20"/>
<path d="M717.937 147C643.559 57.2034 531.21 0 405.5 0C181.549 0 0 181.549 0 405.5C0 629.451 181.549 811 405.5 811C629.451 811 811 629.451 811 405.5C811 375.814 807.81 346.872 801.754 319" transform="translate(1305 1313)" stroke="#ED2C75" stroke-width="20"/>
<path d="M230.78 164C230.78 207.382 217.858 246.257 197.458 274.048C177.053 301.844 149.688 318 120.39 318C91.0918 318 63.7271 301.844 43.3226 274.048C22.922 246.257 10 207.382 10 164C10 120.618 22.922 81.7424 43.3226 53.952C63.7271 26.1562 91.0918 10 120.39 10C149.688 10 177.053 26.1562 197.458 53.952C217.858 81.7424 230.78 120.618 230.78 164Z" transform="translate(1590.28 1485.63)" fill="white" stroke="#ED2C75" stroke-width="20"/>
<rect x="10" y="10" width="280" height="167" transform="translate(1211 1663)" fill="white" stroke="#ED2C75" stroke-width="20"/>
<rect x="10" y="10" width="280" height="167" transform="translate(1898 1451)" stroke="#ED2C75" stroke-width="20" stroke-dasharray="30 30"/>
<line x1="10" y1="-10" x2="165" y2="-10" transform="translate(1273 1739)" stroke="#ED2C75" stroke-width="20" stroke-linecap="round"/>
<line x1="10" y1="-10" x2="108" y2="-10" transform="translate(1273 1791)" stroke="#ED2C75" stroke-width="20" stroke-linecap="round"/>
<path d="M213.071 7.07107C216.976 3.16582 216.976 -3.16582 213.071 -7.07107L149.431 -70.7107C145.526 -74.6159 139.195 -74.6159 135.289 -70.7107C131.384 -66.8054 131.384 -60.4738 135.289 -56.5685L191.858 0L135.289 56.5685C131.384 60.4738 131.384 66.8054 135.289 70.7107C139.195 74.6159 145.526 74.6159 149.431 70.7107L213.071 7.07107ZM0 10H206V-10H0V10Z" transform="translate(1708 1050) rotate(90)" fill="#4F4F4F"/>
<path d="M213.071 7.07107C216.976 3.16582 216.976 -3.16582 213.071 -7.07107L149.431 -70.7107C145.526 -74.6159 139.195 -74.6159 135.289 -70.7107C131.384 -66.8054 131.384 -60.4738 135.289 -56.5685L191.858 0L135.289 56.5685C131.384 60.4738 131.384 66.8054 135.289 70.7107C139.195 74.6159 145.526 74.6159 149.431 70.7107L213.071 7.07107ZM0 10H206V-10H0V10Z" transform="translate(1708 2394) rotate(90)" fill="#4F4F4F"/>
<path d="M282.071 7.07107C285.976 3.16582 285.976 -3.16582 282.071 -7.07107L218.431 -70.7107C214.526 -74.6159 208.195 -74.6159 204.289 -70.7107C200.384 -66.8054 200.384 -60.4738 204.289 -56.5685L260.858 0L204.289 56.5685C200.384 60.4738 200.384 66.8054 204.289 70.7107C208.195 74.6159 214.526 74.6159 218.431 70.7107L282.071 7.07107ZM0 10H275V-10H0V10Z" transform="translate(2560 1718) rotate(180)" fill="#4F4F4F"/>
</svg>
