<svg width="3664" height="1200" viewBox="0 0 3664 1200" fill="none" xmlns="http://www.w3.org/2000/svg">
<circle cx="400" cy="400" r="390" transform="translate(40)" stroke="#ED2C75" stroke-width="20"/>
<path d="M46.4418 146.2C74.1918 146.2 87.0918 132.4 87.0918 116.35C87.0918 77.8 23.4918 93.85 23.4918 68.2C23.4918 59.05 31.1418 51.55 48.9918 51.55C58.2918 51.55 68.6418 54.25 77.7918 60.1L82.7418 48.1C74.0418 42.1 61.2918 38.8 48.9918 38.8C21.3918 38.8 8.7918 52.6 8.7918 68.8C8.7918 107.8 72.3918 91.6 72.3918 117.25C72.3918 126.4 64.5918 133.45 46.4418 133.45C32.9418 133.45 19.5918 128.35 11.7918 121.3L6.2418 133C14.6418 140.8 30.3918 146.2 46.4418 146.2ZM166.606 65.5V106.6C166.606 123.7 157.006 133 142.006 133C128.356 133 120.556 125.2 120.556 109.6V65.5H106.156V111.25C106.156 134.65 119.806 145.9 140.356 145.9C151.606 145.9 161.506 141.25 167.356 133V145H181.006V65.5H166.606ZM250.57 64.75C239.32 64.75 229.42 68.95 222.82 77.5V33.7H208.42V145H222.22V132.4C228.67 141.4 238.87 145.9 250.57 145.9C273.82 145.9 290.77 129.55 290.77 105.25C290.77 80.95 273.82 64.75 250.57 64.75ZM249.37 133.3C234.22 133.3 222.67 122.2 222.67 105.25C222.67 88.3 234.22 77.35 249.37 77.35C264.67 77.35 276.22 88.3 276.22 105.25C276.22 122.2 264.67 133.3 249.37 133.3ZM410.116 64.75C396.616 64.75 385.516 70.45 379.516 79.45C374.266 69.55 364.066 64.75 351.916 64.75C339.916 64.75 330.166 69.25 324.466 77.35V65.5H310.666V145H325.066V104.05C325.066 86.8 334.516 77.65 348.916 77.65C361.966 77.65 369.466 85.3 369.466 100.9V145H383.866V104.05C383.866 86.8 393.316 77.65 407.716 77.65C420.766 77.65 428.266 85.3 428.266 100.9V145H442.666V99.25C442.666 75.85 429.466 64.75 410.116 64.75ZM476.362 50.2C482.062 50.2 486.112 46 486.112 40.6C486.112 35.5 481.912 31.45 476.362 31.45C470.812 31.45 466.612 35.65 466.612 40.9C466.612 46.15 470.812 50.2 476.362 50.2ZM469.162 145H483.562V65.5H469.162V145ZM533.856 145.9C555.006 145.9 568.206 136.75 568.206 122.35C568.206 91.45 517.806 106.75 517.806 88C517.806 81.7 523.956 77.05 536.556 77.05C544.356 77.05 552.306 78.7 559.506 83.35L565.656 71.95C558.756 67.45 547.056 64.75 536.706 64.75C516.306 64.75 503.556 74.35 503.556 88.6C503.556 120.25 553.806 104.8 553.806 122.65C553.806 129.4 548.256 133.45 534.906 133.45C524.556 133.45 513.756 130 507.006 125.2L501.006 136.6C507.606 141.85 520.656 145.9 533.856 145.9ZM609.003 145.9C630.153 145.9 643.353 136.75 643.353 122.35C643.353 91.45 592.953 106.75 592.953 88C592.953 81.7 599.103 77.05 611.703 77.05C619.503 77.05 627.453 78.7 634.653 83.35L640.803 71.95C633.903 67.45 622.203 64.75 611.853 64.75C591.453 64.75 578.703 74.35 578.703 88.6C578.703 120.25 628.953 104.8 628.953 122.65C628.953 129.4 623.403 133.45 610.053 133.45C599.703 133.45 588.903 130 582.153 125.2L576.153 136.6C582.753 141.85 595.803 145.9 609.003 145.9ZM668.549 50.2C674.249 50.2 678.299 46 678.299 40.6C678.299 35.5 674.099 31.45 668.549 31.45C662.999 31.45 658.799 35.65 658.799 40.9C658.799 46.15 662.999 50.2 668.549 50.2ZM661.349 145H675.749V65.5H661.349V145ZM737.294 145.9C761.144 145.9 778.544 128.95 778.544 105.25C778.544 81.55 761.144 64.75 737.294 64.75C713.444 64.75 695.894 81.55 695.894 105.25C695.894 128.95 713.444 145.9 737.294 145.9ZM737.294 133.3C721.994 133.3 710.444 122.2 710.444 105.25C710.444 88.3 721.994 77.35 737.294 77.35C752.594 77.35 763.994 88.3 763.994 105.25C763.994 122.2 752.594 133.3 737.294 133.3ZM840.909 64.75C828.309 64.75 818.109 69.4 812.259 77.5V65.5H798.459V145H812.859V104.05C812.859 86.8 822.759 77.65 838.059 77.65C851.709 77.65 859.509 85.3 859.509 100.9V145H873.909V99.25C873.909 75.85 860.259 64.75 840.909 64.75Z" transform="translate(0 870)" fill="#ED2C75"/>
<path d="M339.139 100.554C334.68 74.0879 321.561 49.9344 301.495 31.6051C279.201 11.2202 250.217 -3.26732e-07 220.033 -3.26732e-07C196.709 -3.26732e-07 173.986 6.68076 154.521 19.2714C138.314 29.7208 124.851 43.8532 115.333 60.4694C111.217 59.6986 106.93 59.2703 102.642 59.2703C66.1986 59.2703 36.5293 88.9055 36.5293 125.307C36.5293 130.018 37.0438 134.557 37.9013 139.011C14.3202 156.141 0 183.721 0 213.099C0 236.824 8.8322 259.864 24.9531 278.108C41.5028 296.78 63.3689 307.829 86.6928 309.113C86.95 309.113 87.1215 309.113 87.3788 309.113H161.123C167.555 309.113 172.7 303.974 172.7 297.551C172.7 291.127 167.555 285.988 161.123 285.988H87.7218C52.6502 283.847 23.1524 250.528 23.1524 213.013C23.1524 188.774 36.1863 166.162 57.1949 153.914C62.0827 151.088 64.1407 145.178 62.2542 139.868C60.5392 135.242 59.6817 130.36 59.6817 125.136C59.6817 101.496 78.9753 82.2247 102.642 82.2247C107.701 82.2247 112.675 83.0812 117.305 84.7942C122.965 86.8498 129.225 84.2803 131.797 78.8843C147.832 44.881 182.475 22.9544 220.119 22.9544C270.711 22.9544 312.471 60.812 317.273 111.003C317.788 116.228 321.732 120.425 326.877 121.281C365.036 127.791 393.848 162.993 393.848 203.164C393.848 245.732 360.32 282.733 318.988 285.902H255.791C249.36 285.902 244.215 291.041 244.215 297.465C244.215 303.889 249.36 309.028 255.791 309.028H319.417C319.674 309.028 319.932 309.028 320.275 309.028C346.428 307.144 370.867 295.152 389.046 275.11C407.139 255.239 417 229.715 417 203.164C416.914 155.113 384.072 112.374 339.139 100.554Z" transform="translate(231 207)" fill="#ED2C75"/>
<path d="M142.323 81.0256C146.868 76.4861 146.868 69.2058 142.323 64.6663L81.0119 3.42602C78.8681 1.28476 75.8669 -5.22771e-06 72.8657 -5.22771e-06C69.8644 -5.22771e-06 66.8632 1.1991 64.7195 3.42602L3.40854 64.6663C-1.13618 69.2058 -1.13618 76.4861 3.40854 81.0256C5.63803 83.2525 8.63926 84.4516 11.5547 84.4516C14.4702 84.4516 17.4715 83.3382 19.701 81.0256L61.2895 39.485V230.4C61.2895 236.824 66.4345 241.963 72.8657 241.963C79.2969 241.963 84.4419 236.824 84.4419 230.4V39.485L126.03 81.0256C130.489 85.5651 137.778 85.5651 142.323 81.0256Z" transform="translate(366.678 350.037)" fill="#ED2C75"/>
<line y1="-10" x2="590" y2="-10" transform="translate(840 417)" stroke="#ED2C75" stroke-width="20"/>
<path d="M16.1455 145H60.3955C94.1455 145 117.096 123.7 117.096 92.5C117.096 61.3 94.1455 40 60.3955 40H16.1455V145ZM31.1455 131.95V53.05H59.4955C85.4455 53.05 102.096 68.95 102.096 92.5C102.096 116.05 85.4455 131.95 59.4955 131.95H31.1455ZM166.921 64.75C154.171 64.75 142.321 68.35 134.071 74.95L140.071 85.75C146.221 80.5 155.821 77.2 165.271 77.2C179.521 77.2 186.571 84.25 186.571 96.4V99.25H163.771C140.071 99.25 131.821 109.75 131.821 122.5C131.821 136.3 143.221 145.9 161.221 145.9C173.671 145.9 182.521 141.7 187.321 134.5V145H200.971V97C200.971 75.25 188.671 64.75 166.921 64.75ZM163.621 134.8C152.671 134.8 146.071 129.85 146.071 121.9C146.071 115.15 150.121 109.6 164.371 109.6H186.571V120.7C182.971 129.85 174.421 134.8 163.621 134.8ZM250.42 145.9C271.57 145.9 284.77 136.75 284.77 122.35C284.77 91.45 234.37 106.75 234.37 88C234.37 81.7 240.52 77.05 253.12 77.05C260.92 77.05 268.87 78.7 276.07 83.35L282.22 71.95C275.32 67.45 263.62 64.75 253.27 64.75C232.87 64.75 220.12 74.35 220.12 88.6C220.12 120.25 270.37 104.8 270.37 122.65C270.37 129.4 264.82 133.45 251.47 133.45C241.12 133.45 230.32 130 223.57 125.2L217.57 136.6C224.17 141.85 237.22 145.9 250.42 145.9ZM345.216 64.75C333.066 64.75 323.166 69.1 317.166 76.75V33.7H302.766V145H317.166V104.05C317.166 86.8 327.066 77.65 342.366 77.65C356.016 77.65 363.816 85.3 363.816 100.9V145H378.216V99.25C378.216 75.85 364.566 64.75 345.216 64.75ZM447.016 64.75C435.766 64.75 425.866 68.95 419.266 77.5V33.7H404.866V145H418.666V132.4C425.116 141.4 435.316 145.9 447.016 145.9C470.266 145.9 487.216 129.55 487.216 105.25C487.216 80.95 470.266 64.75 447.016 64.75ZM445.816 133.3C430.666 133.3 419.116 122.2 419.116 105.25C419.116 88.3 430.666 77.35 445.816 77.35C461.116 77.35 472.666 88.3 472.666 105.25C472.666 122.2 461.116 133.3 445.816 133.3ZM541.162 145.9C565.012 145.9 582.412 128.95 582.412 105.25C582.412 81.55 565.012 64.75 541.162 64.75C517.312 64.75 499.762 81.55 499.762 105.25C499.762 128.95 517.312 145.9 541.162 145.9ZM541.162 133.3C525.862 133.3 514.312 122.2 514.312 105.25C514.312 88.3 525.862 77.35 541.162 77.35C556.462 77.35 567.862 88.3 567.862 105.25C567.862 122.2 556.462 133.3 541.162 133.3ZM630.544 64.75C617.794 64.75 605.944 68.35 597.694 74.95L603.694 85.75C609.844 80.5 619.444 77.2 628.894 77.2C643.144 77.2 650.194 84.25 650.194 96.4V99.25H627.394C603.694 99.25 595.444 109.75 595.444 122.5C595.444 136.3 606.844 145.9 624.844 145.9C637.294 145.9 646.144 141.7 650.944 134.5V145H664.594V97C664.594 75.25 652.294 64.75 630.544 64.75ZM627.244 134.8C616.294 134.8 609.694 129.85 609.694 121.9C609.694 115.15 613.744 109.6 627.994 109.6H650.194V120.7C646.594 129.85 638.044 134.8 627.244 134.8ZM705.043 78.85V65.5H691.243V145H705.643V105.4C705.643 88 715.243 78.55 730.693 78.55C731.743 78.55 732.793 78.55 733.993 78.7V64.75C720.043 64.75 710.143 69.55 705.043 78.85ZM811.608 33.7V77.5C805.008 68.95 795.108 64.75 783.858 64.75C760.608 64.75 743.658 80.95 743.658 105.25C743.658 129.55 760.608 145.9 783.858 145.9C795.558 145.9 805.758 141.4 812.208 132.4V145H826.008V33.7H811.608ZM785.058 133.3C769.758 133.3 758.208 122.2 758.208 105.25C758.208 88.3 769.758 77.35 785.058 77.35C800.208 77.35 811.758 88.3 811.758 105.25C811.758 122.2 800.208 133.3 785.058 133.3Z" transform="translate(1400 870)" fill="#4F4F4F"/>
<rect x="10" y="10" width="465" height="320" rx="20" transform="translate(1583 211)" stroke="#7C4198" stroke-width="20"/>
<rect x="10" y="10" width="78" height="34" transform="translate(1780 533)" stroke="#7C4198" stroke-width="20"/>
<rect x="10" y="10" width="182" height="34" rx="17" transform="translate(1728 567)" stroke="#7C4198" stroke-width="20"/>
<line x1="10" y1="-10" x2="101" y2="-10" transform="translate(1697 299)" stroke="#61C4B9" stroke-width="20" stroke-linecap="round"/>
<line x1="10" y1="-10" x2="162" y2="-10" transform="translate(1842 437)" stroke="#ED2C75" stroke-width="20" stroke-linecap="round"/>
<line x1="10" y1="-10" x2="162" y2="-10" transform="translate(1842 402)" stroke="#ED2C75" stroke-width="20" stroke-linecap="round"/>
<line x1="10" y1="-10" x2="162" y2="-10" transform="translate(1842 475)" stroke="#ED2C75" stroke-width="20" stroke-linecap="round"/>
<line x1="10" y1="-10" x2="48" y2="-10" transform="translate(1956 364)" stroke="#ED2C75" stroke-width="20" stroke-linecap="round"/>
<line x1="10" y1="-10" x2="48" y2="-10" transform="translate(1956 329.5)" stroke="#ED2C75" stroke-width="20" stroke-linecap="round"/>
<line x1="10" y1="-10" x2="48" y2="-10" transform="translate(1956 295)" stroke="#ED2C75" stroke-width="20" stroke-linecap="round"/>
<path d="M0 7L10.973 21L29 0" transform="translate(1643 273)" stroke="#61C4B9" stroke-width="20" stroke-linecap="round"/>
<line x1="10" y1="-10" x2="101" y2="-10" transform="translate(1697 357)" stroke="#61C4B9" stroke-width="20" stroke-linecap="round"/>
<path d="M0 7L10.973 21L29 0" transform="translate(1643 331)" stroke="#61C4B9" stroke-width="20" stroke-linecap="round"/>
<line x1="10" y1="-10" x2="101" y2="-10" transform="translate(1697 417)" stroke="#61C4B9" stroke-width="20" stroke-linecap="round"/>
<path d="M0 7L10.973 21L29 0" transform="translate(1643 391)" stroke="#61C4B9" stroke-width="20" stroke-linecap="round"/>
<line x1="10" y1="-10" x2="101" y2="-10" transform="translate(1697 475)" stroke="#61C4B9" stroke-width="20" stroke-linecap="round"/>
<path d="M0 7L10.973 21L29 0" transform="translate(1643 449)" stroke="#61C4B9" stroke-width="20" stroke-linecap="round"/>
<rect width="72" height="69" transform="translate(1851 285)" stroke="#ED2C75" stroke-width="20" stroke-linecap="round" stroke-linejoin="round"/>
<circle cx="400" cy="400" r="390" transform="translate(1426 16)" stroke="#4F4F4F" stroke-width="20"/>
<path d="M16.1455 145H60.3955C94.1455 145 117.096 123.7 117.096 92.5C117.096 61.3 94.1455 40 60.3955 40H16.1455V145ZM31.1455 131.95V53.05H59.4955C85.4455 53.05 102.096 68.95 102.096 92.5C102.096 116.05 85.4455 131.95 59.4955 131.95H31.1455ZM166.921 64.75C154.171 64.75 142.321 68.35 134.071 74.95L140.071 85.75C146.221 80.5 155.821 77.2 165.271 77.2C179.521 77.2 186.571 84.25 186.571 96.4V99.25H163.771C140.071 99.25 131.821 109.75 131.821 122.5C131.821 136.3 143.221 145.9 161.221 145.9C173.671 145.9 182.521 141.7 187.321 134.5V145H200.971V97C200.971 75.25 188.671 64.75 166.921 64.75ZM163.621 134.8C152.671 134.8 146.071 129.85 146.071 121.9C146.071 115.15 150.121 109.6 164.371 109.6H186.571V120.7C182.971 129.85 174.421 134.8 163.621 134.8ZM250.42 145.9C271.57 145.9 284.77 136.75 284.77 122.35C284.77 91.45 234.37 106.75 234.37 88C234.37 81.7 240.52 77.05 253.12 77.05C260.92 77.05 268.87 78.7 276.07 83.35L282.22 71.95C275.32 67.45 263.62 64.75 253.27 64.75C232.87 64.75 220.12 74.35 220.12 88.6C220.12 120.25 270.37 104.8 270.37 122.65C270.37 129.4 264.82 133.45 251.47 133.45C241.12 133.45 230.32 130 223.57 125.2L217.57 136.6C224.17 141.85 237.22 145.9 250.42 145.9ZM345.216 64.75C333.066 64.75 323.166 69.1 317.166 76.75V33.7H302.766V145H317.166V104.05C317.166 86.8 327.066 77.65 342.366 77.65C356.016 77.65 363.816 85.3 363.816 100.9V145H378.216V99.25C378.216 75.85 364.566 64.75 345.216 64.75ZM447.016 64.75C435.766 64.75 425.866 68.95 419.266 77.5V33.7H404.866V145H418.666V132.4C425.116 141.4 435.316 145.9 447.016 145.9C470.266 145.9 487.216 129.55 487.216 105.25C487.216 80.95 470.266 64.75 447.016 64.75ZM445.816 133.3C430.666 133.3 419.116 122.2 419.116 105.25C419.116 88.3 430.666 77.35 445.816 77.35C461.116 77.35 472.666 88.3 472.666 105.25C472.666 122.2 461.116 133.3 445.816 133.3ZM541.162 145.9C565.012 145.9 582.412 128.95 582.412 105.25C582.412 81.55 565.012 64.75 541.162 64.75C517.312 64.75 499.762 81.55 499.762 105.25C499.762 128.95 517.312 145.9 541.162 145.9ZM541.162 133.3C525.862 133.3 514.312 122.2 514.312 105.25C514.312 88.3 525.862 77.35 541.162 77.35C556.462 77.35 567.862 88.3 567.862 105.25C567.862 122.2 556.462 133.3 541.162 133.3ZM630.544 64.75C617.794 64.75 605.944 68.35 597.694 74.95L603.694 85.75C609.844 80.5 619.444 77.2 628.894 77.2C643.144 77.2 650.194 84.25 650.194 96.4V99.25H627.394C603.694 99.25 595.444 109.75 595.444 122.5C595.444 136.3 606.844 145.9 624.844 145.9C637.294 145.9 646.144 141.7 650.944 134.5V145H664.594V97C664.594 75.25 652.294 64.75 630.544 64.75ZM627.244 134.8C616.294 134.8 609.694 129.85 609.694 121.9C609.694 115.15 613.744 109.6 627.994 109.6H650.194V120.7C646.594 129.85 638.044 134.8 627.244 134.8ZM705.043 78.85V65.5H691.243V145H705.643V105.4C705.643 88 715.243 78.55 730.693 78.55C731.743 78.55 732.793 78.55 733.993 78.7V64.75C720.043 64.75 710.143 69.55 705.043 78.85ZM811.608 33.7V77.5C805.008 68.95 795.108 64.75 783.858 64.75C760.608 64.75 743.658 80.95 743.658 105.25C743.658 129.55 760.608 145.9 783.858 145.9C795.558 145.9 805.758 141.4 812.208 132.4V145H826.008V33.7H811.608ZM785.058 133.3C769.758 133.3 758.208 122.2 758.208 105.25C758.208 88.3 769.758 77.35 785.058 77.35C800.208 77.35 811.758 88.3 811.758 105.25C811.758 122.2 800.208 133.3 785.058 133.3Z" transform="translate(1400 870)" fill="#4F4F4F"/>
<rect x="10" y="10" width="465" height="320" rx="20" transform="translate(1583 211)" stroke="#7C4198" stroke-width="20"/>
<rect x="10" y="10" width="78" height="34" transform="translate(1780 533)" stroke="#7C4198" stroke-width="20"/>
<rect x="10" y="10" width="182" height="34" rx="17" transform="translate(1728 567)" stroke="#7C4198" stroke-width="20"/>
<line x1="10" y1="-10" x2="101" y2="-10" transform="translate(1697 299)" stroke="#61C4B9" stroke-width="20" stroke-linecap="round"/>
<line x1="10" y1="-10" x2="162" y2="-10" transform="translate(1842 437)" stroke="#ED2C75" stroke-width="20" stroke-linecap="round"/>
<line x1="10" y1="-10" x2="162" y2="-10" transform="translate(1842 402)" stroke="#ED2C75" stroke-width="20" stroke-linecap="round"/>
<line x1="10" y1="-10" x2="162" y2="-10" transform="translate(1842 475)" stroke="#ED2C75" stroke-width="20" stroke-linecap="round"/>
<line x1="10" y1="-10" x2="48" y2="-10" transform="translate(1956 364)" stroke="#ED2C75" stroke-width="20" stroke-linecap="round"/>
<line x1="10" y1="-10" x2="48" y2="-10" transform="translate(1956 329.5)" stroke="#ED2C75" stroke-width="20" stroke-linecap="round"/>
<line x1="10" y1="-10" x2="48" y2="-10" transform="translate(1956 295)" stroke="#ED2C75" stroke-width="20" stroke-linecap="round"/>
<path d="M0 7L10.973 21L29 0" transform="translate(1643 273)" stroke="#61C4B9" stroke-width="20" stroke-linecap="round"/>
<line x1="10" y1="-10" x2="101" y2="-10" transform="translate(1697 357)" stroke="#61C4B9" stroke-width="20" stroke-linecap="round"/>
<path d="M0 7L10.973 21L29 0" transform="translate(1643 331)" stroke="#61C4B9" stroke-width="20" stroke-linecap="round"/>
<line x1="10" y1="-10" x2="101" y2="-10" transform="translate(1697 417)" stroke="#61C4B9" stroke-width="20" stroke-linecap="round"/>
<path d="M0 7L10.973 21L29 0" transform="translate(1643 391)" stroke="#61C4B9" stroke-width="20" stroke-linecap="round"/>
<line x1="10" y1="-10" x2="101" y2="-10" transform="translate(1697 475)" stroke="#61C4B9" stroke-width="20" stroke-linecap="round"/>
<path d="M0 7L10.973 21L29 0" transform="translate(1643 449)" stroke="#61C4B9" stroke-width="20" stroke-linecap="round"/>
<rect width="72" height="69" transform="translate(1851 285)" stroke="#ED2C75" stroke-width="20" stroke-linecap="round" stroke-linejoin="round"/>
<circle cx="400" cy="400" r="390" transform="translate(1426 16)" stroke="#4F4F4F" stroke-width="20"/>
<circle cx="400" cy="400" r="390" transform="translate(2808)" stroke="#7C4198" stroke-width="20"/>
<path d="M127.803 145L127.653 40H115.353L72.1527 113.8L28.3527 40H16.0527V145H30.4527V68.95L68.4027 132.25H75.3027L113.253 68.5L113.403 145H127.803ZM186.164 64.75C173.414 64.75 161.564 68.35 153.314 74.95L159.314 85.75C165.464 80.5 175.064 77.2 184.514 77.2C198.764 77.2 205.814 84.25 205.814 96.4V99.25H183.014C159.314 99.25 151.064 109.75 151.064 122.5C151.064 136.3 162.464 145.9 180.464 145.9C192.914 145.9 201.764 141.7 206.564 134.5V145H220.214V97C220.214 75.25 207.914 64.75 186.164 64.75ZM182.864 134.8C171.914 134.8 165.314 129.85 165.314 121.9C165.314 115.15 169.364 109.6 183.614 109.6H205.814V120.7C202.214 129.85 193.664 134.8 182.864 134.8ZM289.313 64.75C276.713 64.75 266.513 69.4 260.663 77.5V65.5H246.863V145H261.263V104.05C261.263 86.8 271.163 77.65 286.463 77.65C300.113 77.65 307.913 85.3 307.913 100.9V145H322.313V99.25C322.313 75.85 308.663 64.75 289.313 64.75ZM408.662 65.5V106.6C408.662 123.7 399.063 133 384.062 133C370.412 133 362.612 125.2 362.612 109.6V65.5H348.213V111.25C348.213 134.65 361.863 145.9 382.413 145.9C393.662 145.9 403.563 141.25 409.412 133V145H423.062V65.5H408.662ZM473.276 145.9C494.426 145.9 507.626 136.75 507.626 122.35C507.626 91.45 457.226 106.75 457.226 88C457.226 81.7 463.376 77.05 475.976 77.05C483.776 77.05 491.726 78.7 498.926 83.35L505.076 71.95C498.176 67.45 486.476 64.75 476.126 64.75C455.726 64.75 442.976 74.35 442.976 88.6C442.976 120.25 493.226 104.8 493.226 122.65C493.226 129.4 487.676 133.45 474.326 133.45C463.976 133.45 453.176 130 446.426 125.2L440.426 136.6C447.026 141.85 460.076 145.9 473.276 145.9ZM560.273 145.9C574.523 145.9 586.373 139.9 592.673 128.8L581.723 121.9C576.623 129.7 568.823 133.3 560.123 133.3C544.523 133.3 532.823 122.5 532.823 105.25C532.823 88.3 544.523 77.35 560.123 77.35C568.823 77.35 576.623 80.95 581.723 88.75L592.673 81.7C586.373 70.6 574.523 64.75 560.273 64.75C535.823 64.75 518.273 81.55 518.273 105.25C518.273 128.95 535.823 145.9 560.273 145.9ZM625.116 78.85V65.5H611.316V145H625.716V105.4C625.716 88 635.316 78.55 650.766 78.55C651.816 78.55 652.866 78.55 654.066 78.7V64.75C640.116 64.75 630.216 69.55 625.116 78.85ZM679.014 50.2C684.714 50.2 688.764 46 688.764 40.6C688.764 35.5 684.564 31.45 679.014 31.45C673.464 31.45 669.264 35.65 669.264 40.9C669.264 46.15 673.464 50.2 679.014 50.2ZM671.814 145H686.214V65.5H671.814V145ZM755.859 64.75C744.159 64.75 733.959 69.25 727.509 78.1V65.5H713.709V174.1H728.109V133C734.709 141.55 744.609 145.9 755.859 145.9C779.109 145.9 796.059 129.7 796.059 105.25C796.059 80.95 779.109 64.75 755.859 64.75ZM754.659 133.3C739.509 133.3 727.959 122.2 727.959 105.25C727.959 88.45 739.509 77.35 754.659 77.35C769.959 77.35 781.509 88.45 781.509 105.25C781.509 122.2 769.959 133.3 754.659 133.3ZM856.155 130C853.155 132.4 849.105 133.75 844.905 133.75C836.955 133.75 832.455 128.95 832.455 120.4V77.35H855.255V65.5H832.455V48.1H818.055V65.5H804.555V77.35H818.055V121C818.055 137.05 827.205 145.9 843.255 145.9C849.705 145.9 856.305 144.1 860.655 140.35L856.155 130ZM205.018 310H249.268C283.018 310 305.968 288.7 305.968 257.5C305.968 226.3 283.018 205 249.268 205H205.018V310ZM220.018 296.95V218.05H248.368C274.318 218.05 290.968 233.95 290.968 257.5C290.968 281.05 274.318 296.95 248.368 296.95H220.018ZM398.693 270.7C398.693 246.25 382.343 229.75 359.393 229.75C336.443 229.75 319.493 246.7 319.493 270.25C319.493 293.95 336.593 310.9 362.243 310.9C375.443 310.9 386.393 306.4 393.593 298L385.643 288.7C379.793 295.15 371.993 298.3 362.693 298.3C346.943 298.3 335.693 289 333.893 275.05H398.393C398.543 273.7 398.693 271.9 398.693 270.7ZM359.393 241.9C373.343 241.9 383.393 251.35 384.893 264.7H333.893C335.393 251.2 345.593 241.9 359.393 241.9ZM458.889 295C455.889 297.4 451.839 298.75 447.639 298.75C439.689 298.75 435.189 293.95 435.189 285.4V242.35H457.989V230.5H435.189V213.1H420.789V230.5H407.289V242.35H420.789V286C420.789 302.05 429.939 310.9 445.989 310.9C452.439 310.9 459.039 309.1 463.389 305.35L458.889 295ZM509.748 229.75C496.998 229.75 485.148 233.35 476.898 239.95L482.898 250.75C489.048 245.5 498.648 242.2 508.098 242.2C522.348 242.2 529.398 249.25 529.398 261.4V264.25H506.598C482.898 264.25 474.648 274.75 474.648 287.5C474.648 301.3 486.048 310.9 504.048 310.9C516.498 310.9 525.348 306.7 530.148 299.5V310H543.798V262C543.798 240.25 531.498 229.75 509.748 229.75ZM506.448 299.8C495.498 299.8 488.898 294.85 488.898 286.9C488.898 280.15 492.948 274.6 507.198 274.6H529.398V285.7C525.798 294.85 517.248 299.8 506.448 299.8ZM577.647 215.2C583.347 215.2 587.397 211 587.397 205.6C587.397 200.5 583.197 196.45 577.647 196.45C572.097 196.45 567.897 200.65 567.897 205.9C567.897 211.15 572.097 215.2 577.647 215.2ZM570.447 310H584.847V230.5H570.447V310ZM612.341 310H626.741V198.7H612.341V310ZM677.036 310.9C698.186 310.9 711.386 301.75 711.386 287.35C711.386 256.45 660.986 271.75 660.986 253C660.986 246.7 667.136 242.05 679.736 242.05C687.536 242.05 695.486 243.7 702.686 248.35L708.836 236.95C701.936 232.45 690.236 229.75 679.886 229.75C659.486 229.75 646.736 239.35 646.736 253.6C646.736 285.25 696.986 269.8 696.986 287.65C696.986 294.4 691.436 298.45 678.086 298.45C667.736 298.45 656.936 295 650.186 290.2L644.186 301.6C650.786 306.85 663.836 310.9 677.036 310.9Z" transform="translate(2759 870)" fill="#7C4198"/>
<line y1="-10" x2="590" y2="-10" transform="translate(2226 417)" stroke="#7C4198" stroke-width="20"/>
<ellipse cx="39.7482" cy="39.7173" rx="39.7482" ry="39.7173" transform="translate(3045 207)" stroke="#7C4198" stroke-width="20"/>
<ellipse cx="39.7482" cy="39.7173" rx="39.7482" ry="39.7173" transform="translate(3124.5 534.565)" stroke="#7C4198" stroke-width="20"/>
<path d="M0 0H248.734C270.686 0 288.482 17.782 288.482 39.7173C288.482 61.6526 270.686 79.4346 248.734 79.4346H0" transform="translate(3166.29 534.565)" stroke="#7C4198" stroke-width="20"/>
<path d="M0 0H248.734C270.686 0 288.482 17.782 288.482 39.7173V85.167M288.482 326.746V223.973" transform="translate(3079.42 207)" stroke="#7C4198" stroke-width="20"/>
<line y1="-10" x2="333.298" y2="-10" transform="translate(3116.3 246.308) rotate(90)" stroke="#7C4198" stroke-width="20"/>
<line x1="10" y1="-10" x2="143.256" y2="-10" transform="translate(3166.29 279.064)" stroke="#7C4198" stroke-width="20" stroke-linecap="round"/>
<line x1="10" y1="-10" x2="117.85" y2="-10" transform="translate(3166.29 318.372)" stroke="#7C4198" stroke-width="20" stroke-linecap="round"/>
<line x1="10" y1="-10" x2="100.639" y2="-10" transform="translate(3166.29 359.318)" stroke="#7C4198" stroke-width="20" stroke-linecap="round"/>
<line x1="10" y1="-10" x2="87.5266" y2="-10" transform="translate(3166.29 400.264)" stroke="#7C4198" stroke-width="20" stroke-linecap="round"/>
<line x1="10" y1="-10" x2="81.7897" y2="-10" transform="translate(3166.29 439.571)" stroke="#7C4198" stroke-width="20" stroke-linecap="round"/>
<path d="M0 203.091L202.429 0" transform="translate(3245.79 291.054)" stroke="#7C4198" stroke-width="20" stroke-linecap="round"/>
<path d="M0 204.434C5.46367 178.502 20.9805 119.758 39.3385 92.2429C62.2859 57.8485 142.602 -27.3185 190.955 8.71369L199.151 15.9688" transform="translate(3286.77 246.308)" stroke="#7C4198" stroke-width="20"/>
<path d="M0 204.593C5.45942 178.641 20.9642 119.852 39.3078 92.3147C62.2374 57.8935 142.491 -27.3398 190.807 8.72048" transform="translate(3493 451.561) scale(-1 1) rotate(-90)" stroke="#7C4198" stroke-width="20"/>
<circle cx="99.5" cy="99.5" r="89.5" transform="translate(3023 317)" fill="white" stroke="#7C4198" stroke-width="20"/>
<line x1="10" y1="-10" x2="73.7616" y2="-10" transform="translate(3045 457) rotate(146.689)" stroke="#7C4198" stroke-width="20" stroke-linecap="round"/>
<path d="M0 -15C-8.28427 -15 -15 -8.28427 -15 0C-15 8.28427 -8.28427 15 0 15V-15ZM51 15H66V-15H51V15ZM0 15H51V-15H0V15Z" transform="translate(3137 387)" fill="#7C4198"/>
<path d="M0 15L16 5L32 0V164L16 155L0 148V15Z" transform="translate(3063 334)" fill="#7C4198"/>
<path d="M0 -15C-8.28427 -15 -15 -8.28427 -15 0C-15 8.28427 -8.28427 15 0 15V-15ZM51 15H66V-15H51V15ZM0 15H51V-15H0V15Z" transform="translate(3137 445)" fill="#7C4198"/>
</svg>
