<svg width="3595" height="1184" viewBox="0 0 3595 1184" fill="none" xmlns="http://www.w3.org/2000/svg">
<line y1="-10" x2="590" y2="-10" transform="translate(826 411)" stroke="#4F4F4F" stroke-width="20"/>
<line y1="-10" x2="590" y2="-10" transform="translate(2211 411)" stroke="#4F4F4F" stroke-width="20"/>
<path d="M16.1455 145H60.3955C94.1455 145 117.096 123.7 117.096 92.5C117.096 61.3 94.1455 40 60.3955 40H16.1455V145ZM31.1455 131.95V53.05H59.4955C85.4455 53.05 102.096 68.95 102.096 92.5C102.096 116.05 85.4455 131.95 59.4955 131.95H31.1455ZM166.921 64.75C154.171 64.75 142.321 68.35 134.071 74.95L140.071 85.75C146.221 80.5 155.821 77.2 165.271 77.2C179.521 77.2 186.571 84.25 186.571 96.4V99.25H163.771C140.071 99.25 131.821 109.75 131.821 122.5C131.821 136.3 143.221 145.9 161.221 145.9C173.671 145.9 182.521 141.7 187.321 134.5V145H200.971V97C200.971 75.25 188.671 64.75 166.921 64.75ZM163.621 134.8C152.671 134.8 146.071 129.85 146.071 121.9C146.071 115.15 150.121 109.6 164.371 109.6H186.571V120.7C182.971 129.85 174.421 134.8 163.621 134.8ZM250.42 145.9C271.57 145.9 284.77 136.75 284.77 122.35C284.77 91.45 234.37 106.75 234.37 88C234.37 81.7 240.52 77.05 253.12 77.05C260.92 77.05 268.87 78.7 276.07 83.35L282.22 71.95C275.32 67.45 263.62 64.75 253.27 64.75C232.87 64.75 220.12 74.35 220.12 88.6C220.12 120.25 270.37 104.8 270.37 122.65C270.37 129.4 264.82 133.45 251.47 133.45C241.12 133.45 230.32 130 223.57 125.2L217.57 136.6C224.17 141.85 237.22 145.9 250.42 145.9ZM345.216 64.75C333.066 64.75 323.166 69.1 317.166 76.75V33.7H302.766V145H317.166V104.05C317.166 86.8 327.066 77.65 342.366 77.65C356.016 77.65 363.816 85.3 363.816 100.9V145H378.216V99.25C378.216 75.85 364.566 64.75 345.216 64.75ZM447.016 64.75C435.766 64.75 425.866 68.95 419.266 77.5V33.7H404.866V145H418.666V132.4C425.116 141.4 435.316 145.9 447.016 145.9C470.266 145.9 487.216 129.55 487.216 105.25C487.216 80.95 470.266 64.75 447.016 64.75ZM445.816 133.3C430.666 133.3 419.116 122.2 419.116 105.25C419.116 88.3 430.666 77.35 445.816 77.35C461.116 77.35 472.666 88.3 472.666 105.25C472.666 122.2 461.116 133.3 445.816 133.3ZM541.162 145.9C565.012 145.9 582.412 128.95 582.412 105.25C582.412 81.55 565.012 64.75 541.162 64.75C517.312 64.75 499.762 81.55 499.762 105.25C499.762 128.95 517.312 145.9 541.162 145.9ZM541.162 133.3C525.862 133.3 514.312 122.2 514.312 105.25C514.312 88.3 525.862 77.35 541.162 77.35C556.462 77.35 567.862 88.3 567.862 105.25C567.862 122.2 556.462 133.3 541.162 133.3ZM630.544 64.75C617.794 64.75 605.944 68.35 597.694 74.95L603.694 85.75C609.844 80.5 619.444 77.2 628.894 77.2C643.144 77.2 650.194 84.25 650.194 96.4V99.25H627.394C603.694 99.25 595.444 109.75 595.444 122.5C595.444 136.3 606.844 145.9 624.844 145.9C637.294 145.9 646.144 141.7 650.944 134.5V145H664.594V97C664.594 75.25 652.294 64.75 630.544 64.75ZM627.244 134.8C616.294 134.8 609.694 129.85 609.694 121.9C609.694 115.15 613.744 109.6 627.994 109.6H650.194V120.7C646.594 129.85 638.044 134.8 627.244 134.8ZM705.043 78.85V65.5H691.243V145H705.643V105.4C705.643 88 715.243 78.55 730.693 78.55C731.743 78.55 732.793 78.55 733.993 78.7V64.75C720.043 64.75 710.143 69.55 705.043 78.85ZM811.608 33.7V77.5C805.008 68.95 795.108 64.75 783.858 64.75C760.608 64.75 743.658 80.95 743.658 105.25C743.658 129.55 760.608 145.9 783.858 145.9C795.558 145.9 805.758 141.4 812.208 132.4V145H826.008V33.7H811.608ZM785.058 133.3C769.758 133.3 758.208 122.2 758.208 105.25C758.208 88.3 769.758 77.35 785.058 77.35C800.208 77.35 811.758 88.3 811.758 105.25C811.758 122.2 800.208 133.3 785.058 133.3Z" transform="translate(0 854)" fill="#7C4198"/>
<rect x="10" y="10" width="465" height="320" rx="20" transform="translate(183 195)" stroke="#7C4198" stroke-width="20"/>
<rect x="10" y="10" width="78" height="34" transform="translate(380 517)" stroke="#7C4198" stroke-width="20"/>
<rect x="10" y="10" width="182" height="34" rx="17" transform="translate(328 551)" stroke="#7C4198" stroke-width="20"/>
<line x1="10" y1="-10" x2="101" y2="-10" transform="translate(297 283)" stroke="#7C4198" stroke-width="20" stroke-linecap="round"/>
<line x1="10" y1="-10" x2="162" y2="-10" transform="translate(442 421)" stroke="#7C4198" stroke-width="20" stroke-linecap="round"/>
<line x1="10" y1="-10" x2="162" y2="-10" transform="translate(442 386)" stroke="#7C4198" stroke-width="20" stroke-linecap="round"/>
<line x1="10" y1="-10" x2="162" y2="-10" transform="translate(442 459)" stroke="#7C4198" stroke-width="20" stroke-linecap="round"/>
<line x1="10" y1="-10" x2="48" y2="-10" transform="translate(556 348)" stroke="#7C4198" stroke-width="20" stroke-linecap="round"/>
<line x1="10" y1="-10" x2="48" y2="-10" transform="translate(556 313.5)" stroke="#7C4198" stroke-width="20" stroke-linecap="round"/>
<line x1="10" y1="-10" x2="48" y2="-10" transform="translate(556 279)" stroke="#7C4198" stroke-width="20" stroke-linecap="round"/>
<path d="M0 7L10.973 21L29 0" transform="translate(243 257)" stroke="#7C4198" stroke-width="20" stroke-linecap="round"/>
<line x1="10" y1="-10" x2="101" y2="-10" transform="translate(297 341)" stroke="#7C4198" stroke-width="20" stroke-linecap="round"/>
<path d="M0 7L10.973 21L29 0" transform="translate(243 315)" stroke="#7C4198" stroke-width="20" stroke-linecap="round"/>
<line x1="10" y1="-10" x2="101" y2="-10" transform="translate(297 401)" stroke="#7C4198" stroke-width="20" stroke-linecap="round"/>
<path d="M0 7L10.973 21L29 0" transform="translate(243 375)" stroke="#7C4198" stroke-width="20" stroke-linecap="round"/>
<line x1="10" y1="-10" x2="101" y2="-10" transform="translate(297 459)" stroke="#7C4198" stroke-width="20" stroke-linecap="round"/>
<path d="M0 7L10.973 21L29 0" transform="translate(243 433)" stroke="#7C4198" stroke-width="20" stroke-linecap="round"/>
<rect width="72" height="69" transform="translate(451 269)" stroke="#7C4198" stroke-width="20" stroke-linecap="round" stroke-linejoin="round"/>
<circle cx="400" cy="400" r="390" transform="translate(2795)" stroke="#ED2C75" stroke-width="20"/>
<path d="M30.8428 131.95V98.05H83.4928V85.3H30.8428V53.05H89.9428V40H15.8428V145H92.0428V131.95H30.8428ZM173.806 33.7V77.5C167.206 68.95 157.306 64.75 146.056 64.75C122.806 64.75 105.856 80.95 105.856 105.25C105.856 129.55 122.806 145.9 146.056 145.9C157.756 145.9 167.956 141.4 174.406 132.4V145H188.206V33.7H173.806ZM147.256 133.3C131.956 133.3 120.406 122.2 120.406 105.25C120.406 88.3 131.956 77.35 147.256 77.35C162.406 77.35 173.956 88.3 173.956 105.25C173.956 122.2 162.406 133.3 147.256 133.3ZM222.652 50.2C228.352 50.2 232.402 46 232.402 40.6C232.402 35.5 228.202 31.45 222.652 31.45C217.102 31.45 212.902 35.65 212.902 40.9C212.902 46.15 217.102 50.2 222.652 50.2ZM215.452 145H229.852V65.5H215.452V145ZM297.546 130C294.546 132.4 290.496 133.75 286.296 133.75C278.346 133.75 273.846 128.95 273.846 120.4V77.35H296.646V65.5H273.846V48.1H259.446V65.5H245.946V77.35H259.446V121C259.446 137.05 268.596 145.9 284.646 145.9C291.096 145.9 297.696 144.1 302.046 140.35L297.546 130ZM350.869 145.9C374.719 145.9 392.119 128.95 392.119 105.25C392.119 81.55 374.719 64.75 350.869 64.75C327.019 64.75 309.469 81.55 309.469 105.25C309.469 128.95 327.019 145.9 350.869 145.9ZM350.869 133.3C335.569 133.3 324.019 122.2 324.019 105.25C324.019 88.3 335.569 77.35 350.869 77.35C366.169 77.35 377.569 88.3 377.569 105.25C377.569 122.2 366.169 133.3 350.869 133.3ZM425.834 78.85V65.5H412.034V145H426.434V105.4C426.434 88 436.034 78.55 451.484 78.55C452.534 78.55 453.584 78.55 454.784 78.7V64.75C440.834 64.75 430.934 69.55 425.834 78.85Z" transform="translate(2968 870)" fill="#ED2C75"/>
<rect x="10" y="10" width="264" height="381" rx="20" transform="translate(3033 199)" stroke="#ED2C75" stroke-width="20"/>
<line x1="10" y1="-10" x2="85" y2="-10" transform="translate(3089 426)" stroke="#ED2C75" stroke-width="20" stroke-linecap="round"/>
<line x1="10" y1="-10" x2="162" y2="-10" transform="translate(3089 390)" stroke="#ED2C75" stroke-width="20" stroke-linecap="round"/>
<line x1="10" y1="-10" x2="85" y2="-10" transform="translate(3089 463)" stroke="#ED2C75" stroke-width="20" stroke-linecap="round"/>
<line x1="10" y1="-10" x2="85" y2="-10" transform="translate(3089 500)" stroke="#ED2C75" stroke-width="20" stroke-linecap="round"/>
<line x1="10" y1="-10" x2="85" y2="-10" transform="translate(3089 538)" stroke="#ED2C75" stroke-width="20" stroke-linecap="round"/>
<line x1="10" y1="-10" x2="48" y2="-10" transform="translate(3203 352)" stroke="#ED2C75" stroke-width="20" stroke-linecap="round"/>
<line x1="10" y1="-10" x2="48" y2="-10" transform="translate(3203 317.5)" stroke="#ED2C75" stroke-width="20" stroke-linecap="round"/>
<line x1="10" y1="-10" x2="48" y2="-10" transform="translate(3203 283)" stroke="#ED2C75" stroke-width="20" stroke-linecap="round"/>
<rect width="72" height="69" transform="translate(3098 273)" stroke="#ED2C75" stroke-width="20" stroke-linecap="round" stroke-linejoin="round"/>
<circle cx="400" cy="400" r="390" transform="translate(26)" stroke="#7C4198" stroke-width="20"/>
<circle cx="400" cy="400" r="390" transform="translate(1411)" stroke="#61C4B9" stroke-width="20"/>
<path d="M160.207 90.55C168.457 86.5 174.307 78.55 174.307 67.15C174.307 50.2 160.807 40 136.657 40H89.5566V145H139.657C166.207 145 179.857 134.65 179.857 116.65C179.857 102.7 172.057 93.85 160.207 90.55ZM135.307 52.15C150.607 52.15 159.307 57.85 159.307 68.95C159.307 80.05 150.607 85.75 135.307 85.75H104.557V52.15H135.307ZM139.057 132.85H104.557V97.9H139.057C155.707 97.9 164.707 103.3 164.707 115.45C164.707 127.6 155.707 132.85 139.057 132.85ZM235.032 145.9C258.882 145.9 276.282 128.95 276.282 105.25C276.282 81.55 258.882 64.75 235.032 64.75C211.182 64.75 193.632 81.55 193.632 105.25C193.632 128.95 211.182 145.9 235.032 145.9ZM235.032 133.3C219.732 133.3 208.182 122.2 208.182 105.25C208.182 88.3 219.732 77.35 235.032 77.35C250.332 77.35 261.732 88.3 261.732 105.25C261.732 122.2 250.332 133.3 235.032 133.3ZM330.247 145.9C354.097 145.9 371.497 128.95 371.497 105.25C371.497 81.55 354.097 64.75 330.247 64.75C306.397 64.75 288.847 81.55 288.847 105.25C288.847 128.95 306.397 145.9 330.247 145.9ZM330.247 133.3C314.947 133.3 303.397 122.2 303.397 105.25C303.397 88.3 314.947 77.35 330.247 77.35C345.547 77.35 356.947 88.3 356.947 105.25C356.947 122.2 345.547 133.3 330.247 133.3ZM452.162 145H469.862L433.112 98.35L466.562 65.5H449.162L405.812 105.1V33.7H391.412V145H405.812V123.25L422.312 107.95L452.162 145ZM56.218 229.75C44.968 229.75 35.068 233.95 28.468 242.5V198.7H14.068V310H27.868V297.4C34.318 306.4 44.518 310.9 56.218 310.9C79.468 310.9 96.418 294.55 96.418 270.25C96.418 245.95 79.468 229.75 56.218 229.75ZM55.018 298.3C39.868 298.3 28.318 287.2 28.318 270.25C28.318 253.3 39.868 242.35 55.018 242.35C70.318 242.35 81.868 253.3 81.868 270.25C81.868 287.2 70.318 298.3 55.018 298.3ZM176.014 230.5V271.6C176.014 288.7 166.414 298 151.414 298C137.764 298 129.964 290.2 129.964 274.6V230.5H115.564V276.25C115.564 299.65 129.214 310.9 149.764 310.9C161.014 310.9 170.914 306.25 176.764 298V310H190.414V230.5H176.014ZM225.028 215.2C230.728 215.2 234.778 211 234.778 205.6C234.778 200.5 230.578 196.45 225.028 196.45C219.478 196.45 215.278 200.65 215.278 205.9C215.278 211.15 219.478 215.2 225.028 215.2ZM217.828 310H232.228V230.5H217.828V310ZM259.722 310H274.122V198.7H259.722V310ZM362.217 198.7V242.5C355.617 233.95 345.717 229.75 334.467 229.75C311.217 229.75 294.267 245.95 294.267 270.25C294.267 294.55 311.217 310.9 334.467 310.9C346.167 310.9 356.367 306.4 362.817 297.4V310H376.617V198.7H362.217ZM335.667 298.3C320.367 298.3 308.817 287.2 308.817 270.25C308.817 253.3 320.367 242.35 335.667 242.35C350.817 242.35 362.367 253.3 362.367 270.25C362.367 287.2 350.817 298.3 335.667 298.3ZM475.713 270.7C475.713 246.25 459.363 229.75 436.413 229.75C413.463 229.75 396.513 246.7 396.513 270.25C396.513 293.95 413.613 310.9 439.263 310.9C452.463 310.9 463.413 306.4 470.613 298L462.663 288.7C456.813 295.15 449.013 298.3 439.713 298.3C423.963 298.3 412.713 289 410.913 275.05H475.413C475.563 273.7 475.713 271.9 475.713 270.7ZM436.413 241.9C450.363 241.9 460.413 251.35 461.913 264.7H410.913C412.413 251.2 422.613 241.9 436.413 241.9ZM509.509 243.85V230.5H495.709V310H510.109V270.4C510.109 253 519.709 243.55 535.159 243.55C536.209 243.55 537.259 243.55 538.459 243.7V229.75C524.509 229.75 514.609 234.55 509.509 243.85Z" transform="translate(1539 854)" fill="#71C8BE"/>
<path d="M9 148.428L143 0.428334C173.4 -3.57167 183.667 21.4283 185 34.4283L51 186.428L0 198.428L9 148.428Z" transform="translate(3227 299.572)" fill="white" stroke="#ED2C75" stroke-width="20"/>
<path d="M0 0C10.6667 3 33.8 15 41 39" transform="translate(3239 446)" stroke="#ED2C75" stroke-width="10"/>
<path d="M0.8384 42.0898C2.20389 44.7602 4.92038 46.3029 7.72912 46.3029C8.902 46.3029 10.1056 46.0325 11.2251 45.4619C11.68 45.2304 57.1009 22.1575 79.5021 15.0814C83.5615 13.7928 85.8141 9.45587 84.5255 5.39743C83.2441 1.33808 78.9387 -0.922647 74.8414 0.358729C51.2438 7.82091 6.13215 30.7392 4.21866 31.7113C0.421526 33.6401 -1.09046 38.2864 0.8384 42.0898Z" transform="translate(1841.36 310.48)" fill="#61C4B9" stroke="#61C4B9" stroke-width="4"/>
<path d="M7.72896 46.3029C8.90183 46.3029 10.1054 46.0325 11.225 45.4619C11.6798 45.2304 57.1008 22.1575 79.5019 15.0814C83.5613 13.7928 85.8139 9.45587 84.5253 5.39743C83.2439 1.33808 78.9386 -0.922642 74.8412 0.358734C51.2436 7.82092 6.13198 30.7392 4.21849 31.7113C0.422264 33.6401 -1.09063 38.2855 0.838234 42.0898C2.20372 44.7593 4.92022 46.3029 7.72896 46.3029Z" transform="translate(1841.36 217.883)" fill="#61C4B9" stroke="#61C4B9" stroke-width="4"/>
<path d="M455.283 115.753C451.015 115.753 447.566 119.21 447.566 123.469V424.416C447.566 437.179 437.18 447.566 424.416 447.566H239.217V429.81C250.468 425.874 279.775 416.7 308.667 416.7C375.887 416.7 421.531 431.585 421.986 431.739C424.308 432.51 426.901 432.125 428.931 430.674C430.945 429.223 432.133 426.893 432.133 424.415V84.8865C432.133 81.2675 429.625 78.1341 426.09 77.3547C426.09 77.3547 420.041 76.0045 409.7 74.1055C405.525 73.3342 401.49 76.1122 400.718 80.2945C399.946 84.4922 402.716 88.5127 406.907 89.284C410.85 90.0093 414.153 90.6495 416.699 91.1595V414.16C399.213 409.576 360.383 401.266 308.666 401.266C275.044 401.266 242.017 412.308 231.8 416.051C222.717 412.039 195.262 401.266 162.049 401.266C108.896 401.266 65.112 410.032 46.299 414.485V90.8584C61.7091 87.0694 107.222 77.1693 162.049 77.1693C190.184 77.1693 214.313 85.9273 223.782 89.8863V393.55C223.782 396.328 225.279 398.898 227.694 400.263C230.11 401.637 233.088 401.598 235.473 400.163C236.237 399.708 312.693 354.041 380.554 331.423C383.71 330.366 385.832 327.426 385.832 324.1V7.71996C385.832 5.18886 384.589 2.81963 382.506 1.37729C380.438 -0.065955 377.784 -0.397829 375.399 0.490182C313.658 23.6472 251.185 62.5234 250.559 62.9096C246.948 65.1703 245.844 69.9314 248.105 73.5431C250.359 77.1548 255.12 78.258 258.739 75.9973C259.309 75.6347 313.658 41.8207 370.398 19.0028V318.576C317.724 336.88 262.728 366.767 239.215 380.146V84.8865C239.215 81.962 237.564 79.2916 234.948 77.9804C233.62 77.3248 201.998 61.7367 162.049 61.7367C92.3213 61.7367 38.7138 76.8229 36.4603 77.4704C33.1497 78.4118 30.8654 81.4447 30.8654 84.8865V424.417C30.8654 426.832 32.0075 429.116 33.9292 430.575C35.2874 431.601 36.9233 432.134 38.5827 432.134C39.2925 432.134 40.0024 432.034 40.6969 431.833C41.2295 431.686 94.5902 416.7 162.049 416.7C190.261 416.7 214.368 425.482 223.782 429.425V447.567H38.5827C25.8194 447.567 15.4327 437.18 15.4327 424.417V123.47C15.4327 119.211 11.9756 115.753 7.71635 115.753C3.45712 115.753 0 119.211 0 123.47V424.417C0 445.691 17.3082 463 38.5836 463H424.416C445.691 463 463 445.692 463 424.417V123.47C462.999 119.21 459.55 115.753 455.283 115.753Z" transform="translate(1579 133)" fill="#61C4B9" stroke="#61C4B9" stroke-width="4"/>
<path d="M0.8384 42.0898C2.20389 44.7602 4.92038 46.3029 7.72912 46.3029C8.902 46.3029 10.1056 46.0325 11.2251 45.4619C11.68 45.2304 57.1009 22.1575 79.5021 15.0814C83.5615 13.7928 85.8141 9.45587 84.5255 5.39743C83.2441 1.33808 78.9387 -0.922644 74.8414 0.358732C51.2438 7.82092 6.13215 30.7392 4.21866 31.7113C0.421526 33.6401 -1.09046 38.2864 0.8384 42.0898Z" transform="translate(1841.36 264.182)" fill="#61C4B9" stroke="#61C4B9" stroke-width="4"/>
<path d="M0.8384 42.0898C2.20389 44.7602 4.92038 46.3029 7.72912 46.3029C8.902 46.3029 10.1056 46.0325 11.2251 45.4619C11.68 45.2304 57.1009 22.1575 79.5021 15.0815C83.5615 13.7928 85.8141 9.45587 84.5255 5.39742C83.2441 1.33808 78.9387 -0.922636 74.8414 0.35874C51.2438 7.82092 6.13215 30.7392 4.21866 31.7113C0.421526 33.6401 -1.09046 38.2864 0.8384 42.0898Z" transform="translate(1841.36 356.781)" fill="#61C4B9" stroke="#61C4B9" stroke-width="4"/>
<path d="M109.795 4.2696C62.1447 -6.91192 7.99645 7.33333 5.72034 7.94282C1.60761 9.04605 -0.838508 13.2745 0.264732 17.3953C1.19073 20.8443 4.30784 23.1132 7.7116 23.1132C8.37536 23.1132 9.04634 23.0282 9.71824 22.8509C10.2355 22.7044 62.369 8.99179 106.277 19.2934C110.405 20.2583 114.58 17.6883 115.552 13.5367C116.524 9.3933 113.946 5.24171 109.795 4.2696Z" transform="translate(1656.16 271.939)" fill="#61C4B9" stroke="#61C4B9" stroke-width="4"/>
<path d="M109.795 4.26605C62.1447 -6.90733 7.99645 7.32979 5.72034 7.93928C1.60761 9.04251 -0.838508 13.2719 0.264732 17.3918C1.19073 20.8407 4.30784 23.1096 7.7116 23.1096C8.37536 23.1096 9.04634 23.0246 9.71824 22.8474C10.2355 22.7009 62.369 8.98824 106.277 19.2899C110.405 20.2548 114.58 17.6848 115.552 13.5332C116.524 9.38975 113.946 5.23816 109.795 4.26605Z" transform="translate(1656.16 318.242)" fill="#61C4B9" stroke="#61C4B9" stroke-width="4"/>
<path d="M0.8384 42.0897C2.20389 44.7601 4.92038 46.3028 7.72912 46.3028C8.902 46.3028 10.1056 46.0324 11.2251 45.4618C11.68 45.2303 57.1009 22.1574 79.5021 15.0814C83.5615 13.7928 85.8141 9.4558 84.5255 5.39736C83.2441 1.33891 78.9387 -0.922731 74.8414 0.358645C51.2438 7.82083 6.13215 30.7391 4.21866 31.7112C0.421526 33.6401 -1.09046 38.2863 0.8384 42.0897Z" transform="translate(1841.36 403.08)" fill="#61C4B9" stroke="#61C4B9" stroke-width="4"/>
<path d="M109.795 4.26743C62.1447 -6.90595 7.99645 7.32303 5.72034 7.94066C1.60761 9.04389 -0.838508 13.2732 0.264732 17.3932C1.19073 20.8421 4.30784 23.1191 7.7116 23.1191C8.37536 23.1191 9.04634 23.0269 9.71824 22.8487C10.2355 22.7022 62.369 8.98964 106.277 19.2913C110.405 20.2562 114.58 17.6862 115.552 13.5346C116.524 9.39114 113.946 5.23954 109.795 4.26743Z" transform="translate(1656.16 364.541)" fill="#61C4B9" stroke="#61C4B9" stroke-width="4"/>
<path d="M109.795 4.26959C62.1447 -6.91193 7.99645 7.33333 5.72034 7.94282C1.60761 9.04605 -0.838508 13.2754 0.264732 17.3953C1.19073 20.8443 4.30784 23.1213 7.7116 23.1213C8.37536 23.1213 9.04634 23.029 9.71824 22.8509C10.2355 22.7044 62.369 8.99179 106.277 19.2934C110.405 20.2502 114.58 17.6883 115.552 13.5367C116.524 9.3933 113.946 5.2417 109.795 4.26959Z" transform="translate(1656.16 457.139)" fill="#61C4B9" stroke="#61C4B9" stroke-width="4"/>
<path d="M109.795 4.27099C62.1447 -6.91053 7.99645 7.32659 5.72034 7.94421C1.60761 9.04745 -0.838508 13.2768 0.264732 17.3967C1.19073 20.8457 4.30784 23.1227 7.7116 23.1227C8.37536 23.1227 9.04634 23.0304 9.71824 22.8523C10.2355 22.7058 62.369 8.99316 106.277 19.2948C110.405 20.2597 114.58 17.6897 115.552 13.5381C116.524 9.39467 113.946 5.2431 109.795 4.27099Z" transform="translate(1656.16 410.836)" fill="#61C4B9" stroke="#61C4B9" stroke-width="4"/>
</svg>
