<svg width="3589" height="1228" viewBox="0 0 3589 1228" fill="none" xmlns="http://www.w3.org/2000/svg">
<circle cx="400" cy="400" r="390" transform="translate(1410)" stroke="#ED2C75" stroke-width="20"/>
<path d="M94.202 145H109.952L62.252 40H47.402L-0.148047 145H15.302L26.852 118.75H82.652L94.202 145ZM32.102 106.75L54.752 55.3L77.4019 106.75H32.102ZM137.315 78.85V65.5H123.515V145H137.915V105.4C137.915 88 147.515 78.55 162.965 78.55C164.015 78.55 165.065 78.55 166.265 78.7V64.75C152.315 64.75 142.415 69.55 137.315 78.85ZM227.436 130C224.436 132.4 220.386 133.75 216.186 133.75C208.236 133.75 203.736 128.95 203.736 120.4V77.35H226.536V65.5H203.736V48.1H189.336V65.5H175.836V77.35H189.336V121C189.336 137.05 198.486 145.9 214.536 145.9C220.986 145.9 227.586 144.1 231.936 140.35L227.436 130ZM256.545 50.2C262.245 50.2 266.295 46 266.295 40.6C266.295 35.5 262.095 31.45 256.545 31.45C250.995 31.45 246.795 35.65 246.795 40.9C246.795 46.15 250.995 50.2 256.545 50.2ZM249.345 145H263.745V65.5H249.345V145ZM325.89 145.9C340.14 145.9 351.99 139.9 358.29 128.8L347.34 121.9C342.24 129.7 334.44 133.3 325.74 133.3C310.14 133.3 298.44 122.5 298.44 105.25C298.44 88.3 310.14 77.35 325.74 77.35C334.44 77.35 342.24 80.95 347.34 88.75L358.29 81.7C351.99 70.6 340.14 64.75 325.89 64.75C301.44 64.75 283.89 81.55 283.89 105.25C283.89 128.95 301.44 145.9 325.89 145.9ZM375.908 145H390.308V33.7H375.908V145ZM489.652 105.7C489.652 81.25 473.302 64.75 450.352 64.75C427.402 64.75 410.452 81.7 410.452 105.25C410.452 128.95 427.552 145.9 453.202 145.9C466.402 145.9 477.352 141.4 484.552 133L476.602 123.7C470.752 130.15 462.952 133.3 453.652 133.3C437.902 133.3 426.652 124 424.852 110.05H489.352C489.502 108.7 489.652 106.9 489.652 105.7ZM450.352 76.9C464.302 76.9 474.352 86.35 475.852 99.7H424.852C426.352 86.2 436.552 76.9 450.352 76.9ZM108.924 223H67.9736V328H82.9736V296.2H108.924C136.224 296.2 152.724 282.4 152.724 259.6C152.724 236.8 136.224 223 108.924 223ZM108.474 283.15H82.9736V236.05H108.474C127.674 236.05 137.724 244.6 137.724 259.6C137.724 274.6 127.674 283.15 108.474 283.15ZM200.878 247.75C188.128 247.75 176.278 251.35 168.028 257.95L174.028 268.75C180.178 263.5 189.778 260.2 199.228 260.2C213.478 260.2 220.528 267.25 220.528 279.4V282.25H197.728C174.028 282.25 165.778 292.75 165.778 305.5C165.778 319.3 177.178 328.9 195.178 328.9C207.628 328.9 216.478 324.7 221.278 317.5V328H234.928V280C234.928 258.25 222.628 247.75 200.878 247.75ZM197.578 317.8C186.628 317.8 180.028 312.85 180.028 304.9C180.028 298.15 184.078 292.6 198.328 292.6H220.528V303.7C216.928 312.85 208.378 317.8 197.578 317.8ZM324.416 248.5V260.8C317.666 252.1 306.866 247.75 295.016 247.75C272.066 247.75 254.666 263.2 254.666 286.15C254.666 309.1 272.066 324.7 295.016 324.7C306.416 324.7 316.766 320.65 323.666 312.4V318.7C323.666 336.7 315.116 345.4 296.366 345.4C284.666 345.4 273.116 341.35 265.766 335.05L258.866 346.15C267.566 353.95 282.266 358 296.816 358C323.816 358 338.066 345.25 338.066 317.2V248.5H324.416ZM296.666 312.1C280.616 312.1 269.216 301.45 269.216 286.15C269.216 270.7 280.616 260.35 296.666 260.35C312.566 260.35 323.966 270.7 323.966 286.15C323.966 301.45 312.566 312.1 296.666 312.1ZM437.431 288.7C437.431 264.25 421.081 247.75 398.131 247.75C375.181 247.75 358.231 264.7 358.231 288.25C358.231 311.95 375.331 328.9 400.981 328.9C414.181 328.9 425.131 324.4 432.331 316L424.381 306.7C418.531 313.15 410.731 316.3 401.431 316.3C385.681 316.3 374.431 307 372.631 293.05H437.131C437.281 291.7 437.431 289.9 437.431 288.7ZM398.131 259.9C412.081 259.9 422.131 269.35 423.631 282.7H372.631C374.131 269.2 384.331 259.9 398.131 259.9Z" transform="translate(1565 862)" fill="#ED2C75"/>
<rect x="10" y="10" width="264" height="381" rx="20" transform="translate(1668 199)" stroke="#ED2C75" stroke-width="20"/>
<line x1="10" y1="-10" x2="162" y2="-10" transform="translate(1724 426)" stroke="#ED2C75" stroke-width="20" stroke-linecap="round"/>
<line x1="10" y1="-10" x2="162" y2="-10" transform="translate(1724 390)" stroke="#ED2C75" stroke-width="20" stroke-linecap="round"/>
<line x1="10" y1="-10" x2="162" y2="-10" transform="translate(1724 463)" stroke="#ED2C75" stroke-width="20" stroke-linecap="round"/>
<line x1="10" y1="-10" x2="162" y2="-10" transform="translate(1724 500)" stroke="#ED2C75" stroke-width="20" stroke-linecap="round"/>
<line x1="10" y1="-10" x2="162" y2="-10" transform="translate(1724 463)" stroke="#ED2C75" stroke-width="20" stroke-linecap="round"/>
<line x1="10" y1="-10" x2="162" y2="-10" transform="translate(1724 500)" stroke="#ED2C75" stroke-width="20" stroke-linecap="round"/>
<line x1="10" y1="-10" x2="162" y2="-10" transform="translate(1724 538)" stroke="#ED2C75" stroke-width="20" stroke-linecap="round"/>
<line x1="10" y1="-10" x2="48" y2="-10" transform="translate(1838 352)" stroke="#ED2C75" stroke-width="20" stroke-linecap="round"/>
<line x1="10" y1="-10" x2="48" y2="-10" transform="translate(1838 317.5)" stroke="#ED2C75" stroke-width="20" stroke-linecap="round"/>
<line x1="10" y1="-10" x2="48" y2="-10" transform="translate(1838 283)" stroke="#ED2C75" stroke-width="20" stroke-linecap="round"/>
<rect width="72" height="69" transform="translate(1733 273)" stroke="#ED2C75" stroke-width="20" stroke-linecap="round" stroke-linejoin="round"/>
<line y1="-10" x2="590" y2="-10" transform="translate(826 408)" stroke="#ED2C75" stroke-width="20"/>
<line y1="-10" x2="590" y2="-10" transform="translate(2210 408)" stroke="#61C4B9" stroke-width="20"/>
<path d="M16.1455 145H60.3955C94.1455 145 117.096 123.7 117.096 92.5C117.096 61.3 94.1455 40 60.3955 40H16.1455V145ZM31.1455 131.95V53.05H59.4955C85.4455 53.05 102.096 68.95 102.096 92.5C102.096 116.05 85.4455 131.95 59.4955 131.95H31.1455ZM166.921 64.75C154.171 64.75 142.321 68.35 134.071 74.95L140.071 85.75C146.221 80.5 155.821 77.2 165.271 77.2C179.521 77.2 186.571 84.25 186.571 96.4V99.25H163.771C140.071 99.25 131.821 109.75 131.821 122.5C131.821 136.3 143.221 145.9 161.221 145.9C173.671 145.9 182.521 141.7 187.321 134.5V145H200.971V97C200.971 75.25 188.671 64.75 166.921 64.75ZM163.621 134.8C152.671 134.8 146.071 129.85 146.071 121.9C146.071 115.15 150.121 109.6 164.371 109.6H186.571V120.7C182.971 129.85 174.421 134.8 163.621 134.8ZM250.42 145.9C271.57 145.9 284.77 136.75 284.77 122.35C284.77 91.45 234.37 106.75 234.37 88C234.37 81.7 240.52 77.05 253.12 77.05C260.92 77.05 268.87 78.7 276.07 83.35L282.22 71.95C275.32 67.45 263.62 64.75 253.27 64.75C232.87 64.75 220.12 74.35 220.12 88.6C220.12 120.25 270.37 104.8 270.37 122.65C270.37 129.4 264.82 133.45 251.47 133.45C241.12 133.45 230.32 130 223.57 125.2L217.57 136.6C224.17 141.85 237.22 145.9 250.42 145.9ZM345.216 64.75C333.066 64.75 323.166 69.1 317.166 76.75V33.7H302.766V145H317.166V104.05C317.166 86.8 327.066 77.65 342.366 77.65C356.016 77.65 363.816 85.3 363.816 100.9V145H378.216V99.25C378.216 75.85 364.566 64.75 345.216 64.75ZM447.016 64.75C435.766 64.75 425.866 68.95 419.266 77.5V33.7H404.866V145H418.666V132.4C425.116 141.4 435.316 145.9 447.016 145.9C470.266 145.9 487.216 129.55 487.216 105.25C487.216 80.95 470.266 64.75 447.016 64.75ZM445.816 133.3C430.666 133.3 419.116 122.2 419.116 105.25C419.116 88.3 430.666 77.35 445.816 77.35C461.116 77.35 472.666 88.3 472.666 105.25C472.666 122.2 461.116 133.3 445.816 133.3ZM541.162 145.9C565.012 145.9 582.412 128.95 582.412 105.25C582.412 81.55 565.012 64.75 541.162 64.75C517.312 64.75 499.762 81.55 499.762 105.25C499.762 128.95 517.312 145.9 541.162 145.9ZM541.162 133.3C525.862 133.3 514.312 122.2 514.312 105.25C514.312 88.3 525.862 77.35 541.162 77.35C556.462 77.35 567.862 88.3 567.862 105.25C567.862 122.2 556.462 133.3 541.162 133.3ZM630.544 64.75C617.794 64.75 605.944 68.35 597.694 74.95L603.694 85.75C609.844 80.5 619.444 77.2 628.894 77.2C643.144 77.2 650.194 84.25 650.194 96.4V99.25H627.394C603.694 99.25 595.444 109.75 595.444 122.5C595.444 136.3 606.844 145.9 624.844 145.9C637.294 145.9 646.144 141.7 650.944 134.5V145H664.594V97C664.594 75.25 652.294 64.75 630.544 64.75ZM627.244 134.8C616.294 134.8 609.694 129.85 609.694 121.9C609.694 115.15 613.744 109.6 627.994 109.6H650.194V120.7C646.594 129.85 638.044 134.8 627.244 134.8ZM705.043 78.85V65.5H691.243V145H705.643V105.4C705.643 88 715.243 78.55 730.693 78.55C731.743 78.55 732.793 78.55 733.993 78.7V64.75C720.043 64.75 710.143 69.55 705.043 78.85ZM811.608 33.7V77.5C805.008 68.95 795.108 64.75 783.858 64.75C760.608 64.75 743.658 80.95 743.658 105.25C743.658 129.55 760.608 145.9 783.858 145.9C795.558 145.9 805.758 141.4 812.208 132.4V145H826.008V33.7H811.608ZM785.058 133.3C769.758 133.3 758.208 122.2 758.208 105.25C758.208 88.3 769.758 77.35 785.058 77.35C800.208 77.35 811.758 88.3 811.758 105.25C811.758 122.2 800.208 133.3 785.058 133.3Z" transform="translate(0 862)" fill="#4F4F4F"/>
<rect x="10" y="10" width="465" height="320" rx="20" transform="translate(183 203)" stroke="#7C4198" stroke-width="20"/>
<rect x="10" y="10" width="78" height="34" transform="translate(380 525)" stroke="#7C4198" stroke-width="20"/>
<rect x="10" y="10" width="182" height="34" rx="17" transform="translate(328 559)" stroke="#7C4198" stroke-width="20"/>
<line x1="10" y1="-10" x2="101" y2="-10" transform="translate(297 291)" stroke="#61C4B9" stroke-width="20" stroke-linecap="round"/>
<line x1="10" y1="-10" x2="162" y2="-10" transform="translate(442 429)" stroke="#ED2C75" stroke-width="20" stroke-linecap="round"/>
<line x1="10" y1="-10" x2="162" y2="-10" transform="translate(442 394)" stroke="#ED2C75" stroke-width="20" stroke-linecap="round"/>
<line x1="10" y1="-10" x2="162" y2="-10" transform="translate(442 467)" stroke="#ED2C75" stroke-width="20" stroke-linecap="round"/>
<line x1="10" y1="-10" x2="48" y2="-10" transform="translate(556 356)" stroke="#ED2C75" stroke-width="20" stroke-linecap="round"/>
<line x1="10" y1="-10" x2="48" y2="-10" transform="translate(556 321.5)" stroke="#ED2C75" stroke-width="20" stroke-linecap="round"/>
<line x1="10" y1="-10" x2="48" y2="-10" transform="translate(556 287)" stroke="#ED2C75" stroke-width="20" stroke-linecap="round"/>
<path d="M0 7L10.973 21L29 0" transform="translate(243 265)" stroke="#61C4B9" stroke-width="20" stroke-linecap="round"/>
<line x1="10" y1="-10" x2="101" y2="-10" transform="translate(297 349)" stroke="#61C4B9" stroke-width="20" stroke-linecap="round"/>
<path d="M0 7L10.973 21L29 0" transform="translate(243 323)" stroke="#61C4B9" stroke-width="20" stroke-linecap="round"/>
<line x1="10" y1="-10" x2="101" y2="-10" transform="translate(297 409)" stroke="#61C4B9" stroke-width="20" stroke-linecap="round"/>
<path d="M0 7L10.973 21L29 0" transform="translate(243 383)" stroke="#61C4B9" stroke-width="20" stroke-linecap="round"/>
<line x1="10" y1="-10" x2="101" y2="-10" transform="translate(297 467)" stroke="#61C4B9" stroke-width="20" stroke-linecap="round"/>
<path d="M0 7L10.973 21L29 0" transform="translate(243 441)" stroke="#61C4B9" stroke-width="20" stroke-linecap="round"/>
<rect width="72" height="69" transform="translate(451 277)" stroke="#ED2C75" stroke-width="20" stroke-linecap="round" stroke-linejoin="round"/>
<circle cx="400" cy="400" r="390" transform="translate(26 8)" stroke="#4F4F4F" stroke-width="20"/>
<circle cx="400" cy="400" r="390" transform="translate(2789 8)" stroke="#61C4B9" stroke-width="20"/>
<path d="M102.543 145L77.6432 109.75C92.3432 104.5 100.743 92.8 100.743 76.6C100.743 53.8 84.2432 40 56.9432 40H15.9932V145H30.9932V113.05H56.9432C59.1932 113.05 61.4432 112.9 63.5432 112.75L86.1932 145H102.543ZM56.4932 100.3H30.9932V53.05H56.4932C75.6932 53.05 85.7432 61.6 85.7432 76.6C85.7432 91.6 75.6932 100.3 56.4932 100.3ZM194.728 105.7C194.728 81.25 178.378 64.75 155.428 64.75C132.478 64.75 115.528 81.7 115.528 105.25C115.528 128.95 132.628 145.9 158.278 145.9C171.478 145.9 182.428 141.4 189.628 133L181.678 123.7C175.828 130.15 168.028 133.3 158.728 133.3C142.978 133.3 131.728 124 129.928 110.05H194.428C194.578 108.7 194.728 106.9 194.728 105.7ZM155.428 76.9C169.378 76.9 179.428 86.35 180.928 99.7H129.928C131.428 86.2 141.628 76.9 155.428 76.9ZM269.508 65.5L241.608 129.25L214.308 65.5H199.308L234.108 145H248.808L283.608 65.5H269.508ZM304.247 50.2C309.947 50.2 313.997 46 313.997 40.6C313.997 35.5 309.797 31.45 304.247 31.45C298.697 31.45 294.497 35.65 294.497 40.9C294.497 46.15 298.697 50.2 304.247 50.2ZM297.047 145H311.447V65.5H297.047V145ZM410.792 105.7C410.792 81.25 394.442 64.75 371.492 64.75C348.542 64.75 331.592 81.7 331.592 105.25C331.592 128.95 348.692 145.9 374.342 145.9C387.542 145.9 398.492 141.4 405.692 133L397.742 123.7C391.892 130.15 384.092 133.3 374.792 133.3C359.042 133.3 347.792 124 345.992 110.05H410.492C410.642 108.7 410.792 106.9 410.792 105.7ZM371.492 76.9C385.442 76.9 395.492 86.35 396.992 99.7H345.992C347.492 86.2 357.692 76.9 371.492 76.9ZM536.723 65.5L513.023 129.1L489.473 65.5H477.323L453.323 128.8L430.223 65.5H416.573L446.123 145H459.923L483.173 84.7L506.123 145H519.923L549.623 65.5H536.723ZM633.888 105.7C633.888 81.25 617.538 64.75 594.588 64.75C571.638 64.75 554.688 81.7 554.688 105.25C554.688 128.95 571.788 145.9 597.438 145.9C610.638 145.9 621.588 141.4 628.788 133L620.838 123.7C614.988 130.15 607.188 133.3 597.888 133.3C582.138 133.3 570.888 124 569.088 110.05H633.588C633.738 108.7 633.888 106.9 633.888 105.7ZM594.588 76.9C608.538 76.9 618.588 86.35 620.088 99.7H569.088C570.588 86.2 580.788 76.9 594.588 76.9ZM667.683 78.85V65.5H653.883V145H668.283V105.4C668.283 88 677.883 78.55 693.333 78.55C694.383 78.55 695.433 78.55 696.633 78.7V64.75C682.683 64.75 672.783 69.55 667.683 78.85ZM211.924 205H170.974V310H185.974V278.2H211.924C239.224 278.2 255.724 264.4 255.724 241.6C255.724 218.8 239.224 205 211.924 205ZM211.474 265.15H185.974V218.05H211.474C230.674 218.05 240.724 226.6 240.724 241.6C240.724 256.6 230.674 265.15 211.474 265.15ZM303.878 229.75C291.128 229.75 279.278 233.35 271.028 239.95L277.028 250.75C283.178 245.5 292.778 242.2 302.228 242.2C316.478 242.2 323.528 249.25 323.528 261.4V264.25H300.728C277.028 264.25 268.778 274.75 268.778 287.5C268.778 301.3 280.178 310.9 298.178 310.9C310.628 310.9 319.478 306.7 324.278 299.5V310H337.928V262C337.928 240.25 325.628 229.75 303.878 229.75ZM300.578 299.8C289.628 299.8 283.028 294.85 283.028 286.9C283.028 280.15 287.078 274.6 301.328 274.6H323.528V285.7C319.928 294.85 311.378 299.8 300.578 299.8ZM427.416 230.5V242.8C420.666 234.1 409.866 229.75 398.016 229.75C375.066 229.75 357.666 245.2 357.666 268.15C357.666 291.1 375.066 306.7 398.016 306.7C409.416 306.7 419.766 302.65 426.666 294.4V300.7C426.666 318.7 418.116 327.4 399.366 327.4C387.666 327.4 376.116 323.35 368.766 317.05L361.866 328.15C370.566 335.95 385.266 340 399.816 340C426.816 340 441.066 327.25 441.066 299.2V230.5H427.416ZM399.666 294.1C383.616 294.1 372.216 283.45 372.216 268.15C372.216 252.7 383.616 242.35 399.666 242.35C415.566 242.35 426.966 252.7 426.966 268.15C426.966 283.45 415.566 294.1 399.666 294.1ZM540.431 270.7C540.431 246.25 524.081 229.75 501.131 229.75C478.181 229.75 461.231 246.7 461.231 270.25C461.231 293.95 478.331 310.9 503.981 310.9C517.181 310.9 528.131 306.4 535.331 298L527.381 288.7C521.531 295.15 513.731 298.3 504.431 298.3C488.681 298.3 477.431 289 475.631 275.05H540.131C540.281 273.7 540.431 271.9 540.431 270.7ZM501.131 241.9C515.081 241.9 525.131 251.35 526.631 264.7H475.631C477.131 251.2 487.331 241.9 501.131 241.9Z" transform="translate(2846 865)" fill="#61C4B9"/>
<path d="M243.599 186.172C243.748 182.976 245.233 179.988 247.693 177.945C271.367 158.283 284.406 132.947 284.406 106.605C284.406 47.8234 219.615 0 142.203 0C64.7916 0 0 46.6732 0 106.605C0 117.018 2.01201 127.085 5.74164 136.606C5.82917 136.817 5.9224 137.026 5.99515 137.239C23.5941 181.138 77.9914 213.212 142.203 213.212C151.457 213.212 160.756 212.528 169.841 211.179C173.004 210.71 176.048 211.588 178.404 213.386L243.221 247.573L243.585 186.791C243.585 186.585 243.587 186.379 243.599 186.172Z" transform="translate(2979 170)" fill="white" stroke="#61C4B9" stroke-width="20"/>
<line x1="10" y1="-10" x2="101" y2="-10" transform="translate(3096.14 259.934)" stroke="#61C4B9" stroke-width="20" stroke-linecap="round"/>
<path d="M0 7L10.973 21L29 0" transform="translate(3042.14 233.934)" stroke="#61C4B9" stroke-width="20" stroke-linecap="round"/>
<line x1="10" y1="-10" x2="101" y2="-10" transform="translate(3096.14 317.934)" stroke="#61C4B9" stroke-width="20" stroke-linecap="round"/>
<path d="M0 7L10.973 21L29 0" transform="translate(3042.14 291.934)" stroke="#61C4B9" stroke-width="20" stroke-linecap="round"/>
<path d="M153 111C153 139.746 144.431 165.371 131.069 183.57C117.702 201.775 100.06 212 81.5 212C62.9401 212 45.2978 201.775 31.9314 183.57C18.5689 165.371 10 139.746 10 111C10 82.2537 18.5689 56.6288 31.9314 38.4295C45.2978 20.2249 62.9401 10 81.5 10C100.06 10 117.702 20.2249 131.069 38.4295C144.431 56.6288 153 82.2537 153 111Z" transform="translate(3263 345)" fill="white" stroke="#61C4B9" stroke-width="20"/>
<path d="M0.00998235 186.102C-0.656684 108.102 32.009 3.70012 116.012 0.100303C178.007 -2.55637 210.01 48.0996 226.01 88.1008" transform="translate(3219.99 608.9)" stroke="#61C4B9" stroke-width="20"/>
<path d="M153 111C153 139.746 144.431 165.371 131.069 183.57C117.702 201.775 100.06 212 81.5 212C62.9401 212 45.2978 201.775 31.9314 183.57C18.5689 165.371 10 139.746 10 111C10 82.2537 18.5689 56.6288 31.9314 38.4295C45.2978 20.2249 62.9401 10 81.5 10C100.06 10 117.702 20.2249 131.069 38.4295C144.431 56.6288 153 82.2537 153 111Z" transform="translate(2985.01 423)" fill="white" stroke="#61C4B9" stroke-width="20"/>
<path d="M208.01 118.08C208.01 62.7467 156.007 -2.57822 94.0121 0.0784575C70.92 1.06804 28 0.0784569 0 44.0801" transform="translate(2964 682.92)" stroke="#61C4B9" stroke-width="20"/>
</svg>
