<?xml version="1.0" encoding="utf-8"?>
<!-- Generator: Adobe Illustrator 22.1.0, SVG Export Plug-In . SVG Version: 6.00 Build 0)  -->
<svg version="1.1" id="Layer_1" xmlns="http://www.w3.org/2000/svg" xmlns:xlink="http://www.w3.org/1999/xlink" x="0px" y="0px"
	 viewBox="0 0 9571 4166" style="enable-background:new 0 0 9571 4166;" xml:space="preserve">
<style type="text/css">
	.st0{fill:none;stroke:#61C4B9;stroke-width:20;}
	.st1{fill:#FFFFFF;stroke:#61C4B9;stroke-width:20;}
	.st2{fill:none;stroke:#61C4B9;stroke-width:20;stroke-linecap:round;}
	.st3{fill:none;stroke:#7C4198;stroke-width:20;}
	.st4{fill:#FFFFFF;stroke:#7C4198;stroke-width:20;}
	.st5{fill:none;stroke:#EC4383;stroke-width:20;}
	.st6{fill:#FFFFFF;stroke:#EC4383;stroke-width:20;}
	.st7{fill:none;stroke:#4F4F4F;stroke-width:20;}
	.st8{fill:#FFFFFF;stroke:#4F4F4F;stroke-width:20;}
	.st9{fill:none;stroke:#ED2C75;stroke-width:20;}
	.st10{fill:#FFFFFF;stroke:#ED2C75;stroke-width:20;}
	.st11{fill:none;stroke:#7C4198;stroke-width:20;stroke-linecap:round;}
	.st12{fill:none;stroke:#7C4198;stroke-width:10;}
	.st13{fill:#7C4198;}
	.st14{fill:none;stroke:#4F4F4F;stroke-width:20;stroke-linecap:round;}
	.st15{fill:none;stroke:#4F4F4F;stroke-width:20;stroke-linecap:round;stroke-linejoin:round;}
	.st16{fill:#4F4F4F;}
	.st17{fill:#61C4B9;}
	.st18{fill:#EC4383;}
	.st19{fill:none;}
</style>
<circle class="st0" cx="7551" cy="1042" r="340"/>
<path class="st1" d="M7580.4,996.7c0.1-2.8,1.4-5.4,3.6-7.2c20.7-17.2,32.1-39.4,32.1-62.4c0-51.4-56.7-93.3-124.4-93.3
	c-67.7,0-124.4,40.8-124.4,93.3c0,9.1,1.8,17.9,5,26.3c0.1,0.2,0.2,0.4,0.2,0.6c15.4,38.4,63,66.5,119.2,66.5
	c8.1,0,16.2-0.6,24.2-1.8c2.8-0.4,5.4,0.4,7.5,1.9l56.7,29.9l0.3-53.2C7580.4,997,7580.4,996.8,7580.4,996.7z"/>
<line class="st2" x1="7479.8" y1="902.4" x2="7556.9" y2="902.4"/>
<path class="st2" d="M7422.5,895.8l9.6,12.2l15.8-18.4"/>
<line class="st2" x1="7479.8" y1="953.2" x2="7556.9" y2="953.2"/>
<path class="st2" d="M7422.5,946.6l9.6,12.2l15.8-18.4"/>
<path class="st1" d="M7748.4,1084c0,24.9-7.4,47.1-18.9,62.8c-11.5,15.7-26.6,24.4-42.4,24.4s-30.8-8.7-42.4-24.4
	c-11.5-15.7-18.9-37.8-18.9-62.8c0-24.9,7.4-47.1,18.9-62.8c11.5-15.7,26.6-24.4,42.4-24.4s30.8,8.7,42.4,24.4
	C7740.9,1036.9,7748.4,1059.1,7748.4,1084z"/>
<path class="st0" d="M7578.1,1380.6c-0.6-68.2,28-159.6,101.5-162.8c54.2-2.3,82.2,42,96.2,77"/>
<path class="st1" d="M7505.1,1152.2c0,24.9-7.4,47.1-18.9,62.8c-11.5,15.7-26.6,24.4-42.4,24.4s-30.8-8.7-42.4-24.4
	c-11.5-15.7-18.9-37.8-18.9-62.8c0-24.9,7.4-47.1,18.9-62.8c11.5-15.7,26.6-24.4,42.4-24.4s30.8,8.7,42.4,24.4
	C7497.7,1105.2,7505.1,1127.3,7505.1,1152.2z"/>
<path class="st0" d="M7536.1,1385.9c0-48.4-45.5-105.6-99.7-103.3c-20.2,0.9-57.8,0-82.3,38.5"/>
<circle class="st3" cx="478" cy="2507" r="340"/>
<circle class="st3" cx="473" cy="3199" r="340"/>
<path class="st4" d="M572.1,2447.6c0,37.2-11.1,70.4-28.5,94.2c-17.4,23.7-40.7,37.4-65.4,37.4c-24.7,0-48-13.6-65.4-37.4
	c-17.4-23.7-28.5-57-28.5-94.2c0-37.2,11.1-70.4,28.5-94.2c17.4-23.7,40.7-37.4,65.4-37.4c24.7,0,48,13.6,65.4,37.4
	C561,2377.1,572.1,2410.4,572.1,2447.6z"/>
<path class="st3" d="M305.5,2795c17-84.5,74.7-152.3,161.8-152.3c84.1,0,142.9,51.7,172.7,162.3"/>
<circle class="st3" cx="478" cy="2507" r="340"/>
<path class="st4" d="M572.1,2447.6c0,37.2-11.1,70.4-28.5,94.2c-17.4,23.7-40.7,37.4-65.4,37.4c-24.7,0-48-13.6-65.4-37.4
	c-17.4-23.7-28.5-57-28.5-94.2c0-37.2,11.1-70.4,28.5-94.2c17.4-23.7,40.7-37.4,65.4-37.4c24.7,0,48,13.6,65.4,37.4
	C561,2377.1,572.1,2410.4,572.1,2447.6z"/>
<path class="st3" d="M305.5,2795c17-84.5,74.7-152.3,161.8-152.3c84.1,0,142.9,51.7,172.7,162.3"/>
<circle class="st0" cx="2889" cy="1042" r="340"/>
<path class="st1" d="M2983.1,982.6c0,37.2-11.1,70.4-28.5,94.2c-17.4,23.7-40.7,37.4-65.4,37.4c-24.7,0-48-13.6-65.4-37.4
	c-17.4-23.7-28.5-57-28.5-94.2c0-37.2,11.1-70.4,28.5-94.2c17.4-23.7,40.7-37.4,65.4-37.4c24.7,0,48,13.6,65.4,37.4
	C2972,912.1,2983.1,945.4,2983.1,982.6z"/>
<path class="st0" d="M2716.5,1330c17-84.5,74.7-152.3,161.8-152.3c84.1,0,142.9,51.7,172.7,162.3"/>
<circle class="st0" cx="2889" cy="1042" r="340"/>
<path class="st1" d="M2983.1,982.6c0,37.2-11.1,70.4-28.5,94.2c-17.4,23.7-40.7,37.4-65.4,37.4c-24.7,0-48-13.6-65.4-37.4
	c-17.4-23.7-28.5-57-28.5-94.2c0-37.2,11.1-70.4,28.5-94.2c17.4-23.7,40.7-37.4,65.4-37.4c24.7,0,48,13.6,65.4,37.4
	C2972,912.1,2983.1,945.4,2983.1,982.6z"/>
<path class="st0" d="M2716.5,1330c17-84.5,74.7-152.3,161.8-152.3c84.1,0,142.9,51.7,172.7,162.3"/>
<circle class="st5" cx="4104" cy="1042" r="340"/>
<path class="st6" d="M4198.1,982.6c0,37.2-11.1,70.4-28.5,94.2c-17.4,23.7-40.7,37.4-65.4,37.4c-24.7,0-48-13.6-65.4-37.4
	c-17.4-23.7-28.5-57-28.5-94.2c0-37.2,11.1-70.4,28.5-94.2c17.4-23.7,40.7-37.4,65.4-37.4c24.7,0,48,13.6,65.4,37.4
	C4187,912.1,4198.1,945.4,4198.1,982.6z"/>
<path class="st5" d="M3931.5,1330c17-84.5,74.7-152.3,161.8-152.3c84.1,0,142.9,51.7,172.7,162.3"/>
<circle class="st5" cx="4104" cy="1042" r="340"/>
<path class="st6" d="M4198.1,982.6c0,37.2-11.1,70.4-28.5,94.2c-17.4,23.7-40.7,37.4-65.4,37.4c-24.7,0-48-13.6-65.4-37.4
	c-17.4-23.7-28.5-57-28.5-94.2c0-37.2,11.1-70.4,28.5-94.2c17.4-23.7,40.7-37.4,65.4-37.4c24.7,0,48,13.6,65.4,37.4
	C4187,912.1,4198.1,945.4,4198.1,982.6z"/>
<path class="st5" d="M3931.5,1330c17-84.5,74.7-152.3,161.8-152.3c84.1,0,142.9,51.7,172.7,162.3"/>
<circle class="st7" cx="5262" cy="1042" r="340"/>
<path class="st8" d="M5356.1,982.6c0,37.2-11.1,70.4-28.5,94.2c-17.4,23.7-40.7,37.4-65.4,37.4c-24.7,0-48-13.6-65.4-37.4
	c-17.4-23.7-28.5-57-28.5-94.2c0-37.2,11.1-70.4,28.5-94.2c17.4-23.7,40.7-37.4,65.4-37.4c24.7,0,48,13.6,65.4,37.4
	C5345,912.1,5356.1,945.4,5356.1,982.6z"/>
<path class="st7" d="M5089.5,1330c17-84.5,74.7-152.3,161.8-152.3c84.1,0,142.9,51.7,172.7,162.3"/>
<circle class="st7" cx="5262" cy="1042" r="340"/>
<path class="st8" d="M5356.1,982.6c0,37.2-11.1,70.4-28.5,94.2c-17.4,23.7-40.7,37.4-65.4,37.4c-24.7,0-48-13.6-65.4-37.4
	c-17.4-23.7-28.5-57-28.5-94.2c0-37.2,11.1-70.4,28.5-94.2c17.4-23.7,40.7-37.4,65.4-37.4c24.7,0,48,13.6,65.4,37.4
	C5345,912.1,5356.1,945.4,5356.1,982.6z"/>
<path class="st7" d="M5089.5,1330c17-84.5,74.7-152.3,161.8-152.3c84.1,0,142.9,51.7,172.7,162.3"/>
<circle class="st9" cx="6432" cy="1042" r="340"/>
<path class="st10" d="M6526.1,982.6c0,37.2-11.1,70.4-28.5,94.2c-17.4,23.7-40.7,37.4-65.4,37.4c-24.7,0-48-13.6-65.4-37.4
	c-17.4-23.7-28.5-57-28.5-94.2c0-37.2,11.1-70.4,28.5-94.2c17.4-23.7,40.7-37.4,65.4-37.4c24.7,0,48,13.6,65.4,37.4
	C6515,912.1,6526.1,945.4,6526.1,982.6z"/>
<path class="st9" d="M6259.5,1330c17-84.5,74.7-152.3,161.8-152.3c84.1,0,142.9,51.7,172.7,162.3"/>
<circle class="st9" cx="6432" cy="1042" r="340"/>
<path class="st10" d="M6526.1,982.6c0,37.2-11.1,70.4-28.5,94.2c-17.4,23.7-40.7,37.4-65.4,37.4c-24.7,0-48-13.6-65.4-37.4
	c-17.4-23.7-28.5-57-28.5-94.2c0-37.2,11.1-70.4,28.5-94.2c17.4-23.7,40.7-37.4,65.4-37.4c24.7,0,48,13.6,65.4,37.4
	C6515,912.1,6526.1,945.4,6526.1,982.6z"/>
<path class="st9" d="M6259.5,1330c17-84.5,74.7-152.3,161.8-152.3c84.1,0,142.9,51.7,172.7,162.3"/>
<circle class="st9" cx="8329" cy="2285" r="340"/>
<path class="st10" d="M8423.1,2225.6c0,37.2-11.1,70.4-28.5,94.2c-17.4,23.7-40.7,37.4-65.4,37.4c-24.7,0-48-13.6-65.4-37.4
	c-17.4-23.7-28.5-57-28.5-94.2c0-37.2,11.1-70.4,28.5-94.2c17.4-23.7,40.7-37.4,65.4-37.4c24.7,0,48,13.6,65.4,37.4
	C8412,2155.1,8423.1,2188.4,8423.1,2225.6z"/>
<path class="st9" d="M8156.5,2573c17-84.5,74.7-152.3,161.8-152.3c84.1,0,142.9,51.7,172.7,162.3"/>
<circle class="st9" cx="8329" cy="2285" r="340"/>
<path class="st10" d="M8423.1,2225.6c0,37.2-11.1,70.4-28.5,94.2c-17.4,23.7-40.7,37.4-65.4,37.4c-24.7,0-48-13.6-65.4-37.4
	c-17.4-23.7-28.5-57-28.5-94.2c0-37.2,11.1-70.4,28.5-94.2c17.4-23.7,40.7-37.4,65.4-37.4c24.7,0,48,13.6,65.4,37.4
	C8412,2155.1,8423.1,2188.4,8423.1,2225.6z"/>
<path class="st9" d="M8156.5,2573c17-84.5,74.7-152.3,161.8-152.3c84.1,0,142.9,51.7,172.7,162.3"/>
<circle class="st7" cx="1658" cy="2530" r="340"/>
<circle class="st7" cx="1658" cy="1042" r="340"/>
<path class="st3" d="M333,3008h224c11,0,20,9,20,20v341c0,11-9,20-20,20H333c-11,0-20-9-20-20v-341C313,3017,322,3008,333,3008z"/>
<line class="st11" x1="369" y1="3215" x2="444" y2="3215"/>
<line class="st11" x1="369" y1="3252" x2="444" y2="3252"/>
<line class="st11" x1="369" y1="3289" x2="444" y2="3289"/>
<line class="st11" x1="369" y1="3327" x2="444" y2="3327"/>
<path class="st4" d="M506,3247l134-148c30.4-4,40.7,21,42,34l-134,152l-51,12L506,3247z"/>
<path class="st12" d="M509,3245c10.7,3,33.8,15,41,39"/>
<line class="st11" x1="369" y1="3057" x2="369" y2="3165"/>
<line class="st11" x1="442" y1="3057" x2="442" y2="3165"/>
<line class="st11" x1="514" y1="3057" x2="514" y2="3165"/>
<circle class="st13" cx="369" cy="3083" r="25"/>
<circle class="st13" cx="442" cy="3111" r="25"/>
<circle class="st13" cx="514" cy="3138" r="25"/>
<circle class="st3" cx="478" cy="1045" r="340"/>
<circle class="st3" cx="478" cy="350" r="340"/>
<path class="st4" d="M572.1,985.6c0,37.2-11.1,70.4-28.5,94.2c-17.4,23.7-40.7,37.4-65.4,37.4c-24.7,0-48-13.6-65.4-37.4
	c-17.4-23.7-28.5-57-28.5-94.2c0-37.2,11.1-70.4,28.5-94.2c17.4-23.7,40.7-37.4,65.4-37.4c24.7,0,48,13.6,65.4,37.4
	C561,915.1,572.1,948.4,572.1,985.6z"/>
<path class="st3" d="M305.5,1333c17-84.5,74.7-152.3,161.8-152.3c84.1,0,142.9,51.7,172.7,162.3"/>
<circle class="st3" cx="478" cy="1045" r="340"/>
<path class="st4" d="M572.1,985.6c0,37.2-11.1,70.4-28.5,94.2c-17.4,23.7-40.7,37.4-65.4,37.4c-24.7,0-48-13.6-65.4-37.4
	c-17.4-23.7-28.5-57-28.5-94.2c0-37.2,11.1-70.4,28.5-94.2c17.4-23.7,40.7-37.4,65.4-37.4c24.7,0,48,13.6,65.4,37.4
	C561,915.1,572.1,948.4,572.1,985.6z"/>
<path class="st3" d="M305.5,1333c17-84.5,74.7-152.3,161.8-152.3c84.1,0,142.9,51.7,172.7,162.3"/>
<path class="st3" d="M286,178h224c11,0,20,9,20,20v341c0,11-9,20-20,20H286c-11,0-20-9-20-20V198C266,187,275,178,286,178z"/>
<path class="st4" d="M320,145h224c11,0,20,9,20,20v341c0,11-9,20-20,20H320c-11,0-20-9-20-20V165C300,154,309,145,320,145z"/>
<path class="st4" d="M357,110h224c11,0,20,9,20,20v341c0,11-9,20-20,20H357c-11,0-20-9-20-20V130C337,119,346,110,357,110z"/>
<line class="st11" x1="393" y1="317" x2="468" y2="317"/>
<line class="st11" x1="393" y1="354" x2="468" y2="354"/>
<line class="st11" x1="393" y1="391" x2="468" y2="391"/>
<line class="st11" x1="393" y1="429" x2="468" y2="429"/>
<path class="st4" d="M530,349l134-148c30.4-4,40.7,21,42,34L572,387l-51,12L530,349z"/>
<path class="st12" d="M533,347c10.7,3,33.8,15,41,39"/>
<line class="st11" x1="393" y1="159" x2="393" y2="267"/>
<line class="st11" x1="466" y1="159" x2="466" y2="267"/>
<line class="st11" x1="538" y1="159" x2="538" y2="267"/>
<circle class="st13" cx="393" cy="185" r="25"/>
<circle class="st13" cx="466" cy="213" r="25"/>
<circle class="st13" cx="538" cy="240" r="25"/>
<path class="st7" d="M1546,2337h224c11,0,20,9,20,20v341c0,11-9,20-20,20h-224c-11,0-20-9-20-20v-341C1526,2346,1535,2337,1546,2337
	z"/>
<line class="st14" x1="1582" y1="2544" x2="1734" y2="2544"/>
<line class="st14" x1="1582" y1="2508" x2="1734" y2="2508"/>
<line class="st14" x1="1582" y1="2581" x2="1734" y2="2581"/>
<line class="st14" x1="1582" y1="2618" x2="1734" y2="2618"/>
<line class="st14" x1="1582" y1="2656" x2="1734" y2="2656"/>
<line class="st14" x1="1696" y1="2470" x2="1734" y2="2470"/>
<line class="st14" x1="1696" y1="2435.5" x2="1734" y2="2435.5"/>
<line class="st14" x1="1696" y1="2401" x2="1734" y2="2401"/>
<rect x="1581" y="2401" class="st15" width="72" height="69"/>
<path class="st16" d="M1788.1,966.6c-4.5-26.5-17.6-50.6-37.6-68.9c-22.3-20.4-51.3-31.6-81.5-31.6c-23.3,0-46,6.7-65.5,19.3
	c-16.2,10.4-29.7,24.6-39.2,41.2c-4.1-0.8-8.4-1.2-12.7-1.2c-36.4,0-66.1,29.6-66.1,66c0,4.7,0.5,9.2,1.4,13.7
	c-23.6,17.1-37.9,44.7-37.9,74.1c0,23.7,8.8,46.8,25,65c16.5,18.7,38.4,29.7,61.7,31c0.3,0,0.4,0,0.7,0h73.7
	c6.4,0,11.6-5.1,11.6-11.6c0-6.4-5.1-11.6-11.6-11.6h-73.4c-35.1-2.1-64.6-35.5-64.6-73c0-24.2,13-46.9,34-59.1
	c4.9-2.8,6.9-8.7,5.1-14c-1.7-4.6-2.6-9.5-2.6-14.7c0-23.6,19.3-42.9,43-42.9c5.1,0,10,0.9,14.7,2.6c5.7,2.1,11.9-0.5,14.5-5.9
	c16-34,50.7-55.9,88.3-55.9c50.6,0,92.4,37.9,97.2,88c0.5,5.2,4.5,9.4,9.6,10.3c38.2,6.5,67,41.7,67,81.9
	c0,42.6-33.5,79.6-74.9,82.7h-63.2c-6.4,0-11.6,5.1-11.6,11.6c0,6.4,5.1,11.6,11.6,11.6h63.6c0.3,0,0.5,0,0.9,0
	c26.2-1.9,50.6-13.9,68.8-33.9c18.1-19.9,28-45.4,28-71.9C1865.9,1021.1,1833.1,978.4,1788.1,966.6z"/>
<path class="st16" d="M1727,1090.1c4.5-4.5,4.5-11.8,0-16.4l-61.3-61.2c-2.1-2.1-5.1-3.4-8.1-3.4c-3,0-6,1.2-8.1,3.4l-61.3,61.2
	c-4.5,4.5-4.5,11.8,0,16.4c2.2,2.2,5.2,3.4,8.1,3.4c2.9,0,5.9-1.1,8.1-3.4l41.6-41.5v190.9c0,6.4,5.1,11.6,11.6,11.6
	c6.4,0,11.6-5.1,11.6-11.6v-190.9l41.6,41.5C1715.2,1094.6,1722.5,1094.6,1727,1090.1z"/>
<path class="st13" d="M270.6,1584l-0.1-105h-12.3l-43.2,73.8l-43.8-73.8h-12.3v105h14.4v-76.1l37.9,63.3h6.9l37.9-63.8l0.1,76.5
	H270.6z M359.7,1504.5v41.1c0,17.1-9.6,26.4-24.6,26.4c-13.7,0-21.5-7.8-21.5-23.4v-44.1h-14.4v45.8c0,23.4,13.6,34.7,34.2,34.7
	c11.2,0,21.2-4.7,27-12.9v12h13.7v-79.5H359.7z M401.5,1584h14.4v-111.3h-14.4V1584z M485.5,1569c-3,2.4-7,3.8-11.2,3.8
	c-8,0-12.5-4.8-12.5-13.3v-43.1h22.8v-11.8h-22.8v-17.4h-14.4v17.4h-13.5v11.8h13.5v43.7c0,16.1,9.1,24.9,25.2,24.9
	c6.4,0,13-1.8,17.4-5.6L485.5,1569z M514.6,1489.2c5.7,0,9.8-4.2,9.8-9.6c0-5.1-4.2-9.2-9.8-9.2s-9.8,4.2-9.8,9.5
	S509.1,1489.2,514.6,1489.2z M507.4,1584h14.4v-79.5h-14.4V1584z M591.5,1503.8c-11.7,0-21.9,4.5-28.3,13.3v-12.6h-13.8v108.6h14.4
	V1572c6.6,8.6,16.5,12.9,27.8,12.9c23.2,0,40.2-16.2,40.2-40.7C631.7,1519.9,614.7,1503.8,591.5,1503.8z M590.3,1572.3
	c-15.2,0-26.7-11.1-26.7-28.1c0-16.8,11.5-27.9,26.7-27.9c15.3,0,26.8,11.1,26.8,27.9C617.1,1561.2,605.6,1572.3,590.3,1572.3z
	 M651.5,1584H666v-111.3h-14.4V1584z M765.3,1544.7c0-24.4-16.3-40.9-39.3-40.9s-39.9,16.9-39.9,40.5c0,23.7,17.1,40.7,42.8,40.7
	c13.2,0,24.2-4.5,31.4-12.9l-8-9.3c-5.8,6.5-13.7,9.6-23,9.6c-15.8,0-27-9.3-28.8-23.2H765C765.1,1547.7,765.3,1545.9,765.3,1544.7z
	 M726,1515.9c14,0,24,9.4,25.5,22.8h-51C702,1525.2,712.2,1515.9,726,1515.9z M113.4,1668.8c-13.5,0-24.6,5.7-30.6,14.7
	c-5.2-9.9-15.4-14.7-27.6-14.7c-12,0-21.8,4.5-27.5,12.6v-11.8H13.9v79.5h14.4v-40.9c0-17.2,9.4-26.4,23.9-26.4
	c13.1,0,20.6,7.7,20.6,23.2v44.1h14.4v-40.9c0-17.2,9.5-26.4,23.9-26.4c13,0,20.5,7.7,20.5,23.2v44.1h14.4v-45.8
	C145.9,1679.8,132.7,1668.8,113.4,1668.8z M201.4,1668.8c-12.8,0-24.6,3.6-32.9,10.2l6,10.8c6.1-5.2,15.8-8.6,25.2-8.6
	c14.2,0,21.3,7.1,21.3,19.2v2.8h-22.8c-23.7,0-31.9,10.5-31.9,23.2c0,13.8,11.4,23.4,29.4,23.4c12.5,0,21.3-4.2,26.1-11.4v10.5h13.6
	v-48C235.4,1679.2,223.1,1668.8,201.4,1668.8z M198.1,1738.8c-10.9,0-17.6-5-17.6-12.9c0-6.8,4.1-12.3,18.3-12.3H221v11.1
	C217.4,1733.8,208.9,1738.8,198.1,1738.8z M304.5,1668.8c-12.6,0-22.8,4.7-28.6,12.8v-12H262v79.5h14.4v-40.9
	c0-17.2,9.9-26.4,25.2-26.4c13.6,0,21.4,7.7,21.4,23.2v44.1h14.4v-45.8C337.5,1679.8,323.8,1668.8,304.5,1668.8z M423.8,1669.5v41.1
	c0,17.1-9.6,26.4-24.6,26.4c-13.6,0-21.4-7.8-21.4-23.4v-44.1h-14.4v45.8c0,23.4,13.6,34.7,34.2,34.7c11.2,0,21.1-4.7,27-12.9v12
	h13.6v-79.5H423.8z M488.5,1749.9c21.1,0,34.4-9.2,34.4-23.6c0-30.9-50.4-15.6-50.4-34.3c0-6.3,6.2-10.9,18.8-10.9
	c7.8,0,15.8,1.6,23,6.3l6.2-11.4c-6.9-4.5-18.6-7.2-29-7.2c-20.4,0-33.2,9.6-33.2,23.8c0,31.7,50.2,16.2,50.2,34.1
	c0,6.8-5.5,10.8-18.9,10.8c-10.4,0-21.1-3.4-27.9-8.2l-6,11.4C462.2,1745.8,475.3,1749.9,488.5,1749.9z M575.5,1749.9
	c14.2,0,26.1-6,32.4-17.1l-10.9-6.9c-5.1,7.8-12.9,11.4-21.6,11.4c-15.6,0-27.3-10.8-27.3-28.1c0-16.9,11.7-27.9,27.3-27.9
	c8.7,0,16.5,3.6,21.6,11.4l10.9-7.1c-6.3-11.1-18.1-16.9-32.4-16.9c-24.5,0-42,16.8-42,40.5S551,1749.9,575.5,1749.9z M640.3,1682.8
	v-13.3h-13.8v79.5h14.4v-39.6c0-17.4,9.6-26.8,25.1-26.8c1,0,2.1,0,3.3,0.1v-13.9C655.3,1668.8,645.4,1673.6,640.3,1682.8z
	 M694.2,1654.2c5.7,0,9.8-4.2,9.8-9.6c0-5.1-4.2-9.2-9.8-9.2s-9.8,4.2-9.8,9.5S688.7,1654.2,694.2,1654.2z M687,1749h14.4v-79.5H687
	V1749z M771,1668.8c-11.7,0-21.9,4.5-28.4,13.3v-12.6h-13.8v108.6h14.4V1737c6.6,8.6,16.5,12.9,27.8,12.9
	c23.2,0,40.2-16.2,40.2-40.7C811.2,1684.9,794.3,1668.8,771,1668.8z M769.8,1737.3c-15.2,0-26.7-11.1-26.7-28.1
	c0-16.8,11.5-27.9,26.7-27.9c15.3,0,26.8,11.1,26.8,27.9C796.7,1726.2,785.1,1737.3,769.8,1737.3z M871.3,1734
	c-3,2.4-7.1,3.8-11.2,3.8c-8,0-12.5-4.8-12.5-13.3v-43.1h22.8v-11.8h-22.8v-17.4h-14.4v17.4h-13.5v11.8h13.5v43.7
	c0,16.1,9.2,24.9,25.2,24.9c6.5,0,13-1.8,17.4-5.6L871.3,1734z M916,1749.9c21.2,0,34.4-9.2,34.4-23.6c0-30.9-50.4-15.6-50.4-34.3
	c0-6.3,6.2-10.9,18.8-10.9c7.8,0,15.8,1.6,23,6.3l6.1-11.4c-6.9-4.5-18.6-7.2-28.9-7.2c-20.4,0-33.2,9.6-33.2,23.8
	c0,31.7,50.2,16.2,50.2,34.1c0,6.8-5.5,10.8-18.9,10.8c-10.3,0-21.1-3.4-27.9-8.2l-6,11.4C889.8,1745.8,902.8,1749.9,916,1749.9z
	 M137.8,1913.9c21.1,0,34.4-9.2,34.4-23.6c0-30.9-50.4-15.6-50.4-34.3c0-6.3,6.2-10.9,18.8-10.9c7.8,0,15.8,1.6,22.9,6.3l6.2-11.4
	c-6.9-4.5-18.6-7.2-28.9-7.2c-20.4,0-33.2,9.6-33.2,23.8c0,31.7,50.2,16.2,50.2,34.1c0,6.8-5.6,10.8-18.9,10.8
	c-10.4,0-21.2-3.4-27.9-8.2l-6,11.4C111.5,1909.8,124.6,1913.9,137.8,1913.9z M249.8,1833.5v41.1c0,17.1-9.6,26.4-24.6,26.4
	c-13.7,0-21.5-7.8-21.5-23.4v-44.1h-14.4v45.8c0,23.4,13.6,34.7,34.2,34.7c11.2,0,21.2-4.7,27-12.9v12h13.7v-79.5H249.8z
	 M333.8,1832.8c-11.2,0-21.1,4.2-27.8,12.8v-43.8h-14.4V1913h13.8v-12.6c6.5,9,16.7,13.5,28.4,13.5c23.2,0,40.2-16.3,40.2-40.7
	S357,1832.8,333.8,1832.8z M332.6,1901.3c-15.2,0-26.7-11.1-26.7-28.1s11.5-27.9,26.7-27.9c15.3,0,26.8,11,26.8,27.9
	S347.9,1901.3,332.6,1901.3z M493.3,1832.8c-13.5,0-24.6,5.7-30.6,14.7c-5.2-9.9-15.5-14.7-27.6-14.7c-12,0-21.8,4.5-27.5,12.6
	v-11.8h-13.8v79.5h14.4v-40.9c0-17.2,9.5-26.4,23.9-26.4c13,0,20.5,7.7,20.5,23.2v44.1h14.4v-40.9c0-17.2,9.4-26.4,23.8-26.4
	c13.1,0,20.6,7.7,20.6,23.2v44.1h14.4v-45.8C525.9,1843.8,512.7,1832.8,493.3,1832.8z M559.6,1818.2c5.7,0,9.8-4.2,9.8-9.6
	c0-5.1-4.2-9.2-9.8-9.2s-9.8,4.2-9.8,9.5S554,1818.2,559.6,1818.2z M552.4,1913h14.4v-79.5h-14.4V1913z M634.5,1898
	c-3,2.4-7,3.8-11.2,3.8c-7.9,0-12.4-4.8-12.4-13.3v-43.1h22.8v-11.8h-22.8v-17.4h-14.4v17.4h-13.5v11.8h13.5v43.7
	c0,16.1,9.2,24.9,25.2,24.9c6.5,0,13-1.8,17.4-5.6L634.5,1898z M694.7,1898c-3,2.4-7,3.8-11.2,3.8c-8,0-12.5-4.8-12.5-13.3v-43.1
	h22.8v-11.8H671v-17.4h-14.4v17.4h-13.5v11.8h13.5v43.7c0,16.1,9.1,24.9,25.2,24.9c6.4,0,13-1.8,17.4-5.6L694.7,1898z M785.8,1873.7
	c0-24.4-16.3-40.9-39.3-40.9s-39.9,16.9-39.9,40.5c0,23.7,17.1,40.7,42.8,40.7c13.2,0,24.1-4.5,31.3-12.9l-8-9.3
	c-5.8,6.5-13.6,9.6-23,9.6c-15.8,0-27-9.3-28.8-23.2h64.5C785.7,1876.7,785.8,1874.9,785.8,1873.7z M746.5,1844.9
	c14,0,24,9.4,25.5,22.8h-51C722.5,1854.2,732.7,1844.9,746.5,1844.9z M819.6,1846.8v-13.3h-13.8v79.5h14.4v-39.6
	c0-17.4,9.6-26.8,25-26.8c1,0,2.1,0,3.3,0.1v-13.9C834.6,1832.8,824.7,1837.6,819.6,1846.8z"/>
<path class="st16" d="M1601.2,1492.1V1479h-74.1v105h15v-42.4h52.6v-12.9h-52.6v-36.6H1601.2z M1643.9,1584h14.9v-91.9h36V1479
	h-86.8v13.1h36V1584z M1752.1,1479h-41v105h15v-31.8h26c27.3,0,43.8-13.8,43.8-36.6C1795.9,1492.8,1779.4,1479,1752.1,1479z
	 M1751.6,1539.2h-25.5v-47.1h25.5c19.2,0,29.2,8.5,29.2,23.5S1770.8,1539.2,1751.6,1539.2z"/>
<path class="st17" d="M2634.5,1584l-24.9-35.2c14.7-5.2,23.1-16.9,23.1-33.2c0-22.8-16.5-36.6-43.8-36.6H2548v105h15v-31.9h25.9
	c2.2,0,4.5-0.2,6.6-0.3l22.6,32.2H2634.5z M2588.5,1539.3H2563v-47.2h25.5c19.2,0,29.2,8.5,29.2,23.5S2607.7,1539.3,2588.5,1539.3z
	 M2726.7,1544.7c0-24.4-16.4-40.9-39.3-40.9s-39.9,16.9-39.9,40.5c0,23.7,17.1,40.7,42.8,40.7c13.2,0,24.1-4.5,31.3-12.9l-7.9-9.3
	c-5.8,6.5-13.6,9.6-22.9,9.6c-15.8,0-27-9.3-28.8-23.2h64.5C2726.6,1547.7,2726.7,1545.9,2726.7,1544.7z M2687.4,1515.9
	c13.9,0,24,9.4,25.5,22.8h-51C2663.4,1525.2,2673.6,1515.9,2687.4,1515.9z M2801.5,1504.5l-27.9,63.8l-27.3-63.8h-15l34.8,79.5h14.7
	l34.8-79.5H2801.5z M2836.2,1489.2c5.7,0,9.8-4.2,9.8-9.6c0-5.1-4.2-9.2-9.8-9.2c-5.6,0-9.8,4.2-9.8,9.5
	S2830.7,1489.2,2836.2,1489.2z M2829,1584h14.4v-79.5H2829V1584z M2942.8,1544.7c0-24.4-16.4-40.9-39.3-40.9s-39.9,16.9-39.9,40.5
	c0,23.7,17.1,40.7,42.8,40.7c13.2,0,24.1-4.5,31.3-12.9l-7.9-9.3c-5.8,6.5-13.6,9.6-22.9,9.6c-15.8,0-27-9.3-28.8-23.2h64.5
	C2942.6,1547.7,2942.8,1545.9,2942.8,1544.7z M2903.5,1515.9c13.9,0,24,9.4,25.5,22.8h-51
	C2879.5,1525.2,2889.7,1515.9,2903.5,1515.9z M3068.7,1504.5l-23.7,63.6l-23.6-63.6h-12.1l-24,63.3l-23.1-63.3h-13.6l29.6,79.5h13.8
	l23.2-60.3l22.9,60.3h13.8l29.7-79.5H3068.7z M3165.9,1544.7c0-24.4-16.3-40.9-39.3-40.9c-22.9,0-39.9,16.9-39.9,40.5
	c0,23.7,17.1,40.7,42.8,40.7c13.2,0,24.1-4.5,31.4-12.9l-8-9.3c-5.8,6.5-13.6,9.6-22.9,9.6c-15.8,0-27-9.3-28.8-23.2h64.5
	C3165.7,1547.7,3165.9,1545.9,3165.9,1544.7z M3126.6,1515.9c14,0,24,9.4,25.5,22.8h-51C3102.6,1525.2,3112.8,1515.9,3126.6,1515.9z
	 M3199.7,1517.8v-13.3h-13.8v79.5h14.4v-39.6c0-17.4,9.6-26.8,25.1-26.8c1.1,0,2.1,0,3.3,0.1v-13.9
	C3214.7,1503.8,3204.8,1508.6,3199.7,1517.8z"/>
<path class="st17" d="M7302.5,1584l-24.9-35.2c14.7-5.2,23.1-16.9,23.1-33.2c0-22.8-16.5-36.6-43.8-36.6h-41v105h15v-31.9h26
	c2.2,0,4.5-0.2,6.6-0.3l22.7,32.2H7302.5z M7256.5,1539.3H7231v-47.2h25.5c19.2,0,29.2,8.5,29.2,23.5S7275.7,1539.3,7256.5,1539.3z
	 M7394.7,1544.7c0-24.4-16.4-40.9-39.3-40.9c-23,0-39.9,16.9-39.9,40.5c0,23.7,17.1,40.7,42.8,40.7c13.2,0,24.2-4.5,31.4-12.9
	l-7.9-9.3c-5.9,6.5-13.7,9.6-23,9.6c-15.8,0-27-9.3-28.8-23.2h64.5C7394.6,1547.7,7394.7,1545.9,7394.7,1544.7z M7355.4,1515.9
	c13.9,0,24,9.4,25.5,22.8h-51C7331.4,1525.2,7341.6,1515.9,7355.4,1515.9z M7469.5,1504.5l-27.9,63.8l-27.3-63.8h-15l34.8,79.5h14.7
	l34.8-79.5H7469.5z M7504.2,1489.2c5.7,0,9.8-4.2,9.8-9.6c0-5.1-4.2-9.2-9.8-9.2c-5.6,0-9.8,4.2-9.8,9.5
	S7498.7,1489.2,7504.2,1489.2z M7497,1584h14.4v-79.5H7497V1584z M7610.8,1544.7c0-24.4-16.4-40.9-39.3-40.9
	c-23,0-39.9,16.9-39.9,40.5c0,23.7,17.1,40.7,42.8,40.7c13.2,0,24.2-4.5,31.4-12.9l-7.9-9.3c-5.9,6.5-13.7,9.6-23,9.6
	c-15.8,0-27-9.3-28.8-23.2h64.5C7610.6,1547.7,7610.8,1545.9,7610.8,1544.7z M7571.5,1515.9c13.9,0,24,9.4,25.5,22.8h-51
	C7547.5,1525.2,7557.7,1515.9,7571.5,1515.9z M7736.7,1504.5l-23.7,63.6l-23.5-63.6h-12.1l-24,63.3l-23.1-63.3h-13.6l29.5,79.5h13.8
	l23.2-60.3l23,60.3h13.8l29.7-79.5H7736.7z M7833.9,1544.7c0-24.4-16.4-40.9-39.3-40.9c-22.9,0-39.9,16.9-39.9,40.5
	c0,23.7,17.1,40.7,42.8,40.7c13.2,0,24.1-4.5,31.4-12.9l-8-9.3c-5.9,6.5-13.6,9.6-22.9,9.6c-15.8,0-27-9.3-28.8-23.2h64.5
	C7833.7,1547.7,7833.9,1545.9,7833.9,1544.7z M7794.6,1515.9c14,0,24,9.4,25.5,22.8h-51C7770.6,1525.2,7780.8,1515.9,7794.6,1515.9z
	 M7867.7,1517.8v-13.3h-13.8v79.5h14.4v-39.6c0-17.4,9.6-26.8,25-26.8c1,0,2.1,0,3.3,0.1v-13.9
	C7882.7,1503.8,7872.8,1508.6,7867.7,1517.8z"/>
<path class="st16" d="M8505.9,1570.9v-33.9h52.7v-12.8h-52.7v-32.2h59.1V1479h-74.1v105h76.2v-13.1H8505.9z M8647.9,1504.5v41.1
	c0,17.1-9.6,26.4-24.6,26.4c-13.7,0-21.5-7.8-21.5-23.4v-44.1h-14.4v45.8c0,23.4,13.7,34.7,34.2,34.7c11.2,0,21.2-4.7,27-12.9v12
	h13.7v-79.5H8647.9z M8703.5,1517.8v-13.3h-13.8v79.5h14.4v-39.6c0-17.4,9.6-26.8,25-26.8c1.1,0,2.1,0,3.3,0.1v-13.9
	C8718.5,1503.8,8708.6,1508.6,8703.5,1517.8z M8783.6,1584.9c23.9,0,41.2-17,41.2-40.7s-17.4-40.5-41.2-40.5
	c-23.8,0-41.4,16.8-41.4,40.5S8759.7,1584.9,8783.6,1584.9z M8783.6,1572.3c-15.3,0-26.8-11.1-26.8-28.1s11.5-27.9,26.8-27.9
	s26.7,11,26.7,27.9S8798.9,1572.3,8783.6,1572.3z M8886.9,1503.8c-11.7,0-21.9,4.5-28.4,13.3v-12.6h-13.8v108.6h14.4V1572
	c6.6,8.6,16.5,12.9,27.8,12.9c23.2,0,40.2-16.2,40.2-40.7C8927.1,1519.9,8910.1,1503.8,8886.9,1503.8z M8885.7,1572.3
	c-15.2,0-26.7-11.1-26.7-28.1c0-16.8,11.5-27.9,26.7-27.9c15.3,0,26.8,11.1,26.8,27.9C8912.5,1561.2,8901,1572.3,8885.7,1572.3z
	 M9018.8,1544.7c0-24.4-16.3-40.9-39.3-40.9s-39.9,16.9-39.9,40.5c0,23.7,17.1,40.7,42.8,40.7c13.2,0,24.1-4.5,31.3-12.9l-8-9.3
	c-5.8,6.5-13.6,9.6-23,9.6c-15.8,0-27-9.3-28.8-23.2h64.5C9018.7,1547.7,9018.8,1545.9,9018.8,1544.7z M8979.5,1515.9
	c14,0,24,9.4,25.5,22.8h-51C8955.5,1525.2,8965.7,1515.9,8979.5,1515.9z M9122.1,1479h-40.9v105h15v-31.8h25.9
	c27.3,0,43.8-13.8,43.8-36.6C9165.9,1492.8,9149.4,1479,9122.1,1479z M9121.7,1539.2h-25.5v-47.1h25.5c19.2,0,29.2,8.5,29.2,23.5
	S9140.9,1539.2,9121.7,1539.2z M9299.7,1584l-0.1-105h-12.3l-43.2,73.8l-43.8-73.8H9188v105h14.4v-76.1l38,63.3h6.9l38-63.8
	l0.2,76.5H9299.7z M9378.2,1585.2c16.3,0,30.4-5.7,40-16.5l-9.8-9.4c-8.1,8.6-18,12.6-29.5,12.6c-23.7,0-41.2-17.1-41.2-40.3
	s17.5-40.3,41.2-40.3c11.5,0,21.4,3.9,29.5,12.4l9.8-9.4c-9.6-10.8-23.7-16.3-39.9-16.3c-32,0-55.6,22.6-55.6,53.7
	S9346.4,1585.2,9378.2,1585.2z"/>
<path class="st18" d="M3936.3,1584h15.7l-47.7-105h-14.9l-47.5,105h15.4l11.6-26.2h55.8L3936.3,1584z M3874.2,1545.8l22.6-51.4
	l22.6,51.4H3874.2z M4025.4,1472.7v43.8c-6.6-8.6-16.5-12.8-27.8-12.8c-23.2,0-40.2,16.2-40.2,40.5s16.9,40.7,40.2,40.7
	c11.7,0,21.9-4.5,28.3-13.5v12.6h13.8v-111.3H4025.4z M3998.9,1572.3c-15.3,0-26.9-11.1-26.9-28.1s11.6-27.9,26.9-27.9
	c15.1,0,26.7,11,26.7,27.9S4014,1572.3,3998.9,1572.3z M4166.5,1503.8c-13.5,0-24.6,5.7-30.6,14.7c-5.2-9.9-15.4-14.7-27.6-14.7
	c-12,0-21.7,4.5-27.4,12.6v-11.8h-13.8v79.5h14.4v-40.9c0-17.2,9.4-26.4,23.8-26.4c13.1,0,20.6,7.7,20.6,23.2v44.1h14.4v-40.9
	c0-17.2,9.5-26.4,23.9-26.4c13,0,20.5,7.7,20.5,23.2v44.1h14.4v-45.8C4199.1,1514.8,4185.9,1503.8,4166.5,1503.8z M4232.8,1489.2
	c5.7,0,9.8-4.2,9.8-9.6c0-5.1-4.2-9.2-9.8-9.2s-9.8,4.2-9.8,9.5S4227.2,1489.2,4232.8,1489.2z M4225.6,1584h14.4v-79.5h-14.4V1584z
	 M4309.9,1503.8c-12.6,0-22.8,4.7-28.6,12.8v-12h-13.8v79.5h14.4v-40.9c0-17.2,9.9-26.4,25.2-26.4c13.6,0,21.5,7.7,21.5,23.2v44.1
	h14.4v-45.8C4342.9,1514.8,4329.3,1503.8,4309.9,1503.8z M4050.8,1750.1c-5.4,6-11.7,9-19.2,9c-6.8,0-13.1-3-20.1-10.5
	c24.5-5.7,41.2-26,41.2-52.1c0-30.9-23.7-53.7-55.6-53.7c-32.2,0-55.9,22.9-55.9,53.7c0,29.6,21.9,51.9,52.1,53.6
	c14.7,15.1,25,20.8,38.2,20.8c10.5,0,19.6-4.3,26.4-12.3L4050.8,1750.1z M3956.1,1696.5c0-23.1,17.4-40.3,40.9-40.3
	c23.2,0,40.6,17.2,40.6,40.3s-17.4,40.3-40.6,40.3C3973.5,1736.8,3956.1,1719.6,3956.1,1696.5z M4152.6,1749h15.8l-47.7-105h-14.8
	l-47.6,105h15.5l11.5-26.2h55.8L4152.6,1749z M4090.5,1710.8l22.6-51.4l22.7,51.4H4090.5z M4209.8,1644v13.1h23.7v91.9h14.8v-105
	H4209.8z"/>
<path class="st18" d="M6261.8,1584h15.8l-47.7-105H6215l-47.5,105h15.5l11.5-26.2h55.8L6261.8,1584z M6199.7,1545.8l22.6-51.4
	l22.6,51.4H6199.7z M6350.9,1472.7v43.8c-6.6-8.6-16.5-12.8-27.8-12.8c-23.2,0-40.2,16.2-40.2,40.5s16.9,40.7,40.2,40.7
	c11.7,0,21.9-4.5,28.4-13.5v12.6h13.8v-111.3H6350.9z M6324.4,1572.3c-15.3,0-26.9-11.1-26.9-28.1s11.6-27.9,26.9-27.9
	c15.1,0,26.7,11,26.7,27.9S6339.5,1572.3,6324.4,1572.3z M6492,1503.8c-13.5,0-24.6,5.7-30.6,14.7c-5.2-9.9-15.4-14.7-27.6-14.7
	c-12,0-21.8,4.5-27.4,12.6v-11.8h-13.8v79.5h14.4v-40.9c0-17.2,9.4-26.4,23.8-26.4c13.1,0,20.6,7.7,20.6,23.2v44.1h14.4v-40.9
	c0-17.2,9.5-26.4,23.9-26.4c13,0,20.5,7.7,20.5,23.2v44.1h14.4v-45.8C6524.6,1514.8,6511.4,1503.8,6492,1503.8z M6558.3,1489.2
	c5.7,0,9.8-4.2,9.8-9.6c0-5.1-4.2-9.2-9.8-9.2s-9.8,4.2-9.8,9.5S6552.7,1489.2,6558.3,1489.2z M6551.1,1584h14.4v-79.5h-14.4V1584z
	 M6635.4,1503.8c-12.6,0-22.8,4.7-28.6,12.8v-12H6593v79.5h14.4v-40.9c0-17.2,9.9-26.4,25.2-26.4c13.6,0,21.5,7.7,21.5,23.2v44.1
	h14.4v-45.8C6668.4,1514.8,6654.8,1503.8,6635.4,1503.8z M5954.3,1750.1c-5.4,6-11.7,9-19.2,9c-6.8,0-13-3-20.1-10.5
	c24.5-5.7,41.3-26,41.3-52.1c0-30.9-23.7-53.7-55.7-53.7c-32.2,0-55.9,22.9-55.9,53.7c0,29.6,21.9,51.9,52,53.6
	c14.7,15.1,25,20.8,38.2,20.8c10.5,0,19.6-4.3,26.4-12.3L5954.3,1750.1z M5859.7,1696.5c0-23.1,17.4-40.3,40.9-40.3
	c23.2,0,40.7,17.2,40.7,40.3s-17.4,40.3-40.7,40.3C5877.1,1736.8,5859.7,1719.6,5859.7,1696.5z M6056.2,1749h15.8l-47.7-105h-14.9
	l-47.5,105h15.4l11.6-26.2h55.8L6056.2,1749z M5994.1,1710.8l22.6-51.4l22.6,51.4H5994.1z M6139.3,1735.9l32.1-30.9
	c14.2-13.7,17.2-22.8,17.2-33c0-18-14.1-29.2-36-29.2c-16.4,0-30.3,5.8-38.4,15.9l10.2,8.9c6.5-7.8,15.6-11.4,26.9-11.4
	c14.7,0,22.4,6.6,22.4,17.4c0,6.6-2.1,13.2-13.2,24l-42.8,41.2v10.2h75.5v-13.1H6139.3z M6315.8,1690.7h-27.3v-27h-12.6v27h-27.3
	v11.8h27.3v26.8h12.6v-26.8h27.3V1690.7z M6468.4,1749l-24.9-35.2c14.7-5.2,23.1-16.9,23.1-33.2c0-22.8-16.5-36.6-43.8-36.6h-41v105
	h15v-31.9h26c2.2,0,4.5-0.2,6.6-0.3l22.7,32.2H6468.4z M6422.4,1704.3h-25.5v-47.2h25.5c19.2,0,29.2,8.5,29.2,23.5
	S6441.6,1704.3,6422.4,1704.3z M6560.6,1709.7c0-24.4-16.4-40.9-39.3-40.9c-23,0-39.9,16.9-39.9,40.5c0,23.7,17.1,40.7,42.8,40.7
	c13.2,0,24.1-4.5,31.3-12.9l-7.9-9.3c-5.9,6.5-13.6,9.6-23,9.6c-15.8,0-27-9.3-28.8-23.2h64.5
	C6560.5,1712.7,6560.6,1710.9,6560.6,1709.7z M6521.3,1680.9c13.9,0,24,9.4,25.5,22.8h-51
	C6497.3,1690.2,6507.5,1680.9,6521.3,1680.9z M6641.2,1637.7v43.8c-6.6-8.6-16.5-12.8-27.8-12.8c-23.2,0-40.2,16.2-40.2,40.5
	s17,40.7,40.2,40.7c11.7,0,21.9-4.5,28.4-13.5v12.6h13.8v-111.3H6641.2z M6614.7,1737.3c-15.3,0-26.9-11.1-26.9-28.1
	s11.5-27.9,26.9-27.9c15.1,0,26.7,11,26.7,27.9S6629.8,1737.3,6614.7,1737.3z M6690.1,1654.2c5.7,0,9.8-4.2,9.8-9.6
	c0-5.1-4.2-9.2-9.8-9.2c-5.5,0-9.8,4.2-9.8,9.5S6684.5,1654.2,6690.1,1654.2z M6682.9,1749h14.4v-79.5h-14.4V1749z M6738.5,1682.8
	v-13.3h-13.8v79.5h14.4v-39.6c0-17.4,9.6-26.8,25.1-26.8c1,0,2.1,0,3.3,0.1v-13.9C6753.5,1668.8,6743.6,1673.6,6738.5,1682.8z
	 M6856.4,1709.7c0-24.4-16.4-40.9-39.3-40.9c-23,0-39.9,16.9-39.9,40.5c0,23.7,17.1,40.7,42.8,40.7c13.2,0,24.1-4.5,31.3-12.9
	l-7.9-9.3c-5.9,6.5-13.6,9.6-22.9,9.6c-15.8,0-27-9.3-28.8-23.2h64.5C6856.2,1712.7,6856.4,1710.9,6856.4,1709.7z M6817.1,1680.9
	c14,0,24,9.4,25.5,22.8h-51C6793.1,1690.2,6803.3,1680.9,6817.1,1680.9z M6911,1749.9c14.2,0,26.1-6,32.4-17.1l-11-6.9
	c-5.1,7.8-12.9,11.4-21.6,11.4c-15.6,0-27.3-10.8-27.3-28.1c0-16.9,11.7-27.9,27.3-27.9c8.7,0,16.5,3.6,21.6,11.4l11-7.1
	c-6.3-11.1-18.2-16.9-32.4-16.9c-24.4,0-42,16.8-42,40.5S6886.6,1749.9,6911,1749.9z M7003.3,1734c-3,2.4-7.1,3.8-11.2,3.8
	c-8,0-12.5-4.8-12.5-13.3v-43.1h22.8v-11.8h-22.8v-17.4h-14.4v17.4h-13.5v11.8h13.5v43.7c0,16.1,9.1,24.9,25.2,24.9
	c6.5,0,13.1-1.8,17.4-5.6L7003.3,1734z"/>
<path class="st18" d="M8160.3,2835h15.7l-47.7-105h-14.9l-47.5,105h15.4l11.6-26.2h55.8L8160.3,2835z M8098.2,2796.8l22.6-51.4
	l22.6,51.4H8098.2z M8249.4,2723.7v43.8c-6.6-8.6-16.5-12.8-27.8-12.8c-23.2,0-40.2,16.2-40.2,40.5s17,40.6,40.2,40.6
	c11.7,0,21.9-4.5,28.3-13.5v12.6h13.8v-111.3H8249.4z M8222.9,2823.3c-15.3,0-26.9-11.1-26.9-28.1s11.5-27.9,26.9-27.9
	c15.1,0,26.7,10.9,26.7,27.9S8238,2823.3,8222.9,2823.3z M8390.5,2754.8c-13.5,0-24.6,5.7-30.6,14.7c-5.2-9.9-15.5-14.7-27.6-14.7
	c-12,0-21.8,4.5-27.5,12.6v-11.9h-13.8v79.5h14.4v-40.9c0-17.2,9.5-26.4,23.8-26.4c13,0,20.5,7.7,20.5,23.2v44.1h14.4v-40.9
	c0-17.2,9.5-26.4,23.8-26.4c13.1,0,20.6,7.7,20.6,23.2v44.1h14.4v-45.8C8423.1,2765.9,8409.9,2754.8,8390.5,2754.8z M8456.8,2740.2
	c5.7,0,9.8-4.2,9.8-9.6c0-5.1-4.2-9.2-9.8-9.2s-9.8,4.2-9.8,9.4S8451.2,2740.2,8456.8,2740.2z M8449.6,2835h14.4v-79.5h-14.4V2835z
	 M8533.9,2754.8c-12.6,0-22.8,4.6-28.6,12.8v-12h-13.8v79.5h14.4v-40.9c0-17.2,9.9-26.4,25.2-26.4c13.7,0,21.5,7.7,21.5,23.2v44.1
	h14.4v-45.8C8566.9,2765.9,8553.3,2754.8,8533.9,2754.8z M8259.6,3001.1c-5.4,6-11.7,9-19.2,9c-6.8,0-13.1-3-20.1-10.5
	c24.5-5.7,41.2-25.9,41.2-52.1c0-30.9-23.7-53.7-55.6-53.7c-32.3,0-56,22.9-56,53.7c0,29.6,21.9,51.9,52,53.6
	c14.7,15.1,25,20.8,38.2,20.8c10.5,0,19.7-4.3,26.4-12.3L8259.6,3001.1z M8165,2947.5c0-23.1,17.4-40.4,41-40.4
	c23.2,0,40.6,17.2,40.6,40.4s-17.4,40.4-40.6,40.4C8182.4,2987.9,8165,2970.6,8165,2947.5z M8361.5,3000h15.8l-47.7-105h-14.8
	l-47.5,105h15.5l11.5-26.2h55.8L8361.5,3000z M8299.4,2961.8l22.6-51.4l22.7,51.4H8299.4z M8464.8,2939.1l27.5-33.9V2895H8423v13.1
	h50.5l-26.4,32.4v10.5h8.4c18,0,26,7.2,26,18.3c0,11.4-9,18.6-24.8,18.6c-12.9,0-24.6-4.7-31.7-11.2l-6.9,11.8
	c8.8,7.9,23.5,12.8,38.5,12.8c26.7,0,39.8-14.4,39.8-32.1C8496.5,2952.9,8485.8,2941.1,8464.8,2939.1z"/>
<path class="st16" d="M5196.6,1584l-39.8-54.3l37.1-50.7h-16.4l-29.1,40.3l-29.4-40.3H5102l37.1,51.2l-39.5,53.8h17.2l31-43.3
	l31.5,43.3H5196.6z M5322.5,1584l-0.1-105h-12.3l-43.2,73.8l-43.8-73.8h-12.3v105h14.4v-76.1l38,63.3h6.9l38-63.8l0.1,76.5H5322.5z
	 M5354.1,1584h71.9v-13.1h-56.9V1479h-15V1584z M5031.9,1749h14.9v-91.9h36V1644h-86.9v13.1h36V1749z M5121.7,1668.8
	c-12.8,0-24.6,3.6-32.9,10.2l6,10.8c6.2-5.2,15.8-8.6,25.2-8.6c14.2,0,21.3,7.1,21.3,19.2v2.8h-22.8c-23.7,0-32,10.5-32,23.2
	c0,13.8,11.4,23.4,29.4,23.4c12.5,0,21.3-4.2,26.1-11.4v10.5h13.6v-48C5155.8,1679.2,5143.5,1668.8,5121.7,1668.8z M5118.4,1738.8
	c-10.9,0-17.5-5-17.5-12.9c0-6.8,4-12.3,18.3-12.3h22.2v11.1C5137.8,1733.8,5129.2,1738.8,5118.4,1738.8z M5245.2,1669.5v12.3
	c-6.8-8.7-17.5-13.1-29.4-13.1c-22.9,0-40.4,15.4-40.4,38.4c0,22.9,17.4,38.5,40.4,38.5c11.4,0,21.8-4,28.6-12.3v6.3
	c0,18-8.5,26.7-27.3,26.7c-11.7,0-23.2-4.1-30.6-10.3l-6.9,11.1c8.7,7.8,23.4,11.8,38,11.8c27,0,41.2-12.8,41.2-40.8v-68.7H5245.2z
	 M5217.5,1733.1c-16,0-27.4-10.7-27.4-25.9c0-15.5,11.4-25.8,27.4-25.8c15.9,0,27.3,10.3,27.3,25.8
	C5244.8,1722.4,5233.4,1733.1,5217.5,1733.1z M5348.8,1669.5v12.3c-6.8-8.7-17.6-13.1-29.4-13.1c-22.9,0-40.3,15.4-40.3,38.4
	c0,22.9,17.4,38.5,40.3,38.5c11.4,0,21.8-4,28.7-12.3v6.3c0,18-8.6,26.7-27.3,26.7c-11.7,0-23.2-4.1-30.6-10.3l-6.9,11.1
	c8.7,7.8,23.4,11.8,38,11.8c27,0,41.2-12.8,41.2-40.8v-68.7H5348.8z M5321.1,1733.1c-16.1,0-27.5-10.7-27.5-25.9
	c0-15.5,11.4-25.8,27.5-25.8c15.9,0,27.3,10.3,27.3,25.8C5348.4,1722.4,5337,1733.1,5321.1,1733.1z M5461.8,1709.7
	c0-24.4-16.4-40.9-39.3-40.9c-23,0-39.9,16.9-39.9,40.5c0,23.7,17.1,40.7,42.8,40.7c13.2,0,24.1-4.5,31.3-12.9l-7.9-9.3
	c-5.9,6.5-13.6,9.6-23,9.6c-15.8,0-27-9.3-28.8-23.2h64.5C5461.7,1712.7,5461.8,1710.9,5461.8,1709.7z M5422.5,1680.9
	c13.9,0,24,9.4,25.5,22.8h-51C5398.5,1690.2,5408.7,1680.9,5422.5,1680.9z M5495.6,1682.8v-13.3h-13.8v79.5h14.4v-39.6
	c0-17.4,9.6-26.8,25.1-26.8c1,0,2.1,0,3.3,0.1v-13.9C5510.6,1668.8,5500.7,1673.6,5495.6,1682.8z"/>
<path class="st16" d="M1416.6,3100l-0.2-105h-12.3l-43.2,73.8l-43.8-73.8h-12.3v105h14.4v-76.1l37.9,63.3h6.9l37.9-63.8l0.2,76.5
	H1416.6z M1478.7,3101.2c27.8,0,40.6-13.8,40.6-29.8c0-38.6-63.6-22.5-63.6-48.2c0-9.1,7.7-16.6,25.5-16.6c9.3,0,19.7,2.7,28.8,8.6
	l4.9-12c-8.7-6-21.4-9.3-33.8-9.3c-27.6,0-40.2,13.8-40.2,30c0,39,63.6,22.8,63.6,48.4c0,9.1-7.8,16.2-25.9,16.2
	c-13.5,0-26.9-5.1-34.7-12.1l-5.6,11.7C1446.9,3095.8,1462.7,3101.2,1478.7,3101.2z M1571.9,3101.2c27.8,0,40.7-13.8,40.7-29.8
	c0-38.6-63.6-22.5-63.6-48.2c0-9.1,7.7-16.6,25.5-16.6c9.3,0,19.7,2.7,28.8,8.6l4.9-12c-8.7-6-21.4-9.3-33.8-9.3
	c-27.6,0-40.2,13.8-40.2,30c0,39,63.6,22.8,63.6,48.4c0,9.1-7.8,16.2-25.9,16.2c-13.5,0-26.8-5.1-34.7-12.1l-5.6,11.7
	C1540.1,3095.8,1555.8,3101.2,1571.9,3101.2z M1701.7,2999.6c4.2,0,8.1,1.5,11.1,3.8l4.3-10.9c-4.1-3.1-10.1-4.6-16.2-4.6
	c-16.9,0-26.2,10.2-26.2,25.6v7.1h-13.5v11.9h13.5v67.6h14.4v-67.6h22.8v-11.9h-23.1v-6.9
	C1688.8,3004.4,1693.2,2999.6,1701.7,2999.6z M1758.4,3100.9c23.9,0,41.2-16.9,41.2-40.6s-17.4-40.5-41.2-40.5
	c-23.8,0-41.4,16.8-41.4,40.5S1734.5,3100.9,1758.4,3100.9z M1758.4,3088.3c-15.3,0-26.8-11.1-26.8-28.1s11.6-27.9,26.8-27.9
	c15.3,0,26.7,10.9,26.7,27.9S1773.7,3088.3,1758.4,3088.3z M1833.4,3033.9v-13.4h-13.8v79.5h14.4v-39.6c0-17.4,9.6-26.8,25.1-26.8
	c1.1,0,2.1,0,3.3,0.1v-13.9C1848.4,3019.8,1838.5,3024.6,1833.4,3033.9z M1979.5,3019.8c-13.5,0-24.6,5.7-30.6,14.7
	c-5.2-9.9-15.4-14.7-27.6-14.7c-12,0-21.8,4.5-27.5,12.6v-11.9H1880v79.5h14.4v-40.9c0-17.2,9.4-26.4,23.9-26.4
	c13,0,20.5,7.7,20.5,23.2v44.1h14.4v-40.9c0-17.2,9.4-26.4,23.8-26.4c13,0,20.5,7.7,20.5,23.2v44.1h14.4v-45.8
	C2012,3030.9,1998.8,3019.8,1979.5,3019.8z"/>
<path class="st13" d="M261.8,3744.2c27.7,0,40.6-13.8,40.6-29.8c0-38.6-63.6-22.5-63.6-48.2c0-9.1,7.6-16.6,25.5-16.6
	c9.3,0,19.6,2.7,28.8,8.6l5-12c-8.7-6-21.5-9.3-33.8-9.3c-27.6,0-40.2,13.8-40.2,30c0,39,63.6,22.8,63.6,48.4
	c0,9.1-7.8,16.2-25.9,16.2c-13.5,0-26.9-5.1-34.7-12.1l-5.5,11.7C230,3738.8,245.7,3744.2,261.8,3744.2z M329.4,3648.2
	c5.7,0,9.8-4.2,9.8-9.6c0-5.1-4.2-9.2-9.8-9.2c-5.5,0-9.8,4.2-9.8,9.4S323.9,3648.2,329.4,3648.2z M322.2,3743h14.4v-79.5h-14.4
	V3743z M406.6,3662.8c-12.6,0-22.8,4.6-28.7,12.8v-12h-13.8v79.5h14.4v-40.9c0-17.2,9.9-26.4,25.2-26.4c13.6,0,21.4,7.7,21.4,23.2
	v44.1h14.4v-45.8C439.6,3673.9,425.9,3662.8,406.6,3662.8z M529.1,3663.5v12.3c-6.8-8.7-17.5-13.1-29.4-13.1
	c-23,0-40.4,15.4-40.4,38.4c0,23,17.4,38.6,40.4,38.6c11.4,0,21.8-4.1,28.6-12.3v6.3c0,18-8.5,26.7-27.3,26.7
	c-11.7,0-23.2-4-30.6-10.3l-6.9,11.1c8.7,7.8,23.4,11.9,37.9,11.9c27,0,41.2-12.8,41.2-40.8v-68.7H529.1z M501.3,3727.1
	c-16,0-27.4-10.7-27.4-26c0-15.4,11.4-25.8,27.4-25.8c15.9,0,27.3,10.3,27.3,25.8C528.6,3716.4,517.2,3727.1,501.3,3727.1z
	 M570.2,3743h14.4v-111.3h-14.4V3743z M684,3703.7c0-24.4-16.3-40.9-39.3-40.9s-39.9,16.9-39.9,40.5c0,23.7,17.1,40.6,42.8,40.6
	c13.2,0,24.2-4.5,31.4-12.9l-8-9.3c-5.8,6.4-13.7,9.6-23,9.6c-15.8,0-27-9.3-28.8-23.2h64.5C683.8,3706.7,684,3704.9,684,3703.7z
	 M644.7,3674.9c14,0,24,9.5,25.5,22.8h-51C620.7,3684.2,630.9,3674.9,644.7,3674.9z M146.4,3827.8c-13.5,0-24.6,5.7-30.6,14.7
	c-5.3-9.9-15.5-14.7-27.6-14.7c-12,0-21.8,4.5-27.4,12.6v-11.9H47v79.5h14.4v-40.9c0-17.2,9.5-26.4,23.8-26.4
	c13.1,0,20.6,7.7,20.6,23.2v44.1h14.4v-40.9c0-17.2,9.5-26.4,23.8-26.4c13,0,20.5,7.7,20.5,23.2v44.1H179v-45.8
	C179,3838.9,165.8,3827.8,146.4,3827.8z M234.4,3827.8c-12.8,0-24.6,3.6-32.9,10.2l6,10.8c6.2-5.2,15.8-8.6,25.2-8.6
	c14.2,0,21.3,7.1,21.3,19.2v2.9h-22.8c-23.7,0-31.9,10.5-31.9,23.2c0,13.8,11.4,23.4,29.4,23.4c12.4,0,21.3-4.2,26.1-11.4v10.5h13.7
	v-48C268.5,3838.2,256.2,3827.8,234.4,3827.8z M231.1,3897.8c-10.9,0-17.6-4.9-17.6-12.9c0-6.8,4.1-12.3,18.3-12.3h22.2v11.1
	C250.5,3892.9,241.9,3897.8,231.1,3897.8z M337.6,3827.8c-12.6,0-22.8,4.6-28.6,12.8v-12h-13.8v79.5h14.4v-40.9
	c0-17.2,9.9-26.4,25.2-26.4c13.7,0,21.5,7.7,21.5,23.2v44.1h14.4v-45.8C370.6,3838.9,356.9,3827.8,337.6,3827.8z M456.9,3828.5v41.1
	c0,17.1-9.6,26.4-24.6,26.4c-13.7,0-21.5-7.8-21.5-23.4v-44.1h-14.4v45.8c0,23.4,13.6,34.6,34.2,34.6c11.2,0,21.2-4.6,27-12.9v12
	h13.7v-79.5H456.9z M521.5,3908.9c21.1,0,34.3-9.1,34.3-23.5c0-30.9-50.4-15.6-50.4-34.4c0-6.3,6.2-10.9,18.8-10.9
	c7.8,0,15.8,1.6,23,6.3l6.2-11.4c-6.9-4.5-18.6-7.2-29-7.2c-20.4,0-33.2,9.6-33.2,23.9c0,31.6,50.2,16.2,50.2,34
	c0,6.8-5.5,10.8-18.9,10.8c-10.3,0-21.1-3.4-27.9-8.2l-6,11.4C495.3,3904.9,508.3,3908.9,521.5,3908.9z M608.5,3908.9
	c14.2,0,26.1-6,32.4-17.1l-11-6.9c-5.1,7.8-12.9,11.4-21.6,11.4c-15.6,0-27.3-10.8-27.3-28.1c0-16.9,11.7-27.9,27.3-27.9
	c8.7,0,16.5,3.6,21.6,11.4l11-7.1c-6.3-11.1-18.2-16.9-32.4-16.9c-24.5,0-42,16.8-42,40.5S584.1,3908.9,608.5,3908.9z M673.4,3841.9
	v-13.4h-13.8v79.5H674v-39.6c0-17.4,9.6-26.8,25.1-26.8c1,0,2.1,0,3.3,0.1v-13.9C688.4,3827.8,678.5,3832.6,673.4,3841.9z
	 M727.3,3813.2c5.7,0,9.8-4.2,9.8-9.6c0-5.1-4.2-9.2-9.8-9.2s-9.8,4.2-9.8,9.4S721.7,3813.2,727.3,3813.2z M720.1,3908h14.4v-79.5
	h-14.4V3908z M804.1,3827.8c-11.7,0-21.9,4.5-28.3,13.4v-12.6H762v108.6h14.4V3896c6.6,8.6,16.5,12.9,27.8,12.9
	c23.2,0,40.2-16.2,40.2-40.6C844.3,3843.9,827.4,3827.8,804.1,3827.8z M802.9,3896.3c-15.1,0-26.7-11.1-26.7-28.1
	c0-16.8,11.6-27.9,26.7-27.9c15.3,0,26.9,11.1,26.9,27.9C829.8,3885.2,818.2,3896.3,802.9,3896.3z M904.4,3893
	c-3,2.4-7.1,3.8-11.2,3.8c-8,0-12.5-4.8-12.5-13.4v-43h22.8v-11.9h-22.8v-17.4h-14.4v17.4h-13.5v11.9h13.5v43.6
	c0,16.1,9.2,24.9,25.2,24.9c6.5,0,13-1.8,17.4-5.5L904.4,3893z M133.3,4072.9c21.2,0,34.4-9.1,34.4-23.5c0-30.9-50.4-15.6-50.4-34.4
	c0-6.3,6.1-10.9,18.7-10.9c7.8,0,15.8,1.6,23,6.3l6.1-11.4c-6.9-4.5-18.6-7.2-29-7.2c-20.4,0-33.1,9.6-33.1,23.9
	c0,31.6,50.2,16.2,50.2,34c0,6.8-5.5,10.8-18.9,10.8c-10.3,0-21.1-3.4-27.9-8.2l-6,11.4C107,4068.9,120.1,4072.9,133.3,4072.9z
	 M245.3,3992.5v41.1c0,17.1-9.6,26.4-24.6,26.4c-13.7,0-21.5-7.8-21.5-23.4v-44.1h-14.4v45.8c0,23.4,13.6,34.6,34.2,34.6
	c11.2,0,21.2-4.6,27-12.9v12h13.7v-79.5H245.3z M329.3,3991.8c-11.2,0-21.1,4.2-27.8,12.8v-43.8h-14.4V4072h13.8v-12.6
	c6.5,9,16.7,13.5,28.4,13.5c23.2,0,40.2-16.3,40.2-40.6S352.5,3991.8,329.3,3991.8z M328.1,4060.3c-15.2,0-26.7-11.1-26.7-28.1
	s11.5-27.9,26.7-27.9c15.3,0,26.8,10.9,26.8,27.9S343.4,4060.3,328.1,4060.3z M488.8,3991.8c-13.5,0-24.6,5.7-30.6,14.7
	c-5.2-9.9-15.5-14.7-27.6-14.7c-12,0-21.8,4.5-27.5,12.6v-11.9h-13.8v79.5h14.4v-40.9c0-17.2,9.5-26.4,23.9-26.4
	c13,0,20.5,7.7,20.5,23.2v44.1h14.4v-40.9c0-17.2,9.4-26.4,23.8-26.4c13.1,0,20.6,7.7,20.6,23.2v44.1h14.4v-45.8
	C521.4,4002.9,508.2,3991.8,488.8,3991.8z M555.1,3977.2c5.7,0,9.8-4.2,9.8-9.6c0-5.1-4.2-9.2-9.8-9.2s-9.8,4.2-9.8,9.4
	S549.5,3977.2,555.1,3977.2z M547.9,4072h14.4v-79.5h-14.4V4072z M630,4057c-3,2.4-7,3.8-11.2,3.8c-7.9,0-12.4-4.8-12.4-13.4v-43
	h22.8v-11.9h-22.8v-17.4h-14.4v17.4h-13.5v11.9h13.5v43.6c0,16.1,9.2,24.9,25.2,24.9c6.5,0,13-1.8,17.4-5.5L630,4057z M690.2,4057
	c-3,2.4-7,3.8-11.2,3.8c-8,0-12.5-4.8-12.5-13.4v-43h22.8v-11.9h-22.8v-17.4h-14.4v17.4h-13.5v11.9h13.5v43.6
	c0,16.1,9.1,24.9,25.2,24.9c6.4,0,13-1.8,17.4-5.5L690.2,4057z M781.3,4032.7c0-24.4-16.3-40.9-39.3-40.9s-39.9,16.9-39.9,40.5
	c0,23.7,17.1,40.6,42.8,40.6c13.2,0,24.1-4.5,31.3-12.9l-8-9.3c-5.8,6.4-13.6,9.6-23,9.6c-15.8,0-27-9.3-28.8-23.2H781
	C781.2,4035.7,781.3,4033.9,781.3,4032.7z M742,4003.9c14,0,24,9.5,25.5,22.8h-51C718,4013.2,728.2,4003.9,742,4003.9z
	 M815.1,4005.9v-13.4h-13.8v79.5h14.4v-39.6c0-17.4,9.6-26.8,25-26.8c1,0,2.1,0,3.3,0.1v-13.9
	C830.1,3991.8,820.2,3996.6,815.1,4005.9z"/>
<path class="st16" d="M955,3193.2c-3.9,3.9-4,10.2-0.1,14.1l63,64.2c3.9,3.9,10.2,4,14.1,0.1c3.9-3.9,4-10.2,0.1-14.1l-56-57.1
	l57.1-56c3.9-3.9,4-10.2,0.1-14.1c-3.9-3.9-10.2-4-14.1-0.1L955,3193.2z M7389.1,3261.1l0.1-10l0,0L7389.1,3261.1z M986.8,3210.6
	c5.5,0,10-4.4,10.1-9.9c0.1-5.5-4.4-10-9.9-10.1L986.8,3210.6z M1086.7,3191.5c-5.5-0.1-10,4.4-10.1,9.9c-0.1,5.5,4.4,10,9.9,10.1
	L1086.7,3191.5z M1136.3,3212c5.5,0.1,10-4.4,10.1-9.9s-4.4-10-9.9-10.1L1136.3,3212z M1236.1,3192.9c-5.5-0.1-10,4.4-10.1,9.9
	s4.4,10,9.9,10.1L1236.1,3192.9z M1285.7,3213.4c5.5,0,10-4.4,10.1-9.9c0.1-5.5-4.4-10-9.9-10.1L1285.7,3213.4z M1385.6,3194.4
	c-5.5-0.1-10,4.4-10.1,9.9c-0.1,5.5,4.4,10,9.9,10.1L1385.6,3194.4z M1435.2,3214.8c5.5,0.1,10-4.4,10.1-9.9s-4.4-10-9.9-10.1
	L1435.2,3214.8z M1535,3195.8c-5.5-0.1-10,4.4-10.1,9.9c-0.1,5.5,4.4,10,9.9,10.1L1535,3195.8z M1584.7,3216.2
	c5.5,0.1,10-4.4,10.1-9.9c0.1-5.5-4.4-10-9.9-10.1L1584.7,3216.2z M1684.5,3197.2c-5.5,0-10,4.4-10.1,9.9c-0.1,5.5,4.4,10,9.9,10.1
	L1684.5,3197.2z M1734.1,3217.6c5.5,0,10-4.4,10.1-9.9c0.1-5.5-4.4-10.1-9.9-10.1L1734.1,3217.6z M1834,3198.6
	c-5.5-0.1-10,4.4-10.1,9.9c-0.1,5.5,4.4,10,9.9,10.1L1834,3198.6z M1883.6,3219.1c5.5,0.1,10-4.4,10.1-9.9c0.1-5.5-4.4-10-9.9-10.1
	L1883.6,3219.1z M1983.4,3200c-5.5-0.1-10,4.4-10.1,9.9c0,5.5,4.4,10,9.9,10.1L1983.4,3200z M2033.1,3220.5c5.5,0.1,10-4.4,10.1-9.9
	c0-5.5-4.4-10-9.9-10.1L2033.1,3220.5z M2132.9,3201.4c-5.5-0.1-10,4.4-10.1,9.9c0,5.5,4.4,10,9.9,10.1L2132.9,3201.4z
	 M2182.6,3221.9c5.5,0.1,10-4.4,10.1-9.9c0-5.5-4.4-10-9.9-10.1L2182.6,3221.9z M2282.4,3202.8c-5.5,0-10,4.4-10.1,9.9
	c-0.1,5.5,4.4,10,9.9,10.1L2282.4,3202.8z M2332,3223.3c5.5,0,10.1-4.4,10.1-9.9c0.1-5.5-4.4-10-9.9-10.1L2332,3223.3z
	 M2431.9,3204.2c-5.5,0-10,4.4-10.1,9.9c-0.1,5.5,4.4,10.1,9.9,10.1L2431.9,3204.2z M2481.5,3224.7c5.5,0.1,10-4.4,10.1-9.9
	c0.1-5.5-4.4-10-9.9-10.1L2481.5,3224.7z M2581.3,3205.6c-5.5-0.1-10,4.4-10.1,9.9c-0.1,5.5,4.4,10,9.9,10.1L2581.3,3205.6z
	 M2630.9,3226.1c5.5,0.1,10-4.4,10.1-9.9c0-5.5-4.4-10-9.9-10.1L2630.9,3226.1z M2730.8,3207.1c-5.5-0.1-10,4.4-10.1,9.9
	c-0.1,5.5,4.4,10,9.9,10.1L2730.8,3207.1z M2780.4,3227.5c5.5,0,10-4.4,10.1-9.9c0.1-5.5-4.4-10.1-9.9-10.1L2780.4,3227.5z
	 M2880.2,3208.5c-5.5,0-10.1,4.4-10.1,9.9c0,5.5,4.4,10,9.9,10.1L2880.2,3208.5z M2929.9,3228.9c5.5,0.1,10-4.4,10.1-9.9
	c0.1-5.5-4.4-10-9.9-10.1L2929.9,3228.9z M3029.7,3209.9c-5.5-0.1-10,4.4-10.1,9.9c-0.1,5.5,4.4,10,9.9,10.1L3029.7,3209.9z
	 M3079.4,3230.3c5.5,0.1,10-4.4,10.1-9.9s-4.4-10-9.9-10.1L3079.4,3230.3z M3179.2,3211.3c-5.5-0.1-10,4.4-10.1,9.9
	c-0.1,5.5,4.4,10,9.9,10.1L3179.2,3211.3z M3228.8,3231.8c5.5,0.1,10-4.4,10.1-9.9c0.1-5.5-4.4-10-9.9-10.1L3228.8,3231.8z
	 M3328.6,3212.7c-5.5-0.1-10,4.4-10.1,9.9c-0.1,5.5,4.4,10,9.9,10.1L3328.6,3212.7z M3378.3,3233.2c5.5,0.1,10-4.4,10.1-9.9
	c0.1-5.5-4.4-10-9.9-10.1L3378.3,3233.2z M3478.1,3214.1c-5.5,0-10,4.4-10.1,9.9c-0.1,5.5,4.4,10,9.9,10.1L3478.1,3214.1z
	 M3527.8,3234.6c5.5,0,10-4.4,10.1-9.9c0-5.5-4.4-10-9.9-10.1L3527.8,3234.6z M3627.6,3215.5c-5.5-0.1-10,4.4-10.1,9.9
	c-0.1,5.5,4.4,10,9.9,10.1L3627.6,3215.5z M3677.2,3236c5.5,0.1,10-4.4,10.1-9.9c0.1-5.5-4.4-10-9.9-10.1L3677.2,3236z
	 M3777.1,3216.9c-5.5-0.1-10.1,4.4-10.1,9.9s4.4,10,9.9,10.1L3777.1,3216.9z M3826.7,3237.4c5.5,0.1,10-4.4,10.1-9.9
	s-4.4-10-9.9-10.1L3826.7,3237.4z M3926.5,3218.3c-5.5,0-10,4.4-10.1,9.9c0,5.5,4.4,10,9.9,10.1L3926.5,3218.3z M3976.1,3238.8
	c5.5,0.1,10.1-4.4,10.1-9.9s-4.4-10-9.9-10.1L3976.1,3238.8z M4076,3219.8c-5.5-0.1-10,4.4-10.1,9.9c0,5.5,4.4,10,9.9,10.1
	L4076,3219.8z M4125.6,3240.2c5.5,0.1,10-4.4,10.1-9.9c0-5.5-4.4-10-9.9-10.1L4125.6,3240.2z M4225.4,3221.2c-5.5,0-10,4.4-10.1,9.9
	c-0.1,5.5,4.4,10.1,9.9,10.1L4225.4,3221.2z M4275.1,3241.6c5.5,0,10-4.4,10.1-9.9c0-5.5-4.4-10-9.9-10.1L4275.1,3241.6z
	 M4374.9,3222.6c-5.5-0.1-10,4.4-10.1,9.9c-0.1,5.5,4.4,10.1,9.9,10.1L4374.9,3222.6z M4424.5,3243.1c5.5,0.1,10-4.4,10.1-9.9
	c0.1-5.5-4.4-10-9.9-10.1L4424.5,3243.1z M4524.4,3224c-5.5-0.1-10,4.4-10.1,9.9c-0.1,5.5,4.4,10,9.9,10.1L4524.4,3224z
	 M4574,3244.5c5.5,0.1,10-4.4,10.1-9.9c0.1-5.5-4.4-10.1-9.9-10.1L4574,3244.5z M4673.8,3225.4c-5.5,0-10,4.4-10.1,9.9
	s4.4,10,9.9,10.1L4673.8,3225.4z M4723.5,3245.9c5.5,0,10-4.4,10.1-9.9c0-5.5-4.4-10-9.9-10.1L4723.5,3245.9z M4823.3,3226.8
	c-5.5-0.1-10,4.4-10.1,9.9c-0.1,5.5,4.4,10,9.9,10.1L4823.3,3226.8z M4872.9,3247.3c5.5,0.1,10.1-4.4,10.1-9.9s-4.4-10-9.9-10.1
	L4872.9,3247.3z M4972.8,3228.2c-5.5-0.1-10.1,4.4-10.1,9.9c0,5.5,4.4,10,9.9,10.1L4972.8,3228.2z M5022.4,3248.7
	c5.5,0.1,10-4.4,10.1-9.9c0.1-5.5-4.4-10-9.9-10.1L5022.4,3248.7z M5122.2,3229.6c-5.5-0.1-10,4.4-10.1,9.9c0,5.5,4.4,10,9.9,10.1
	L5122.2,3229.6z M5171.9,3250.1c5.5,0.1,10-4.4,10.1-9.9c0-5.5-4.4-10-9.9-10.1L5171.9,3250.1z M5271.7,3231.1
	c-5.5-0.1-10,4.4-10.1,9.9c-0.1,5.5,4.4,10.1,9.9,10.1L5271.7,3231.1z M5321.3,3251.5c5.5,0,10-4.4,10.1-9.9
	c0.1-5.5-4.4-10-9.9-10.1L5321.3,3251.5z M5421.2,3232.5c-5.5,0-10.1,4.4-10.1,9.9c-0.1,5.5,4.4,10,9.9,10.1L5421.2,3232.5z
	 M5470.8,3252.9c5.5,0,10-4.4,10.1-9.9c0.1-5.5-4.4-10.1-9.9-10.1L5470.8,3252.9z M5570.6,3233.9c-5.5-0.1-10,4.4-10.1,9.9
	c0,5.5,4.4,10,9.9,10.1L5570.6,3233.9z M5620.3,3254.3c5.5,0.1,10-4.4,10.1-9.9c0-5.5-4.4-10-9.9-10.1L5620.3,3254.3z
	 M5720.1,3235.3c-5.5-0.1-10,4.4-10.1,9.9c0,5.5,4.4,10,9.9,10.1L5720.1,3235.3z M5769.7,3255.8c5.5,0.1,10-4.4,10.1-9.9
	c0.1-5.5-4.4-10-9.9-10.1L5769.7,3255.8z M5869.6,3236.7c-5.5-0.1-10,4.4-10.1,9.9s4.4,10,9.9,10.1L5869.6,3236.7z M5919.2,3257.2
	c5.5,0.1,10-4.4,10.1-9.9c0.1-5.5-4.4-10-9.9-10.1L5919.2,3257.2z M6019,3238.1c-5.5,0-10,4.4-10.1,9.9c-0.1,5.5,4.4,10,9.9,10.1
	L6019,3238.1z M6068.7,3258.6c5.5,0,10.1-4.4,10.1-9.9s-4.4-10-9.9-10.1L6068.7,3258.6z M6168.5,3239.5c-5.5-0.1-10,4.4-10.1,9.9
	c-0.1,5.5,4.4,10.1,9.9,10.1L6168.5,3239.5z M6218.1,3260c5.5,0.1,10-4.4,10.1-9.9c0.1-5.5-4.4-10-9.9-10.1L6218.1,3260z
	 M6318,3240.9c-5.5-0.1-10,4.4-10.1,9.9c0,5.5,4.4,10,9.9,10.1L6318,3240.9z M6367.6,3261.4c5.5,0.1,10-4.4,10.1-9.9
	c0-5.5-4.4-10.1-9.9-10.1L6367.6,3261.4z M6467.4,3242.3c-5.5,0-10,4.4-10.1,9.9c-0.1,5.5,4.4,10,9.9,10.1L6467.4,3242.3z
	 M6517.1,3262.8c5.5,0,10.1-4.4,10.1-9.9c0.1-5.5-4.4-10.1-9.9-10.1L6517.1,3262.8z M6616.9,3243.8c-5.5-0.1-10,4.4-10.1,9.9
	c-0.1,5.5,4.4,10,9.9,10.1L6616.9,3243.8z M6666.5,3264.2c5.5,0.1,10-4.4,10.1-9.9c0.1-5.5-4.4-10-9.9-10.1L6666.5,3264.2z
	 M6766.4,3245.2c-5.5-0.1-10,4.4-10.1,9.9c0,5.5,4.4,10,9.9,10.1L6766.4,3245.2z M6816,3265.6c5.5,0,10-4.4,10.1-9.9
	c0-5.5-4.4-10-9.9-10.1L6816,3265.6z M6915.8,3246.6c-5.5-0.1-10,4.4-10.1,9.9c-0.1,5.5,4.4,10,9.9,10.1L6915.8,3246.6z
	 M6965.5,3267.1c5.5,0.1,10-4.4,10.1-9.9c0.1-5.5-4.4-10-9.9-10.1L6965.5,3267.1z M7065.3,3248c-5.5-0.1-10.1,4.4-10.1,9.9
	c0,5.5,4.4,10,9.9,10.1L7065.3,3248z M7114.9,3268.5c5.5,0.1,10-4.4,10.1-9.9c0.1-5.5-4.4-10-9.9-10.1L7114.9,3268.5z
	 M7214.8,3249.4c-5.5,0-10,4.4-10.1,9.9c-0.1,5.5,4.4,10,9.9,10.1L7214.8,3249.4z M7264.4,3269.9c5.5,0,10-4.4,10.1-9.9
	c0-5.5-4.4-10-9.9-10.1L7264.4,3269.9z M7364.2,3250.8c-5.5-0.1-10,4.4-10.1,9.9c-0.1,5.5,4.4,10,9.9,10.1L7364.2,3250.8z
	 M7417.6,3267.6c5.3-1.4,8.6-6.8,7.2-12.2c-1.4-5.3-6.8-8.6-12.2-7.2L7417.6,3267.6z M7476.9,3184.5c-1.4,5.3,1.7,10.8,7.1,12.2
	c5.3,1.4,10.8-1.7,12.2-7.1L7476.9,3184.5z M7500,3135.2c0-5.5-4.5-10-10-10s-10,4.5-10,10H7500z M7480,3031.6c0,5.5,4.5,10,10,10
	s10-4.5,10-10H7480z M7500,2979.8c0-5.5-4.5-10-10-10s-10,4.5-10,10H7500z M7480,2876.3c0,5.5,4.5,10,10,10s10-4.5,10-10H7480z
	 M7500,2824.5c0-5.5-4.5-10-10-10s-10,4.5-10,10H7500z M7480,2720.9c0,5.5,4.5,10,10,10s10-4.5,10-10H7480z M7500,2669.1
	c0-5.5-4.5-10-10-10s-10,4.5-10,10H7500z M7480,2565.6c0,5.5,4.5,10,10,10s10-4.5,10-10H7480z M7500,2513.8c0-5.5-4.5-10-10-10
	s-10,4.5-10,10H7500z M7480,2410.2c0,5.5,4.5,10,10,10s10-4.5,10-10H7480z M7500,2358.5c0-5.5-4.5-10-10-10s-10,4.5-10,10H7500z
	 M7480,2254.9c0,5.5,4.5,10,10,10s10-4.5,10-10H7480z M7500,2203.1c0-5.5-4.5-10-10-10s-10,4.5-10,10H7500z M7480,2099.6
	c0,5.5,4.5,10,10,10s10-4.5,10-10H7480z M7500,2047.8c0-5.5-4.5-10-10-10s-10,4.5-10,10H7500z M7480,1944.2c0,5.5,4.5,10,10,10
	s10-4.5,10-10H7480z M7500,1892.4c0-5.5-4.5-10-10-10s-10,4.5-10,10H7500z M7480,1788.9c0,5.5,4.5,10,10,10s10-4.5,10-10H7480z
	 M961.9,3210.4l24.9,0.2l0.2-20l-24.9-0.2L961.9,3210.4z M1086.5,3211.5l49.8,0.5l0.2-20l-49.8-0.5L1086.5,3211.5z M1235.9,3212.9
	l49.8,0.5l0.2-20l-49.8-0.5L1235.9,3212.9z M1385.4,3214.4l49.8,0.5l0.2-20l-49.8-0.5L1385.4,3214.4z M1534.9,3215.8l49.8,0.5
	l0.2-20l-49.8-0.5L1534.9,3215.8z M1684.3,3217.2l49.8,0.5l0.2-20l-49.8-0.5L1684.3,3217.2z M1833.8,3218.6l49.8,0.5l0.2-20
	l-49.8-0.5L1833.8,3218.6z M1983.3,3220l49.8,0.5l0.2-20l-49.8-0.5L1983.3,3220z M2132.7,3221.4l49.8,0.5l0.2-20l-49.8-0.5
	L2132.7,3221.4z M2282.2,3222.8l49.8,0.5l0.2-20l-49.8-0.5L2282.2,3222.8z M2431.7,3224.2l49.8,0.5l0.2-20l-49.8-0.5L2431.7,3224.2z
	 M2581.1,3225.6l49.8,0.5l0.2-20l-49.8-0.5L2581.1,3225.6z M2730.6,3227.1l49.8,0.5l0.2-20l-49.8-0.5L2730.6,3227.1z M2880.1,3228.5
	l49.8,0.5l0.2-20l-49.8-0.5L2880.1,3228.5z M3029.5,3229.9l49.8,0.5l0.2-20l-49.8-0.5L3029.5,3229.9z M3179,3231.3l49.8,0.5l0.2-20
	l-49.8-0.5L3179,3231.3z M3328.5,3232.7l49.8,0.5l0.2-20l-49.8-0.5L3328.5,3232.7z M3477.9,3234.1l49.8,0.5l0.2-20l-49.8-0.5
	L3477.9,3234.1z M3627.4,3235.5l49.8,0.5l0.2-20l-49.8-0.5L3627.4,3235.5z M3776.9,3236.9l49.8,0.5l0.2-20l-49.8-0.5L3776.9,3236.9z
	 M3926.3,3238.3l49.8,0.5l0.2-20l-49.8-0.5L3926.3,3238.3z M4075.8,3239.8l49.8,0.5l0.2-20l-49.8-0.5L4075.8,3239.8z M4225.3,3241.2
	l49.8,0.5l0.2-20l-49.8-0.5L4225.3,3241.2z M4374.7,3242.6l49.8,0.5l0.2-20l-49.8-0.5L4374.7,3242.6z M4524.2,3244l49.8,0.5l0.2-20
	l-49.8-0.5L4524.2,3244z M4673.6,3245.4l49.8,0.5l0.2-20l-49.8-0.5L4673.6,3245.4z M4823.1,3246.8l49.8,0.5l0.2-20l-49.8-0.5
	L4823.1,3246.8z M4972.6,3248.2l49.8,0.5l0.2-20l-49.8-0.5L4972.6,3248.2z M5122,3249.6l49.8,0.5l0.2-20l-49.8-0.5L5122,3249.6z
	 M5271.5,3251.1l49.8,0.5l0.2-20l-49.8-0.5L5271.5,3251.1z M5421,3252.5l49.8,0.5l0.2-20l-49.8-0.5L5421,3252.5z M5570.5,3253.9
	l49.8,0.5l0.2-20l-49.8-0.5L5570.5,3253.9z M5719.9,3255.3l49.8,0.5l0.2-20l-49.8-0.5L5719.9,3255.3z M5869.4,3256.7l49.8,0.5
	l0.2-20l-49.8-0.5L5869.4,3256.7z M6018.9,3258.1l49.8,0.5l0.2-20l-49.8-0.5L6018.9,3258.1z M6168.3,3259.5l49.8,0.5l0.2-20
	l-49.8-0.5L6168.3,3259.5z M6317.8,3260.9l49.8,0.5l0.2-20l-49.8-0.5L6317.8,3260.9z M6467.2,3262.3l49.8,0.5l0.2-20l-49.8-0.5
	L6467.2,3262.3z M6616.7,3263.8l49.8,0.5l0.2-20l-49.8-0.5L6616.7,3263.8z M6766.2,3265.2l49.8,0.5l0.2-20l-49.8-0.5L6766.2,3265.2z
	 M6915.6,3266.6l49.8,0.5l0.2-20l-49.8-0.5L6915.6,3266.6z M7065.1,3268l49.8,0.5l0.2-20l-49.8-0.5L7065.1,3268z M7214.6,3269.4
	l49.8,0.5l0.2-20l-49.8-0.5L7214.6,3269.4z M7364,3270.8l24.9,0.2l0.2-20l-24.9-0.2L7364,3270.8z M7389,3271.1
	c9.9,0.1,19.5-1.1,28.7-3.5l-5-19.4c-7.5,1.9-15.3,2.9-23.5,2.9L7389,3271.1z M7496.2,3189.7c2.5-9.1,3.8-18.7,3.8-28.6h-20
	c0,8.1-1.1,16-3.1,23.4L7496.2,3189.7z M7500,3161.1v-25.9h-20v25.9H7500z M7500,3031.6v-51.8h-20v51.8H7500z M7500,2876.3v-51.8
	h-20v51.8H7500z M7500,2720.9v-51.8h-20v51.8H7500z M7500,2565.6v-51.8h-20v51.8H7500z M7500,2410.2v-51.8h-20v51.8H7500z
	 M7500,2254.9v-51.8h-20v51.8H7500z M7500,2099.6v-51.8h-20v51.8H7500z M7500,1944.2v-51.8h-20v51.8H7500z M7500,1788.9V1763h-20
	v25.9H7500z"/>
<path class="st16" d="M914.9,357.1c-3.9-3.9-3.9-10.2,0-14.1l63.6-63.6c3.9-3.9,10.2-3.9,14.1,0c3.9,3.9,3.9,10.2,0,14.1L936.1,350
	l56.6,56.6c3.9,3.9,3.9,10.2,0,14.1c-3.9,3.9-10.2,3.9-14.1,0L914.9,357.1z M943.7,340c5.5,0,10,4.5,10,10s-4.5,10-10,10V340z
	 M1030.5,360c-5.5,0-10-4.5-10-10s4.5-10,10-10V360z M1073.9,340c5.5,0,10,4.5,10,10s-4.5,10-10,10V340z M1160.7,360
	c-5.5,0-10-4.5-10-10s4.5-10,10-10V360z M1207.4,340c5.5,0,10,4.5,10,10s-4.5,10-10,10V340z M1307.4,360c-5.5,0-10-4.5-10-10
	s4.5-10,10-10V360z M1357.5,340c5.5,0,10,4.5,10,10s-4.5,10-10,10V340z M1457.5,360c-5.5,0-10-4.5-10-10s4.5-10,10-10V360z
	 M1507.6,340c5.5,0,10,4.5,10,10s-4.5,10-10,10V340z M1607.7,360c-5.5,0-10-4.5-10-10s4.5-10,10-10V360z M1657.7,340
	c5.5,0,10,4.5,10,10s-4.5,10-10,10V340z M1757.8,360c-5.5,0-10-4.5-10-10s4.5-10,10-10V360z M1807.8,340c5.5,0,10,4.5,10,10
	s-4.5,10-10,10V340z M1907.9,360c-5.5,0-10-4.5-10-10s4.5-10,10-10V360z M1957.9,340c5.5,0,10,4.5,10,10s-4.5,10-10,10V340z
	 M2058,360c-5.5,0-10-4.5-10-10s4.5-10,10-10V360z M2108,340c5.5,0,10,4.5,10,10s-4.5,10-10,10V340z M2208.1,360
	c-5.5,0-10-4.5-10-10s4.5-10,10-10V360z M2258.1,340c5.5,0,10,4.5,10,10s-4.5,10-10,10V340z M2358.2,360c-5.5,0-10-4.5-10-10
	s4.5-10,10-10V360z M2408.2,340c5.5,0,10,4.5,10,10s-4.5,10-10,10V340z M2508.3,360c-5.5,0-10-4.5-10-10s4.5-10,10-10V360z
	 M2558.3,340c5.5,0,10,4.5,10,10s-4.5,10-10,10V340z M2658.4,360c-5.5,0-10-4.5-10-10s4.5-10,10-10V360z M2708.4,340
	c5.5,0,10,4.5,10,10s-4.5,10-10,10V340z M2808.5,360c-5.5,0-10-4.5-10-10s4.5-10,10-10V360z M2858.6,340c5.5,0,10,4.5,10,10
	s-4.5,10-10,10V340z M2958.6,360c-5.5,0-10-4.5-10-10s4.5-10,10-10V360z M3008.7,340c5.5,0,10,4.5,10,10s-4.5,10-10,10V340z
	 M3108.7,360c-5.5,0-10-4.5-10-10s4.5-10,10-10V360z M3158.8,340c5.5,0,10,4.5,10,10s-4.5,10-10,10V340z M3258.8,360
	c-5.5,0-10-4.5-10-10s4.5-10,10-10V360z M3308.9,340c5.5,0,10,4.5,10,10s-4.5,10-10,10V340z M3408.9,360c-5.5,0-10-4.5-10-10
	s4.5-10,10-10V360z M3459,340c5.5,0,10,4.5,10,10s-4.5,10-10,10V340z M3559.1,360c-5.5,0-10-4.5-10-10s4.5-10,10-10V360z
	 M3609.1,340c5.5,0,10,4.5,10,10s-4.5,10-10,10V340z M3709.2,360c-5.5,0-10-4.5-10-10s4.5-10,10-10V360z M3759.2,340
	c5.5,0,10,4.5,10,10s-4.5,10-10,10V340z M3859.3,360c-5.5,0-10-4.5-10-10s4.5-10,10-10V360z M3909.3,340c5.5,0,10,4.5,10,10
	s-4.5,10-10,10V340z M4009.4,360c-5.5,0-10-4.5-10-10s4.5-10,10-10V360z M4059.4,340c5.5,0,10,4.5,10,10s-4.5,10-10,10V340z
	 M4159.5,360c-5.5,0-10-4.5-10-10s4.5-10,10-10V360z M4209.5,340c5.5,0,10,4.5,10,10s-4.5,10-10,10V340z M4309.6,360
	c-5.5,0-10-4.5-10-10s4.5-10,10-10V360z M4359.6,340c5.5,0,10,4.5,10,10s-4.5,10-10,10V340z M4459.7,360c-5.5,0-10-4.5-10-10
	s4.5-10,10-10V360z M4509.7,340c5.5,0,10,4.5,10,10s-4.5,10-10,10V340z M4609.8,360c-5.5,0-10-4.5-10-10s4.5-10,10-10V360z
	 M4659.8,340c5.5,0,10,4.5,10,10s-4.5,10-10,10V340z M4759.9,360c-5.5,0-10-4.5-10-10s4.5-10,10-10V360z M4809.9,340
	c5.5,0,10,4.5,10,10s-4.5,10-10,10V340z M4910,360c-5.5,0-10-4.5-10-10s4.5-10,10-10V360z M4960,340c5.5,0,10,4.5,10,10
	s-4.5,10-10,10V340z M5060.1,360c-5.5,0-10-4.5-10-10s4.5-10,10-10V360z M5110.2,340c5.5,0,10,4.5,10,10s-4.5,10-10,10V340z
	 M5210.2,360c-5.5,0-10-4.5-10-10s4.5-10,10-10V360z M5260.3,340c5.5,0,10,4.5,10,10s-4.5,10-10,10V340z M5360.3,360
	c-5.5,0-10-4.5-10-10s4.5-10,10-10V360z M5410.4,340c5.5,0,10,4.5,10,10s-4.5,10-10,10V340z M5510.5,360c-5.5,0-10-4.5-10-10
	s4.5-10,10-10V360z M5560.5,340c5.5,0,10,4.5,10,10s-4.5,10-10,10V340z M5660.5,360c-5.5,0-10-4.5-10-10s4.5-10,10-10V360z
	 M5710.6,340c5.5,0,10,4.5,10,10s-4.5,10-10,10V340z M5810.7,360c-5.5,0-10-4.5-10-10s4.5-10,10-10V360z M5860.7,340
	c5.5,0,10,4.5,10,10s-4.5,10-10,10V340z M5960.8,360c-5.5,0-10-4.5-10-10s4.5-10,10-10V360z M6010.8,340c5.5,0,10,4.5,10,10
	s-4.5,10-10,10V340z M6110.9,360c-5.5,0-10-4.5-10-10s4.5-10,10-10V360z M6160.9,340c5.5,0,10,4.5,10,10s-4.5,10-10,10V340z
	 M6261,360c-5.5,0-10-4.5-10-10s4.5-10,10-10V360z M6314.5,343.7c5.3,1.4,8.5,6.9,7.1,12.2c-1.4,5.3-6.9,8.5-12.2,7.1L6314.5,343.7z
	 M6373,426.7c-1.4-5.3,1.8-10.8,7.1-12.2c5.3-1.4,10.8,1.7,12.2,7.1L6373,426.7z M6396,464.5c0,5.5-4.5,10-10,10s-10-4.5-10-10H6396
	z M6376,522.5c0-5.5,4.5-10,10-10s10,4.5,10,10H6376z M922,340h21.7v20H922V340z M1030.5,340h43.4v20h-43.4V340z M1160.7,340h21.7
	v20h-21.7V340z M1182.3,340h25v20h-25V340z M1307.4,340h50v20h-50V340z M1457.5,340h50v20h-50V340z M1607.7,340h50v20h-50V340z
	 M1757.8,340h50v20h-50V340z M1907.9,340h50v20h-50V340z M2058,340h50v20h-50V340z M2208.1,340h50v20h-50V340z M2358.2,340h50v20
	h-50V340z M2508.3,340h50v20h-50V340z M2658.4,340h50v20h-50V340z M2808.5,340h50v20h-50V340z M2958.6,340h50v20h-50V340z
	 M3108.7,340h50v20h-50V340z M3258.8,340h50v20h-50V340z M3408.9,340h50v20h-50V340z M3559.1,340h50v20h-50V340z M3709.2,340h50v20
	h-50V340z M3859.3,340h50v20h-50V340z M4009.4,340h50v20h-50V340z M4159.5,340h50v20h-50V340z M4309.6,340h50v20h-50V340z
	 M4459.7,340h50v20h-50V340z M4609.8,340h50v20h-50V340z M4759.9,340h50v20h-50V340z M4910,340h50v20h-50V340z M5060.1,340h50v20
	h-50V340z M5210.2,340h50v20h-50V340z M5360.3,340h50v20h-50V340z M5510.5,340h50v20h-50V340z M5660.5,340h50v20h-50V340z
	 M5810.7,340h50v20h-50V340z M5960.8,340h50v20h-50V340z M6110.9,340h50v20h-50V340z M6261,340h25v20h-25V340z M6286,340
	c9.8,0,19.4,1.3,28.5,3.7l-5.2,19.3c-7.4-2-15.2-3-23.3-3V340z M6392.3,421.5c2.4,9.1,3.7,18.6,3.7,28.5h-20c0-8.1-1.1-15.9-3-23.3
	L6392.3,421.5z M6396,450v14.5h-20V450H6396z M6396,522.5V537h-20v-14.5H6396z"/>
<path class="st16" d="M2890.1,220.1c-3.9,3.9-10.2,3.9-14.1,0l-63.6-63.6c-3.9-3.9-3.9-10.2,0-14.1c3.9-3.9,10.2-3.9,14.1,0
	l56.6,56.6l56.6-56.6c3.9-3.9,10.2-3.9,14.1,0c3.9,3.9,3.9,10.2,0,14.1L2890.1,220.1z M2873,198.5c0-5.5,4.5-10,10-10s10,4.5,10,10
	H2873z M2893,140.5c0,5.5-4.5,10-10,10s-10-4.5-10-10H2893z M2876.7,97.5c1.4-5.3,6.9-8.5,12.2-7.1c5.3,1.4,8.5,6.9,7.1,12.2
	L2876.7,97.5z M2959.7,39c-5.3,1.4-10.8-1.7-12.2-7.1c-1.4-5.3,1.7-10.8,7.1-12.2L2959.7,39z M3007.8,16c5.5,0,10,4.5,10,10
	s-4.5,10-10,10V16z M3107,36c-5.5,0-10-4.5-10-10s4.5-10,10-10V36z M3156.6,16c5.5,0,10,4.5,10,10s-4.5,10-10,10V16z M3255.7,36
	c-5.5,0-10-4.5-10-10s4.5-10,10-10V36z M3305.3,16c5.5,0,10,4.5,10,10s-4.5,10-10,10V16z M3404.5,36c-5.5,0-10-4.5-10-10
	s4.5-10,10-10V36z M3454.1,16c5.5,0,10,4.5,10,10s-4.5,10-10,10V16z M3553.3,36c-5.5,0-10-4.5-10-10s4.5-10,10-10V36z M3602.9,16
	c5.5,0,10,4.5,10,10s-4.5,10-10,10V16z M3702,36c-5.5,0-10-4.5-10-10s4.5-10,10-10V36z M3751.6,16c5.5,0,10,4.5,10,10s-4.5,10-10,10
	V16z M3850.8,36c-5.5,0-10-4.5-10-10s4.5-10,10-10V36z M3900.4,16c5.5,0,10,4.5,10,10s-4.5,10-10,10V16z M3999.6,36
	c-5.5,0-10-4.5-10-10s4.5-10,10-10V36z M4049.2,16c5.5,0,10,4.5,10,10s-4.5,10-10,10V16z M4148.3,36c-5.5,0-10-4.5-10-10
	s4.5-10,10-10V36z M4197.9,16c5.5,0,10,4.5,10,10s-4.5,10-10,10V16z M4297.1,36c-5.5,0-10-4.5-10-10s4.5-10,10-10V36z M4346.7,16
	c5.5,0,10,4.5,10,10s-4.5,10-10,10V16z M4445.9,36c-5.5,0-10-4.5-10-10s4.5-10,10-10V36z M4495.5,16c5.5,0,10,4.5,10,10
	s-4.5,10-10,10V16z M4594.6,36c-5.5,0-10-4.5-10-10s4.5-10,10-10V36z M4644.2,16c5.5,0,10,4.5,10,10s-4.5,10-10,10V16z M4743.4,36
	c-5.5,0-10-4.5-10-10s4.5-10,10-10V36z M4793,16c5.5,0,10,4.5,10,10s-4.5,10-10,10V16z M4892.2,36c-5.5,0-10-4.5-10-10s4.5-10,10-10
	V36z M4941.8,16c5.5,0,10,4.5,10,10s-4.5,10-10,10V16z M5040.9,36c-5.5,0-10-4.5-10-10s4.5-10,10-10V36z M5090.5,16
	c5.5,0,10,4.5,10,10s-4.5,10-10,10V16z M5189.7,36c-5.5,0-10-4.5-10-10s4.5-10,10-10V36z M5239.3,16c5.5,0,10,4.5,10,10
	s-4.5,10-10,10V16z M5338.5,36c-5.5,0-10-4.5-10-10s4.5-10,10-10V36z M5388.1,16c5.5,0,10,4.5,10,10s-4.5,10-10,10V16z M5487.2,36
	c-5.5,0-10-4.5-10-10s4.5-10,10-10V36z M5536.8,16c5.5,0,10,4.5,10,10s-4.5,10-10,10V16z M5636,36c-5.5,0-10-4.5-10-10s4.5-10,10-10
	V36z M5685.6,16c5.5,0,10,4.5,10,10s-4.5,10-10,10V16z M5784.8,36c-5.5,0-10-4.5-10-10s4.5-10,10-10V36z M5834.4,16
	c5.5,0,10,4.5,10,10s-4.5,10-10,10V16z M5933.5,36c-5.5,0-10-4.5-10-10s4.5-10,10-10V36z M5983.1,16c5.5,0,10,4.5,10,10
	s-4.5,10-10,10V16z M6082.3,36c-5.5,0-10-4.5-10-10s4.5-10,10-10V36z M6131.9,16c5.5,0,10,4.5,10,10s-4.5,10-10,10V16z M6231.1,36
	c-5.5,0-10-4.5-10-10s4.5-10,10-10V36z M6280.7,16c5.5,0,10,4.5,10,10s-4.5,10-10,10V16z M6379.8,36c-5.5,0-10-4.5-10-10
	s4.5-10,10-10V36z M6429.4,16c5.5,0,10,4.5,10,10s-4.5,10-10,10V16z M6528.6,36c-5.5,0-10-4.5-10-10s4.5-10,10-10V36z M6578.2,16
	c5.5,0,10,4.5,10,10s-4.5,10-10,10V16z M6677.4,36c-5.5,0-10-4.5-10-10s4.5-10,10-10V36z M6727,16c5.5,0,10,4.5,10,10s-4.5,10-10,10
	V16z M6826.1,36c-5.5,0-10-4.5-10-10s4.5-10,10-10V36z M6875.7,16c5.5,0,10,4.5,10,10s-4.5,10-10,10V16z M6974.9,36
	c-5.5,0-10-4.5-10-10s4.5-10,10-10V36z M7024.5,16c5.5,0,10,4.5,10,10s-4.5,10-10,10V16z M7123.7,36c-5.5,0-10-4.5-10-10
	s4.5-10,10-10V36z M7173.3,16c5.5,0,10,4.5,10,10s-4.5,10-10,10V16z M7272.4,36c-5.5,0-10-4.5-10-10s4.5-10,10-10V36z M7322,16
	c5.5,0,10,4.5,10,10s-4.5,10-10,10V16z M7421.2,36c-5.5,0-10-4.5-10-10s4.5-10,10-10V36z M7474.5,19.7c5.3,1.4,8.5,6.9,7.1,12.2
	c-1.4,5.3-6.9,8.5-12.2,7.1L7474.5,19.7z M7533,102.7c-1.4-5.3,1.8-10.8,7.1-12.2c5.3-1.4,10.8,1.7,12.2,7.1L7533,102.7z
	 M7556,148.3c0,5.5-4.5,10-10,10s-10-4.5-10-10H7556z M7536,237.7c0-5.5,4.5-10,10-10s10,4.5,10,10H7536z M7556,282.3
	c0,5.5-4.5,10-10,10s-10-4.5-10-10H7556z M7536,371.7c0-5.5,4.5-10,10-10s10,4.5,10,10H7536z M7556,416.3c0,5.5-4.5,10-10,10
	s-10-4.5-10-10H7556z M7536,505.7c0-5.5,4.5-10,10-10s10,4.5,10,10H7536z M2873,213v-14.5h20V213H2873z M2873,140.5V126h20v14.5
	H2873z M2873,126c0-9.8,1.3-19.4,3.7-28.5l19.3,5.2c-2,7.4-3,15.2-3,23.3H2873z M2954.5,19.7c9.1-2.4,18.6-3.7,28.5-3.7v20
	c-8.1,0-15.9,1.1-23.3,3L2954.5,19.7z M2983,16h24.8v20H2983V16z M3107,16h49.6v20H3107V16z M3255.7,16h49.6v20h-49.6V16z
	 M3404.5,16h49.6v20h-49.6V16z M3553.3,16h49.6v20h-49.6V16z M3702,16h49.6v20H3702V16z M3850.8,16h49.6v20h-49.6V16z M3999.6,16
	h49.6v20h-49.6V16z M4148.3,16h49.6v20h-49.6V16z M4297.1,16h49.6v20h-49.6V16z M4445.9,16h49.6v20h-49.6V16z M4594.6,16h49.6v20
	h-49.6V16z M4743.4,16h49.6v20h-49.6V16z M4892.2,16h49.6v20h-49.6V16z M5040.9,16h49.6v20h-49.6V16z M5189.7,16h49.6v20h-49.6V16z
	 M5338.5,16h49.6v20h-49.6V16z M5487.2,16h49.6v20h-49.6V16z M5636,16h49.6v20H5636V16z M5784.8,16h49.6v20h-49.6V16z M5933.5,16
	h49.6v20h-49.6V16z M6082.3,16h49.6v20h-49.6V16z M6231.1,16h49.6v20h-49.6V16z M6379.8,16h49.6v20h-49.6V16z M6528.6,16h49.6v20
	h-49.6V16z M6677.4,16h49.6v20h-49.6V16z M6826.1,16h49.6v20h-49.6V16z M6974.9,16h49.6v20h-49.6V16z M7123.7,16h49.6v20h-49.6V16z
	 M7272.4,16h49.6v20h-49.6V16z M7421.2,16h24.8v20h-24.8V16z M7446,16c9.8,0,19.4,1.3,28.5,3.7l-5.2,19.3c-7.4-2-15.2-3-23.3-3V16z
	 M7552.3,97.5c2.4,9.1,3.7,18.6,3.7,28.5h-20c0-8.1-1.1-15.9-3-23.3L7552.3,97.5z M7556,126v22.3h-20V126H7556z M7556,237.7v44.7
	h-20v-44.7H7556z M7556,371.7v44.7h-20v-44.7H7556z M7556,505.7V528h-20v-22.3H7556z"/>
<path class="st16" d="M6467,3245c0,5.5,4.5,10,10,10s10-4.5,10-10H6467z M6467,1931.8c0,5.5,4.5,10,10,10s10-4.5,10-10H6467z
	 M6487,2030.9c0-5.5-4.5-10-10-10s-10,4.5-10,10H6487z M6467,2080.4c0,5.5,4.5,10,10,10s10-4.5,10-10H6467z M6487,2179.6
	c0-5.5-4.5-10-10-10s-10,4.5-10,10H6487z M6467,2229.1c0,5.5,4.5,10,10,10s10-4.5,10-10H6467z M6487,2328.2c0-5.5-4.5-10-10-10
	s-10,4.5-10,10H6487z M6467,2377.8c0,5.5,4.5,10,10,10s10-4.5,10-10H6467z M6487,2476.9c0-5.5-4.5-10-10-10s-10,4.5-10,10H6487z
	 M6467,2526.4c0,5.5,4.5,10,10,10s10-4.5,10-10H6467z M6487,2625.6c0-5.5-4.5-10-10-10s-10,4.5-10,10H6487z M6467,2675.1
	c0,5.5,4.5,10,10,10s10-4.5,10-10H6467z M6487,2774.2c0-5.5-4.5-10-10-10s-10,4.5-10,10H6487z M6467,2823.8c0,5.5,4.5,10,10,10
	s10-4.5,10-10H6467z M6487,2922.9c0-5.5-4.5-10-10-10s-10,4.5-10,10H6487z M6467,2972.4c0,5.5,4.5,10,10,10s10-4.5,10-10H6467z
	 M6487,3071.6c0-5.5-4.5-10-10-10s-10,4.5-10,10H6487z M6467,3121.1c0,5.5,4.5,10,10,10s10-4.5,10-10H6467z M6487,3220.2
	c0-5.5-4.5-10-10-10s-10,4.5-10,10H6487z M6467,1907v24.8h20V1907H6467z M6467,2030.9v49.6h20v-49.6H6467z M6467,2179.6v49.6h20
	v-49.6H6467z M6467,2328.2v49.6h20v-49.6H6467z M6467,2476.9v49.6h20v-49.6H6467z M6467,2625.6v49.6h20v-49.6H6467z M6467,2774.2
	v49.6h20v-49.6H6467z M6467,2922.9v49.5h20v-49.5H6467z M6467,3071.6v49.5h20v-49.5H6467z M6467,3220.2v24.8h20v-24.8H6467z"/>
<path class="st16" d="M4019,581c0,5.5,4.5,10,10,10s10-4.5,10-10H4019z M4019,369.2c0,5.5,4.5,10,10,10s10-4.5,10-10H4019z
	 M4039,446.2c0-5.5-4.5-10-10-10s-10,4.5-10,10H4039z M4019,484.8c0,5.5,4.5,10,10,10s10-4.5,10-10H4019z M4039,561.8
	c0-5.5-4.5-10-10-10s-10,4.5-10,10H4039z M4019,350v19.2h20V350H4019z M4019,446.2v38.5h20v-38.5H4019z M4019,561.8V581h20v-19.2
	H4019z"/>
<path class="st16" d="M7916.1,2316.1c3.9-3.9,3.9-10.2,0-14.1l-63.6-63.6c-3.9-3.9-10.2-3.9-14.1,0c-3.9,3.9-3.9,10.2,0,14.1
	l56.6,56.6l-56.6,56.6c-3.9,3.9-3.9,10.2,0,14.1c3.9,3.9,10.2,3.9,14.1,0L7916.1,2316.1z M7638,1787.8c0,5.5,4.5,10,10,10
	s10-4.5,10-10H7638z M7658,1886.9c0-5.5-4.5-10-10-10s-10,4.5-10,10H7658z M7638,1936.4c0,5.5,4.5,10,10,10s10-4.5,10-10H7638z
	 M7658,2035.6c0-5.5-4.5-10-10-10s-10,4.5-10,10H7658z M7638,2085.1c0,5.5,4.5,10,10,10s10-4.5,10-10H7638z M7658,2184.2
	c0-5.5-4.5-10-10-10s-10,4.5-10,10H7658z M7641.7,2237.5c1.4,5.3,6.9,8.5,12.2,7.1s8.5-6.9,7.1-12.2L7641.7,2237.5z M7724.7,2296
	c-5.3-1.4-10.8,1.7-12.2,7.1c-1.4,5.3,1.7,10.8,7.1,12.2L7724.7,2296z M7774.8,2319c5.5,0,10-4.5,10-10s-4.5-10-10-10V2319z
	 M7882.2,2299c-5.5,0-10,4.5-10,10s4.5,10,10,10V2299z M7638,1763v24.8h20V1763H7638z M7638,1886.9v49.6h20v-49.6H7638z
	 M7638,2035.6v49.6h20v-49.6H7638z M7638,2184.2v24.8h20v-24.8H7638z M7638,2209c0,9.8,1.3,19.4,3.7,28.5l19.3-5.2
	c-2-7.4-3-15.2-3-23.3H7638z M7719.5,2315.3c9.1,2.4,18.6,3.7,28.5,3.7v-20c-8.1,0-15.9-1.1-23.3-3L7719.5,2315.3z M7748,2319h26.8
	v-20H7748V2319z M7882.2,2319h26.8v-20h-26.8V2319z"/>
<path class="st16" d="M8941.1,1672.9c-3.9-3.9-10.2-3.9-14.1,0l-63.6,63.6c-3.9,3.9-3.9,10.2,0,14.1c3.9,3.9,10.2,3.9,14.1,0
	l56.6-56.6l56.6,56.6c3.9,3.9,10.2,3.9,14.1,0c3.9-3.9,3.9-10.2,0-14.1L8941.1,1672.9z M8704.8,2319c5.5,0,10-4.5,10-10
	s-4.5-10-10-10V2319z M8808.2,2299c-5.5,0-10,4.5-10,10s4.5,10,10,10V2299z M8862.5,2315.3c5.3-1.4,8.5-6.9,7.1-12.2
	c-1.4-5.3-6.9-8.5-12.2-7.1L8862.5,2315.3z M8921,2232.3c-1.4,5.3,1.7,10.8,7.1,12.2c5.3,1.4,10.8-1.7,12.2-7.1L8921,2232.3z
	 M8944,2187c0-5.5-4.5-10-10-10s-10,4.5-10,10H8944z M8924,2098.8c0,5.5,4.5,10,10,10s10-4.5,10-10H8924z M8944,2054.7
	c0-5.5-4.5-10-10-10s-10,4.5-10,10H8944z M8924,1966.5c0,5.5,4.5,10,10,10s10-4.5,10-10H8924z M8944,1922.5c0-5.5-4.5-10-10-10
	s-10,4.5-10,10H8944z M8924,1834.3c0,5.5,4.5,10,10,10s10-4.5,10-10H8924z M8944,1790.2c0-5.5-4.5-10-10-10s-10,4.5-10,10H8944z
	 M8924,1702c0,5.5,4.5,10,10,10s10-4.5,10-10H8924z M8679,2319h25.8v-20H8679V2319z M8808.2,2319h25.8v-20h-25.8V2319z M8834,2319
	c9.8,0,19.4-1.3,28.5-3.7l-5.2-19.3c-7.4,2-15.2,3-23.3,3V2319z M8940.3,2237.5c2.4-9.1,3.7-18.6,3.7-28.5h-20
	c0,8.1-1.1,15.9-3,23.3L8940.3,2237.5z M8944,2209v-22h-20v22H8944z M8944,2098.8v-44.1h-20v44.1H8944z M8944,1966.5v-44.1h-20v44.1
	H8944z M8944,1834.3v-44.1h-20v44.1H8944z M8944,1702v-22h-20v22H8944z"/>
<path class="st16" d="M4187,3225c0,5.5,4.5,10,10,10s10-4.5,10-10H4187z M4187,1931.4c0,5.5,4.5,10,10,10s10-4.5,10-10H4187z
	 M4207,2029c0-5.5-4.5-10-10-10s-10,4.5-10,10H4207z M4187,2077.9c0,5.5,4.5,10,10,10s10-4.5,10-10H4187z M4207,2175.5
	c0-5.5-4.5-10-10-10s-10,4.5-10,10H4207z M4187,2224.3c0,5.5,4.5,10,10,10s10-4.5,10-10H4187z M4207,2321.9c0-5.5-4.5-10-10-10
	s-10,4.5-10,10H4207z M4187,2370.7c0,5.5,4.5,10,10,10s10-4.5,10-10H4187z M4207,2468.4c0-5.5-4.5-10-10-10s-10,4.5-10,10H4207z
	 M4187,2517.2c0,5.5,4.5,10,10,10s10-4.5,10-10H4187z M4207,2614.8c0-5.5-4.5-10-10-10s-10,4.5-10,10H4207z M4187,2663.6
	c0,5.5,4.5,10,10,10s10-4.5,10-10H4187z M4207,2761.3c0-5.5-4.5-10-10-10s-10,4.5-10,10H4207z M4187,2810.1c0,5.5,4.5,10,10,10
	s10-4.5,10-10H4187z M4207,2907.7c0-5.5-4.5-10-10-10s-10,4.5-10,10H4207z M4187,2956.5c0,5.5,4.5,10,10,10s10-4.5,10-10H4187z
	 M4207,3054.1c0-5.5-4.5-10-10-10s-10,4.5-10,10H4207z M4187,3103c0,5.5,4.5,10,10,10s10-4.5,10-10H4187z M4207,3200.6
	c0-5.5-4.5-10-10-10s-10,4.5-10,10H4207z M4187,1907v24.4h20V1907H4187z M4187,2029v48.8h20V2029H4187z M4187,2175.5v48.8h20v-48.8
	H4187z M4187,2321.9v48.8h20v-48.8H4187z M4187,2468.4v48.8h20v-48.8H4187z M4187,2614.8v48.8h20v-48.8H4187z M4187,2761.3v48.8h20
	v-48.8H4187z M4187,2907.7v48.8h20v-48.8H4187z M4187,3054.1v48.8h20v-48.8H4187z M4187,3200.6v24.4h20v-24.4H4187z"/>
<circle class="st16" cx="7491.5" cy="1724.5" r="44.5"/>
<circle class="st16" cx="6380.5" cy="536.5" r="44.5"/>
<circle class="st16" cx="7550.5" cy="536.5" r="44.5"/>
<circle class="st16" cx="7650.5" cy="1724.5" r="44.5"/>
<circle class="st16" cx="6476.5" cy="1890.5" r="44.5"/>
<circle class="st16" cx="4195.5" cy="1890.5" r="44.5"/>
<path class="st16" d="M4036.1,1838.9c-3.9-3.9-10.2-3.9-14.1,0l-63.6,63.6c-3.9,3.9-3.9,10.2,0,14.1c3.9,3.9,10.2,3.9,14.1,0
	l56.6-56.6l56.6,56.6c3.9,3.9,10.2,3.9,14.1,0c3.9-3.9,3.9-10.2,0-14.1L4036.1,1838.9z M2192,2538h1737v-20H2192V2538z M4039,2428
	v-582h-20v582H4039z M3929,2538c60.8,0,110-49.2,110-110h-20c0,49.7-40.3,90-90,90V2538z"/>
<path class="st16" d="M2896.1,1691.9c-3.9-3.9-10.2-3.9-14.1,0l-63.6,63.6c-3.9,3.9-3.9,10.2,0,14.1c3.9,3.9,10.2,3.9,14.1,0
	l56.6-56.6l56.6,56.6c3.9,3.9,10.2,3.9,14.1,0c3.9-3.9,3.9-10.2,0-14.1L2896.1,1691.9z M2879,1699v25.6h20V1699H2879z M2879,1775.8
	v51.2h20v-51.2H2879z M2879,1878.2v51.2h20v-51.2H2879z M2879,1980.5v51.2h20v-51.2H2879z M2879,2082.9v51.2h20v-51.2H2879z
	 M2879,2185.3v51.2h20v-51.2H2879z M2879,2287.7v51.2h20v-51.2H2879z M2879,2390v51.2h20V2390H2879z M2879,2492.4v25.6h20v-25.6
	H2879z"/>
<path class="st16" d="M6528.9,561.1c3.9,3.9,10.2,3.9,14.1,0l63.6-63.6c3.9-3.9,3.9-10.2,0-14.1c-3.9-3.9-10.2-3.9-14.1,0
	l-56.6,56.6l-56.6-56.6c-3.9-3.9-10.2-3.9-14.1,0c-3.9,3.9-3.9,10.2,0,14.1L6528.9,561.1z M6546,554v-22h-20v22H6546z M6546,444v-44
	h-20v44H6546z M6546,312v-44h-20v44H6546z M6546,180v-44h-20v44H6546z M6546,48V26h-20v22H6546z"/>
<path class="st16" d="M4096.9,232.1c3.9,3.9,10.2,3.9,14.1,0l63.6-63.6c3.9-3.9,3.9-10.2,0-14.1c-3.9-3.9-10.2-3.9-14.1,0
	l-56.6,56.6l-56.6-56.6c-3.9-3.9-10.2-3.9-14.1,0c-3.9,3.9-3.9,10.2,0,14.1L4096.9,232.1z M4114,225v-24.9h-20V225H4114z
	 M4114,150.4v-49.8h-20v49.8H4114z M4114,50.9V26h-20v24.9H4114z"/>
<path class="st16" d="M5255.9,588.1c3.9,3.9,10.2,3.9,14.1,0l63.6-63.6c3.9-3.9,3.9-10.2,0-14.1c-3.9-3.9-10.2-3.9-14.1,0
	l-56.6,56.6l-56.6-56.6c-3.9-3.9-10.2-3.9-14.1,0c-3.9,3.9-3.9,10.2,0,14.1L5255.9,588.1z M5273,581v-28.2h-20V581H5273z
	 M5273,496.2v-56.5h-20v56.5H5273z M5273,383.2V355h-20v28.2H5273z"/>
<path class="st16" d="M4188.9,588.1c3.9,3.9,10.2,3.9,14.1,0l63.6-63.6c3.9-3.9,3.9-10.2,0-14.1c-3.9-3.9-10.2-3.9-14.1,0
	l-56.6,56.6l-56.6-56.6c-3.9-3.9-10.2-3.9-14.1,0c-3.9,3.9-3.9,10.2,0,14.1L4188.9,588.1z M4206,581v-28.2h-20V581H4206z
	 M4206,496.2v-56.5h-20v56.5H4206z M4206,383.2V355h-20v28.2H4206z"/>
<path class="st16" d="M2875.9,588.1c3.9,3.9,10.2,3.9,14.1,0l63.6-63.6c3.9-3.9,3.9-10.2,0-14.1c-3.9-3.9-10.2-3.9-14.1,0
	l-56.6,56.6l-56.6-56.6c-3.9-3.9-10.2-3.9-14.1,0c-3.9,3.9-3.9,10.2,0,14.1L2875.9,588.1z M2893,581v-28.2h-20V581H2893z
	 M2893,496.2v-56.5h-20v56.5H2893z M2893,383.2V355h-20v28.2H2893z"/>
<path class="st16" d="M1241.1,2535.1c3.9-3.9,3.9-10.2,0-14.1l-63.6-63.6c-3.9-3.9-10.2-3.9-14.1,0c-3.9,3.9-3.9,10.2,0,14.1
	l56.6,56.6l-56.6,56.6c-3.9,3.9-3.9,10.2,0,14.1c3.9,3.9,10.2,3.9,14.1,0L1241.1,2535.1z M967,2538h267v-20H967V2538z"/>
<path class="st16" d="M1241.1,1049.1c3.9-3.9,3.9-10.2,0-14.1l-63.6-63.6c-3.9-3.9-10.2-3.9-14.1,0c-3.9,3.9-3.9,10.2,0,14.1
	l56.6,56.6l-56.6,56.6c-3.9,3.9-3.9,10.2,0,14.1c3.9,3.9,10.2,3.9,14.1,0L1241.1,1049.1z M967,1052h267v-20H967V1052z"/>
<circle class="st16" cx="2159.5" cy="2529.5" r="44.5"/>
<circle class="st16" cx="966.5" cy="2527.5" r="44.5"/>
<circle class="st16" cx="966.5" cy="1036.5" r="44.5"/>
<path class="st16" d="M2426.1,1049.1c3.9-3.9,3.9-10.2,0-14.1l-63.6-63.6c-3.9-3.9-10.2-3.9-14.1,0c-3.9,3.9-3.9,10.2,0,14.1
	l56.6,56.6l-56.6,56.6c-3.9,3.9-3.9,10.2,0,14.1c3.9,3.9,10.2,3.9,14.1,0L2426.1,1049.1z M2148,1052h271v-20h-271V1052z"/>
<circle class="st16" cx="2147.5" cy="1036.5" r="44.5"/>
<path class="st16" d="M3667.1,1049.1c3.9-3.9,3.9-10.2,0-14.1l-63.6-63.6c-3.9-3.9-10.2-3.9-14.1,0c-3.9,3.9-3.9,10.2,0,14.1
	l56.6,56.6l-56.6,56.6c-3.9,3.9-3.9,10.2,0,14.1c3.9,3.9,10.2,3.9,14.1,0L3667.1,1049.1z M3368,1052h292v-20h-292V1052z"/>
<circle class="st16" cx="3367.5" cy="1038.5" r="44.5"/>
<path class="st16" d="M4836.1,1049.1c3.9-3.9,3.9-10.2,0-14.1l-63.6-63.6c-3.9-3.9-10.2-3.9-14.1,0c-3.9,3.9-3.9,10.2,0,14.1
	l56.6,56.6l-56.6,56.6c-3.9,3.9-3.9,10.2,0,14.1c3.9,3.9,10.2,3.9,14.1,0L4836.1,1049.1z M4561,1052h268v-20h-268V1052z"/>
<circle class="st16" cx="4560.5" cy="1038.5" r="44.5"/>
<circle class="st16" cx="4028.5" cy="545.5" r="44.5"/>
<path class="st16" d="M6006.1,1046.1c3.9-3.9,3.9-10.2,0-14.1l-63.6-63.6c-3.9-3.9-10.2-3.9-14.1,0c-3.9,3.9-3.9,10.2,0,14.1
	l56.6,56.6l-56.6,56.6c-3.9,3.9-3.9,10.2,0,14.1c3.9,3.9,10.2,3.9,14.1,0L6006.1,1046.1z M5717,1049h282v-20h-282V1049z"/>
<circle class="st16" cx="5716.5" cy="1036.5" r="44.5"/>
<path class="st16" d="M7145.1,1046.1c3.9-3.9,3.9-10.2,0-14.1l-63.6-63.6c-3.9-3.9-10.2-3.9-14.1,0c-3.9,3.9-3.9,10.2,0,14.1
	l56.6,56.6l-56.6,56.6c-3.9,3.9-3.9,10.2,0,14.1c3.9,3.9,10.2,3.9,14.1,0L7145.1,1046.1z M6887,1049h251v-20h-251V1049z"/>
<circle class="st16" cx="6886.5" cy="1036.5" r="44.5"/>
<path class="st16" d="M8225.1,1049.1c3.9-3.9,3.9-10.2,0-14.1l-63.6-63.6c-3.9-3.9-10.2-3.9-14.1,0c-3.9,3.9-3.9,10.2,0,14.1
	l56.6,56.6l-56.6,56.6c-3.9,3.9-3.9,10.2,0,14.1c3.9,3.9,10.2,3.9,14.1,0L8225.1,1049.1z M8024,1052h194v-20h-194V1052z"/>
<circle class="st16" cx="8023.5" cy="1036.5" r="44.5"/>
<rect x="8297" y="26" class="st19" width="1274" height="1366"/>
</svg>
