<svg width="5803" height="4785" viewBox="0 0 5803 4785" fill="none" xmlns="http://www.w3.org/2000/svg">
<circle cx="400" cy="400" r="390" transform="translate(2560 2535)" stroke="#7C4198" stroke-width="20"/>
<path d="M102.629 145L77.7291 109.75C92.4291 104.5 100.829 92.8 100.829 76.6C100.829 53.8 84.3291 40 57.0291 40H16.0791V145H31.0791V113.05H57.0291C59.2791 113.05 61.5291 112.9 63.6291 112.75L86.2791 145H102.629ZM56.5791 100.3H31.0791V53.05H56.5791C75.7791 53.05 85.8291 61.6 85.8291 76.6C85.8291 91.6 75.7791 100.3 56.5791 100.3ZM194.813 105.7C194.813 81.25 178.463 64.75 155.513 64.75C132.563 64.75 115.613 81.7 115.613 105.25C115.613 128.95 132.713 145.9 158.363 145.9C171.563 145.9 182.513 141.4 189.713 133L181.763 123.7C175.913 130.15 168.113 133.3 158.813 133.3C143.063 133.3 131.813 124 130.013 110.05H194.513C194.663 108.7 194.813 106.9 194.813 105.7ZM155.513 76.9C169.463 76.9 179.513 86.35 181.013 99.7H130.013C131.513 86.2 141.713 76.9 155.513 76.9ZM269.594 65.5L241.694 129.25L214.394 65.5H199.394L234.194 145H248.894L283.694 65.5H269.594ZM304.333 50.2C310.033 50.2 314.083 46 314.083 40.6C314.083 35.5 309.883 31.45 304.333 31.45C298.783 31.45 294.583 35.65 294.583 40.9C294.583 46.15 298.783 50.2 304.333 50.2ZM297.133 145H311.533V65.5H297.133V145ZM410.878 105.7C410.878 81.25 394.528 64.75 371.578 64.75C348.628 64.75 331.678 81.7 331.678 105.25C331.678 128.95 348.778 145.9 374.428 145.9C387.628 145.9 398.578 141.4 405.778 133L397.828 123.7C391.978 130.15 384.178 133.3 374.878 133.3C359.128 133.3 347.878 124 346.078 110.05H410.578C410.728 108.7 410.878 106.9 410.878 105.7ZM371.578 76.9C385.528 76.9 395.578 86.35 397.078 99.7H346.078C347.578 86.2 357.778 76.9 371.578 76.9ZM536.809 65.5L513.109 129.1L489.559 65.5H477.409L453.409 128.8L430.309 65.5H416.659L446.209 145H460.009L483.259 84.7L506.209 145H520.009L549.709 65.5H536.809ZM136.424 205H95.4736V310H110.474V278.2H136.424C163.724 278.2 180.224 264.4 180.224 241.6C180.224 218.8 163.724 205 136.424 205ZM135.974 265.15H110.474V218.05H135.974C155.174 218.05 165.224 226.6 165.224 241.6C165.224 256.6 155.174 265.15 135.974 265.15ZM228.378 229.75C215.628 229.75 203.778 233.35 195.528 239.95L201.528 250.75C207.678 245.5 217.278 242.2 226.728 242.2C240.978 242.2 248.028 249.25 248.028 261.4V264.25H225.228C201.528 264.25 193.278 274.75 193.278 287.5C193.278 301.3 204.678 310.9 222.678 310.9C235.128 310.9 243.978 306.7 248.778 299.5V310H262.428V262C262.428 240.25 250.128 229.75 228.378 229.75ZM225.078 299.8C214.128 299.8 207.528 294.85 207.528 286.9C207.528 280.15 211.578 274.6 225.828 274.6H248.028V285.7C244.428 294.85 235.878 299.8 225.078 299.8ZM351.916 230.5V242.8C345.166 234.1 334.366 229.75 322.516 229.75C299.566 229.75 282.166 245.2 282.166 268.15C282.166 291.1 299.566 306.7 322.516 306.7C333.916 306.7 344.266 302.65 351.166 294.4V300.7C351.166 318.7 342.616 327.4 323.866 327.4C312.166 327.4 300.616 323.35 293.266 317.05L286.366 328.15C295.066 335.95 309.766 340 324.316 340C351.316 340 365.566 327.25 365.566 299.2V230.5H351.916ZM324.166 294.1C308.116 294.1 296.716 283.45 296.716 268.15C296.716 252.7 308.116 242.35 324.166 242.35C340.066 242.35 351.466 252.7 351.466 268.15C351.466 283.45 340.066 294.1 324.166 294.1ZM464.931 270.7C464.931 246.25 448.581 229.75 425.631 229.75C402.681 229.75 385.731 246.7 385.731 270.25C385.731 293.95 402.831 310.9 428.481 310.9C441.681 310.9 452.631 306.4 459.831 298L451.881 288.7C446.031 295.15 438.231 298.3 428.931 298.3C413.181 298.3 401.931 289 400.131 275.05H464.631C464.781 273.7 464.931 271.9 464.931 270.7ZM425.631 241.9C439.581 241.9 449.631 251.35 451.131 264.7H400.131C401.631 251.2 411.831 241.9 425.631 241.9Z" transform="translate(2688 3392)" fill="#7C4198"/>
<path d="M94.202 145H109.952L62.252 40H47.402L-0.148047 145H15.302L26.852 118.75H82.652L94.202 145ZM32.102 106.75L54.752 55.3L77.4019 106.75H32.102ZM137.315 78.85V65.5H123.515V145H137.915V105.4C137.915 88 147.515 78.55 162.965 78.55C164.015 78.55 165.065 78.55 166.265 78.7V64.75C152.315 64.75 142.415 69.55 137.315 78.85ZM227.436 130C224.436 132.4 220.386 133.75 216.186 133.75C208.236 133.75 203.736 128.95 203.736 120.4V77.35H226.536V65.5H203.736V48.1H189.336V65.5H175.836V77.35H189.336V121C189.336 137.05 198.486 145.9 214.536 145.9C220.986 145.9 227.586 144.1 231.936 140.35L227.436 130ZM256.545 50.2C262.245 50.2 266.295 46 266.295 40.6C266.295 35.5 262.095 31.45 256.545 31.45C250.995 31.45 246.795 35.65 246.795 40.9C246.795 46.15 250.995 50.2 256.545 50.2ZM249.345 145H263.745V65.5H249.345V145ZM325.89 145.9C340.14 145.9 351.99 139.9 358.29 128.8L347.34 121.9C342.24 129.7 334.44 133.3 325.74 133.3C310.14 133.3 298.44 122.5 298.44 105.25C298.44 88.3 310.14 77.35 325.74 77.35C334.44 77.35 342.24 80.95 347.34 88.75L358.29 81.7C351.99 70.6 340.14 64.75 325.89 64.75C301.44 64.75 283.89 81.55 283.89 105.25C283.89 128.95 301.44 145.9 325.89 145.9ZM375.908 145H390.308V33.7H375.908V145ZM489.652 105.7C489.652 81.25 473.302 64.75 450.352 64.75C427.402 64.75 410.452 81.7 410.452 105.25C410.452 128.95 427.552 145.9 453.202 145.9C466.402 145.9 477.352 141.4 484.552 133L476.602 123.7C470.752 130.15 462.952 133.3 453.652 133.3C437.902 133.3 426.652 124 424.852 110.05H489.352C489.502 108.7 489.652 106.9 489.652 105.7ZM450.352 76.9C464.302 76.9 474.352 86.35 475.852 99.7H424.852C426.352 86.2 436.552 76.9 450.352 76.9ZM108.924 205H67.9736V310H82.9736V278.2H108.924C136.224 278.2 152.724 264.4 152.724 241.6C152.724 218.8 136.224 205 108.924 205ZM108.474 265.15H82.9736V218.05H108.474C127.674 218.05 137.724 226.6 137.724 241.6C137.724 256.6 127.674 265.15 108.474 265.15ZM200.878 229.75C188.128 229.75 176.278 233.35 168.028 239.95L174.028 250.75C180.178 245.5 189.778 242.2 199.228 242.2C213.478 242.2 220.528 249.25 220.528 261.4V264.25H197.728C174.028 264.25 165.778 274.75 165.778 287.5C165.778 301.3 177.178 310.9 195.178 310.9C207.628 310.9 216.478 306.7 221.278 299.5V310H234.928V262C234.928 240.25 222.628 229.75 200.878 229.75ZM197.578 299.8C186.628 299.8 180.028 294.85 180.028 286.9C180.028 280.15 184.078 274.6 198.328 274.6H220.528V285.7C216.928 294.85 208.378 299.8 197.578 299.8ZM324.416 230.5V242.8C317.666 234.1 306.866 229.75 295.016 229.75C272.066 229.75 254.666 245.2 254.666 268.15C254.666 291.1 272.066 306.7 295.016 306.7C306.416 306.7 316.766 302.65 323.666 294.4V300.7C323.666 318.7 315.116 327.4 296.366 327.4C284.666 327.4 273.116 323.35 265.766 317.05L258.866 328.15C267.566 335.95 282.266 340 296.816 340C323.816 340 338.066 327.25 338.066 299.2V230.5H324.416ZM296.666 294.1C280.616 294.1 269.216 283.45 269.216 268.15C269.216 252.7 280.616 242.35 296.666 242.35C312.566 242.35 323.966 252.7 323.966 268.15C323.966 283.45 312.566 294.1 296.666 294.1ZM437.431 270.7C437.431 246.25 421.081 229.75 398.131 229.75C375.181 229.75 358.231 246.7 358.231 270.25C358.231 293.95 375.331 310.9 400.981 310.9C414.181 310.9 425.131 306.4 432.331 298L424.381 288.7C418.531 295.15 410.731 298.3 401.431 298.3C385.681 298.3 374.431 289 372.631 275.05H437.131C437.281 273.7 437.431 271.9 437.431 270.7ZM398.131 241.9C412.081 241.9 422.131 251.35 423.631 264.7H372.631C374.131 251.2 384.331 241.9 398.131 241.9Z" transform="translate(3708 4040)" fill="#ED2C75"/>
<line x1="10" y1="-10" x2="101" y2="-10" transform="translate(3034 2915)" stroke="#7C4198" stroke-width="20" stroke-linecap="round"/>
<path d="M0 7L10.973 21L29 0" transform="translate(2980 2889)" stroke="#7C4198" stroke-width="20" stroke-linecap="round"/>
<line x1="10" y1="-10" x2="101" y2="-10" transform="translate(3034 2973)" stroke="#7C4198" stroke-width="20" stroke-linecap="round"/>
<path d="M0 7L10.973 21L29 0" transform="translate(2980 2947)" stroke="#7C4198" stroke-width="20" stroke-linecap="round"/>
<line x1="10" y1="-10" x2="101" y2="-10" transform="translate(2800 2857)" stroke="#7C4198" stroke-width="20" stroke-linecap="round"/>
<path d="M0 7L10.973 21L29 0" transform="translate(2746 2831)" stroke="#7C4198" stroke-width="20" stroke-linecap="round"/>
<line x1="10" y1="-10" x2="101" y2="-10" transform="translate(2800 2915)" stroke="#7C4198" stroke-width="20" stroke-linecap="round"/>
<path d="M0 7L10.973 21L29 0" transform="translate(2746 2889)" stroke="#7C4198" stroke-width="20" stroke-linecap="round"/>
<path d="M507.575 103.221C476.594 79.4208 435.573 66.3132 392.064 66.3132C365.757 66.3132 340.363 71.1139 317.546 80.1637C306.141 58.4385 287.114 39.1991 262.911 25.1983C234.415 8.71305 200.535 -2.84683e-06 164.937 -2.84683e-06C121.428 -2.84683e-06 80.4069 13.1077 49.4264 36.9079C17.5523 61.3918 0 94.2247 0 129.356C0 160.996 14.4627 191.11 40.8497 214.689L41.2987 291.768C41.3214 295.791 43.3607 299.695 46.938 301.529C51.1849 303.708 55.2351 303.187 58.2054 301.636L138.104 257.008C146.963 258.141 155.968 258.715 164.937 258.715C164.939 258.715 164.941 258.715 164.944 258.715C190.918 258.715 216.405 253.944 239.36 244.865C247.737 260.924 260.271 275.614 276.553 288.122C307.533 311.922 348.556 325.029 392.064 325.029C401.076 325.029 410.133 324.449 419.038 323.304L499.037 365.499C503.577 367.813 506.943 367.247 510.18 365.192C513.532 363.063 515.68 359.476 515.704 355.501L516.153 281.004C542.537 257.427 557 227.311 557 195.671C557 160.54 539.448 127.708 507.575 103.221ZM164.942 235.961C164.94 235.961 164.936 235.961 164.936 235.961C155.679 235.961 146.38 235.276 137.297 233.929C134.045 233.449 130.912 234.392 128.529 236.298L63.9186 272.388L63.5548 209.608C63.5594 209.381 63.5548 209.151 63.5435 208.921C63.3946 205.724 61.9088 202.738 59.4467 200.695C35.7742 181.034 22.7347 155.698 22.7347 129.356C22.7347 70.5736 86.5271 22.7513 164.937 22.7513C223.028 22.7513 275.549 49.9086 296.971 89.8733C289.782 93.855 282.95 98.3065 276.552 103.221C244.679 127.707 227.126 160.54 227.126 195.671C227.126 205.232 228.438 214.62 230.972 223.72C210.679 231.745 188.064 235.961 164.942 235.961ZM497.552 267.01C495.092 269.053 493.607 272.042 493.458 275.238C493.446 275.445 493.444 275.65 493.444 275.856L493.08 336.638L428.263 302.452C425.907 300.653 422.863 299.776 419.699 300.245C410.615 301.594 401.316 302.278 392.062 302.278C327.85 302.278 273.453 270.204 255.854 226.305C255.781 226.091 255.688 225.883 255.6 225.671C251.871 216.151 249.859 206.084 249.859 195.671C249.859 157.849 276.274 124.566 315.996 105.638C316.025 105.627 316.054 105.62 316.083 105.609C316.527 105.434 316.949 105.224 317.359 105C339.081 94.905 364.678 89.0656 392.062 89.0656C470.472 89.0656 534.264 136.889 534.264 195.671C534.265 222.013 521.226 247.349 497.552 267.01Z" transform="translate(2669 2740)" fill="#7C4198"/>
<path d="M507.575 103.221C476.594 79.4208 435.573 66.3132 392.064 66.3132C365.757 66.3132 340.363 71.1139 317.546 80.1637C306.141 58.4385 287.114 39.1991 262.911 25.1983C234.415 8.71305 200.535 -2.84683e-06 164.937 -2.84683e-06C121.428 -2.84683e-06 80.4069 13.1077 49.4264 36.9079C17.5523 61.3918 0 94.2247 0 129.356C0 160.996 14.4627 191.11 40.8497 214.689L41.2987 291.768C41.3214 295.791 43.3607 299.695 46.938 301.529C51.1849 303.708 55.2351 303.187 58.2054 301.636L138.104 257.008C146.963 258.141 155.968 258.715 164.937 258.715C164.939 258.715 164.941 258.715 164.944 258.715C190.918 258.715 216.405 253.944 239.36 244.865C247.737 260.924 260.271 275.614 276.553 288.122C307.533 311.922 348.556 325.029 392.064 325.029C401.076 325.029 410.133 324.449 419.038 323.304L499.037 365.499C503.577 367.813 506.943 367.247 510.18 365.192C513.532 363.063 515.68 359.476 515.704 355.501L516.153 281.004C542.537 257.427 557 227.311 557 195.671C557 160.54 539.448 127.708 507.575 103.221ZM164.942 235.961C164.94 235.961 164.936 235.961 164.936 235.961C155.679 235.961 146.38 235.276 137.297 233.929C134.045 233.449 130.912 234.392 128.529 236.298L63.9186 272.388L63.5548 209.608C63.5594 209.381 63.5548 209.151 63.5435 208.921C63.3946 205.724 61.9088 202.738 59.4467 200.695C35.7742 181.034 22.7347 155.698 22.7347 129.356C22.7347 70.5736 86.5271 22.7513 164.937 22.7513C223.028 22.7513 275.549 49.9086 296.971 89.8733C289.782 93.855 282.95 98.3065 276.552 103.221C244.679 127.707 227.126 160.54 227.126 195.671C227.126 205.232 228.438 214.62 230.972 223.72C210.679 231.745 188.064 235.961 164.942 235.961ZM497.552 267.01C495.092 269.053 493.607 272.042 493.458 275.238C493.446 275.445 493.444 275.65 493.444 275.856L493.08 336.638L428.263 302.452C425.907 300.653 422.863 299.776 419.699 300.245C410.615 301.594 401.316 302.278 392.062 302.278C327.85 302.278 273.453 270.204 255.854 226.305C255.781 226.091 255.688 225.883 255.6 225.671C251.871 216.151 249.859 206.084 249.859 195.671C249.859 135.739 314.65 89.0656 392.062 89.0656C469.474 89.0656 534.265 136.889 534.265 195.671C534.265 222.013 521.226 247.349 497.552 267.01Z" transform="translate(2669 2740)" fill="#7C4198"/>
<circle cx="400" cy="400" r="390" transform="translate(3459 18)" stroke="#61C4B9" stroke-width="20"/>
<path d="M15.8926 145H60.1426C93.8926 145 116.843 123.7 116.843 92.5C116.843 61.3 93.8926 40 60.1426 40H15.8926V145ZM30.8926 131.95V53.05H59.2426C85.1926 53.05 101.843 68.95 101.843 92.5C101.843 116.05 85.1926 131.95 59.2426 131.95H30.8926ZM209.568 105.7C209.568 81.25 193.218 64.75 170.268 64.75C147.318 64.75 130.368 81.7 130.368 105.25C130.368 128.95 147.468 145.9 173.118 145.9C186.318 145.9 197.268 141.4 204.468 133L196.518 123.7C190.668 130.15 182.868 133.3 173.568 133.3C157.818 133.3 146.568 124 144.768 110.05H209.268C209.418 108.7 209.568 106.9 209.568 105.7ZM170.268 76.9C184.218 76.9 194.268 86.35 195.768 99.7H144.768C146.268 86.2 156.468 76.9 170.268 76.9ZM264.214 145.9C278.464 145.9 290.314 139.9 296.614 128.8L285.664 121.9C280.564 129.7 272.764 133.3 264.064 133.3C248.464 133.3 236.764 122.5 236.764 105.25C236.764 88.3 248.464 77.35 264.064 77.35C272.764 77.35 280.564 80.95 285.664 88.75L296.614 81.7C290.314 70.6 278.464 64.75 264.214 64.75C239.764 64.75 222.214 81.55 222.214 105.25C222.214 128.95 239.764 145.9 264.214 145.9ZM322.457 50.2C328.157 50.2 332.207 46 332.207 40.6C332.207 35.5 328.007 31.45 322.457 31.45C316.907 31.45 312.707 35.65 312.707 40.9C312.707 46.15 316.907 50.2 322.457 50.2ZM315.257 145H329.657V65.5H315.257V145ZM379.952 145.9C401.102 145.9 414.302 136.75 414.302 122.35C414.302 91.45 363.902 106.75 363.902 88C363.902 81.7 370.052 77.05 382.652 77.05C390.452 77.05 398.402 78.7 405.602 83.35L411.752 71.95C404.852 67.45 393.152 64.75 382.802 64.75C362.402 64.75 349.652 74.35 349.652 88.6C349.652 120.25 399.902 104.8 399.902 122.65C399.902 129.4 394.352 133.45 381.002 133.45C370.652 133.45 359.852 130 353.102 125.2L347.102 136.6C353.702 141.85 366.752 145.9 379.952 145.9ZM439.498 50.2C445.198 50.2 449.248 46 449.248 40.6C449.248 35.5 445.048 31.45 439.498 31.45C433.948 31.45 429.748 35.65 429.748 40.9C429.748 46.15 433.948 50.2 439.498 50.2ZM432.298 145H446.698V65.5H432.298V145ZM508.243 145.9C532.093 145.9 549.493 128.95 549.493 105.25C549.493 81.55 532.093 64.75 508.243 64.75C484.393 64.75 466.843 81.55 466.843 105.25C466.843 128.95 484.393 145.9 508.243 145.9ZM508.243 133.3C492.943 133.3 481.393 122.2 481.393 105.25C481.393 88.3 492.943 77.35 508.243 77.35C523.543 77.35 534.943 88.3 534.943 105.25C534.943 122.2 523.543 133.3 508.243 133.3ZM611.858 64.75C599.258 64.75 589.058 69.4 583.208 77.5V65.5H569.408V145H583.808V104.05C583.808 86.8 593.708 77.65 609.008 77.65C622.658 77.65 630.458 85.3 630.458 100.9V145H644.858V99.25C644.858 75.85 631.208 64.75 611.858 64.75ZM189.924 205H148.974V310H163.974V278.2H189.924C217.224 278.2 233.724 264.4 233.724 241.6C233.724 218.8 217.224 205 189.924 205ZM189.474 265.15H163.974V218.05H189.474C208.674 218.05 218.724 226.6 218.724 241.6C218.724 256.6 208.674 265.15 189.474 265.15ZM281.878 229.75C269.128 229.75 257.278 233.35 249.028 239.95L255.028 250.75C261.178 245.5 270.778 242.2 280.228 242.2C294.478 242.2 301.528 249.25 301.528 261.4V264.25H278.728C255.028 264.25 246.778 274.75 246.778 287.5C246.778 301.3 258.178 310.9 276.178 310.9C288.628 310.9 297.478 306.7 302.278 299.5V310H315.928V262C315.928 240.25 303.628 229.75 281.878 229.75ZM278.578 299.8C267.628 299.8 261.028 294.85 261.028 286.9C261.028 280.15 265.078 274.6 279.328 274.6H301.528V285.7C297.928 294.85 289.378 299.8 278.578 299.8ZM405.416 230.5V242.8C398.666 234.1 387.866 229.75 376.016 229.75C353.066 229.75 335.666 245.2 335.666 268.15C335.666 291.1 353.066 306.7 376.016 306.7C387.416 306.7 397.766 302.65 404.666 294.4V300.7C404.666 318.7 396.116 327.4 377.366 327.4C365.666 327.4 354.116 323.35 346.766 317.05L339.866 328.15C348.566 335.95 363.266 340 377.816 340C404.816 340 419.066 327.25 419.066 299.2V230.5H405.416ZM377.666 294.1C361.616 294.1 350.216 283.45 350.216 268.15C350.216 252.7 361.616 242.35 377.666 242.35C393.566 242.35 404.966 252.7 404.966 268.15C404.966 283.45 393.566 294.1 377.666 294.1ZM518.431 270.7C518.431 246.25 502.081 229.75 479.131 229.75C456.181 229.75 439.231 246.7 439.231 270.25C439.231 293.95 456.331 310.9 481.981 310.9C495.181 310.9 506.131 306.4 513.331 298L505.381 288.7C499.531 295.15 491.731 298.3 482.431 298.3C466.681 298.3 455.431 289 453.631 275.05H518.131C518.281 273.7 518.431 271.9 518.431 270.7ZM479.131 241.9C493.081 241.9 503.131 251.35 504.631 264.7H453.631C455.131 251.2 465.331 241.9 479.131 241.9Z" transform="translate(3529 904)" fill="#61C4B9"/>
<path d="M-7.07107 463.071C-3.16582 466.976 3.16582 466.976 7.07107 463.071L70.7107 399.431C74.6159 395.526 74.6159 389.195 70.7107 385.289C66.8054 381.384 60.4738 381.384 56.5685 385.289L0 441.858L-56.5685 385.289C-60.4738 381.384 -66.8054 381.384 -70.7107 385.289C-74.6159 389.195 -74.6159 395.526 -70.7107 399.431L-7.07107 463.071ZM-10 0V456H10V0H-10Z" transform="translate(3858 640) rotate(180)" fill="#61C4B9"/>
<path d="M-9.58692 193.156C-11.1579 198.45 -8.13918 204.016 -2.84447 205.587L83.4378 231.187C88.7325 232.758 94.2982 229.739 95.8692 224.445C97.4401 219.15 94.4214 213.584 89.1267 212.013L12.4314 189.258L35.1871 112.562C36.7581 107.268 33.7394 101.702 28.4447 100.131C23.15 98.5599 17.5843 101.579 16.0133 106.873L-9.58692 193.156ZM158.019 0.611101C161.622 59.471 112.927 123.375 -4.76763 187.21L4.76763 204.79C123.073 140.625 182.378 71.1957 177.981 -0.611101L158.019 0.611101Z" transform="translate(4027 530) rotate(180)" fill="#61C4B9"/>
<path d="M-9.58692 139.156C-11.1579 144.45 -8.13918 150.016 -2.84447 151.587L83.4378 177.187C88.7325 178.758 94.2982 175.739 95.8692 170.445C97.4401 165.15 94.4214 159.584 89.1267 158.013L12.4314 135.258L35.1871 58.5622C36.7581 53.2675 33.7394 47.7018 28.4447 46.1308C23.15 44.5599 17.5843 47.5786 16.0133 52.8733L-9.58692 139.156ZM154.812 0.611101C155.728 15.568 153.478 26.6774 148.495 36.0583C143.444 45.5656 135.11 54.1973 122.317 63.3747C109.464 72.5958 92.7337 81.9397 71.4348 93.1511C50.34 104.255 24.7863 117.18 -4.76763 133.21L4.76763 150.79C34.2137 134.82 59.2592 122.162 80.7507 110.849C102.038 99.6436 119.881 89.7375 133.976 79.6253C148.132 69.4694 159.121 58.6844 166.157 45.4417C173.259 32.0726 175.859 17.0987 174.775 -0.611101L154.812 0.611101Z" transform="translate(3693 574) scale(1 -1)" fill="#61C4B9"/>
<path d="M16.1455 145H60.3955C94.1455 145 117.096 123.7 117.096 92.5C117.096 61.3 94.1455 40 60.3955 40H16.1455V145ZM31.1455 131.95V53.05H59.4955C85.4455 53.05 102.096 68.95 102.096 92.5C102.096 116.05 85.4455 131.95 59.4955 131.95H31.1455ZM166.921 64.75C154.171 64.75 142.321 68.35 134.071 74.95L140.071 85.75C146.221 80.5 155.821 77.2 165.271 77.2C179.521 77.2 186.571 84.25 186.571 96.4V99.25H163.771C140.071 99.25 131.821 109.75 131.821 122.5C131.821 136.3 143.221 145.9 161.221 145.9C173.671 145.9 182.521 141.7 187.321 134.5V145H200.971V97C200.971 75.25 188.671 64.75 166.921 64.75ZM163.621 134.8C152.671 134.8 146.071 129.85 146.071 121.9C146.071 115.15 150.121 109.6 164.371 109.6H186.571V120.7C182.971 129.85 174.421 134.8 163.621 134.8ZM250.42 145.9C271.57 145.9 284.77 136.75 284.77 122.35C284.77 91.45 234.37 106.75 234.37 88C234.37 81.7 240.52 77.05 253.12 77.05C260.92 77.05 268.87 78.7 276.07 83.35L282.22 71.95C275.32 67.45 263.62 64.75 253.27 64.75C232.87 64.75 220.12 74.35 220.12 88.6C220.12 120.25 270.37 104.8 270.37 122.65C270.37 129.4 264.82 133.45 251.47 133.45C241.12 133.45 230.32 130 223.57 125.2L217.57 136.6C224.17 141.85 237.22 145.9 250.42 145.9ZM345.216 64.75C333.066 64.75 323.166 69.1 317.166 76.75V33.7H302.766V145H317.166V104.05C317.166 86.8 327.066 77.65 342.366 77.65C356.016 77.65 363.816 85.3 363.816 100.9V145H378.216V99.25C378.216 75.85 364.566 64.75 345.216 64.75ZM447.016 64.75C435.766 64.75 425.866 68.95 419.266 77.5V33.7H404.866V145H418.666V132.4C425.116 141.4 435.316 145.9 447.016 145.9C470.266 145.9 487.216 129.55 487.216 105.25C487.216 80.95 470.266 64.75 447.016 64.75ZM445.816 133.3C430.666 133.3 419.116 122.2 419.116 105.25C419.116 88.3 430.666 77.35 445.816 77.35C461.116 77.35 472.666 88.3 472.666 105.25C472.666 122.2 461.116 133.3 445.816 133.3ZM541.162 145.9C565.012 145.9 582.412 128.95 582.412 105.25C582.412 81.55 565.012 64.75 541.162 64.75C517.312 64.75 499.762 81.55 499.762 105.25C499.762 128.95 517.312 145.9 541.162 145.9ZM541.162 133.3C525.862 133.3 514.312 122.2 514.312 105.25C514.312 88.3 525.862 77.35 541.162 77.35C556.462 77.35 567.862 88.3 567.862 105.25C567.862 122.2 556.462 133.3 541.162 133.3ZM630.544 64.75C617.794 64.75 605.944 68.35 597.694 74.95L603.694 85.75C609.844 80.5 619.444 77.2 628.894 77.2C643.144 77.2 650.194 84.25 650.194 96.4V99.25H627.394C603.694 99.25 595.444 109.75 595.444 122.5C595.444 136.3 606.844 145.9 624.844 145.9C637.294 145.9 646.144 141.7 650.944 134.5V145H664.594V97C664.594 75.25 652.294 64.75 630.544 64.75ZM627.244 134.8C616.294 134.8 609.694 129.85 609.694 121.9C609.694 115.15 613.744 109.6 627.994 109.6H650.194V120.7C646.594 129.85 638.044 134.8 627.244 134.8ZM705.043 78.85V65.5H691.243V145H705.643V105.4C705.643 88 715.243 78.55 730.693 78.55C731.743 78.55 732.793 78.55 733.993 78.7V64.75C720.043 64.75 710.143 69.55 705.043 78.85ZM811.608 33.7V77.5C805.008 68.95 795.108 64.75 783.858 64.75C760.608 64.75 743.658 80.95 743.658 105.25C743.658 129.55 760.608 145.9 783.858 145.9C795.558 145.9 805.758 141.4 812.208 132.4V145H826.008V33.7H811.608ZM785.058 133.3C769.758 133.3 758.208 122.2 758.208 105.25C758.208 88.3 769.758 77.35 785.058 77.35C800.208 77.35 811.758 88.3 811.758 105.25C811.758 122.2 800.208 133.3 785.058 133.3Z" transform="translate(4963 2352)" fill="#4F4F4F"/>
<rect x="10" y="10" width="465" height="320" rx="20" transform="translate(5146 1693)" stroke="#7C4198" stroke-width="20"/>
<rect x="10" y="10" width="78" height="34" transform="translate(5343 2015)" stroke="#7C4198" stroke-width="20"/>
<rect x="10" y="10" width="182" height="34" rx="17" transform="translate(5291 2049)" stroke="#7C4198" stroke-width="20"/>
<line x1="10" y1="-10" x2="101" y2="-10" transform="translate(5260 1781)" stroke="#61C4B9" stroke-width="20" stroke-linecap="round"/>
<line x1="10" y1="-10" x2="162" y2="-10" transform="translate(5405 1919)" stroke="#ED2C75" stroke-width="20" stroke-linecap="round"/>
<line x1="10" y1="-10" x2="162" y2="-10" transform="translate(5405 1884)" stroke="#ED2C75" stroke-width="20" stroke-linecap="round"/>
<line x1="10" y1="-10" x2="162" y2="-10" transform="translate(5405 1957)" stroke="#ED2C75" stroke-width="20" stroke-linecap="round"/>
<line x1="10" y1="-10" x2="48" y2="-10" transform="translate(5519 1846)" stroke="#ED2C75" stroke-width="20" stroke-linecap="round"/>
<line x1="10" y1="-10" x2="48" y2="-10" transform="translate(5519 1811.5)" stroke="#ED2C75" stroke-width="20" stroke-linecap="round"/>
<line x1="10" y1="-10" x2="48" y2="-10" transform="translate(5519 1777)" stroke="#ED2C75" stroke-width="20" stroke-linecap="round"/>
<path d="M0 7L10.973 21L29 0" transform="translate(5206 1755)" stroke="#61C4B9" stroke-width="20" stroke-linecap="round"/>
<line x1="10" y1="-10" x2="101" y2="-10" transform="translate(5260 1839)" stroke="#61C4B9" stroke-width="20" stroke-linecap="round"/>
<path d="M0 7L10.973 21L29 0" transform="translate(5206 1813)" stroke="#61C4B9" stroke-width="20" stroke-linecap="round"/>
<line x1="10" y1="-10" x2="101" y2="-10" transform="translate(5260 1899)" stroke="#61C4B9" stroke-width="20" stroke-linecap="round"/>
<path d="M0 7L10.973 21L29 0" transform="translate(5206 1873)" stroke="#61C4B9" stroke-width="20" stroke-linecap="round"/>
<line x1="10" y1="-10" x2="101" y2="-10" transform="translate(5260 1957)" stroke="#61C4B9" stroke-width="20" stroke-linecap="round"/>
<path d="M0 7L10.973 21L29 0" transform="translate(5206 1931)" stroke="#61C4B9" stroke-width="20" stroke-linecap="round"/>
<rect width="72" height="69" transform="translate(5414 1767)" stroke="#ED2C75" stroke-width="20" stroke-linecap="round" stroke-linejoin="round"/>
<line y1="-10" x2="1339" y2="-10" transform="translate(4140 704) rotate(43.5172)" stroke="#61C4B9" stroke-width="20"/>
<line y1="-10" x2="1441.46" y2="-10" transform="translate(4140 3246) rotate(-47.221)" stroke="#ED2C75" stroke-width="20"/>
<line y1="-10" x2="1866.33" y2="-10" transform="translate(3309 2765) rotate(-23.6944)" stroke="#7C4198" stroke-width="20"/>
<line y1="-10" x2="1541.49" y2="-10" transform="translate(3467 1681) rotate(4.83772)" stroke="#ED2C75" stroke-width="20"/>
<line x1="10" y1="-10" x2="1065.53" y2="-10" transform="translate(1616 1015) rotate(11.7487)" stroke="#ED2C75" stroke-width="20" stroke-linecap="round"/>
<line x1="10" y1="-10" x2="1470.25" y2="-10" transform="translate(3577 1431) rotate(12.1677)" stroke="#ED2C75" stroke-width="20" stroke-linecap="round"/>
<circle cx="400" cy="400" r="390" transform="translate(3529 3177)" stroke="#ED2C75" stroke-width="20"/>
<rect x="10" y="10" width="264" height="381" rx="20" transform="translate(3787 3376)" stroke="#ED2C75" stroke-width="20"/>
<line x1="10" y1="-10" x2="162" y2="-10" transform="translate(3843 3603)" stroke="#ED2C75" stroke-width="20" stroke-linecap="round"/>
<line x1="10" y1="-10" x2="162" y2="-10" transform="translate(3843 3567)" stroke="#ED2C75" stroke-width="20" stroke-linecap="round"/>
<line x1="10" y1="-10" x2="162" y2="-10" transform="translate(3843 3640)" stroke="#ED2C75" stroke-width="20" stroke-linecap="round"/>
<line x1="10" y1="-10" x2="162" y2="-10" transform="translate(3843 3677)" stroke="#ED2C75" stroke-width="20" stroke-linecap="round"/>
<line x1="10" y1="-10" x2="162" y2="-10" transform="translate(3843 3715)" stroke="#ED2C75" stroke-width="20" stroke-linecap="round"/>
<line x1="10" y1="-10" x2="48" y2="-10" transform="translate(3957 3529)" stroke="#ED2C75" stroke-width="20" stroke-linecap="round"/>
<line x1="10" y1="-10" x2="48" y2="-10" transform="translate(3957 3494.5)" stroke="#ED2C75" stroke-width="20" stroke-linecap="round"/>
<line x1="10" y1="-10" x2="48" y2="-10" transform="translate(3957 3460)" stroke="#ED2C75" stroke-width="20" stroke-linecap="round"/>
<rect width="72" height="69" transform="translate(3852 3450)" stroke="#ED2C75" stroke-width="20" stroke-linecap="round" stroke-linejoin="round"/>
<circle cx="400" cy="400" r="390" transform="translate(1834 3745)" stroke="#61C4B9" stroke-width="20"/>
<path d="M15.9023 145H60.1523C93.9023 145 116.852 123.7 116.852 92.5C116.852 61.3 93.9023 40 60.1523 40H15.9023V145ZM30.9023 131.95V53.05H59.2523C85.2023 53.05 101.852 68.95 101.852 92.5C101.852 116.05 85.2023 131.95 59.2523 131.95H30.9023ZM166.678 64.75C153.928 64.75 142.078 68.35 133.828 74.95L139.828 85.75C145.978 80.5 155.578 77.2 165.028 77.2C179.278 77.2 186.328 84.25 186.328 96.4V99.25H163.528C139.828 99.25 131.578 109.75 131.578 122.5C131.578 136.3 142.978 145.9 160.978 145.9C173.428 145.9 182.278 141.7 187.078 134.5V145H200.728V97C200.728 75.25 188.428 64.75 166.678 64.75ZM163.378 134.8C152.428 134.8 145.828 129.85 145.828 121.9C145.828 115.15 149.878 109.6 164.128 109.6H186.328V120.7C182.728 129.85 174.178 134.8 163.378 134.8ZM267.577 130C264.577 132.4 260.527 133.75 256.327 133.75C248.377 133.75 243.877 128.95 243.877 120.4V77.35H266.677V65.5H243.877V48.1H229.477V65.5H215.977V77.35H229.477V121C229.477 137.05 238.627 145.9 254.677 145.9C261.127 145.9 267.727 144.1 272.077 140.35L267.577 130ZM318.436 64.75C305.686 64.75 293.836 68.35 285.586 74.95L291.586 85.75C297.736 80.5 307.336 77.2 316.786 77.2C331.036 77.2 338.086 84.25 338.086 96.4V99.25H315.286C291.586 99.25 283.336 109.75 283.336 122.5C283.336 136.3 294.736 145.9 312.736 145.9C325.186 145.9 334.036 141.7 338.836 134.5V145H352.486V97C352.486 75.25 340.186 64.75 318.436 64.75ZM315.136 134.8C304.186 134.8 297.586 129.85 297.586 121.9C297.586 115.15 301.636 109.6 315.886 109.6H338.086V120.7C334.486 129.85 325.936 134.8 315.136 134.8ZM421.518 145H465.768C499.518 145 522.468 123.7 522.468 92.5C522.468 61.3 499.518 40 465.768 40H421.518V145ZM436.518 131.95V53.05H464.868C490.818 53.05 507.468 68.95 507.468 92.5C507.468 116.05 490.818 131.95 464.868 131.95H436.518ZM550.543 50.2C556.243 50.2 560.293 46 560.293 40.6C560.293 35.5 556.093 31.45 550.543 31.45C544.993 31.45 540.793 35.65 540.793 40.9C540.793 46.15 544.993 50.2 550.543 50.2ZM543.343 145H557.743V65.5H543.343V145ZM608.038 145.9C629.188 145.9 642.388 136.75 642.388 122.35C642.388 91.45 591.988 106.75 591.988 88C591.988 81.7 598.138 77.05 610.738 77.05C618.538 77.05 626.488 78.7 633.688 83.35L639.838 71.95C632.938 67.45 621.238 64.75 610.888 64.75C590.488 64.75 577.738 74.35 577.738 88.6C577.738 120.25 627.988 104.8 627.988 122.65C627.988 129.4 622.438 133.45 609.088 133.45C598.738 133.45 587.938 130 581.188 125.2L575.188 136.6C581.788 141.85 594.838 145.9 608.038 145.9ZM702.534 64.75C690.834 64.75 680.634 69.25 674.184 78.1V65.5H660.384V174.1H674.784V133C681.384 141.55 691.284 145.9 702.534 145.9C725.784 145.9 742.734 129.7 742.734 105.25C742.734 80.95 725.784 64.75 702.534 64.75ZM701.334 133.3C686.184 133.3 674.634 122.2 674.634 105.25C674.634 88.45 686.184 77.35 701.334 77.35C716.634 77.35 728.184 88.45 728.184 105.25C728.184 122.2 716.634 133.3 701.334 133.3ZM762.63 145H777.03V33.7H762.63V145ZM833.475 64.75C820.725 64.75 808.875 68.35 800.625 74.95L806.625 85.75C812.775 80.5 822.375 77.2 831.825 77.2C846.075 77.2 853.125 84.25 853.125 96.4V99.25H830.325C806.625 99.25 798.375 109.75 798.375 122.5C798.375 136.3 809.775 145.9 827.775 145.9C840.225 145.9 849.075 141.7 853.875 134.5V145H867.525V97C867.525 75.25 855.225 64.75 833.475 64.75ZM830.175 134.8C819.225 134.8 812.625 129.85 812.625 121.9C812.625 115.15 816.675 109.6 830.925 109.6H853.125V120.7C849.525 129.85 840.975 134.8 830.175 134.8ZM948.959 65.5L921.509 129.1L893.759 65.5H878.759L913.859 144.85L911.309 150.4C907.409 159.55 903.059 162.7 896.159 162.7C890.759 162.7 885.809 160.6 881.909 156.85L875.759 167.65C880.709 172.45 888.509 175 896.159 175C908.309 175 917.459 169.75 924.509 152.95L963.059 65.5H948.959Z" transform="translate(1756 4602)" fill="#61C4B9"/>
<rect width="38.7466" height="136" rx="10" transform="translate(2068.77 3967)" stroke="#61C4B9" stroke-width="20"/>
<rect width="38.7466" height="90.1302" rx="10" transform="translate(2139.25 4012.87)" stroke="#61C4B9" stroke-width="20"/>
<path d="M153.892 74.4065H84.5154V5.04514C84.5154 2.24228 82.2726 -5.70242e-07 79.4692 -5.70242e-07C35.6602 -5.70242e-07 2.78496e-10 35.6523 2.78496e-10 79.4516C2.78496e-10 123.251 35.6602 158.903 79.4692 158.903C123.278 158.903 158.938 123.251 158.938 79.4516C158.938 76.6861 156.658 74.4065 153.892 74.4065ZM79.4692 148.813C41.2298 148.813 10.0925 117.683 10.0925 79.4516C10.0925 42.9024 38.5011 12.8558 74.4229 10.2771V79.4516C74.4229 82.2545 76.6657 84.4968 79.4692 84.4968H148.659C146.08 120.411 116.026 148.813 79.4692 148.813Z" transform="translate(2326 3959.1)" fill="#61C4B9" stroke="#61C4B9" stroke-width="5"/>
<path d="M84.5154 79.19C84.4407 59.9064 77.3759 41.3328 64.6294 26.87C49.5281 9.79131 27.8479 0 5.04625 0C2.24278 0 -2.28147e-06 2.24228 -2.28147e-06 5.04514V79.4516C-2.28147e-06 82.2545 2.24278 84.4968 5.04625 84.4968H79.4692C82.2727 84.4968 84.5154 82.2545 84.5154 79.4516C84.5154 79.3769 84.5154 79.3021 84.5154 79.19ZM10.0925 74.4439V10.3145C28.1095 11.6225 45.0051 19.9563 57.0414 33.5969C67.1339 44.9952 73.1146 59.3458 74.236 74.4439H10.0925Z" transform="translate(2419.48 3940)" fill="#61C4B9" stroke="#61C4B9" stroke-width="5"/>
<line x1="10" y1="-10" x2="538" y2="-10" transform="translate(2252 3861) rotate(90)" stroke="#61C4B9" stroke-width="20" stroke-linecap="round"/>
<line x1="10" y1="-10" x2="617" y2="-10" transform="translate(2537 4171) rotate(180)" stroke="#61C4B9" stroke-width="20" stroke-linecap="round"/>
<path d="M0 18L62.6744 70L105.651 18L162.953 130L231 0" transform="translate(1947 4251)" stroke="#61C4B9" stroke-width="20" stroke-linecap="round" stroke-linejoin="round"/>
<line x1="10" y1="-10" x2="141" y2="-10" transform="translate(2326 4261)" stroke="#61C4B9" stroke-width="20" stroke-linecap="round"/>
<line x1="10" y1="-10" x2="95" y2="-10" transform="translate(2326 4381)" stroke="#61C4B9" stroke-width="20" stroke-linecap="round"/>
<line x1="10" y1="-10" x2="117" y2="-10" transform="translate(2326 4341)" stroke="#61C4B9" stroke-width="20" stroke-linecap="round"/>
<line x1="10" y1="-10" x2="95" y2="-10" transform="translate(2326 4301)" stroke="#61C4B9" stroke-width="20" stroke-linecap="round"/>
<circle cx="400" cy="400" r="390" transform="translate(2123)" stroke="#7C4198" stroke-width="20"/>
<path d="M127.944 145L127.794 40H115.494L72.2943 113.8L28.4943 40H16.1943V145H30.5943V68.95L68.5443 132.25H75.4443L113.394 68.5L113.544 145H127.944ZM186.306 64.75C173.556 64.75 161.706 68.35 153.456 74.95L159.456 85.75C165.606 80.5 175.206 77.2 184.656 77.2C198.906 77.2 205.956 84.25 205.956 96.4V99.25H183.156C159.456 99.25 151.206 109.75 151.206 122.5C151.206 136.3 162.606 145.9 180.606 145.9C193.056 145.9 201.906 141.7 206.706 134.5V145H220.356V97C220.356 75.25 208.056 64.75 186.306 64.75ZM183.006 134.8C172.056 134.8 165.456 129.85 165.456 121.9C165.456 115.15 169.506 109.6 183.756 109.6H205.956V120.7C202.356 129.85 193.806 134.8 183.006 134.8ZM289.454 64.75C276.854 64.75 266.654 69.4 260.804 77.5V65.5H247.004V145H261.404V104.05C261.404 86.8 271.304 77.65 286.604 77.65C300.254 77.65 308.054 85.3 308.054 100.9V145H322.454V99.25C322.454 75.85 308.804 64.75 289.454 64.75ZM408.804 65.5V106.6C408.804 123.7 399.204 133 384.204 133C370.554 133 362.754 125.2 362.754 109.6V65.5H348.354V111.25C348.354 134.65 362.004 145.9 382.554 145.9C393.804 145.9 403.704 141.25 409.554 133V145H423.204V65.5H408.804ZM473.418 145.9C494.568 145.9 507.768 136.75 507.768 122.35C507.768 91.45 457.368 106.75 457.368 88C457.368 81.7 463.518 77.05 476.118 77.05C483.918 77.05 491.868 78.7 499.068 83.35L505.218 71.95C498.318 67.45 486.618 64.75 476.268 64.75C455.868 64.75 443.118 74.35 443.118 88.6C443.118 120.25 493.368 104.8 493.368 122.65C493.368 129.4 487.818 133.45 474.468 133.45C464.118 133.45 453.318 130 446.568 125.2L440.568 136.6C447.168 141.85 460.218 145.9 473.418 145.9ZM560.414 145.9C574.664 145.9 586.514 139.9 592.814 128.8L581.864 121.9C576.764 129.7 568.964 133.3 560.264 133.3C544.664 133.3 532.964 122.5 532.964 105.25C532.964 88.3 544.664 77.35 560.264 77.35C568.964 77.35 576.764 80.95 581.864 88.75L592.814 81.7C586.514 70.6 574.664 64.75 560.414 64.75C535.964 64.75 518.414 81.55 518.414 105.25C518.414 128.95 535.964 145.9 560.414 145.9ZM625.258 78.85V65.5H611.458V145H625.858V105.4C625.858 88 635.458 78.55 650.908 78.55C651.958 78.55 653.008 78.55 654.208 78.7V64.75C640.258 64.75 630.358 69.55 625.258 78.85ZM679.156 50.2C684.856 50.2 688.906 46 688.906 40.6C688.906 35.5 684.706 31.45 679.156 31.45C673.606 31.45 669.406 35.65 669.406 40.9C669.406 46.15 673.606 50.2 679.156 50.2ZM671.956 145H686.356V65.5H671.956V145ZM756 64.75C744.3 64.75 734.1 69.25 727.65 78.1V65.5H713.85V174.1H728.25V133C734.85 141.55 744.75 145.9 756 145.9C779.25 145.9 796.2 129.7 796.2 105.25C796.2 80.95 779.25 64.75 756 64.75ZM754.8 133.3C739.65 133.3 728.1 122.2 728.1 105.25C728.1 88.45 739.65 77.35 754.8 77.35C770.1 77.35 781.65 88.45 781.65 105.25C781.65 122.2 770.1 133.3 754.8 133.3ZM856.296 130C853.296 132.4 849.246 133.75 845.046 133.75C837.096 133.75 832.596 128.95 832.596 120.4V77.35H855.396V65.5H832.596V48.1H818.196V65.5H804.696V77.35H818.196V121C818.196 137.05 827.346 145.9 843.396 145.9C849.846 145.9 856.446 144.1 860.796 140.35L856.296 130Z" transform="translate(2094 870)" fill="#7C4198"/>
<ellipse cx="39.7482" cy="39.7173" rx="39.7482" ry="39.7173" transform="translate(2303 198)" stroke="#7C4198" stroke-width="20"/>
<ellipse cx="39.7482" cy="39.7173" rx="39.7482" ry="39.7173" transform="translate(2382.5 525.564)" stroke="#7C4198" stroke-width="20"/>
<path d="M0 0H248.734C270.686 0 288.482 17.782 288.482 39.7173C288.482 61.6526 270.686 79.4346 248.734 79.4346H0" transform="translate(2424.29 525.564)" stroke="#7C4198" stroke-width="20"/>
<path d="M0 0H248.734C270.686 0 288.482 17.782 288.482 39.7173V85.167M288.482 326.746V223.973" transform="translate(2337.42 198)" stroke="#7C4198" stroke-width="20"/>
<line y1="-10" x2="333.298" y2="-10" transform="translate(2374.3 237.309) rotate(90)" stroke="#7C4198" stroke-width="20"/>
<line x1="10" y1="-10" x2="143.256" y2="-10" transform="translate(2424.29 270.064)" stroke="#7C4198" stroke-width="20" stroke-linecap="round"/>
<line x1="10" y1="-10" x2="117.85" y2="-10" transform="translate(2424.29 309.373)" stroke="#7C4198" stroke-width="20" stroke-linecap="round"/>
<line x1="10" y1="-10" x2="100.639" y2="-10" transform="translate(2424.29 350.318)" stroke="#7C4198" stroke-width="20" stroke-linecap="round"/>
<line x1="10" y1="-10" x2="87.5266" y2="-10" transform="translate(2424.29 391.264)" stroke="#7C4198" stroke-width="20" stroke-linecap="round"/>
<line x1="10" y1="-10" x2="81.7897" y2="-10" transform="translate(2424.29 430.572)" stroke="#7C4198" stroke-width="20" stroke-linecap="round"/>
<path d="M0 203.091L202.429 0" transform="translate(2503.79 282.055)" stroke="#7C4198" stroke-width="20" stroke-linecap="round"/>
<path d="M0 204.434C5.46367 178.502 20.9805 119.758 39.3385 92.2429C62.2859 57.8485 142.602 -27.3185 190.955 8.71369L199.151 15.9688" transform="translate(2544.77 237.309)" stroke="#7C4198" stroke-width="20"/>
<path d="M0 204.593C5.45942 178.641 20.9642 119.852 39.3078 92.3147C62.2374 57.8935 142.491 -27.3398 190.807 8.72048" transform="translate(2751 442.561) scale(-1 1) rotate(-90)" stroke="#7C4198" stroke-width="20"/>
<circle cx="400" cy="400" r="390" transform="translate(2685 1234)" stroke="#ED2C75" stroke-width="20"/>
<path d="M102.543 145L77.6432 109.75C92.3432 104.5 100.743 92.8 100.743 76.6C100.743 53.8 84.2432 40 56.9432 40H15.9932V145H30.9932V113.05H56.9432C59.1932 113.05 61.4432 112.9 63.5432 112.75L86.1932 145H102.543ZM56.4932 100.3H30.9932V53.05H56.4932C75.6932 53.05 85.7432 61.6 85.7432 76.6C85.7432 91.6 75.6932 100.3 56.4932 100.3ZM194.728 105.7C194.728 81.25 178.378 64.75 155.428 64.75C132.478 64.75 115.528 81.7 115.528 105.25C115.528 128.95 132.628 145.9 158.278 145.9C171.478 145.9 182.428 141.4 189.628 133L181.678 123.7C175.828 130.15 168.028 133.3 158.728 133.3C142.978 133.3 131.728 124 129.928 110.05H194.428C194.578 108.7 194.728 106.9 194.728 105.7ZM155.428 76.9C169.378 76.9 179.428 86.35 180.928 99.7H129.928C131.428 86.2 141.628 76.9 155.428 76.9ZM269.508 65.5L241.608 129.25L214.308 65.5H199.308L234.108 145H248.808L283.608 65.5H269.508ZM304.247 50.2C309.947 50.2 313.997 46 313.997 40.6C313.997 35.5 309.797 31.45 304.247 31.45C298.697 31.45 294.497 35.65 294.497 40.9C294.497 46.15 298.697 50.2 304.247 50.2ZM297.047 145H311.447V65.5H297.047V145ZM410.792 105.7C410.792 81.25 394.442 64.75 371.492 64.75C348.542 64.75 331.592 81.7 331.592 105.25C331.592 128.95 348.692 145.9 374.342 145.9C387.542 145.9 398.492 141.4 405.692 133L397.742 123.7C391.892 130.15 384.092 133.3 374.792 133.3C359.042 133.3 347.792 124 345.992 110.05H410.492C410.642 108.7 410.792 106.9 410.792 105.7ZM371.492 76.9C385.442 76.9 395.492 86.35 396.992 99.7H345.992C347.492 86.2 357.692 76.9 371.492 76.9ZM536.723 65.5L513.023 129.1L489.473 65.5H477.323L453.323 128.8L430.223 65.5H416.573L446.123 145H459.923L483.173 84.7L506.123 145H519.923L549.623 65.5H536.723ZM633.888 105.7C633.888 81.25 617.538 64.75 594.588 64.75C571.638 64.75 554.688 81.7 554.688 105.25C554.688 128.95 571.788 145.9 597.438 145.9C610.638 145.9 621.588 141.4 628.788 133L620.838 123.7C614.988 130.15 607.188 133.3 597.888 133.3C582.138 133.3 570.888 124 569.088 110.05H633.588C633.738 108.7 633.888 106.9 633.888 105.7ZM594.588 76.9C608.538 76.9 618.588 86.35 620.088 99.7H569.088C570.588 86.2 580.788 76.9 594.588 76.9ZM667.683 78.85V65.5H653.883V145H668.283V105.4C668.283 88 677.883 78.55 693.333 78.55C694.383 78.55 695.433 78.55 696.633 78.7V64.75C682.683 64.75 672.783 69.55 667.683 78.85ZM211.924 205H170.974V310H185.974V278.2H211.924C239.224 278.2 255.724 264.4 255.724 241.6C255.724 218.8 239.224 205 211.924 205ZM211.474 265.15H185.974V218.05H211.474C230.674 218.05 240.724 226.6 240.724 241.6C240.724 256.6 230.674 265.15 211.474 265.15ZM303.878 229.75C291.128 229.75 279.278 233.35 271.028 239.95L277.028 250.75C283.178 245.5 292.778 242.2 302.228 242.2C316.478 242.2 323.528 249.25 323.528 261.4V264.25H300.728C277.028 264.25 268.778 274.75 268.778 287.5C268.778 301.3 280.178 310.9 298.178 310.9C310.628 310.9 319.478 306.7 324.278 299.5V310H337.928V262C337.928 240.25 325.628 229.75 303.878 229.75ZM300.578 299.8C289.628 299.8 283.028 294.85 283.028 286.9C283.028 280.15 287.078 274.6 301.328 274.6H323.528V285.7C319.928 294.85 311.378 299.8 300.578 299.8ZM427.416 230.5V242.8C420.666 234.1 409.866 229.75 398.016 229.75C375.066 229.75 357.666 245.2 357.666 268.15C357.666 291.1 375.066 306.7 398.016 306.7C409.416 306.7 419.766 302.65 426.666 294.4V300.7C426.666 318.7 418.116 327.4 399.366 327.4C387.666 327.4 376.116 323.35 368.766 317.05L361.866 328.15C370.566 335.95 385.266 340 399.816 340C426.816 340 441.066 327.25 441.066 299.2V230.5H427.416ZM399.666 294.1C383.616 294.1 372.216 283.45 372.216 268.15C372.216 252.7 383.616 242.35 399.666 242.35C415.566 242.35 426.966 252.7 426.966 268.15C426.966 283.45 415.566 294.1 399.666 294.1ZM540.431 270.7C540.431 246.25 524.081 229.75 501.131 229.75C478.181 229.75 461.231 246.7 461.231 270.25C461.231 293.95 478.331 310.9 503.981 310.9C517.181 310.9 528.131 306.4 535.331 298L527.381 288.7C521.531 295.15 513.731 298.3 504.431 298.3C488.681 298.3 477.431 289 475.631 275.05H540.131C540.281 273.7 540.431 271.9 540.431 270.7ZM501.131 241.9C515.081 241.9 525.131 251.35 526.631 264.7H475.631C477.131 251.2 487.331 241.9 501.131 241.9Z" transform="translate(2737 2091)" fill="#ED2C75"/>
<path d="M243.599 186.172C243.748 182.976 245.233 179.988 247.693 177.945C271.367 158.283 284.406 132.947 284.406 106.605C284.406 47.8234 219.615 0 142.203 0C64.7916 0 0 46.6732 0 106.605C0 117.018 2.01201 127.085 5.74164 136.606C5.82917 136.817 5.9224 137.026 5.99515 137.239C23.5941 181.138 77.9914 213.212 142.203 213.212C151.457 213.212 160.756 212.528 169.841 211.179C173.004 210.71 176.048 211.588 178.404 213.386L243.221 247.573L243.585 186.791C243.585 186.585 243.587 186.379 243.599 186.172Z" transform="translate(2875 1396)" fill="white" stroke="#ED2C75" stroke-width="20"/>
<line x1="10" y1="-10" x2="101" y2="-10" transform="translate(2992.14 1485.93)" stroke="#ED2C75" stroke-width="20" stroke-linecap="round"/>
<path d="M0 7L10.973 21L29 0" transform="translate(2938.14 1459.93)" stroke="#ED2C75" stroke-width="20" stroke-linecap="round"/>
<line x1="10" y1="-10" x2="101" y2="-10" transform="translate(2992.14 1543.93)" stroke="#ED2C75" stroke-width="20" stroke-linecap="round"/>
<path d="M0 7L10.973 21L29 0" transform="translate(2938.14 1517.93)" stroke="#ED2C75" stroke-width="20" stroke-linecap="round"/>
<path d="M153 111C153 139.746 144.431 165.371 131.069 183.57C117.702 201.775 100.06 212 81.5 212C62.9401 212 45.2978 201.775 31.9314 183.57C18.5689 165.371 10 139.746 10 111C10 82.2537 18.5689 56.6288 31.9314 38.4295C45.2978 20.2249 62.9401 10 81.5 10C100.06 10 117.702 20.2249 131.069 38.4295C144.431 56.6288 153 82.2537 153 111Z" transform="translate(3159 1571)" fill="white" stroke="#ED2C75" stroke-width="20"/>
<path d="M0.00998235 186.102C-0.656684 108.102 32.009 3.70012 116.012 0.100303C178.007 -2.55637 210.01 48.0996 226.01 88.1008" transform="translate(3115.99 1834.9)" stroke="#ED2C75" stroke-width="20"/>
<path d="M153 111C153 139.746 144.431 165.371 131.069 183.57C117.702 201.775 100.06 212 81.5 212C62.9401 212 45.2978 201.775 31.9314 183.57C18.5689 165.371 10 139.746 10 111C10 82.2537 18.5689 56.6288 31.9314 38.4295C45.2978 20.2249 62.9401 10 81.5 10C100.06 10 117.702 20.2249 131.069 38.4295C144.431 56.6288 153 82.2537 153 111Z" transform="translate(2881.01 1649)" fill="white" stroke="#ED2C75" stroke-width="20"/>
<path d="M208.01 118.08C208.01 62.7467 156.007 -2.57822 94.0121 0.0784575C70.92 1.06804 28 0.0784569 0 44.0801" transform="translate(2860 1908.92)" stroke="#ED2C75" stroke-width="20"/>
<path d="M351.518 40H310.568V145H325.568V113.2H351.518C378.818 113.2 395.318 99.4 395.318 76.6C395.318 53.8 378.818 40 351.518 40ZM351.068 100.15H325.568V53.05H351.068C370.268 53.05 380.318 61.6 380.318 76.6C380.318 91.6 370.268 100.15 351.068 100.15ZM427.737 78.85V65.5H413.937V145H428.337V105.4C428.337 88 437.937 78.55 453.387 78.55C454.437 78.55 455.487 78.55 456.687 78.7V64.75C442.737 64.75 432.837 69.55 427.737 78.85ZM545.553 105.7C545.553 81.25 529.203 64.75 506.253 64.75C483.303 64.75 466.353 81.7 466.353 105.25C466.353 128.95 483.453 145.9 509.103 145.9C522.303 145.9 533.253 141.4 540.453 133L532.503 123.7C526.653 130.15 518.853 133.3 509.553 133.3C493.803 133.3 482.553 124 480.753 110.05H545.253C545.403 108.7 545.553 106.9 545.553 105.7ZM506.253 76.9C520.203 76.9 530.253 86.35 531.753 99.7H480.753C482.253 86.2 492.453 76.9 506.253 76.9ZM46.4418 311.2C74.1918 311.2 87.0918 297.4 87.0918 281.35C87.0918 242.8 23.4918 258.85 23.4918 233.2C23.4918 224.05 31.1418 216.55 48.9918 216.55C58.2918 216.55 68.6418 219.25 77.7918 225.1L82.7418 213.1C74.0418 207.1 61.2918 203.8 48.9918 203.8C21.3918 203.8 8.7918 217.6 8.7918 233.8C8.7918 272.8 72.3918 256.6 72.3918 282.25C72.3918 291.4 64.5918 298.45 46.4418 298.45C32.9418 298.45 19.5918 293.35 11.7918 286.3L6.2418 298C14.6418 305.8 30.3918 311.2 46.4418 311.2ZM166.606 230.5V271.6C166.606 288.7 157.006 298 142.006 298C128.356 298 120.556 290.2 120.556 274.6V230.5H106.156V276.25C106.156 299.65 119.806 310.9 140.356 310.9C151.606 310.9 161.506 306.25 167.356 298V310H181.006V230.5H166.606ZM250.57 229.75C239.32 229.75 229.42 233.95 222.82 242.5V198.7H208.42V310H222.22V297.4C228.67 306.4 238.87 310.9 250.57 310.9C273.82 310.9 290.77 294.55 290.77 270.25C290.77 245.95 273.82 229.75 250.57 229.75ZM249.37 298.3C234.22 298.3 222.67 287.2 222.67 270.25C222.67 253.3 234.22 242.35 249.37 242.35C264.67 242.35 276.22 253.3 276.22 270.25C276.22 287.2 264.67 298.3 249.37 298.3ZM410.116 229.75C396.616 229.75 385.516 235.45 379.516 244.45C374.266 234.55 364.066 229.75 351.916 229.75C339.916 229.75 330.166 234.25 324.466 242.35V230.5H310.666V310H325.066V269.05C325.066 251.8 334.516 242.65 348.916 242.65C361.966 242.65 369.466 250.3 369.466 265.9V310H383.866V269.05C383.866 251.8 393.316 242.65 407.716 242.65C420.766 242.65 428.266 250.3 428.266 265.9V310H442.666V264.25C442.666 240.85 429.466 229.75 410.116 229.75ZM476.362 215.2C482.062 215.2 486.112 211 486.112 205.6C486.112 200.5 481.912 196.45 476.362 196.45C470.812 196.45 466.612 200.65 466.612 205.9C466.612 211.15 470.812 215.2 476.362 215.2ZM469.162 310H483.562V230.5H469.162V310ZM533.856 310.9C555.006 310.9 568.206 301.75 568.206 287.35C568.206 256.45 517.806 271.75 517.806 253C517.806 246.7 523.956 242.05 536.556 242.05C544.356 242.05 552.306 243.7 559.506 248.35L565.656 236.95C558.756 232.45 547.056 229.75 536.706 229.75C516.306 229.75 503.556 239.35 503.556 253.6C503.556 285.25 553.806 269.8 553.806 287.65C553.806 294.4 548.256 298.45 534.906 298.45C524.556 298.45 513.756 295 507.006 290.2L501.006 301.6C507.606 306.85 520.656 310.9 533.856 310.9ZM609.003 310.9C630.153 310.9 643.353 301.75 643.353 287.35C643.353 256.45 592.953 271.75 592.953 253C592.953 246.7 599.103 242.05 611.703 242.05C619.503 242.05 627.453 243.7 634.653 248.35L640.803 236.95C633.903 232.45 622.203 229.75 611.853 229.75C591.453 229.75 578.703 239.35 578.703 253.6C578.703 285.25 628.953 269.8 628.953 287.65C628.953 294.4 623.403 298.45 610.053 298.45C599.703 298.45 588.903 295 582.153 290.2L576.153 301.6C582.753 306.85 595.803 310.9 609.003 310.9ZM668.549 215.2C674.249 215.2 678.299 211 678.299 205.6C678.299 200.5 674.099 196.45 668.549 196.45C662.999 196.45 658.799 200.65 658.799 205.9C658.799 211.15 662.999 215.2 668.549 215.2ZM661.349 310H675.749V230.5H661.349V310ZM737.294 310.9C761.144 310.9 778.544 293.95 778.544 270.25C778.544 246.55 761.144 229.75 737.294 229.75C713.444 229.75 695.894 246.55 695.894 270.25C695.894 293.95 713.444 310.9 737.294 310.9ZM737.294 298.3C721.994 298.3 710.444 287.2 710.444 270.25C710.444 253.3 721.994 242.35 737.294 242.35C752.594 242.35 763.994 253.3 763.994 270.25C763.994 287.2 752.594 298.3 737.294 298.3ZM840.909 229.75C828.309 229.75 818.109 234.4 812.259 242.5V230.5H798.459V310H812.859V269.05C812.859 251.8 822.759 242.65 838.059 242.65C851.709 242.65 859.509 250.3 859.509 265.9V310H873.909V264.25C873.909 240.85 860.259 229.75 840.909 229.75Z" transform="translate(1369 2680)" fill="#61C4B9"/>
<circle cx="400" cy="400" r="390" transform="translate(1409 1801)" stroke="#61C4B9" stroke-width="20"/>
<path d="M237.155 70.2171C234.037 51.7357 224.862 34.8693 210.831 22.0699C195.24 7.83512 174.973 -2.28157e-07 153.866 -2.28157e-07C137.556 -2.28157e-07 121.666 4.66519 108.054 13.4573C96.7208 20.7541 87.3066 30.6228 80.6506 42.2259C77.7724 41.6876 74.7742 41.3886 71.7761 41.3886C46.2917 41.3886 25.5444 62.0829 25.5444 87.5022C25.5444 90.7918 25.9041 93.9617 26.5038 97.0718C10.0139 109.034 0 128.293 0 148.808C0 165.375 6.17622 181.464 17.4493 194.203C29.0222 207.242 44.3129 214.958 60.6229 215.855C60.8028 215.855 60.9227 215.855 61.1026 215.855H112.671C117.168 215.855 120.766 212.266 120.766 207.78C120.766 203.295 117.168 199.706 112.671 199.706H61.3424C36.8175 198.211 16.1901 174.945 16.1901 148.748C16.1901 131.821 25.3045 116.032 39.9955 107.479C43.4134 105.505 44.8525 101.378 43.5333 97.6699C42.3341 94.4402 41.7344 91.031 41.7344 87.3826C41.7344 70.875 55.2262 57.4177 71.7761 57.4177C75.3139 57.4177 78.7918 58.0158 82.0298 59.212C85.9874 60.6475 90.3647 58.8531 92.1636 55.0851C103.377 31.3405 127.602 16.0291 153.926 16.0291C189.304 16.0291 218.506 42.4652 221.864 77.5139C222.224 81.1623 224.982 84.093 228.58 84.6911C255.264 89.2367 275.411 113.819 275.411 141.87C275.411 171.595 251.966 197.433 223.063 199.646H178.87C174.373 199.646 170.775 203.235 170.775 207.721C170.775 212.206 174.373 215.795 178.87 215.795H223.363C223.543 215.795 223.723 215.795 223.963 215.795C242.252 214.479 259.341 206.106 272.053 192.11C284.706 178.234 291.601 160.411 291.601 141.87C291.542 108.316 268.576 78.4709 237.155 70.2171Z" transform="translate(1661.43 2076.92)" fill="#61C4B9" stroke="#61C4B9" stroke-width="5"/>
<path d="M99.5241 56.5804C102.702 53.4104 102.702 48.3266 99.5241 45.1566L56.6503 2.3924C55.1512 0.897148 53.0525 -3.65052e-06 50.9538 -3.65052e-06C48.8551 -3.65052e-06 46.7564 0.837338 45.2573 2.3924L2.38354 45.1566C-0.794515 48.3266 -0.794515 53.4104 2.38354 56.5804C3.94258 58.1354 6.0413 58.9728 8.08005 58.9728C10.1188 58.9728 12.2175 58.1952 13.7766 56.5804L42.8588 27.5725V160.889C42.8588 165.375 46.4566 168.964 50.9538 168.964C55.4511 168.964 59.0489 165.375 59.0489 160.889V27.5725L88.131 56.5804C91.2491 59.7503 96.346 59.7503 99.5241 56.5804Z" transform="translate(1756.31 2176.8)" fill="#61C4B9" stroke="#61C4B9" stroke-width="5"/>
<path d="M230.5 451C224.977 451 220.5 455.477 220.5 461C220.5 466.523 224.977 471 230.5 471V451ZM230.5 10C236.023 10 240.5 5.52285 240.5 0C240.5 -5.52285 236.023 -10 230.5 -10V10ZM303.316 4.18649C298.329 6.56061 296.211 12.5276 298.585 17.5141L337.274 98.7742C339.648 103.761 345.615 105.878 350.601 103.504C355.588 101.13 357.706 95.1633 355.332 90.1768L320.942 17.9456L393.173 -16.4442C398.16 -18.8183 400.277 -24.7853 397.903 -29.7718C395.529 -34.7583 389.562 -36.8761 384.576 -34.502L303.316 4.18649ZM146.26 452.814C151.361 450.699 153.782 444.848 151.667 439.747L117.195 356.61C115.08 351.508 109.229 349.087 104.128 351.203C99.0258 353.318 96.605 359.169 98.7203 364.27L129.362 438.17L55.4628 468.811C50.3612 470.927 47.9403 476.777 50.0556 481.879C52.171 486.981 58.0216 489.401 63.1233 487.286L146.26 452.814ZM451 230.5C451 352.279 352.279 451 230.5 451V471C363.324 471 471 363.324 471 230.5H451ZM10 230.5C10 108.721 108.721 10 230.5 10V-10C97.6755 -10 -10 97.6755 -10 230.5H10ZM304.27 22.6394C389.784 52.99 451 134.609 451 230.5H471C471 125.879 404.202 36.8847 310.959 3.79134L304.27 22.6394ZM146.253 434.337C66.2538 401.234 10 322.425 10 230.5H-10C-10 330.795 51.3907 416.728 138.606 452.817L146.253 434.337Z" transform="translate(1578 1980)" fill="#61C4B9"/>
<path d="M46.6889 146.2C74.4389 146.2 87.3389 132.4 87.3389 116.35C87.3389 77.8 23.7389 93.85 23.7389 68.2C23.7389 59.05 31.3889 51.55 49.2389 51.55C58.5389 51.55 68.8889 54.25 78.0389 60.1L82.9889 48.1C74.2889 42.1 61.5389 38.8 49.2389 38.8C21.6389 38.8 9.03887 52.6 9.03887 68.8C9.03887 107.8 72.6389 91.6 72.6389 117.25C72.6389 126.4 64.8389 133.45 46.6889 133.45C33.1889 133.45 19.8389 128.35 12.0389 121.3L6.48887 133C14.8889 140.8 30.6389 146.2 46.6889 146.2ZM141.803 145.9C156.053 145.9 167.903 139.9 174.203 128.8L163.253 121.9C158.153 129.7 150.353 133.3 141.653 133.3C126.053 133.3 114.353 122.5 114.353 105.25C114.353 88.3 126.053 77.35 141.653 77.35C150.353 77.35 158.153 80.95 163.253 88.75L174.203 81.7C167.903 70.6 156.053 64.75 141.803 64.75C117.353 64.75 99.8029 81.55 99.8029 105.25C99.8029 128.95 117.353 145.9 141.803 145.9ZM200.046 50.2C205.746 50.2 209.796 46 209.796 40.6C209.796 35.5 205.596 31.45 200.046 31.45C194.496 31.45 190.296 35.65 190.296 40.9C190.296 46.15 194.496 50.2 200.046 50.2ZM192.846 145H207.246V65.5H192.846V145ZM306.591 105.7C306.591 81.25 290.241 64.75 267.291 64.75C244.341 64.75 227.391 81.7 227.391 105.25C227.391 128.95 244.491 145.9 270.141 145.9C283.341 145.9 294.291 141.4 301.491 133L293.541 123.7C287.691 130.15 279.891 133.3 270.591 133.3C254.841 133.3 243.591 124 241.791 110.05H306.291C306.441 108.7 306.591 106.9 306.591 105.7ZM267.291 76.9C281.241 76.9 291.291 86.35 292.791 99.7H241.791C243.291 86.2 253.491 76.9 267.291 76.9ZM369.037 64.75C356.437 64.75 346.237 69.4 340.387 77.5V65.5H326.587V145H340.987V104.05C340.987 86.8 350.887 77.65 366.187 77.65C379.837 77.65 387.637 85.3 387.637 100.9V145H402.037V99.25C402.037 75.85 388.387 64.75 369.037 64.75ZM463.776 145.9C478.026 145.9 489.876 139.9 496.176 128.8L485.226 121.9C480.126 129.7 472.326 133.3 463.626 133.3C448.026 133.3 436.326 122.5 436.326 105.25C436.326 88.3 448.026 77.35 463.626 77.35C472.326 77.35 480.126 80.95 485.226 88.75L496.176 81.7C489.876 70.6 478.026 64.75 463.776 64.75C439.326 64.75 421.776 81.55 421.776 105.25C421.776 128.95 439.326 145.9 463.776 145.9ZM585.497 105.7C585.497 81.25 569.147 64.75 546.197 64.75C523.247 64.75 506.297 81.7 506.297 105.25C506.297 128.95 523.397 145.9 549.047 145.9C562.247 145.9 573.197 141.4 580.397 133L572.447 123.7C566.597 130.15 558.797 133.3 549.497 133.3C533.747 133.3 522.497 124 520.697 110.05H585.197C585.347 108.7 585.497 106.9 585.497 105.7ZM546.197 76.9C560.147 76.9 570.197 86.35 571.697 99.7H520.697C522.197 86.2 532.397 76.9 546.197 76.9ZM695.276 146.2C727.226 146.2 750.926 123.4 750.926 92.5C750.926 61.6 727.226 38.8 695.276 38.8C663.026 38.8 639.326 61.75 639.326 92.5C639.326 123.25 663.026 146.2 695.276 146.2ZM695.276 132.85C671.726 132.85 654.326 115.75 654.326 92.5C654.326 69.25 671.726 52.15 695.276 52.15C718.526 52.15 735.926 69.25 735.926 92.5C735.926 115.75 718.526 132.85 695.276 132.85ZM800.853 44.65C805.053 44.65 808.953 46.15 811.953 48.4L816.303 37.45C812.253 34.3 806.253 32.8 800.103 32.8C783.153 32.8 773.853 43 773.853 58.45V65.5H760.353V77.35H773.853V145H788.253V77.35H811.053V65.5H787.953V58.6C787.953 49.45 792.303 44.65 800.853 44.65ZM896.783 50.2C902.483 50.2 906.533 46 906.533 40.6C906.533 35.5 902.333 31.45 896.783 31.45C891.233 31.45 887.033 35.65 887.033 40.9C887.033 46.15 891.233 50.2 896.783 50.2ZM826.733 58.45V65.5H813.233V77.35H826.733V145H841.133V77.35H863.933V65.5H840.833V58.6C840.833 49.45 845.183 44.65 853.733 44.65C857.933 44.65 861.833 46.15 864.833 48.4L869.183 37.45C865.133 34.3 859.133 32.8 852.983 32.8C836.033 32.8 826.733 43 826.733 58.45ZM889.583 145H903.983V65.5H889.583V145ZM966.071 145.9C980.321 145.9 992.171 139.9 998.471 128.8L987.521 121.9C982.421 129.7 974.621 133.3 965.921 133.3C950.321 133.3 938.621 122.5 938.621 105.25C938.621 88.3 950.321 77.35 965.921 77.35C974.621 77.35 982.421 80.95 987.521 88.75L998.471 81.7C992.171 70.6 980.321 64.75 966.071 64.75C941.621 64.75 924.071 81.55 924.071 105.25C924.071 128.95 941.621 145.9 966.071 145.9ZM1087.79 105.7C1087.79 81.25 1071.44 64.75 1048.49 64.75C1025.54 64.75 1008.59 81.7 1008.59 105.25C1008.59 128.95 1025.69 145.9 1051.34 145.9C1064.54 145.9 1075.49 141.4 1082.69 133L1074.74 123.7C1068.89 130.15 1061.09 133.3 1051.79 133.3C1036.04 133.3 1024.79 124 1022.99 110.05H1087.49C1087.64 108.7 1087.79 106.9 1087.79 105.7ZM1048.49 76.9C1062.44 76.9 1072.49 86.35 1073.99 99.7H1022.99C1024.49 86.2 1034.69 76.9 1048.49 76.9ZM1121.59 78.85V65.5H1107.79V145H1122.19V105.4C1122.19 88 1131.79 78.55 1147.24 78.55C1148.29 78.55 1149.34 78.55 1150.54 78.7V64.75C1136.59 64.75 1126.69 69.55 1121.59 78.85ZM400.759 311.2C417.109 311.2 431.209 305.5 440.809 294.7L431.059 285.25C422.959 293.8 413.059 297.85 401.509 297.85C377.809 297.85 360.259 280.75 360.259 257.5C360.259 234.25 377.809 217.15 401.509 217.15C413.059 217.15 422.959 221.05 431.059 229.6L440.809 220.15C431.209 209.35 417.109 203.8 400.909 203.8C368.959 203.8 345.259 226.45 345.259 257.5C345.259 288.55 368.959 311.2 400.759 311.2ZM502.557 229.75C490.407 229.75 480.507 234.1 474.507 241.75V198.7H460.107V310H474.507V269.05C474.507 251.8 484.407 242.65 499.707 242.65C513.357 242.65 521.157 250.3 521.157 265.9V310H535.557V264.25C535.557 240.85 521.907 229.75 502.557 229.75ZM634.496 270.7C634.496 246.25 618.146 229.75 595.196 229.75C572.246 229.75 555.296 246.7 555.296 270.25C555.296 293.95 572.396 310.9 598.046 310.9C611.246 310.9 622.196 306.4 629.396 298L621.446 288.7C615.596 295.15 607.796 298.3 598.496 298.3C582.746 298.3 571.496 289 569.696 275.05H634.196C634.346 273.7 634.496 271.9 634.496 270.7ZM595.196 241.9C609.146 241.9 619.196 251.35 620.696 264.7H569.696C571.196 251.2 581.396 241.9 595.196 241.9ZM689.142 310.9C703.392 310.9 715.242 304.9 721.542 293.8L710.592 286.9C705.492 294.7 697.692 298.3 688.992 298.3C673.392 298.3 661.692 287.5 661.692 270.25C661.692 253.3 673.392 242.35 688.992 242.35C697.692 242.35 705.492 245.95 710.592 253.75L721.542 246.7C715.242 235.6 703.392 229.75 689.142 229.75C664.692 229.75 647.142 246.55 647.142 270.25C647.142 293.95 664.692 310.9 689.142 310.9ZM799.91 310H817.61L780.86 263.35L814.31 230.5H796.91L753.56 270.1V198.7H739.16V310H753.56V288.25L770.06 272.95L799.91 310Z" transform="translate(473 4036)" fill="#7C4198"/>
<circle cx="400" cy="400" r="390" transform="translate(648 3157)" stroke="#7C4198" stroke-width="20"/>
<path d="M215.158 153.179C215.158 193.571 203.112 229.739 184.127 255.571C165.138 281.408 139.726 296.358 112.579 296.358C85.4327 296.358 60.0204 281.408 41.0315 255.571C22.0462 229.739 10 193.571 10 153.179C10 112.788 22.0462 76.6192 41.0315 50.7872C60.0204 24.9503 85.4327 10 112.579 10C139.726 10 165.138 24.9503 184.127 50.7872C203.112 76.6192 215.158 112.788 215.158 153.179Z" transform="translate(1198.53 3291) scale(-1 1)" stroke="#7C4198" stroke-width="20"/>
<path d="M386 254.738C374 210.738 418.889 6.48953e-05 181.426 0C46.8228 -3.67851e-05 9.38377 125.391 0 210.738" transform="translate(1279 3655.26) scale(-1 1)" stroke="#7C4198" stroke-width="20"/>
<path d="M23.3222 -1.55803e-06C10.4626 -1.55803e-06 1.16629e-06 10.4826 1.16629e-06 23.3669C1.16629e-06 36.2519 10.4626 46.7342 23.3222 46.7342C36.1829 46.7342 46.6455 36.2515 46.6455 23.3669C46.6451 10.4826 36.1829 -1.55803e-06 23.3222 -1.55803e-06ZM23.3222 37.8923C15.3282 37.8923 8.82491 31.3763 8.82491 23.3669C8.82491 15.3575 15.3285 8.84184 23.3222 8.84184C31.3162 8.84184 37.8202 15.3579 37.8202 23.3669C37.8202 31.3759 31.3166 37.8923 23.3222 37.8923Z" transform="translate(1066.42 3779.58)" fill="#ED2C75" stroke="#7C4198" stroke-width="7"/>
<path d="M180.574 53.5257C182.292 40.8793 180.32 30.1226 174.871 22.1771C175.763 20.2048 176.264 18.0187 176.264 15.7163C176.264 7.05035 169.227 2.90778e-08 160.577 2.90778e-08C154.732 2.90778e-08 149.627 3.2224 146.929 7.98456C132.151 7.24464 114.058 12.685 95.3299 23.525C63.3544 5.00998 34.404 2.78596 19.3862 17.8379C12.8593 24.3774 9.47885 33.7343 9.49442 45.0388C3.91546 47.45 0 53.0127 0 59.4763C0 68.1423 7.03686 75.1926 15.6863 75.1926C15.7772 75.1926 15.8667 75.1873 15.9573 75.1855C18.3699 81.3332 21.4216 87.6146 25.0621 93.9271C6.5825 125.964 4.36309 154.969 19.3855 170.016C26.013 176.658 35.3503 179.937 46.4653 179.936C60.5398 179.936 77.4638 174.674 95.3295 164.33C113.197 174.675 130.119 179.936 144.195 179.936C155.309 179.936 164.65 176.658 171.278 170.017C186.299 154.967 184.076 125.959 165.591 93.9247C173.722 79.8233 178.893 65.902 180.574 53.5257ZM160.577 8.84183C164.36 8.84183 167.439 11.926 167.439 15.7163C167.439 19.5067 164.36 22.5908 160.577 22.5908C156.794 22.5908 153.716 19.5067 153.716 15.7163C153.716 11.926 156.794 8.84183 160.577 8.84183ZM144.929 16.7597C145.468 24.9407 152.278 31.433 160.577 31.433C163.582 31.433 166.391 30.5807 168.779 29.1072C172.045 35.0493 173.101 42.9725 171.83 52.3341C170.465 62.3828 166.492 73.6749 160.273 85.3147C153.183 74.541 144.663 64.1403 134.862 54.3199C125.062 44.5006 114.678 35.9615 103.919 28.852C118.983 20.7586 133.21 16.5608 144.929 16.7597ZM15.6863 66.3508C11.9031 66.3508 8.82491 63.267 8.82491 59.4763C8.82491 55.6859 11.9031 52.6018 15.6863 52.6018C19.4694 52.6018 22.5476 55.6859 22.5476 59.4763C22.548 63.2667 19.4697 66.3508 15.6863 66.3508ZM24.4078 72.5325C28.605 69.709 31.3729 64.9107 31.3729 59.4763C31.3729 51.7108 25.7203 45.2462 18.3222 43.9862C18.5009 35.562 20.991 28.7346 25.6265 24.0898C36.9097 12.7818 60.4513 14.7701 86.7339 28.8566C75.9773 35.9651 65.5964 44.5027 55.798 54.3199C45.9983 64.1385 37.4766 74.5403 30.3817 85.3179C28.077 81.0046 26.0823 76.731 24.4078 72.5325ZM25.6255 163.764C14.3391 152.46 16.3236 128.873 30.3831 102.54C37.4777 113.317 45.999 123.718 55.7977 133.535C65.5964 143.353 75.9773 151.89 86.7335 158.999C60.4509 173.084 36.9097 175.072 25.6255 163.764ZM62.0384 127.283C51.5255 116.75 42.5577 105.54 35.3499 93.9271C42.557 82.3149 51.5252 71.1048 62.0384 60.5715C72.5512 50.0385 83.7399 41.0531 95.3302 33.8318C106.92 41.0534 118.109 50.0385 128.622 60.5715C139.138 71.108 148.105 82.3178 155.306 93.9271C148.105 105.536 139.138 116.746 128.622 127.283C118.109 137.816 106.92 146.801 95.3302 154.022C83.7402 146.801 72.5508 137.816 62.0384 127.283ZM165.037 163.764C153.751 175.072 130.208 173.084 103.926 158.998C114.682 151.89 125.063 143.353 134.862 133.535C144.663 123.715 153.183 113.314 160.273 102.541C174.335 128.872 176.322 152.459 165.037 163.764Z" transform="translate(994.41 3709.02)" fill="#ED2C75" stroke="#7C4198" stroke-width="7"/>
<circle cx="117.5" cy="117.5" r="107.5" transform="translate(798 3395)" fill="white" stroke="#7C4198" stroke-width="20"/>
<path d="M0 33L42 70L84 0" transform="translate(869 3482)" stroke="#7C4198" stroke-width="20" stroke-linecap="round"/>
<rect x="10" y="10" width="264" height="381" rx="20" transform="translate(1174.52 662) rotate(13.1924)" fill="white" stroke="#ED2C75" stroke-width="20"/>
<rect x="10" y="10" width="264" height="381" rx="20" transform="translate(1118.77 668.58) rotate(3.2991)" fill="white" stroke="#ED2C75" stroke-width="20"/>
<rect x="10" y="10" width="264" height="381" rx="20" transform="translate(1077 657)" fill="white" stroke="#ED2C75" stroke-width="20"/>
<path d="M146.112 70.6443H80.2426V4.79005C80.2426 2.12891 78.1132 -5.4141e-07 75.4514 -5.4141e-07C33.8573 -5.4141e-07 2.64416e-10 33.8497 2.64416e-10 75.4344C2.64416e-10 117.019 33.8573 150.869 75.4514 150.869C117.046 150.869 150.903 117.019 150.903 75.4344C150.903 72.8087 148.738 70.6443 146.112 70.6443ZM75.4514 141.289C39.1453 141.289 9.58226 111.732 9.58226 75.4344C9.58226 40.7331 36.5545 12.2057 70.6603 9.7575V75.4344C70.6603 78.0955 72.7897 80.2244 75.4514 80.2244H141.143C138.694 114.322 110.161 141.289 75.4514 141.289Z" transform="translate(1137 730.131)" fill="#ED2C75" stroke="#ED2C75" stroke-width="5"/>
<path d="M80.2426 75.186C80.1716 56.8774 73.464 39.2429 61.362 25.5114C47.0241 9.29624 26.4399 0 4.79113 0C2.12939 0 -2.16613e-06 2.12891 -2.16613e-06 4.79005V75.4344C-2.16613e-06 78.0955 2.12939 80.2244 4.79113 80.2244H75.4514C78.1132 80.2244 80.2426 78.0955 80.2426 75.4344C80.2426 75.3634 80.2426 75.2924 80.2426 75.186ZM9.58226 70.6798V9.79299C26.6884 11.0348 42.7298 18.9473 54.1575 31.8982C63.7398 42.7201 69.4182 56.3451 70.4829 70.6798H9.58226Z" transform="translate(1225.76 712)" fill="#ED2C75" stroke="#ED2C75" stroke-width="5"/>
<path d="M102.666 145L77.7662 109.75C92.4662 104.5 100.866 92.8 100.866 76.6C100.866 53.8 84.3662 40 57.0662 40H16.1162V145H31.1162V113.05H57.0662C59.3162 113.05 61.5662 112.9 63.6662 112.75L86.3162 145H102.666ZM56.6162 100.3H31.1162V53.05H56.6162C75.8162 53.05 85.8662 61.6 85.8662 76.6C85.8662 91.6 75.8162 100.3 56.6162 100.3ZM194.851 105.7C194.851 81.25 178.501 64.75 155.551 64.75C132.601 64.75 115.651 81.7 115.651 105.25C115.651 128.95 132.751 145.9 158.401 145.9C171.601 145.9 182.551 141.4 189.751 133L181.801 123.7C175.951 130.15 168.151 133.3 158.851 133.3C143.101 133.3 131.851 124 130.051 110.05H194.551C194.701 108.7 194.851 106.9 194.851 105.7ZM155.551 76.9C169.501 76.9 179.551 86.35 181.051 99.7H130.051C131.551 86.2 141.751 76.9 155.551 76.9ZM256.996 64.75C245.296 64.75 235.096 69.25 228.646 78.1V65.5H214.846V174.1H229.246V133C235.846 141.55 245.746 145.9 256.996 145.9C280.246 145.9 297.196 129.7 297.196 105.25C297.196 80.95 280.246 64.75 256.996 64.75ZM255.796 133.3C240.646 133.3 229.096 122.2 229.096 105.25C229.096 88.45 240.646 77.35 255.796 77.35C271.096 77.35 282.646 88.45 282.646 105.25C282.646 122.2 271.096 133.3 255.796 133.3ZM351.142 145.9C374.992 145.9 392.392 128.95 392.392 105.25C392.392 81.55 374.992 64.75 351.142 64.75C327.292 64.75 309.742 81.55 309.742 105.25C309.742 128.95 327.292 145.9 351.142 145.9ZM351.142 133.3C335.842 133.3 324.292 122.2 324.292 105.25C324.292 88.3 335.842 77.35 351.142 77.35C366.442 77.35 377.842 88.3 377.842 105.25C377.842 122.2 366.442 133.3 351.142 133.3ZM426.107 78.85V65.5H412.307V145H426.707V105.4C426.707 88 436.307 78.55 451.757 78.55C452.807 78.55 453.857 78.55 455.057 78.7V64.75C441.107 64.75 431.207 69.55 426.107 78.85ZM516.228 130C513.228 132.4 509.178 133.75 504.978 133.75C497.028 133.75 492.528 128.95 492.528 120.4V77.35H515.328V65.5H492.528V48.1H478.128V65.5H464.628V77.35H478.128V121C478.128 137.05 487.278 145.9 503.328 145.9C509.778 145.9 516.378 144.1 520.728 140.35L516.228 130ZM560.937 145.9C582.087 145.9 595.287 136.75 595.287 122.35C595.287 91.45 544.887 106.75 544.887 88C544.887 81.7 551.037 77.05 563.637 77.05C571.437 77.05 579.387 78.7 586.587 83.35L592.737 71.95C585.837 67.45 574.137 64.75 563.787 64.75C543.387 64.75 530.637 74.35 530.637 88.6C530.637 120.25 580.887 104.8 580.887 122.65C580.887 129.4 575.337 133.45 561.987 133.45C551.637 133.45 540.837 130 534.087 125.2L528.087 136.6C534.687 141.85 547.737 145.9 560.937 145.9Z" transform="translate(964 1321)" fill="#ED2C75"/>
<circle cx="400" cy="400" r="390" transform="translate(861 464)" stroke="#ED2C75" stroke-width="20"/>
<line x1="10" y1="-10" x2="153" y2="-10" transform="translate(1137 924)" stroke="#ED2C75" stroke-width="20" stroke-linecap="round"/>
<line x1="10" y1="-10" x2="153" y2="-10" transform="translate(1137 963)" stroke="#ED2C75" stroke-width="20" stroke-linecap="round"/>
<line x1="10" y1="-10" x2="153" y2="-10" transform="translate(1137 1000)" stroke="#ED2C75" stroke-width="20" stroke-linecap="round"/>
<rect x="10" y="10" width="164" height="240" rx="20" transform="translate(437 2000)" stroke="#ED2C75" stroke-width="20"/>
<line x1="10" y1="-10" x2="101.437" y2="-10" transform="translate(473.281 2152)" stroke="#ED2C75" stroke-width="20" stroke-linecap="round"/>
<line x1="10" y1="-10" x2="101.437" y2="-10" transform="translate(473.281 2184)" stroke="#ED2C75" stroke-width="20" stroke-linecap="round"/>
<line x1="10" y1="-10" x2="101.437" y2="-10" transform="translate(473.281 2217)" stroke="#ED2C75" stroke-width="20" stroke-linecap="round"/>
<line x1="10" y1="-10" x2="22" y2="-10" transform="translate(553 2087)" stroke="#ED2C75" stroke-width="20" stroke-linecap="round"/>
<line x1="10" y1="-10" x2="22" y2="-10" transform="translate(553 2117)" stroke="#ED2C75" stroke-width="20" stroke-linecap="round"/>
<line x1="10" y1="-10" x2="22" y2="-10" transform="translate(553 2057)" stroke="#ED2C75" stroke-width="20" stroke-linecap="round"/>
<rect width="42" height="60" transform="translate(484 2048)" stroke="#ED2C75" stroke-width="20" stroke-linecap="round" stroke-linejoin="round"/>
<circle cx="400" cy="400" r="390" transform="translate(115 1736)" stroke="#ED2C75" stroke-width="20"/>
<path d="M263.363 146.2C284.813 146.2 296.213 134.65 296.213 111.25V40H243.413V53.05H281.363V112C281.363 126.1 275.213 133.3 263.363 133.3C254.513 133.3 247.163 128.95 241.463 120.85L232.763 131.05C239.513 140.8 250.913 146.2 263.363 146.2ZM358.718 145.9C382.568 145.9 399.968 128.95 399.968 105.25C399.968 81.55 382.568 64.75 358.718 64.75C334.868 64.75 317.318 81.55 317.318 105.25C317.318 128.95 334.868 145.9 358.718 145.9ZM358.718 133.3C343.418 133.3 331.868 122.2 331.868 105.25C331.868 88.3 343.418 77.35 358.718 77.35C374.018 77.35 385.418 88.3 385.418 105.25C385.418 122.2 374.018 133.3 358.718 133.3ZM479.582 65.5V106.6C479.582 123.7 469.982 133 454.982 133C441.332 133 433.532 125.2 433.532 109.6V65.5H419.132V111.25C419.132 134.65 432.782 145.9 453.332 145.9C464.582 145.9 474.482 141.25 480.332 133V145H493.982V65.5H479.582ZM535.196 78.85V65.5H521.396V145H535.796V105.4C535.796 88 545.396 78.55 560.846 78.55C561.896 78.55 562.946 78.55 564.146 78.7V64.75C550.196 64.75 540.296 69.55 535.196 78.85ZM624.344 64.75C611.744 64.75 601.544 69.4 595.694 77.5V65.5H581.894V145H596.294V104.05C596.294 86.8 606.194 77.65 621.494 77.65C635.144 77.65 642.944 85.3 642.944 100.9V145H657.344V99.25C657.344 75.85 643.694 64.75 624.344 64.75ZM712.944 64.75C700.194 64.75 688.344 68.35 680.094 74.95L686.094 85.75C692.244 80.5 701.844 77.2 711.294 77.2C725.544 77.2 732.594 84.25 732.594 96.4V99.25H709.794C686.094 99.25 677.844 109.75 677.844 122.5C677.844 136.3 689.244 145.9 707.244 145.9C719.694 145.9 728.544 141.7 733.344 134.5V145H746.994V97C746.994 75.25 734.694 64.75 712.944 64.75ZM709.644 134.8C698.694 134.8 692.094 129.85 692.094 121.9C692.094 115.15 696.144 109.6 710.394 109.6H732.594V120.7C728.994 129.85 720.444 134.8 709.644 134.8ZM773.642 145H788.042V33.7H773.642V145ZM127.751 310L127.601 205H115.301L72.101 278.8L28.301 205H16.001V310H30.401V233.95L68.351 297.25H75.251L113.201 233.5L113.351 310H127.751ZM186.113 229.75C173.363 229.75 161.513 233.35 153.263 239.95L159.263 250.75C165.413 245.5 175.013 242.2 184.463 242.2C198.713 242.2 205.763 249.25 205.763 261.4V264.25H182.963C159.263 264.25 151.013 274.75 151.013 287.5C151.013 301.3 162.413 310.9 180.413 310.9C192.863 310.9 201.713 306.7 206.513 299.5V310H220.163V262C220.163 240.25 207.863 229.75 186.113 229.75ZM182.813 299.8C171.863 299.8 165.263 294.85 165.263 286.9C165.263 280.15 169.313 274.6 183.563 274.6H205.763V285.7C202.163 294.85 193.613 299.8 182.813 299.8ZM289.261 229.75C276.661 229.75 266.461 234.4 260.611 242.5V230.5H246.811V310H261.211V269.05C261.211 251.8 271.111 242.65 286.411 242.65C300.061 242.65 307.861 250.3 307.861 265.9V310H322.261V264.25C322.261 240.85 308.611 229.75 289.261 229.75ZM377.861 229.75C365.111 229.75 353.261 233.35 345.011 239.95L351.011 250.75C357.161 245.5 366.761 242.2 376.211 242.2C390.461 242.2 397.511 249.25 397.511 261.4V264.25H374.711C351.011 264.25 342.761 274.75 342.761 287.5C342.761 301.3 354.161 310.9 372.161 310.9C384.611 310.9 393.461 306.7 398.261 299.5V310H411.911V262C411.911 240.25 399.611 229.75 377.861 229.75ZM374.561 299.8C363.611 299.8 357.011 294.85 357.011 286.9C357.011 280.15 361.061 274.6 375.311 274.6H397.511V285.7C393.911 294.85 385.361 299.8 374.561 299.8ZM501.399 230.5V242.8C494.649 234.1 483.849 229.75 471.999 229.75C449.049 229.75 431.649 245.2 431.649 268.15C431.649 291.1 449.049 306.7 471.999 306.7C483.399 306.7 493.749 302.65 500.649 294.4V300.7C500.649 318.7 492.099 327.4 473.349 327.4C461.649 327.4 450.099 323.35 442.749 317.05L435.849 328.15C444.549 335.95 459.249 340 473.799 340C500.799 340 515.049 327.25 515.049 299.2V230.5H501.399ZM473.649 294.1C457.599 294.1 446.199 283.45 446.199 268.15C446.199 252.7 457.599 242.35 473.649 242.35C489.549 242.35 500.949 252.7 500.949 268.15C500.949 283.45 489.549 294.1 473.649 294.1ZM614.413 270.7C614.413 246.25 598.063 229.75 575.113 229.75C552.163 229.75 535.213 246.7 535.213 270.25C535.213 293.95 552.313 310.9 577.963 310.9C591.163 310.9 602.113 306.4 609.313 298L601.363 288.7C595.513 295.15 587.713 298.3 578.413 298.3C562.663 298.3 551.413 289 549.613 275.05H614.113C614.263 273.7 614.413 271.9 614.413 270.7ZM575.113 241.9C589.063 241.9 599.113 251.35 600.613 264.7H549.613C551.113 251.2 561.313 241.9 575.113 241.9ZM733.859 229.75C720.359 229.75 709.259 235.45 703.259 244.45C698.009 234.55 687.809 229.75 675.659 229.75C663.659 229.75 653.909 234.25 648.209 242.35V230.5H634.409V310H648.809V269.05C648.809 251.8 658.259 242.65 672.659 242.65C685.709 242.65 693.209 250.3 693.209 265.9V310H707.609V269.05C707.609 251.8 717.059 242.65 731.459 242.65C744.509 242.65 752.009 250.3 752.009 265.9V310H766.409V264.25C766.409 240.85 753.209 229.75 733.859 229.75ZM865.194 270.7C865.194 246.25 848.844 229.75 825.894 229.75C802.944 229.75 785.994 246.7 785.994 270.25C785.994 293.95 803.094 310.9 828.744 310.9C841.944 310.9 852.894 306.4 860.094 298L852.144 288.7C846.294 295.15 838.494 298.3 829.194 298.3C813.444 298.3 802.194 289 800.394 275.05H864.894C865.044 273.7 865.194 271.9 865.194 270.7ZM825.894 241.9C839.844 241.9 849.894 251.35 851.394 264.7H800.394C801.894 251.2 812.094 241.9 825.894 241.9ZM927.64 229.75C915.04 229.75 904.84 234.4 898.99 242.5V230.5H885.19V310H899.59V269.05C899.59 251.8 909.49 242.65 924.79 242.65C938.44 242.65 946.24 250.3 946.24 265.9V310H960.64V264.25C960.64 240.85 946.99 229.75 927.64 229.75ZM1027.49 295C1024.49 297.4 1020.44 298.75 1016.24 298.75C1008.29 298.75 1003.79 293.95 1003.79 285.4V242.35H1026.59V230.5H1003.79V213.1H989.39V230.5H975.89V242.35H989.39V286C989.39 302.05 998.54 310.9 1014.59 310.9C1021.04 310.9 1027.64 309.1 1031.99 305.35L1027.49 295Z" transform="translate(0 2593)" fill="#ED2C75"/>
<circle cx="209.5" cy="209.5" r="199.5" transform="translate(319 1927)" stroke="#ED2C75" stroke-width="20"/>
<circle cx="46.5" cy="46.5" r="36.5" transform="translate(569 1812)" stroke="#ED2C75" stroke-width="20"/>
<circle cx="46.5" cy="46.5" r="36.5" transform="translate(412 2381)" stroke="#ED2C75" stroke-width="20"/>
<circle cx="34" cy="34" r="24" transform="translate(304 1858)" stroke="#ED2C75" stroke-width="20"/>
<circle cx="34" cy="34" r="24" transform="translate(776 2014)" stroke="#ED2C75" stroke-width="20"/>
<circle cx="61" cy="61" r="51" transform="translate(197 2217)" stroke="#ED2C75" stroke-width="20"/>
<path d="M139 26.7273C124.446 10.3375 103.151 0 79.4253 0C35.5599 0 0 35.3377 0 78.929C0 105.933 13.6463 129.769 34.4597 144" transform="translate(706 2309)" stroke="#ED2C75" stroke-width="20"/>
<path d="M107.1 20.5934C95.886 7.96508 79.4777 0 61.1973 0C27.399 0 0 27.2278 0 60.8149C0 81.6215 10.5145 99.9875 26.5512 110.952" transform="translate(240.25 2046.29) rotate(151.267)" stroke="#ED2C75" stroke-width="20"/>
<path d="M0 0L50 62" transform="translate(352 1913)" stroke="#ED2C75" stroke-width="20"/>
<path d="M0 0L116 30" transform="translate(222 2038)" stroke="#ED2C75" stroke-width="20"/>
<path d="M0 0L39.7296 51.3444" transform="translate(606.793 1884) rotate(60.1834)" stroke="#ED2C75" stroke-width="20"/>
<path d="M21.6634 0L0 65.9572" transform="translate(774.227 2036.2) rotate(60.1834)" stroke="#ED2C75" stroke-width="20"/>
<path d="M77.0558 0L0 23.8428" transform="translate(688.688 2266.14) rotate(60.1834)" stroke="#ED2C75" stroke-width="20"/>
<path d="M43.7313 42.3506L0 0" transform="translate(480 2329) rotate(60.1834)" stroke="#ED2C75" stroke-width="20"/>
<path d="M5.96589 50.7496L0 0" transform="translate(351 2235) scale(-1 1) rotate(-60.1834)" stroke="#ED2C75" stroke-width="20"/>
<circle cx="400" cy="400" r="390" transform="translate(4989 1498)" stroke="#4F4F4F" stroke-width="20"/>
<line x1="10" y1="-10" x2="1456.7" y2="-10" transform="translate(4989 1899) rotate(174.504)" stroke="#61C4B9" stroke-width="20" stroke-linecap="round"/>
<line x1="10" y1="-10" x2="2079.87" y2="-10" transform="translate(5058.96 2107) rotate(144.385)" stroke="#61C4B9" stroke-width="20" stroke-linecap="round"/>
<line x1="10" y1="-10" x2="228.248" y2="-10" transform="translate(2744 3785) rotate(146.643)" stroke="#61C4B9" stroke-width="20" stroke-linecap="round"/>
<line x1="10" y1="-10" x2="374.981" y2="-10" transform="translate(2581 2140) rotate(175.907)" stroke="#61C4B9" stroke-width="20" stroke-linecap="round"/>
</svg>
